%
M48
M72
T01C0.02362
T02C0.02400
T03C0.02756
T04C0.03000
T05C0.03150
T06C0.03200
T07C0.03543
T08C0.04000
T09C0.04724
%
T01
X21800Y32524
X106800Y72524
X111800Y97524
X126800Y27524
X171800Y177524
X156800Y287524
X106800Y317524
X51800Y307524
X71800Y242524
X56800Y167524
T02
X211200Y310924
T03
X116800Y52524
X116800Y42524
X176800Y192524
X176800Y202524
X151800Y202524
X151800Y192524
T04
X34300Y332524
X39300Y322524
X44300Y332524
X49300Y322524
T05
X36800Y22524
X46800Y22524
X56800Y22524
X66800Y22524
T06
X21800Y322524
X36800Y312524
X21800Y292524
X36800Y282524
X166800Y277524
X186800Y277524
X186800Y247524
X191800Y227524
X166800Y247524
X161800Y227524
X156800Y167524
X171800Y157524
X181800Y157524
X191800Y157524
X196800Y127524
X196800Y112524
X196800Y102524
X176800Y102524
X176800Y112524
X166800Y127524
X156800Y137524
X151800Y127524
X156800Y112524
X156800Y102524
X136800Y102524
X136800Y112524
X121800Y127524
X111800Y137524
X121800Y157524
X131800Y157524
X141800Y157524
X111800Y167524
X71800Y142524
X71800Y122524
X71800Y102524
X71800Y77524
X96800Y82524
X96800Y52524
X136800Y72524
X156800Y72524
X176800Y72524
X196800Y72524
X41800Y77524
X36800Y57524
X36800Y47524
X36800Y37524
X41800Y102524
X41800Y122524
X41800Y142524
T07
X144595Y237524
X119005Y237524
X112800Y197524
X140800Y197524
T08
X21800Y102524
X21800Y112524
X21800Y122524
X21800Y132524
X21800Y142524
X21800Y152524
X21800Y162524
X21800Y172524
X21800Y182524
X21800Y192524
X21800Y207524
X21800Y217524
X21800Y227524
X21800Y237524
X21800Y247524
X21800Y257524
X21800Y267524
X21800Y277524
X46800Y277524
X56800Y277524
X66800Y277524
X76800Y277524
X86800Y277524
X96800Y277524
X211800Y277524
X211800Y267524
X211800Y257524
X211800Y247524
X211800Y237524
X211800Y227524
X211800Y207524
X211800Y197524
X211800Y187524
X211800Y177524
X211800Y167524
X211800Y157524
X211800Y147524
X211800Y137524
X211800Y122524
X211800Y112524
X211800Y102524
X106800Y22524
X96800Y22524
X86800Y22524
T09
X156800Y51382
X156800Y23823
X201800Y23823
X201800Y51382
X191800Y308665
X191800Y336224
X131800Y336224
X131800Y308665
X71800Y308665
X71800Y336224
M30
