G75*
%MOIN*%
%OFA0B0*%
%FSLAX25Y25*%
%IPPOS*%
%LPD*%
%AMOC8*
5,1,8,0,0,1.08239X$1,22.5*
%
%ADD10C,0.05150*%
%ADD11C,0.07400*%
%ADD12C,0.06000*%
%ADD13OC8,0.06000*%
%ADD14C,0.07087*%
%ADD15C,0.07000*%
%ADD16C,0.01200*%
%ADD17C,0.03765*%
D10*
X0111600Y0327524D03*
X0121600Y0327524D03*
D11*
X0206600Y0277524D03*
X0206600Y0267524D03*
X0206600Y0257524D03*
X0206600Y0247524D03*
X0206600Y0237524D03*
X0206600Y0227524D03*
X0206600Y0207524D03*
X0206600Y0197524D03*
X0206600Y0187524D03*
X0206600Y0177524D03*
X0206600Y0167524D03*
X0206600Y0157524D03*
X0206600Y0147524D03*
X0206600Y0137524D03*
X0016600Y0142524D03*
X0016600Y0152524D03*
X0016600Y0162524D03*
X0016600Y0172524D03*
X0016600Y0182524D03*
X0016600Y0192524D03*
X0016600Y0207524D03*
X0016600Y0217524D03*
X0016600Y0227524D03*
X0016600Y0237524D03*
X0016600Y0247524D03*
X0016600Y0257524D03*
X0016600Y0267524D03*
X0016600Y0277524D03*
X0016600Y0132524D03*
X0016600Y0122524D03*
X0016600Y0112524D03*
X0016600Y0102524D03*
D12*
X0076600Y0327524D03*
X0086600Y0327524D03*
X0096600Y0327524D03*
D13*
X0091600Y0122524D03*
X0081600Y0122524D03*
X0071600Y0122524D03*
X0061600Y0122524D03*
X0051600Y0122524D03*
X0101600Y0122524D03*
D14*
X0103057Y0102524D02*
X0110143Y0102524D01*
X0123057Y0106899D02*
X0130143Y0106899D01*
X0110143Y0086899D02*
X0103057Y0086899D01*
X0103057Y0075024D02*
X0110143Y0075024D01*
X0075143Y0106899D02*
X0068057Y0106899D01*
X0055143Y0102524D02*
X0048057Y0102524D01*
X0048057Y0086899D02*
X0055143Y0086899D01*
X0055143Y0075024D02*
X0048057Y0075024D01*
X0158057Y0075024D02*
X0165143Y0075024D01*
X0165143Y0086899D02*
X0158057Y0086899D01*
X0158057Y0102524D02*
X0165143Y0102524D01*
X0178057Y0106899D02*
X0185143Y0106899D01*
X0213057Y0102524D02*
X0220143Y0102524D01*
X0233057Y0106899D02*
X0240143Y0106899D01*
X0220143Y0086899D02*
X0213057Y0086899D01*
X0213057Y0075024D02*
X0220143Y0075024D01*
X0200143Y0298149D02*
X0193057Y0298149D01*
X0213057Y0302524D02*
X0220143Y0302524D01*
X0220143Y0318149D02*
X0213057Y0318149D01*
X0213057Y0330024D02*
X0220143Y0330024D01*
X0165143Y0330024D02*
X0158057Y0330024D01*
X0158057Y0318149D02*
X0165143Y0318149D01*
X0165143Y0302524D02*
X0158057Y0302524D01*
X0145143Y0298149D02*
X0138057Y0298149D01*
D15*
X0136600Y0190319D03*
X0136600Y0164728D03*
D16*
X0011200Y0067124D02*
X0011200Y0337884D01*
X0144752Y0337884D01*
X0144638Y0337609D01*
X0144638Y0334840D01*
X0145698Y0332281D01*
X0147656Y0330322D01*
X0150215Y0329262D01*
X0152913Y0329262D01*
X0152913Y0329001D01*
X0153696Y0327110D01*
X0155143Y0325663D01*
X0157034Y0324880D01*
X0166166Y0324880D01*
X0168057Y0325663D01*
X0169504Y0327110D01*
X0170287Y0329001D01*
X0170287Y0331047D01*
X0169504Y0332937D01*
X0168057Y0334384D01*
X0166166Y0335167D01*
X0158562Y0335167D01*
X0158562Y0337609D01*
X0158448Y0337884D01*
X0199752Y0337884D01*
X0199638Y0337609D01*
X0199638Y0334840D01*
X0200698Y0332281D01*
X0202656Y0330322D01*
X0205215Y0329262D01*
X0207913Y0329262D01*
X0207913Y0329001D01*
X0208696Y0327110D01*
X0210143Y0325663D01*
X0212034Y0324880D01*
X0221166Y0324880D01*
X0223057Y0325663D01*
X0224504Y0327110D01*
X0225287Y0329001D01*
X0225287Y0331047D01*
X0224504Y0332937D01*
X0223057Y0334384D01*
X0221166Y0335167D01*
X0213562Y0335167D01*
X0213562Y0337609D01*
X0213448Y0337884D01*
X0245701Y0337884D01*
X0245701Y0067124D01*
X0233432Y0067124D01*
X0233562Y0067438D01*
X0233562Y0070208D01*
X0232502Y0072767D01*
X0230544Y0074725D01*
X0227985Y0075785D01*
X0225287Y0075785D01*
X0225287Y0076047D01*
X0224504Y0077937D01*
X0223057Y0079384D01*
X0221166Y0080167D01*
X0212034Y0080167D01*
X0210143Y0079384D01*
X0209217Y0078457D01*
X0193800Y0098278D01*
X0193800Y0226346D01*
X0203739Y0232972D01*
X0204822Y0232524D01*
X0203598Y0232017D01*
X0202107Y0230526D01*
X0201300Y0228578D01*
X0201300Y0226469D01*
X0201632Y0225667D01*
X0194400Y0218435D01*
X0194400Y0107867D01*
X0194227Y0107326D01*
X0194400Y0106990D01*
X0194400Y0106612D01*
X0194802Y0106211D01*
X0205025Y0086365D01*
X0205025Y0085987D01*
X0205427Y0085586D01*
X0205687Y0085081D01*
X0206047Y0084966D01*
X0206314Y0084699D01*
X0206882Y0084699D01*
X0207422Y0084526D01*
X0207758Y0084699D01*
X0208401Y0084699D01*
X0208696Y0083985D01*
X0210143Y0082538D01*
X0212034Y0081755D01*
X0221166Y0081755D01*
X0223057Y0082538D01*
X0224504Y0083985D01*
X0225287Y0085876D01*
X0225287Y0087922D01*
X0224552Y0089694D01*
X0225215Y0089420D01*
X0227985Y0089420D01*
X0230544Y0090480D01*
X0232502Y0092438D01*
X0233562Y0094997D01*
X0233562Y0097767D01*
X0232502Y0100326D01*
X0230544Y0102284D01*
X0227985Y0103344D01*
X0225287Y0103344D01*
X0225287Y0103547D01*
X0224504Y0105437D01*
X0223057Y0106884D01*
X0221166Y0107667D01*
X0212034Y0107667D01*
X0210143Y0106884D01*
X0208696Y0105437D01*
X0207913Y0103547D01*
X0207913Y0101501D01*
X0208696Y0099610D01*
X0210143Y0098163D01*
X0212034Y0097380D01*
X0219638Y0097380D01*
X0219638Y0094997D01*
X0220698Y0092438D01*
X0221094Y0092042D01*
X0212034Y0092042D01*
X0210143Y0091259D01*
X0208696Y0089812D01*
X0208475Y0089277D01*
X0198800Y0108057D01*
X0198800Y0216612D01*
X0204744Y0222556D01*
X0205546Y0222224D01*
X0207654Y0222224D01*
X0209602Y0223030D01*
X0211093Y0224521D01*
X0211900Y0226469D01*
X0211900Y0228578D01*
X0211093Y0230526D01*
X0209602Y0232017D01*
X0208378Y0232524D01*
X0209602Y0233030D01*
X0211093Y0234521D01*
X0211900Y0236469D01*
X0211900Y0238578D01*
X0211093Y0240526D01*
X0209602Y0242017D01*
X0208378Y0242524D01*
X0209602Y0243030D01*
X0211093Y0244521D01*
X0211900Y0246469D01*
X0211900Y0248578D01*
X0211093Y0250526D01*
X0209602Y0252017D01*
X0208378Y0252524D01*
X0209602Y0253030D01*
X0211093Y0254521D01*
X0211900Y0256469D01*
X0211900Y0258578D01*
X0211093Y0260526D01*
X0209602Y0262017D01*
X0208378Y0262524D01*
X0209602Y0263030D01*
X0211093Y0264521D01*
X0211900Y0266469D01*
X0211900Y0268578D01*
X0211093Y0270526D01*
X0209602Y0272017D01*
X0208378Y0272524D01*
X0209602Y0273030D01*
X0211093Y0274521D01*
X0211900Y0276469D01*
X0211900Y0278578D01*
X0211093Y0280526D01*
X0209602Y0282017D01*
X0207654Y0282824D01*
X0205546Y0282824D01*
X0203598Y0282017D01*
X0202107Y0280526D01*
X0201775Y0279724D01*
X0200689Y0279724D01*
X0199400Y0278435D01*
X0169400Y0248435D01*
X0169400Y0178435D01*
X0130096Y0139131D01*
X0090773Y0104724D01*
X0090689Y0104724D01*
X0090096Y0104131D01*
X0089465Y0103579D01*
X0089460Y0103495D01*
X0089400Y0103435D01*
X0089400Y0102597D01*
X0089344Y0101761D01*
X0089400Y0101697D01*
X0089400Y0083043D01*
X0089225Y0082692D01*
X0089400Y0082167D01*
X0089400Y0081612D01*
X0089677Y0081335D01*
X0089801Y0080963D01*
X0090297Y0080716D01*
X0090689Y0080324D01*
X0091081Y0080324D01*
X0098209Y0076760D01*
X0097913Y0076047D01*
X0097913Y0074001D01*
X0098696Y0072110D01*
X0100143Y0070663D01*
X0102034Y0069880D01*
X0109638Y0069880D01*
X0109638Y0067438D01*
X0109768Y0067124D01*
X0068432Y0067124D01*
X0068562Y0067438D01*
X0068562Y0070208D01*
X0067502Y0072767D01*
X0065544Y0074725D01*
X0062985Y0075785D01*
X0060287Y0075785D01*
X0060287Y0076047D01*
X0059504Y0077937D01*
X0058057Y0079384D01*
X0056166Y0080167D01*
X0047851Y0080167D01*
X0038800Y0086201D01*
X0038800Y0104798D01*
X0039400Y0105398D01*
X0039400Y0093100D01*
X0039236Y0092808D01*
X0039400Y0092221D01*
X0039400Y0091612D01*
X0039637Y0091375D01*
X0039727Y0091053D01*
X0040258Y0090754D01*
X0040689Y0090324D01*
X0041024Y0090324D01*
X0043363Y0089008D01*
X0042913Y0087922D01*
X0042913Y0085876D01*
X0043696Y0083985D01*
X0045143Y0082538D01*
X0047034Y0081755D01*
X0056166Y0081755D01*
X0058057Y0082538D01*
X0059504Y0083985D01*
X0060287Y0085876D01*
X0060287Y0087922D01*
X0059552Y0089694D01*
X0060215Y0089420D01*
X0062985Y0089420D01*
X0065544Y0090480D01*
X0067502Y0092438D01*
X0068562Y0094997D01*
X0068562Y0097767D01*
X0067502Y0100326D01*
X0065544Y0102284D01*
X0062985Y0103344D01*
X0060287Y0103344D01*
X0060287Y0103547D01*
X0059504Y0105437D01*
X0058057Y0106884D01*
X0056166Y0107667D01*
X0047034Y0107667D01*
X0045143Y0106884D01*
X0043800Y0105541D01*
X0043800Y0124798D01*
X0044552Y0125551D01*
X0045083Y0126831D01*
X0045083Y0128216D01*
X0044552Y0129496D01*
X0043573Y0130476D01*
X0042293Y0131006D01*
X0040907Y0131006D01*
X0039627Y0130476D01*
X0038648Y0129496D01*
X0038117Y0128216D01*
X0038117Y0126831D01*
X0038322Y0126336D01*
X0025354Y0104724D01*
X0021425Y0104724D01*
X0021093Y0105526D01*
X0019602Y0107017D01*
X0018378Y0107524D01*
X0019602Y0108030D01*
X0021093Y0109521D01*
X0021900Y0111469D01*
X0021900Y0113578D01*
X0021093Y0115526D01*
X0019602Y0117017D01*
X0018378Y0117524D01*
X0019602Y0118030D01*
X0021093Y0119521D01*
X0021900Y0121469D01*
X0021900Y0123578D01*
X0021093Y0125526D01*
X0019602Y0127017D01*
X0018372Y0127526D01*
X0018634Y0127612D01*
X0019378Y0127991D01*
X0020053Y0128481D01*
X0020643Y0129071D01*
X0021133Y0129746D01*
X0021512Y0130489D01*
X0021769Y0131283D01*
X0021900Y0132106D01*
X0021900Y0132124D01*
X0017000Y0132124D01*
X0017000Y0132924D01*
X0021900Y0132924D01*
X0021900Y0132941D01*
X0021769Y0133765D01*
X0021512Y0134558D01*
X0021133Y0135301D01*
X0020643Y0135976D01*
X0020053Y0136566D01*
X0019378Y0137057D01*
X0018634Y0137435D01*
X0018372Y0137521D01*
X0019602Y0138030D01*
X0021093Y0139521D01*
X0021900Y0141469D01*
X0021900Y0143578D01*
X0021093Y0145526D01*
X0019602Y0147017D01*
X0018378Y0147524D01*
X0019602Y0148030D01*
X0021093Y0149521D01*
X0021900Y0151469D01*
X0021900Y0153578D01*
X0021093Y0155526D01*
X0019602Y0157017D01*
X0018378Y0157524D01*
X0019602Y0158030D01*
X0021093Y0159521D01*
X0021900Y0161469D01*
X0021900Y0163578D01*
X0021093Y0165526D01*
X0019602Y0167017D01*
X0018378Y0167524D01*
X0019602Y0168030D01*
X0021093Y0169521D01*
X0021900Y0171469D01*
X0021900Y0173578D01*
X0021093Y0175526D01*
X0019602Y0177017D01*
X0018378Y0177524D01*
X0019602Y0178030D01*
X0021093Y0179521D01*
X0021900Y0181469D01*
X0021900Y0183578D01*
X0021093Y0185526D01*
X0019602Y0187017D01*
X0018378Y0187524D01*
X0019602Y0188030D01*
X0021093Y0189521D01*
X0021900Y0191469D01*
X0021900Y0193578D01*
X0021093Y0195526D01*
X0019602Y0197017D01*
X0017654Y0197824D01*
X0015546Y0197824D01*
X0013598Y0197017D01*
X0012107Y0195526D01*
X0011300Y0193578D01*
X0011300Y0191469D01*
X0012107Y0189521D01*
X0013598Y0188030D01*
X0014822Y0187524D01*
X0013598Y0187017D01*
X0012107Y0185526D01*
X0011300Y0183578D01*
X0011300Y0181469D01*
X0012107Y0179521D01*
X0013598Y0178030D01*
X0014822Y0177524D01*
X0013598Y0177017D01*
X0012107Y0175526D01*
X0011300Y0173578D01*
X0011300Y0171469D01*
X0012107Y0169521D01*
X0013598Y0168030D01*
X0014822Y0167524D01*
X0013598Y0167017D01*
X0012107Y0165526D01*
X0011300Y0163578D01*
X0011300Y0161469D01*
X0012107Y0159521D01*
X0013598Y0158030D01*
X0014822Y0157524D01*
X0013598Y0157017D01*
X0012107Y0155526D01*
X0011300Y0153578D01*
X0011300Y0151469D01*
X0012107Y0149521D01*
X0013598Y0148030D01*
X0014822Y0147524D01*
X0013598Y0147017D01*
X0012107Y0145526D01*
X0011300Y0143578D01*
X0011300Y0141469D01*
X0012107Y0139521D01*
X0013598Y0138030D01*
X0014828Y0137521D01*
X0014566Y0137435D01*
X0013822Y0137057D01*
X0013147Y0136566D01*
X0012557Y0135976D01*
X0012067Y0135301D01*
X0011688Y0134558D01*
X0011430Y0133765D01*
X0011300Y0132941D01*
X0011300Y0132924D01*
X0016200Y0132924D01*
X0016200Y0132124D01*
X0011300Y0132124D01*
X0011300Y0132106D01*
X0011430Y0131283D01*
X0011688Y0130489D01*
X0012067Y0129746D01*
X0012557Y0129071D01*
X0013147Y0128481D01*
X0013822Y0127991D01*
X0014566Y0127612D01*
X0014828Y0127526D01*
X0013598Y0127017D01*
X0012107Y0125526D01*
X0011300Y0123578D01*
X0011300Y0121469D01*
X0012107Y0119521D01*
X0013598Y0118030D01*
X0014822Y0117524D01*
X0013598Y0117017D01*
X0012107Y0115526D01*
X0011300Y0113578D01*
X0011300Y0111469D01*
X0012107Y0109521D01*
X0013598Y0108030D01*
X0014822Y0107524D01*
X0013598Y0107017D01*
X0012107Y0105526D01*
X0011300Y0103578D01*
X0011300Y0101469D01*
X0012107Y0099521D01*
X0013598Y0098030D01*
X0015546Y0097224D01*
X0017654Y0097224D01*
X0019602Y0098030D01*
X0021093Y0099521D01*
X0021425Y0100324D01*
X0025991Y0100324D01*
X0026250Y0100168D01*
X0026871Y0100324D01*
X0027511Y0100324D01*
X0027725Y0100537D01*
X0028018Y0100610D01*
X0028347Y0101159D01*
X0028800Y0101612D01*
X0028800Y0101914D01*
X0039400Y0119581D01*
X0039400Y0109649D01*
X0038573Y0110476D01*
X0037293Y0111006D01*
X0035907Y0111006D01*
X0034627Y0110476D01*
X0033648Y0109496D01*
X0033117Y0108216D01*
X0033117Y0106831D01*
X0033648Y0105551D01*
X0034400Y0104798D01*
X0034400Y0085690D01*
X0034264Y0085486D01*
X0034400Y0084806D01*
X0034400Y0084112D01*
X0034573Y0083939D01*
X0034621Y0083699D01*
X0035198Y0083314D01*
X0035689Y0082824D01*
X0035934Y0082824D01*
X0043603Y0077711D01*
X0042913Y0076047D01*
X0042913Y0074001D01*
X0043696Y0072110D01*
X0045143Y0070663D01*
X0047034Y0069880D01*
X0054638Y0069880D01*
X0054638Y0067438D01*
X0054768Y0067124D01*
X0011200Y0067124D01*
X0011200Y0067318D02*
X0054688Y0067318D01*
X0054638Y0068516D02*
X0011200Y0068516D01*
X0011200Y0069715D02*
X0054638Y0069715D01*
X0051600Y0075024D02*
X0036600Y0085024D01*
X0036600Y0107524D01*
X0033552Y0109266D02*
X0033211Y0109266D01*
X0033117Y0108067D02*
X0032492Y0108067D01*
X0033117Y0106869D02*
X0031773Y0106869D01*
X0031053Y0105670D02*
X0033598Y0105670D01*
X0034400Y0104472D02*
X0030334Y0104472D01*
X0029615Y0103273D02*
X0034400Y0103273D01*
X0034400Y0102074D02*
X0028896Y0102074D01*
X0028177Y0100876D02*
X0034400Y0100876D01*
X0034400Y0099677D02*
X0021158Y0099677D01*
X0020051Y0098479D02*
X0034400Y0098479D01*
X0034400Y0097280D02*
X0017791Y0097280D01*
X0015409Y0097280D02*
X0011200Y0097280D01*
X0011200Y0096082D02*
X0034400Y0096082D01*
X0034400Y0094883D02*
X0011200Y0094883D01*
X0011200Y0093685D02*
X0034400Y0093685D01*
X0034400Y0092486D02*
X0011200Y0092486D01*
X0011200Y0091288D02*
X0034400Y0091288D01*
X0034400Y0090089D02*
X0011200Y0090089D01*
X0011200Y0088891D02*
X0034400Y0088891D01*
X0034400Y0087692D02*
X0011200Y0087692D01*
X0011200Y0086494D02*
X0034400Y0086494D01*
X0034302Y0085295D02*
X0011200Y0085295D01*
X0011200Y0084097D02*
X0034416Y0084097D01*
X0035614Y0082898D02*
X0011200Y0082898D01*
X0011200Y0081700D02*
X0037620Y0081700D01*
X0039417Y0080501D02*
X0011200Y0080501D01*
X0011200Y0079303D02*
X0041215Y0079303D01*
X0043013Y0078104D02*
X0011200Y0078104D01*
X0011200Y0076906D02*
X0043269Y0076906D01*
X0042913Y0075707D02*
X0011200Y0075707D01*
X0011200Y0074509D02*
X0042913Y0074509D01*
X0043199Y0073310D02*
X0011200Y0073310D01*
X0011200Y0072112D02*
X0043696Y0072112D01*
X0044893Y0070913D02*
X0011200Y0070913D01*
X0011200Y0098479D02*
X0013149Y0098479D01*
X0012042Y0099677D02*
X0011200Y0099677D01*
X0011200Y0100876D02*
X0011546Y0100876D01*
X0011300Y0102074D02*
X0011200Y0102074D01*
X0011200Y0103273D02*
X0011300Y0103273D01*
X0011200Y0104472D02*
X0011670Y0104472D01*
X0011200Y0105670D02*
X0012251Y0105670D01*
X0011200Y0106869D02*
X0013450Y0106869D01*
X0013561Y0108067D02*
X0011200Y0108067D01*
X0011200Y0109266D02*
X0012363Y0109266D01*
X0011716Y0110464D02*
X0011200Y0110464D01*
X0011200Y0111663D02*
X0011300Y0111663D01*
X0011300Y0112861D02*
X0011200Y0112861D01*
X0011200Y0114060D02*
X0011500Y0114060D01*
X0011200Y0115258D02*
X0011996Y0115258D01*
X0011200Y0116457D02*
X0013038Y0116457D01*
X0014504Y0117655D02*
X0011200Y0117655D01*
X0011200Y0118854D02*
X0012775Y0118854D01*
X0011887Y0120052D02*
X0011200Y0120052D01*
X0011200Y0121251D02*
X0011391Y0121251D01*
X0011300Y0122449D02*
X0011200Y0122449D01*
X0011200Y0123648D02*
X0011329Y0123648D01*
X0011200Y0124846D02*
X0011825Y0124846D01*
X0011200Y0126045D02*
X0012626Y0126045D01*
X0011200Y0127243D02*
X0014145Y0127243D01*
X0013201Y0128442D02*
X0011200Y0128442D01*
X0011200Y0129640D02*
X0012144Y0129640D01*
X0011575Y0130839D02*
X0011200Y0130839D01*
X0011200Y0132037D02*
X0011311Y0132037D01*
X0011347Y0133236D02*
X0011200Y0133236D01*
X0011200Y0134434D02*
X0011648Y0134434D01*
X0011200Y0135633D02*
X0012308Y0135633D01*
X0011200Y0136831D02*
X0013512Y0136831D01*
X0013599Y0138030D02*
X0011200Y0138030D01*
X0011200Y0139228D02*
X0012400Y0139228D01*
X0011732Y0140427D02*
X0011200Y0140427D01*
X0011200Y0141625D02*
X0011300Y0141625D01*
X0011300Y0142824D02*
X0011200Y0142824D01*
X0011200Y0144022D02*
X0011484Y0144022D01*
X0011200Y0145221D02*
X0011981Y0145221D01*
X0011200Y0146419D02*
X0013000Y0146419D01*
X0014594Y0147618D02*
X0011200Y0147618D01*
X0011200Y0148816D02*
X0012812Y0148816D01*
X0011902Y0150015D02*
X0011200Y0150015D01*
X0011200Y0151213D02*
X0011406Y0151213D01*
X0011300Y0152412D02*
X0011200Y0152412D01*
X0011200Y0153610D02*
X0011314Y0153610D01*
X0011200Y0154809D02*
X0011810Y0154809D01*
X0011200Y0156008D02*
X0012589Y0156008D01*
X0011200Y0157206D02*
X0014055Y0157206D01*
X0013224Y0158405D02*
X0011200Y0158405D01*
X0011200Y0159603D02*
X0012073Y0159603D01*
X0011577Y0160802D02*
X0011200Y0160802D01*
X0011200Y0162000D02*
X0011300Y0162000D01*
X0011300Y0163199D02*
X0011200Y0163199D01*
X0011200Y0164397D02*
X0011639Y0164397D01*
X0011200Y0165596D02*
X0012177Y0165596D01*
X0011200Y0166794D02*
X0013375Y0166794D01*
X0013689Y0167993D02*
X0011200Y0167993D01*
X0011200Y0169191D02*
X0012437Y0169191D01*
X0011747Y0170390D02*
X0011200Y0170390D01*
X0011200Y0171588D02*
X0011300Y0171588D01*
X0011300Y0172787D02*
X0011200Y0172787D01*
X0011200Y0173985D02*
X0011469Y0173985D01*
X0011200Y0175184D02*
X0011965Y0175184D01*
X0011200Y0176382D02*
X0012963Y0176382D01*
X0014684Y0177581D02*
X0011200Y0177581D01*
X0011200Y0178779D02*
X0012849Y0178779D01*
X0011918Y0179978D02*
X0011200Y0179978D01*
X0011200Y0181176D02*
X0011421Y0181176D01*
X0011300Y0182375D02*
X0011200Y0182375D01*
X0011200Y0183573D02*
X0011300Y0183573D01*
X0011200Y0184772D02*
X0011795Y0184772D01*
X0011200Y0185970D02*
X0012551Y0185970D01*
X0011200Y0187169D02*
X0013965Y0187169D01*
X0013261Y0188367D02*
X0011200Y0188367D01*
X0011200Y0189566D02*
X0012088Y0189566D01*
X0011592Y0190764D02*
X0011200Y0190764D01*
X0011200Y0191963D02*
X0011300Y0191963D01*
X0011300Y0193161D02*
X0011200Y0193161D01*
X0011200Y0194360D02*
X0011624Y0194360D01*
X0011200Y0195558D02*
X0012139Y0195558D01*
X0011200Y0196757D02*
X0013338Y0196757D01*
X0011200Y0197955D02*
X0060963Y0197955D01*
X0061413Y0196757D02*
X0019862Y0196757D01*
X0021061Y0195558D02*
X0061862Y0195558D01*
X0062312Y0194360D02*
X0021576Y0194360D01*
X0021900Y0193161D02*
X0062761Y0193161D01*
X0063211Y0191963D02*
X0021900Y0191963D01*
X0021608Y0190764D02*
X0063660Y0190764D01*
X0064110Y0189566D02*
X0021112Y0189566D01*
X0019939Y0188367D02*
X0064559Y0188367D01*
X0065008Y0187169D02*
X0019235Y0187169D01*
X0020649Y0185970D02*
X0065458Y0185970D01*
X0065907Y0184772D02*
X0021405Y0184772D01*
X0021900Y0183573D02*
X0066357Y0183573D01*
X0066806Y0182375D02*
X0021900Y0182375D01*
X0021779Y0181176D02*
X0067256Y0181176D01*
X0067705Y0179978D02*
X0021282Y0179978D01*
X0020351Y0178779D02*
X0068155Y0178779D01*
X0068604Y0177581D02*
X0018516Y0177581D01*
X0020237Y0176382D02*
X0069053Y0176382D01*
X0069503Y0175184D02*
X0021235Y0175184D01*
X0021731Y0173985D02*
X0069952Y0173985D01*
X0070402Y0172787D02*
X0021900Y0172787D01*
X0021900Y0171588D02*
X0070851Y0171588D01*
X0071301Y0170390D02*
X0021453Y0170390D01*
X0020763Y0169191D02*
X0071750Y0169191D01*
X0072200Y0167993D02*
X0019511Y0167993D01*
X0019825Y0166794D02*
X0072649Y0166794D01*
X0073098Y0165596D02*
X0021023Y0165596D01*
X0021561Y0164397D02*
X0073548Y0164397D01*
X0073997Y0163199D02*
X0021900Y0163199D01*
X0021900Y0162000D02*
X0074447Y0162000D01*
X0074896Y0160802D02*
X0021623Y0160802D01*
X0021127Y0159603D02*
X0075346Y0159603D01*
X0075795Y0158405D02*
X0019976Y0158405D01*
X0019145Y0157206D02*
X0076244Y0157206D01*
X0076694Y0156008D02*
X0020611Y0156008D01*
X0021390Y0154809D02*
X0077143Y0154809D01*
X0077593Y0153610D02*
X0021886Y0153610D01*
X0021900Y0152412D02*
X0078042Y0152412D01*
X0078492Y0151213D02*
X0021794Y0151213D01*
X0021298Y0150015D02*
X0078941Y0150015D01*
X0079391Y0148816D02*
X0020388Y0148816D01*
X0018606Y0147618D02*
X0079840Y0147618D01*
X0080289Y0146419D02*
X0020200Y0146419D01*
X0021219Y0145221D02*
X0080739Y0145221D01*
X0081188Y0144022D02*
X0021716Y0144022D01*
X0021900Y0142824D02*
X0081638Y0142824D01*
X0082087Y0141625D02*
X0021900Y0141625D01*
X0021468Y0140427D02*
X0082537Y0140427D01*
X0082986Y0139228D02*
X0020800Y0139228D01*
X0019601Y0138030D02*
X0083436Y0138030D01*
X0083885Y0136831D02*
X0019688Y0136831D01*
X0020892Y0135633D02*
X0084334Y0135633D01*
X0084784Y0134434D02*
X0021552Y0134434D01*
X0021853Y0133236D02*
X0085233Y0133236D01*
X0085683Y0132037D02*
X0021889Y0132037D01*
X0021625Y0130839D02*
X0040503Y0130839D01*
X0038791Y0129640D02*
X0021056Y0129640D01*
X0019999Y0128442D02*
X0038211Y0128442D01*
X0038117Y0127243D02*
X0019055Y0127243D01*
X0020574Y0126045D02*
X0038147Y0126045D01*
X0037428Y0124846D02*
X0021375Y0124846D01*
X0021871Y0123648D02*
X0036709Y0123648D01*
X0035990Y0122449D02*
X0021900Y0122449D01*
X0021809Y0121251D02*
X0035271Y0121251D01*
X0034552Y0120052D02*
X0021313Y0120052D01*
X0020425Y0118854D02*
X0033832Y0118854D01*
X0033113Y0117655D02*
X0018696Y0117655D01*
X0020162Y0116457D02*
X0032394Y0116457D01*
X0031675Y0115258D02*
X0021204Y0115258D01*
X0021700Y0114060D02*
X0030956Y0114060D01*
X0030237Y0112861D02*
X0021900Y0112861D01*
X0021900Y0111663D02*
X0029518Y0111663D01*
X0028799Y0110464D02*
X0021484Y0110464D01*
X0020837Y0109266D02*
X0028080Y0109266D01*
X0027360Y0108067D02*
X0019639Y0108067D01*
X0019750Y0106869D02*
X0026641Y0106869D01*
X0025922Y0105670D02*
X0020949Y0105670D01*
X0016600Y0102524D02*
X0026600Y0102524D01*
X0041600Y0127524D01*
X0041600Y0092524D01*
X0051600Y0086899D01*
X0047350Y0080501D02*
X0090511Y0080501D01*
X0089400Y0081700D02*
X0045552Y0081700D01*
X0044783Y0082898D02*
X0043754Y0082898D01*
X0043650Y0084097D02*
X0041956Y0084097D01*
X0043154Y0085295D02*
X0040159Y0085295D01*
X0038800Y0086494D02*
X0042913Y0086494D01*
X0042913Y0087692D02*
X0038800Y0087692D01*
X0038800Y0088891D02*
X0043315Y0088891D01*
X0041440Y0090089D02*
X0038800Y0090089D01*
X0038800Y0091288D02*
X0039661Y0091288D01*
X0039326Y0092486D02*
X0038800Y0092486D01*
X0038800Y0093685D02*
X0039400Y0093685D01*
X0039400Y0094883D02*
X0038800Y0094883D01*
X0038800Y0096082D02*
X0039400Y0096082D01*
X0039400Y0097280D02*
X0038800Y0097280D01*
X0038800Y0098479D02*
X0039400Y0098479D01*
X0039400Y0099677D02*
X0038800Y0099677D01*
X0038800Y0100876D02*
X0039400Y0100876D01*
X0039400Y0102074D02*
X0038800Y0102074D01*
X0038800Y0103273D02*
X0039400Y0103273D01*
X0039400Y0104472D02*
X0038800Y0104472D01*
X0043800Y0105670D02*
X0043929Y0105670D01*
X0043800Y0106869D02*
X0045128Y0106869D01*
X0043800Y0108067D02*
X0063034Y0108067D01*
X0063040Y0108103D02*
X0063290Y0108873D01*
X0063658Y0109594D01*
X0064134Y0110249D01*
X0064706Y0110822D01*
X0065361Y0111298D01*
X0066082Y0111665D01*
X0066852Y0111915D01*
X0067652Y0112042D01*
X0071019Y0112042D01*
X0071019Y0107480D01*
X0072181Y0107480D01*
X0072181Y0112042D01*
X0075548Y0112042D01*
X0076348Y0111915D01*
X0077118Y0111665D01*
X0077839Y0111298D01*
X0078494Y0110822D01*
X0079066Y0110249D01*
X0079542Y0109594D01*
X0079910Y0108873D01*
X0080160Y0108103D01*
X0080259Y0107480D01*
X0072181Y0107480D01*
X0072181Y0106317D01*
X0072181Y0101755D01*
X0075548Y0101755D01*
X0076348Y0101882D01*
X0077118Y0102132D01*
X0077839Y0102500D01*
X0078494Y0102976D01*
X0079066Y0103548D01*
X0079542Y0104203D01*
X0079910Y0104924D01*
X0080160Y0105694D01*
X0080259Y0106317D01*
X0072181Y0106317D01*
X0071019Y0106317D01*
X0071019Y0101755D01*
X0067652Y0101755D01*
X0066852Y0101882D01*
X0066082Y0102132D01*
X0065361Y0102500D01*
X0064706Y0102976D01*
X0064134Y0103548D01*
X0063658Y0104203D01*
X0063290Y0104924D01*
X0063040Y0105694D01*
X0062941Y0106317D01*
X0071019Y0106317D01*
X0071019Y0107480D01*
X0062941Y0107480D01*
X0063040Y0108103D01*
X0063490Y0109266D02*
X0043800Y0109266D01*
X0043800Y0110464D02*
X0064348Y0110464D01*
X0066077Y0111663D02*
X0043800Y0111663D01*
X0043800Y0112861D02*
X0100073Y0112861D01*
X0098704Y0111663D02*
X0077123Y0111663D01*
X0078852Y0110464D02*
X0097334Y0110464D01*
X0095964Y0109266D02*
X0079710Y0109266D01*
X0080166Y0108067D02*
X0094594Y0108067D01*
X0093225Y0106869D02*
X0072181Y0106869D01*
X0071019Y0106869D02*
X0058072Y0106869D01*
X0059271Y0105670D02*
X0063048Y0105670D01*
X0063521Y0104472D02*
X0059904Y0104472D01*
X0063156Y0103273D02*
X0064409Y0103273D01*
X0065753Y0102074D02*
X0066260Y0102074D01*
X0066952Y0100876D02*
X0089400Y0100876D01*
X0089400Y0099677D02*
X0067771Y0099677D01*
X0068267Y0098479D02*
X0089400Y0098479D01*
X0089400Y0097280D02*
X0068562Y0097280D01*
X0068562Y0096082D02*
X0089400Y0096082D01*
X0089400Y0094883D02*
X0068515Y0094883D01*
X0068019Y0093685D02*
X0089400Y0093685D01*
X0089400Y0092486D02*
X0067522Y0092486D01*
X0066352Y0091288D02*
X0089400Y0091288D01*
X0089400Y0090089D02*
X0064602Y0090089D01*
X0059885Y0088891D02*
X0089400Y0088891D01*
X0089400Y0087692D02*
X0060287Y0087692D01*
X0060287Y0086494D02*
X0089400Y0086494D01*
X0089400Y0085295D02*
X0060046Y0085295D01*
X0059550Y0084097D02*
X0089400Y0084097D01*
X0089328Y0082898D02*
X0058417Y0082898D01*
X0058138Y0079303D02*
X0093122Y0079303D01*
X0095519Y0078104D02*
X0059336Y0078104D01*
X0059931Y0076906D02*
X0097916Y0076906D01*
X0097913Y0075707D02*
X0063173Y0075707D01*
X0065760Y0074509D02*
X0097913Y0074509D01*
X0098199Y0073310D02*
X0066959Y0073310D01*
X0067774Y0072112D02*
X0098696Y0072112D01*
X0099893Y0070913D02*
X0068270Y0070913D01*
X0068562Y0069715D02*
X0109638Y0069715D01*
X0109638Y0068516D02*
X0068562Y0068516D01*
X0068512Y0067318D02*
X0109688Y0067318D01*
X0106600Y0075024D02*
X0091600Y0082524D01*
X0091600Y0102524D01*
X0131600Y0137524D01*
X0171600Y0177524D01*
X0171600Y0247524D01*
X0201600Y0277524D01*
X0206600Y0277524D01*
X0204822Y0272524D02*
X0203598Y0272017D01*
X0202107Y0270526D01*
X0201775Y0269724D01*
X0200689Y0269724D01*
X0199400Y0268435D01*
X0174400Y0243435D01*
X0174400Y0153435D01*
X0134400Y0113435D01*
X0134400Y0109790D01*
X0134066Y0110249D01*
X0133494Y0110822D01*
X0132839Y0111298D01*
X0132118Y0111665D01*
X0131348Y0111915D01*
X0130548Y0112042D01*
X0127181Y0112042D01*
X0127181Y0107480D01*
X0126019Y0107480D01*
X0126019Y0112042D01*
X0122652Y0112042D01*
X0121852Y0111915D01*
X0121082Y0111665D01*
X0120361Y0111298D01*
X0119706Y0110822D01*
X0119134Y0110249D01*
X0118658Y0109594D01*
X0118290Y0108873D01*
X0118040Y0108103D01*
X0117941Y0107480D01*
X0126019Y0107480D01*
X0126019Y0106317D01*
X0127181Y0106317D01*
X0127181Y0101755D01*
X0130548Y0101755D01*
X0131348Y0101882D01*
X0132118Y0102132D01*
X0132839Y0102500D01*
X0133494Y0102976D01*
X0134066Y0103548D01*
X0134400Y0104007D01*
X0134400Y0098435D01*
X0125064Y0089099D01*
X0114799Y0089099D01*
X0114552Y0089694D01*
X0115215Y0089420D01*
X0117985Y0089420D01*
X0120544Y0090480D01*
X0122502Y0092438D01*
X0123562Y0094997D01*
X0123562Y0097767D01*
X0122502Y0100326D01*
X0120544Y0102284D01*
X0117985Y0103344D01*
X0115287Y0103344D01*
X0115287Y0103547D01*
X0114504Y0105437D01*
X0113057Y0106884D01*
X0111166Y0107667D01*
X0102034Y0107667D01*
X0100143Y0106884D01*
X0098696Y0105437D01*
X0097913Y0103547D01*
X0097913Y0101501D01*
X0098696Y0099610D01*
X0100143Y0098163D01*
X0102034Y0097380D01*
X0109638Y0097380D01*
X0109638Y0094997D01*
X0110698Y0092438D01*
X0111094Y0092042D01*
X0102034Y0092042D01*
X0100143Y0091259D01*
X0098696Y0089812D01*
X0097913Y0087922D01*
X0097913Y0085876D01*
X0098696Y0083985D01*
X0100143Y0082538D01*
X0102034Y0081755D01*
X0111166Y0081755D01*
X0113057Y0082538D01*
X0114504Y0083985D01*
X0114799Y0084699D01*
X0126886Y0084699D01*
X0137511Y0095324D01*
X0137511Y0095324D01*
X0138800Y0096612D01*
X0138800Y0111612D01*
X0171435Y0144247D01*
X0144993Y0114027D01*
X0144400Y0113435D01*
X0144400Y0113350D01*
X0144344Y0113287D01*
X0144400Y0112450D01*
X0144400Y0087794D01*
X0144245Y0087173D01*
X0144400Y0086914D01*
X0144400Y0086612D01*
X0144853Y0086159D01*
X0151900Y0074414D01*
X0151900Y0074112D01*
X0152353Y0073659D01*
X0152682Y0073110D01*
X0152975Y0073037D01*
X0153189Y0072824D01*
X0153401Y0072824D01*
X0153696Y0072110D01*
X0155143Y0070663D01*
X0157034Y0069880D01*
X0164638Y0069880D01*
X0164638Y0067438D01*
X0164768Y0067124D01*
X0123432Y0067124D01*
X0123562Y0067438D01*
X0123562Y0070208D01*
X0122502Y0072767D01*
X0120544Y0074725D01*
X0117985Y0075785D01*
X0115287Y0075785D01*
X0115287Y0076047D01*
X0114504Y0077937D01*
X0113057Y0079384D01*
X0111166Y0080167D01*
X0102034Y0080167D01*
X0101596Y0079985D01*
X0093800Y0083883D01*
X0093800Y0101525D01*
X0132427Y0135324D01*
X0132511Y0135324D01*
X0133104Y0135916D01*
X0133734Y0136468D01*
X0133740Y0136552D01*
X0172511Y0175324D01*
X0173800Y0176612D01*
X0173800Y0246612D01*
X0201990Y0274803D01*
X0202107Y0274521D01*
X0203598Y0273030D01*
X0204822Y0272524D01*
X0204193Y0272263D02*
X0199451Y0272263D01*
X0200649Y0273462D02*
X0203167Y0273462D01*
X0202049Y0274660D02*
X0201848Y0274660D01*
X0202646Y0271065D02*
X0198252Y0271065D01*
X0197054Y0269866D02*
X0201834Y0269866D01*
X0201600Y0267524D02*
X0206600Y0267524D01*
X0210554Y0271065D02*
X0245701Y0271065D01*
X0245701Y0272263D02*
X0209007Y0272263D01*
X0210033Y0273462D02*
X0245701Y0273462D01*
X0245701Y0274660D02*
X0211151Y0274660D01*
X0211647Y0275859D02*
X0245701Y0275859D01*
X0245701Y0277057D02*
X0211900Y0277057D01*
X0211900Y0278256D02*
X0245701Y0278256D01*
X0245701Y0279454D02*
X0211537Y0279454D01*
X0210966Y0280653D02*
X0245701Y0280653D01*
X0245701Y0281851D02*
X0209768Y0281851D01*
X0203432Y0281851D02*
X0115083Y0281851D01*
X0115083Y0281831D02*
X0115083Y0283216D01*
X0114552Y0284496D01*
X0113573Y0285476D01*
X0112293Y0286006D01*
X0110907Y0286006D01*
X0109627Y0285476D01*
X0108648Y0284496D01*
X0108117Y0283216D01*
X0108117Y0283067D01*
X0077854Y0265774D01*
X0077293Y0266006D01*
X0075907Y0266006D01*
X0074627Y0265476D01*
X0073648Y0264496D01*
X0073117Y0263216D01*
X0073117Y0261831D01*
X0073648Y0260551D01*
X0074627Y0259571D01*
X0075907Y0259041D01*
X0077293Y0259041D01*
X0078573Y0259571D01*
X0079552Y0260551D01*
X0080083Y0261831D01*
X0080083Y0261980D01*
X0110346Y0279273D01*
X0110907Y0279041D01*
X0112293Y0279041D01*
X0113573Y0279571D01*
X0114552Y0280551D01*
X0115083Y0281831D01*
X0115083Y0283050D02*
X0245701Y0283050D01*
X0245701Y0284248D02*
X0114655Y0284248D01*
X0113602Y0285447D02*
X0245701Y0285447D01*
X0245701Y0286645D02*
X0011200Y0286645D01*
X0011200Y0285447D02*
X0109598Y0285447D01*
X0108545Y0284248D02*
X0011200Y0284248D01*
X0011200Y0283050D02*
X0108086Y0283050D01*
X0105989Y0281851D02*
X0019768Y0281851D01*
X0019602Y0282017D02*
X0017654Y0282824D01*
X0015546Y0282824D01*
X0013598Y0282017D01*
X0012107Y0280526D01*
X0011300Y0278578D01*
X0011300Y0276469D01*
X0012107Y0274521D01*
X0013598Y0273030D01*
X0014822Y0272524D01*
X0013598Y0272017D01*
X0012107Y0270526D01*
X0011300Y0268578D01*
X0011300Y0266469D01*
X0012107Y0264521D01*
X0013598Y0263030D01*
X0014822Y0262524D01*
X0013598Y0262017D01*
X0012107Y0260526D01*
X0011300Y0258578D01*
X0011300Y0256469D01*
X0012107Y0254521D01*
X0013598Y0253030D01*
X0014822Y0252524D01*
X0013598Y0252017D01*
X0012107Y0250526D01*
X0011300Y0248578D01*
X0011300Y0246469D01*
X0012107Y0244521D01*
X0013598Y0243030D01*
X0014822Y0242524D01*
X0013598Y0242017D01*
X0012107Y0240526D01*
X0011300Y0238578D01*
X0011300Y0236469D01*
X0012107Y0234521D01*
X0013598Y0233030D01*
X0014822Y0232524D01*
X0013598Y0232017D01*
X0012107Y0230526D01*
X0011300Y0228578D01*
X0011300Y0226469D01*
X0012107Y0224521D01*
X0013598Y0223030D01*
X0014822Y0222524D01*
X0013598Y0222017D01*
X0012107Y0220526D01*
X0011300Y0218578D01*
X0011300Y0216469D01*
X0012107Y0214521D01*
X0013598Y0213030D01*
X0014822Y0212524D01*
X0013598Y0212017D01*
X0012107Y0210526D01*
X0011300Y0208578D01*
X0011300Y0206469D01*
X0012107Y0204521D01*
X0013598Y0203030D01*
X0015546Y0202224D01*
X0017654Y0202224D01*
X0019602Y0203030D01*
X0021093Y0204521D01*
X0021900Y0206469D01*
X0021900Y0208578D01*
X0021093Y0210526D01*
X0019602Y0212017D01*
X0018378Y0212524D01*
X0019602Y0213030D01*
X0021093Y0214521D01*
X0021900Y0216469D01*
X0021900Y0218578D01*
X0021093Y0220526D01*
X0019602Y0222017D01*
X0018378Y0222524D01*
X0019602Y0223030D01*
X0021093Y0224521D01*
X0021900Y0226469D01*
X0021900Y0228578D01*
X0021093Y0230526D01*
X0019602Y0232017D01*
X0018378Y0232524D01*
X0019602Y0233030D01*
X0021093Y0234521D01*
X0021900Y0236469D01*
X0021900Y0238578D01*
X0021093Y0240526D01*
X0019602Y0242017D01*
X0018378Y0242524D01*
X0019602Y0243030D01*
X0021093Y0244521D01*
X0021900Y0246469D01*
X0021900Y0248578D01*
X0021093Y0250526D01*
X0019602Y0252017D01*
X0018378Y0252524D01*
X0019602Y0253030D01*
X0021093Y0254521D01*
X0021900Y0256469D01*
X0021900Y0258578D01*
X0021093Y0260526D01*
X0019602Y0262017D01*
X0018378Y0262524D01*
X0019602Y0263030D01*
X0019957Y0263385D01*
X0025030Y0260849D01*
X0059606Y0201576D01*
X0088117Y0125546D01*
X0087000Y0124429D01*
X0087000Y0120618D01*
X0089695Y0117924D01*
X0093505Y0117924D01*
X0096200Y0120618D01*
X0096200Y0124429D01*
X0093505Y0127124D01*
X0092225Y0127124D01*
X0063906Y0202641D01*
X0063959Y0202845D01*
X0063594Y0203471D01*
X0063340Y0204149D01*
X0063148Y0204237D01*
X0028615Y0263435D01*
X0028399Y0264084D01*
X0028170Y0264198D01*
X0028041Y0264419D01*
X0027380Y0264593D01*
X0021900Y0267333D01*
X0021900Y0268578D01*
X0021093Y0270526D01*
X0019602Y0272017D01*
X0018378Y0272524D01*
X0019461Y0272972D01*
X0029956Y0265975D01*
X0064610Y0206568D01*
X0088563Y0144292D01*
X0088117Y0143216D01*
X0088117Y0141831D01*
X0088648Y0140551D01*
X0089627Y0139571D01*
X0090907Y0139041D01*
X0092293Y0139041D01*
X0093573Y0139571D01*
X0094552Y0140551D01*
X0095083Y0141831D01*
X0095083Y0143216D01*
X0094552Y0144496D01*
X0093573Y0145476D01*
X0092679Y0145846D01*
X0068908Y0207651D01*
X0068959Y0207845D01*
X0068590Y0208479D01*
X0068326Y0209164D01*
X0068142Y0209246D01*
X0033685Y0268315D01*
X0033579Y0268849D01*
X0033244Y0269072D01*
X0033041Y0269419D01*
X0032515Y0269558D01*
X0021900Y0276634D01*
X0021900Y0278578D01*
X0021093Y0280526D01*
X0019602Y0282017D01*
X0020966Y0280653D02*
X0075054Y0280653D01*
X0074627Y0280476D02*
X0073648Y0279496D01*
X0073117Y0278216D01*
X0073117Y0276831D01*
X0073648Y0275551D01*
X0074627Y0274571D01*
X0075907Y0274041D01*
X0077293Y0274041D01*
X0078573Y0274571D01*
X0079552Y0275551D01*
X0080083Y0276831D01*
X0080083Y0278216D01*
X0079552Y0279496D01*
X0078573Y0280476D01*
X0077293Y0281006D01*
X0075907Y0281006D01*
X0074627Y0280476D01*
X0073630Y0279454D02*
X0021537Y0279454D01*
X0021900Y0278256D02*
X0073134Y0278256D01*
X0073117Y0277057D02*
X0021900Y0277057D01*
X0023064Y0275859D02*
X0073520Y0275859D01*
X0074538Y0274660D02*
X0024861Y0274660D01*
X0026659Y0273462D02*
X0091307Y0273462D01*
X0089210Y0272263D02*
X0028457Y0272263D01*
X0030255Y0271065D02*
X0087112Y0271065D01*
X0085015Y0269866D02*
X0032052Y0269866D01*
X0033615Y0268668D02*
X0082918Y0268668D01*
X0080820Y0267469D02*
X0034179Y0267469D01*
X0034878Y0266271D02*
X0078723Y0266271D01*
X0076600Y0262524D02*
X0111600Y0282524D01*
X0113290Y0279454D02*
X0200419Y0279454D01*
X0199221Y0278256D02*
X0108565Y0278256D01*
X0106468Y0277057D02*
X0198022Y0277057D01*
X0196824Y0275859D02*
X0104371Y0275859D01*
X0102273Y0274660D02*
X0195625Y0274660D01*
X0194427Y0273462D02*
X0100176Y0273462D01*
X0098078Y0272263D02*
X0193228Y0272263D01*
X0192030Y0271065D02*
X0095981Y0271065D01*
X0093884Y0269866D02*
X0190831Y0269866D01*
X0189633Y0268668D02*
X0091786Y0268668D01*
X0089689Y0267469D02*
X0188434Y0267469D01*
X0187236Y0266271D02*
X0087591Y0266271D01*
X0085494Y0265072D02*
X0186037Y0265072D01*
X0184839Y0263874D02*
X0083397Y0263874D01*
X0081299Y0262675D02*
X0183640Y0262675D01*
X0182442Y0261477D02*
X0079936Y0261477D01*
X0079280Y0260278D02*
X0181243Y0260278D01*
X0180045Y0259079D02*
X0077386Y0259079D01*
X0075814Y0259079D02*
X0039073Y0259079D01*
X0039772Y0257881D02*
X0178846Y0257881D01*
X0177648Y0256682D02*
X0040471Y0256682D01*
X0041170Y0255484D02*
X0176449Y0255484D01*
X0175251Y0254285D02*
X0041869Y0254285D01*
X0042568Y0253087D02*
X0174052Y0253087D01*
X0172854Y0251888D02*
X0043267Y0251888D01*
X0043967Y0250690D02*
X0171655Y0250690D01*
X0170456Y0249491D02*
X0044666Y0249491D01*
X0045365Y0248293D02*
X0169400Y0248293D01*
X0169400Y0247094D02*
X0046064Y0247094D01*
X0046763Y0245896D02*
X0169400Y0245896D01*
X0169400Y0244697D02*
X0047462Y0244697D01*
X0048161Y0243499D02*
X0169400Y0243499D01*
X0169400Y0242300D02*
X0048861Y0242300D01*
X0049560Y0241102D02*
X0169400Y0241102D01*
X0169400Y0239903D02*
X0050259Y0239903D01*
X0050958Y0238705D02*
X0169400Y0238705D01*
X0169400Y0237506D02*
X0051657Y0237506D01*
X0052356Y0236308D02*
X0169400Y0236308D01*
X0169400Y0235109D02*
X0053055Y0235109D01*
X0053754Y0233911D02*
X0169400Y0233911D01*
X0169400Y0232712D02*
X0054454Y0232712D01*
X0055153Y0231514D02*
X0169400Y0231514D01*
X0169400Y0230315D02*
X0055852Y0230315D01*
X0056551Y0229117D02*
X0169400Y0229117D01*
X0169400Y0227918D02*
X0057250Y0227918D01*
X0057949Y0226720D02*
X0169400Y0226720D01*
X0169400Y0225521D02*
X0058648Y0225521D01*
X0059348Y0224323D02*
X0169400Y0224323D01*
X0169400Y0223124D02*
X0060047Y0223124D01*
X0060746Y0221926D02*
X0169400Y0221926D01*
X0169400Y0220727D02*
X0061445Y0220727D01*
X0062144Y0219529D02*
X0169400Y0219529D01*
X0169400Y0218330D02*
X0062843Y0218330D01*
X0063542Y0217132D02*
X0169400Y0217132D01*
X0169400Y0215933D02*
X0137470Y0215933D01*
X0137293Y0216006D02*
X0135907Y0216006D01*
X0134627Y0215476D01*
X0133648Y0214496D01*
X0133117Y0213216D01*
X0133117Y0212152D01*
X0091971Y0171006D01*
X0090907Y0171006D01*
X0089627Y0170476D01*
X0088648Y0169496D01*
X0088117Y0168216D01*
X0088117Y0166831D01*
X0088648Y0165551D01*
X0089627Y0164571D01*
X0090907Y0164041D01*
X0092293Y0164041D01*
X0093573Y0164571D01*
X0094552Y0165551D01*
X0095083Y0166831D01*
X0095083Y0167895D01*
X0136229Y0209041D01*
X0137293Y0209041D01*
X0138573Y0209571D01*
X0139552Y0210551D01*
X0140083Y0211831D01*
X0140083Y0213216D01*
X0139552Y0214496D01*
X0138573Y0215476D01*
X0137293Y0216006D01*
X0135730Y0215933D02*
X0122470Y0215933D01*
X0122293Y0216006D02*
X0120907Y0216006D01*
X0119627Y0215476D01*
X0118648Y0214496D01*
X0118117Y0213216D01*
X0118117Y0211831D01*
X0118193Y0211648D01*
X0105252Y0194393D01*
X0093540Y0190489D01*
X0092293Y0191006D01*
X0090907Y0191006D01*
X0089627Y0190476D01*
X0088648Y0189496D01*
X0088117Y0188216D01*
X0088117Y0186831D01*
X0088648Y0185551D01*
X0089627Y0184571D01*
X0090907Y0184041D01*
X0092293Y0184041D01*
X0093573Y0184571D01*
X0094552Y0185551D01*
X0094859Y0186291D01*
X0107108Y0190374D01*
X0107813Y0190475D01*
X0107948Y0190654D01*
X0108160Y0190725D01*
X0108479Y0191362D01*
X0121738Y0209041D01*
X0122293Y0209041D01*
X0123573Y0209571D01*
X0124552Y0210551D01*
X0125083Y0211831D01*
X0125083Y0213216D01*
X0124552Y0214496D01*
X0123573Y0215476D01*
X0122293Y0216006D01*
X0120730Y0215933D02*
X0064241Y0215933D01*
X0064941Y0214735D02*
X0118886Y0214735D01*
X0118250Y0213536D02*
X0065640Y0213536D01*
X0066339Y0212338D02*
X0118117Y0212338D01*
X0117812Y0211139D02*
X0067038Y0211139D01*
X0067737Y0209941D02*
X0089092Y0209941D01*
X0088648Y0209496D02*
X0088117Y0208216D01*
X0088117Y0206831D01*
X0088648Y0205551D01*
X0089627Y0204571D01*
X0090907Y0204041D01*
X0092293Y0204041D01*
X0093573Y0204571D01*
X0094325Y0205324D01*
X0103875Y0205324D01*
X0104627Y0204571D01*
X0105907Y0204041D01*
X0107293Y0204041D01*
X0108573Y0204571D01*
X0109552Y0205551D01*
X0110083Y0206831D01*
X0110083Y0208216D01*
X0109552Y0209496D01*
X0108573Y0210476D01*
X0107293Y0211006D01*
X0105907Y0211006D01*
X0104627Y0210476D01*
X0103875Y0209724D01*
X0094325Y0209724D01*
X0093573Y0210476D01*
X0092293Y0211006D01*
X0090907Y0211006D01*
X0089627Y0210476D01*
X0088648Y0209496D01*
X0088335Y0208742D02*
X0068488Y0208742D01*
X0068949Y0207543D02*
X0088117Y0207543D01*
X0088319Y0206345D02*
X0069410Y0206345D01*
X0069871Y0205146D02*
X0089052Y0205146D01*
X0091600Y0207524D02*
X0106600Y0207524D01*
X0110083Y0207543D02*
X0115115Y0207543D01*
X0114216Y0206345D02*
X0109881Y0206345D01*
X0109148Y0205146D02*
X0113317Y0205146D01*
X0112418Y0203948D02*
X0070332Y0203948D01*
X0070793Y0202749D02*
X0111519Y0202749D01*
X0110621Y0201551D02*
X0071254Y0201551D01*
X0071715Y0200352D02*
X0109722Y0200352D01*
X0108823Y0199154D02*
X0072176Y0199154D01*
X0072637Y0197955D02*
X0107924Y0197955D01*
X0107025Y0196757D02*
X0073098Y0196757D01*
X0073559Y0195558D02*
X0106126Y0195558D01*
X0105152Y0194360D02*
X0074020Y0194360D01*
X0074481Y0193161D02*
X0101556Y0193161D01*
X0104684Y0189566D02*
X0110531Y0189566D01*
X0111729Y0190764D02*
X0108180Y0190764D01*
X0108929Y0191963D02*
X0112928Y0191963D01*
X0114126Y0193161D02*
X0109828Y0193161D01*
X0110727Y0194360D02*
X0115325Y0194360D01*
X0116523Y0195558D02*
X0111626Y0195558D01*
X0112525Y0196757D02*
X0117722Y0196757D01*
X0118921Y0197955D02*
X0113424Y0197955D01*
X0114323Y0199154D02*
X0120119Y0199154D01*
X0121318Y0200352D02*
X0115222Y0200352D01*
X0116120Y0201551D02*
X0122516Y0201551D01*
X0123715Y0202749D02*
X0117019Y0202749D01*
X0117918Y0203948D02*
X0124913Y0203948D01*
X0126112Y0205146D02*
X0118817Y0205146D01*
X0119716Y0206345D02*
X0127310Y0206345D01*
X0128509Y0207543D02*
X0120615Y0207543D01*
X0121514Y0208742D02*
X0129707Y0208742D01*
X0130906Y0209941D02*
X0123942Y0209941D01*
X0124796Y0211139D02*
X0132104Y0211139D01*
X0133117Y0212338D02*
X0125083Y0212338D01*
X0124950Y0213536D02*
X0133250Y0213536D01*
X0133886Y0214735D02*
X0124314Y0214735D01*
X0121600Y0212524D02*
X0106600Y0192524D01*
X0091600Y0187524D01*
X0092877Y0190764D02*
X0094365Y0190764D01*
X0097961Y0191963D02*
X0074942Y0191963D01*
X0075403Y0190764D02*
X0090323Y0190764D01*
X0088717Y0189566D02*
X0075864Y0189566D01*
X0076325Y0188367D02*
X0088180Y0188367D01*
X0088117Y0187169D02*
X0076786Y0187169D01*
X0077247Y0185970D02*
X0088474Y0185970D01*
X0089427Y0184772D02*
X0077708Y0184772D01*
X0078169Y0183573D02*
X0104538Y0183573D01*
X0103340Y0182375D02*
X0078630Y0182375D01*
X0079091Y0181176D02*
X0102141Y0181176D01*
X0100943Y0179978D02*
X0079552Y0179978D01*
X0080013Y0178779D02*
X0099744Y0178779D01*
X0098546Y0177581D02*
X0080474Y0177581D01*
X0080935Y0176382D02*
X0097347Y0176382D01*
X0096149Y0175184D02*
X0081396Y0175184D01*
X0081856Y0173985D02*
X0094950Y0173985D01*
X0093752Y0172787D02*
X0082317Y0172787D01*
X0082778Y0171588D02*
X0092553Y0171588D01*
X0089541Y0170390D02*
X0083239Y0170390D01*
X0083700Y0169191D02*
X0088521Y0169191D01*
X0088117Y0167993D02*
X0084161Y0167993D01*
X0084622Y0166794D02*
X0088133Y0166794D01*
X0088629Y0165596D02*
X0085083Y0165596D01*
X0085544Y0164397D02*
X0090047Y0164397D01*
X0091600Y0167524D02*
X0136600Y0212524D01*
X0139796Y0211139D02*
X0169400Y0211139D01*
X0169400Y0209941D02*
X0138942Y0209941D01*
X0140083Y0212338D02*
X0169400Y0212338D01*
X0169400Y0213536D02*
X0139950Y0213536D01*
X0139314Y0214735D02*
X0169400Y0214735D01*
X0173800Y0214735D02*
X0174400Y0214735D01*
X0174400Y0215933D02*
X0173800Y0215933D01*
X0173800Y0217132D02*
X0174400Y0217132D01*
X0174400Y0218330D02*
X0173800Y0218330D01*
X0173800Y0219529D02*
X0174400Y0219529D01*
X0174400Y0220727D02*
X0173800Y0220727D01*
X0173800Y0221926D02*
X0174400Y0221926D01*
X0174400Y0223124D02*
X0173800Y0223124D01*
X0173800Y0224323D02*
X0174400Y0224323D01*
X0174400Y0225521D02*
X0173800Y0225521D01*
X0173800Y0226720D02*
X0174400Y0226720D01*
X0174400Y0227918D02*
X0173800Y0227918D01*
X0173800Y0229117D02*
X0174400Y0229117D01*
X0174400Y0230315D02*
X0173800Y0230315D01*
X0173800Y0231514D02*
X0174400Y0231514D01*
X0174400Y0232712D02*
X0173800Y0232712D01*
X0173800Y0233911D02*
X0174400Y0233911D01*
X0174400Y0235109D02*
X0173800Y0235109D01*
X0173800Y0236308D02*
X0174400Y0236308D01*
X0174400Y0237506D02*
X0173800Y0237506D01*
X0173800Y0238705D02*
X0174400Y0238705D01*
X0174400Y0239903D02*
X0173800Y0239903D01*
X0173800Y0241102D02*
X0174400Y0241102D01*
X0174400Y0242300D02*
X0173800Y0242300D01*
X0173800Y0243499D02*
X0174464Y0243499D01*
X0173800Y0244697D02*
X0175662Y0244697D01*
X0176861Y0245896D02*
X0173800Y0245896D01*
X0174282Y0247094D02*
X0178059Y0247094D01*
X0179258Y0248293D02*
X0175481Y0248293D01*
X0176679Y0249491D02*
X0180456Y0249491D01*
X0181655Y0250690D02*
X0177878Y0250690D01*
X0179076Y0251888D02*
X0182854Y0251888D01*
X0184052Y0253087D02*
X0180275Y0253087D01*
X0181473Y0254285D02*
X0185251Y0254285D01*
X0186449Y0255484D02*
X0182672Y0255484D01*
X0183870Y0256682D02*
X0187648Y0256682D01*
X0188846Y0257881D02*
X0185069Y0257881D01*
X0186267Y0259079D02*
X0190045Y0259079D01*
X0191243Y0260278D02*
X0187466Y0260278D01*
X0188664Y0261477D02*
X0192442Y0261477D01*
X0193640Y0262675D02*
X0189863Y0262675D01*
X0191061Y0263874D02*
X0194839Y0263874D01*
X0196037Y0265072D02*
X0192260Y0265072D01*
X0193458Y0266271D02*
X0197236Y0266271D01*
X0198434Y0267469D02*
X0194657Y0267469D01*
X0195855Y0268668D02*
X0199633Y0268668D01*
X0201600Y0267524D02*
X0176600Y0242524D01*
X0176600Y0152524D01*
X0136600Y0112524D01*
X0136600Y0097524D01*
X0125975Y0086899D01*
X0106600Y0086899D01*
X0110678Y0092486D02*
X0093800Y0092486D01*
X0093800Y0091288D02*
X0100213Y0091288D01*
X0098974Y0090089D02*
X0093800Y0090089D01*
X0093800Y0088891D02*
X0098315Y0088891D01*
X0097913Y0087692D02*
X0093800Y0087692D01*
X0093800Y0086494D02*
X0097913Y0086494D01*
X0098154Y0085295D02*
X0093800Y0085295D01*
X0093800Y0084097D02*
X0098650Y0084097D01*
X0099783Y0082898D02*
X0095770Y0082898D01*
X0098167Y0081700D02*
X0147529Y0081700D01*
X0146810Y0082898D02*
X0113417Y0082898D01*
X0114550Y0084097D02*
X0146090Y0084097D01*
X0145371Y0085295D02*
X0127483Y0085295D01*
X0128681Y0086494D02*
X0144518Y0086494D01*
X0144374Y0087692D02*
X0129880Y0087692D01*
X0131079Y0088891D02*
X0144400Y0088891D01*
X0144400Y0090089D02*
X0132277Y0090089D01*
X0133476Y0091288D02*
X0144400Y0091288D01*
X0144400Y0092486D02*
X0134674Y0092486D01*
X0135873Y0093685D02*
X0144400Y0093685D01*
X0144400Y0094883D02*
X0137071Y0094883D01*
X0138270Y0096082D02*
X0144400Y0096082D01*
X0144400Y0097280D02*
X0138800Y0097280D01*
X0138800Y0098479D02*
X0144400Y0098479D01*
X0144400Y0099677D02*
X0138800Y0099677D01*
X0138800Y0100876D02*
X0144400Y0100876D01*
X0144400Y0102074D02*
X0138800Y0102074D01*
X0138800Y0103273D02*
X0144400Y0103273D01*
X0144400Y0104472D02*
X0138800Y0104472D01*
X0138800Y0105670D02*
X0144400Y0105670D01*
X0144400Y0106869D02*
X0138800Y0106869D01*
X0138800Y0108067D02*
X0144400Y0108067D01*
X0144400Y0109266D02*
X0138800Y0109266D01*
X0138800Y0110464D02*
X0144400Y0110464D01*
X0144400Y0111663D02*
X0138850Y0111663D01*
X0140049Y0112861D02*
X0144373Y0112861D01*
X0145021Y0114060D02*
X0141247Y0114060D01*
X0142446Y0115258D02*
X0146069Y0115258D01*
X0147118Y0116457D02*
X0143644Y0116457D01*
X0144843Y0117655D02*
X0148167Y0117655D01*
X0149216Y0118854D02*
X0146041Y0118854D01*
X0147240Y0120052D02*
X0150264Y0120052D01*
X0151313Y0121251D02*
X0148438Y0121251D01*
X0149637Y0122449D02*
X0152362Y0122449D01*
X0153410Y0123648D02*
X0150835Y0123648D01*
X0152034Y0124846D02*
X0154459Y0124846D01*
X0155508Y0126045D02*
X0153232Y0126045D01*
X0154431Y0127243D02*
X0156556Y0127243D01*
X0155629Y0128442D02*
X0157605Y0128442D01*
X0156828Y0129640D02*
X0158654Y0129640D01*
X0158026Y0130839D02*
X0159702Y0130839D01*
X0159225Y0132037D02*
X0160751Y0132037D01*
X0160423Y0133236D02*
X0161800Y0133236D01*
X0161622Y0134434D02*
X0162849Y0134434D01*
X0162820Y0135633D02*
X0163897Y0135633D01*
X0164019Y0136831D02*
X0164946Y0136831D01*
X0165217Y0138030D02*
X0165995Y0138030D01*
X0166416Y0139228D02*
X0167043Y0139228D01*
X0167614Y0140427D02*
X0168092Y0140427D01*
X0168813Y0141625D02*
X0169141Y0141625D01*
X0170012Y0142824D02*
X0170189Y0142824D01*
X0171210Y0144022D02*
X0171238Y0144022D01*
X0174987Y0141625D02*
X0178516Y0141625D01*
X0177467Y0140427D02*
X0173939Y0140427D01*
X0172890Y0139228D02*
X0176418Y0139228D01*
X0175370Y0138030D02*
X0171841Y0138030D01*
X0170793Y0136831D02*
X0174321Y0136831D01*
X0173272Y0135633D02*
X0169744Y0135633D01*
X0168695Y0134434D02*
X0172224Y0134434D01*
X0171175Y0133236D02*
X0167646Y0133236D01*
X0166598Y0132037D02*
X0170126Y0132037D01*
X0169077Y0130839D02*
X0165549Y0130839D01*
X0164500Y0129640D02*
X0168029Y0129640D01*
X0166980Y0128442D02*
X0163452Y0128442D01*
X0162403Y0127243D02*
X0165931Y0127243D01*
X0164883Y0126045D02*
X0161354Y0126045D01*
X0160306Y0124846D02*
X0163834Y0124846D01*
X0162785Y0123648D02*
X0159257Y0123648D01*
X0158208Y0122449D02*
X0161737Y0122449D01*
X0160688Y0121251D02*
X0157159Y0121251D01*
X0156111Y0120052D02*
X0159639Y0120052D01*
X0158591Y0118854D02*
X0155062Y0118854D01*
X0154013Y0117655D02*
X0157542Y0117655D01*
X0156493Y0116457D02*
X0152965Y0116457D01*
X0151916Y0115258D02*
X0155444Y0115258D01*
X0154396Y0114060D02*
X0150867Y0114060D01*
X0149819Y0112861D02*
X0153347Y0112861D01*
X0152298Y0111663D02*
X0148800Y0111663D01*
X0148800Y0111697D02*
X0183207Y0151020D01*
X0183800Y0151612D01*
X0183800Y0151697D01*
X0183856Y0151761D01*
X0183800Y0152597D01*
X0183800Y0236612D01*
X0184400Y0237212D01*
X0184400Y0148350D01*
X0149993Y0109027D01*
X0149400Y0108435D01*
X0149400Y0108350D01*
X0149344Y0108287D01*
X0149400Y0107450D01*
X0149400Y0097881D01*
X0149225Y0097355D01*
X0149400Y0097004D01*
X0149400Y0096612D01*
X0149792Y0096220D01*
X0153379Y0089046D01*
X0152913Y0087922D01*
X0152913Y0085876D01*
X0153696Y0083985D01*
X0155143Y0082538D01*
X0157034Y0081755D01*
X0166166Y0081755D01*
X0168057Y0082538D01*
X0169504Y0083985D01*
X0170287Y0085876D01*
X0170287Y0087922D01*
X0169552Y0089694D01*
X0170215Y0089420D01*
X0172985Y0089420D01*
X0175544Y0090480D01*
X0177502Y0092438D01*
X0178562Y0094997D01*
X0178562Y0097767D01*
X0177502Y0100326D01*
X0175544Y0102284D01*
X0172985Y0103344D01*
X0170287Y0103344D01*
X0170287Y0103547D01*
X0169504Y0105437D01*
X0168057Y0106884D01*
X0166166Y0107667D01*
X0157034Y0107667D01*
X0155143Y0106884D01*
X0153800Y0105541D01*
X0153800Y0106697D01*
X0188207Y0146020D01*
X0188800Y0146612D01*
X0188800Y0146697D01*
X0188856Y0146761D01*
X0188800Y0147597D01*
X0188800Y0236612D01*
X0197511Y0245324D01*
X0201775Y0245324D01*
X0202107Y0244521D01*
X0203598Y0243030D01*
X0204822Y0242524D01*
X0203598Y0242017D01*
X0202107Y0240526D01*
X0201300Y0238578D01*
X0201300Y0236634D01*
X0190934Y0229724D01*
X0190689Y0229724D01*
X0190198Y0229233D01*
X0189621Y0228849D01*
X0189573Y0228608D01*
X0189400Y0228435D01*
X0189400Y0227741D01*
X0189264Y0227061D01*
X0189400Y0226858D01*
X0189400Y0109790D01*
X0189066Y0110249D01*
X0188494Y0110822D01*
X0187839Y0111298D01*
X0187118Y0111665D01*
X0186348Y0111915D01*
X0185548Y0112042D01*
X0182181Y0112042D01*
X0182181Y0107480D01*
X0181019Y0107480D01*
X0181019Y0112042D01*
X0177652Y0112042D01*
X0176852Y0111915D01*
X0176082Y0111665D01*
X0175361Y0111298D01*
X0174706Y0110822D01*
X0174134Y0110249D01*
X0173658Y0109594D01*
X0173290Y0108873D01*
X0173040Y0108103D01*
X0172941Y0107480D01*
X0181019Y0107480D01*
X0181019Y0106317D01*
X0182181Y0106317D01*
X0182181Y0101755D01*
X0185548Y0101755D01*
X0186348Y0101882D01*
X0187118Y0102132D01*
X0187839Y0102500D01*
X0188494Y0102976D01*
X0189066Y0103548D01*
X0189400Y0104007D01*
X0189400Y0097661D01*
X0189304Y0096892D01*
X0189400Y0096769D01*
X0189400Y0096612D01*
X0189948Y0096065D01*
X0206900Y0074269D01*
X0206900Y0074112D01*
X0207448Y0073565D01*
X0207923Y0072954D01*
X0208078Y0072934D01*
X0208189Y0072824D01*
X0208401Y0072824D01*
X0208696Y0072110D01*
X0210143Y0070663D01*
X0212034Y0069880D01*
X0219638Y0069880D01*
X0219638Y0067438D01*
X0219768Y0067124D01*
X0178432Y0067124D01*
X0178562Y0067438D01*
X0178562Y0070208D01*
X0177502Y0072767D01*
X0175544Y0074725D01*
X0172985Y0075785D01*
X0170287Y0075785D01*
X0170287Y0076047D01*
X0169504Y0077937D01*
X0168057Y0079384D01*
X0166166Y0080167D01*
X0157034Y0080167D01*
X0155143Y0079384D01*
X0154460Y0078700D01*
X0148800Y0088133D01*
X0148800Y0111697D01*
X0148800Y0110464D02*
X0151250Y0110464D01*
X0150201Y0109266D02*
X0148800Y0109266D01*
X0148800Y0108067D02*
X0149359Y0108067D01*
X0149400Y0106869D02*
X0148800Y0106869D01*
X0148800Y0105670D02*
X0149400Y0105670D01*
X0149400Y0104472D02*
X0148800Y0104472D01*
X0148800Y0103273D02*
X0149400Y0103273D01*
X0149400Y0102074D02*
X0148800Y0102074D01*
X0148800Y0100876D02*
X0149400Y0100876D01*
X0149400Y0099677D02*
X0148800Y0099677D01*
X0148800Y0098479D02*
X0149400Y0098479D01*
X0149262Y0097280D02*
X0148800Y0097280D01*
X0148800Y0096082D02*
X0149861Y0096082D01*
X0150460Y0094883D02*
X0148800Y0094883D01*
X0148800Y0093685D02*
X0151060Y0093685D01*
X0151659Y0092486D02*
X0148800Y0092486D01*
X0148800Y0091288D02*
X0152258Y0091288D01*
X0152857Y0090089D02*
X0148800Y0090089D01*
X0148800Y0088891D02*
X0153315Y0088891D01*
X0152913Y0087692D02*
X0149064Y0087692D01*
X0149783Y0086494D02*
X0152913Y0086494D01*
X0153154Y0085295D02*
X0150503Y0085295D01*
X0151222Y0084097D02*
X0153650Y0084097D01*
X0154783Y0082898D02*
X0151941Y0082898D01*
X0152660Y0081700D02*
X0201120Y0081700D01*
X0200188Y0082898D02*
X0168417Y0082898D01*
X0169550Y0084097D02*
X0199256Y0084097D01*
X0198324Y0085295D02*
X0170046Y0085295D01*
X0170287Y0086494D02*
X0197392Y0086494D01*
X0196459Y0087692D02*
X0170287Y0087692D01*
X0169885Y0088891D02*
X0195527Y0088891D01*
X0194595Y0090089D02*
X0174602Y0090089D01*
X0176352Y0091288D02*
X0193663Y0091288D01*
X0192731Y0092486D02*
X0177522Y0092486D01*
X0178019Y0093685D02*
X0191799Y0093685D01*
X0190866Y0094883D02*
X0178515Y0094883D01*
X0178562Y0096082D02*
X0189930Y0096082D01*
X0189352Y0097280D02*
X0178562Y0097280D01*
X0178267Y0098479D02*
X0189400Y0098479D01*
X0189400Y0099677D02*
X0177771Y0099677D01*
X0176952Y0100876D02*
X0189400Y0100876D01*
X0189400Y0102074D02*
X0186940Y0102074D01*
X0188791Y0103273D02*
X0189400Y0103273D01*
X0193800Y0103273D02*
X0196315Y0103273D01*
X0196932Y0102074D02*
X0193800Y0102074D01*
X0193800Y0100876D02*
X0197550Y0100876D01*
X0198167Y0099677D02*
X0193800Y0099677D01*
X0193800Y0098479D02*
X0198785Y0098479D01*
X0199402Y0097280D02*
X0194576Y0097280D01*
X0195508Y0096082D02*
X0200019Y0096082D01*
X0200637Y0094883D02*
X0196441Y0094883D01*
X0197373Y0093685D02*
X0201254Y0093685D01*
X0201872Y0092486D02*
X0198305Y0092486D01*
X0199237Y0091288D02*
X0202489Y0091288D01*
X0203107Y0090089D02*
X0200169Y0090089D01*
X0201101Y0088891D02*
X0203724Y0088891D01*
X0204341Y0087692D02*
X0202034Y0087692D01*
X0202966Y0086494D02*
X0204959Y0086494D01*
X0205576Y0085295D02*
X0203898Y0085295D01*
X0204830Y0084097D02*
X0208650Y0084097D01*
X0209783Y0082898D02*
X0205762Y0082898D01*
X0206694Y0081700D02*
X0245701Y0081700D01*
X0245701Y0082898D02*
X0223417Y0082898D01*
X0224550Y0084097D02*
X0245701Y0084097D01*
X0245701Y0085295D02*
X0225046Y0085295D01*
X0225287Y0086494D02*
X0245701Y0086494D01*
X0245701Y0087692D02*
X0225287Y0087692D01*
X0224885Y0088891D02*
X0245701Y0088891D01*
X0245701Y0090089D02*
X0229602Y0090089D01*
X0231352Y0091288D02*
X0245701Y0091288D01*
X0245701Y0092486D02*
X0232522Y0092486D01*
X0233019Y0093685D02*
X0245701Y0093685D01*
X0245701Y0094883D02*
X0233515Y0094883D01*
X0233562Y0096082D02*
X0245701Y0096082D01*
X0245701Y0097280D02*
X0233562Y0097280D01*
X0233267Y0098479D02*
X0245701Y0098479D01*
X0245701Y0099677D02*
X0232771Y0099677D01*
X0231952Y0100876D02*
X0245701Y0100876D01*
X0245701Y0102074D02*
X0241940Y0102074D01*
X0242118Y0102132D02*
X0242839Y0102500D01*
X0243494Y0102976D01*
X0244066Y0103548D01*
X0244542Y0104203D01*
X0244910Y0104924D01*
X0245160Y0105694D01*
X0245259Y0106317D01*
X0237181Y0106317D01*
X0237181Y0101755D01*
X0240548Y0101755D01*
X0241348Y0101882D01*
X0242118Y0102132D01*
X0243791Y0103273D02*
X0245701Y0103273D01*
X0245701Y0104472D02*
X0244679Y0104472D01*
X0245152Y0105670D02*
X0245701Y0105670D01*
X0245701Y0106869D02*
X0237181Y0106869D01*
X0237181Y0106317D02*
X0237181Y0107480D01*
X0236019Y0107480D01*
X0236019Y0112042D01*
X0232652Y0112042D01*
X0231852Y0111915D01*
X0231082Y0111665D01*
X0230361Y0111298D01*
X0229706Y0110822D01*
X0229134Y0110249D01*
X0228658Y0109594D01*
X0228290Y0108873D01*
X0228040Y0108103D01*
X0227941Y0107480D01*
X0236019Y0107480D01*
X0236019Y0106317D01*
X0237181Y0106317D01*
X0237181Y0105670D02*
X0236019Y0105670D01*
X0236019Y0106317D02*
X0236019Y0101755D01*
X0232652Y0101755D01*
X0231852Y0101882D01*
X0231082Y0102132D01*
X0230361Y0102500D01*
X0229706Y0102976D01*
X0229134Y0103548D01*
X0228658Y0104203D01*
X0228290Y0104924D01*
X0228040Y0105694D01*
X0227941Y0106317D01*
X0236019Y0106317D01*
X0236019Y0106869D02*
X0223072Y0106869D01*
X0224271Y0105670D02*
X0228048Y0105670D01*
X0228521Y0104472D02*
X0224904Y0104472D01*
X0228156Y0103273D02*
X0229409Y0103273D01*
X0230753Y0102074D02*
X0231260Y0102074D01*
X0236019Y0102074D02*
X0237181Y0102074D01*
X0237181Y0103273D02*
X0236019Y0103273D01*
X0236019Y0104472D02*
X0237181Y0104472D01*
X0237181Y0107480D02*
X0245259Y0107480D01*
X0245160Y0108103D01*
X0244910Y0108873D01*
X0244542Y0109594D01*
X0244066Y0110249D01*
X0243494Y0110822D01*
X0242839Y0111298D01*
X0242118Y0111665D01*
X0241348Y0111915D01*
X0240548Y0112042D01*
X0237181Y0112042D01*
X0237181Y0107480D01*
X0237181Y0108067D02*
X0236019Y0108067D01*
X0236019Y0109266D02*
X0237181Y0109266D01*
X0237181Y0110464D02*
X0236019Y0110464D01*
X0236019Y0111663D02*
X0237181Y0111663D01*
X0242123Y0111663D02*
X0245701Y0111663D01*
X0245701Y0112861D02*
X0198800Y0112861D01*
X0198800Y0111663D02*
X0231077Y0111663D01*
X0229348Y0110464D02*
X0198800Y0110464D01*
X0198800Y0109266D02*
X0228490Y0109266D01*
X0228034Y0108067D02*
X0198800Y0108067D01*
X0199412Y0106869D02*
X0210128Y0106869D01*
X0208929Y0105670D02*
X0200030Y0105670D01*
X0200647Y0104472D02*
X0208296Y0104472D01*
X0207913Y0103273D02*
X0201264Y0103273D01*
X0201882Y0102074D02*
X0207913Y0102074D01*
X0208172Y0100876D02*
X0202499Y0100876D01*
X0203117Y0099677D02*
X0208669Y0099677D01*
X0209828Y0098479D02*
X0203734Y0098479D01*
X0204352Y0097280D02*
X0219638Y0097280D01*
X0219638Y0096082D02*
X0204969Y0096082D01*
X0205586Y0094883D02*
X0219685Y0094883D01*
X0220181Y0093685D02*
X0206204Y0093685D01*
X0206821Y0092486D02*
X0220678Y0092486D01*
X0216600Y0086899D02*
X0207225Y0086899D01*
X0196600Y0107524D01*
X0196600Y0217524D01*
X0206600Y0227524D01*
X0210105Y0231514D02*
X0245701Y0231514D01*
X0245701Y0232712D02*
X0208834Y0232712D01*
X0210482Y0233911D02*
X0245701Y0233911D01*
X0245701Y0235109D02*
X0211337Y0235109D01*
X0211833Y0236308D02*
X0245701Y0236308D01*
X0245701Y0237506D02*
X0211900Y0237506D01*
X0211847Y0238705D02*
X0245701Y0238705D01*
X0245701Y0239903D02*
X0211351Y0239903D01*
X0210517Y0241102D02*
X0245701Y0241102D01*
X0245701Y0242300D02*
X0208918Y0242300D01*
X0210071Y0243499D02*
X0245701Y0243499D01*
X0245701Y0244697D02*
X0211166Y0244697D01*
X0211662Y0245896D02*
X0245701Y0245896D01*
X0245701Y0247094D02*
X0211900Y0247094D01*
X0211900Y0248293D02*
X0245701Y0248293D01*
X0245701Y0249491D02*
X0211522Y0249491D01*
X0210929Y0250690D02*
X0245701Y0250690D01*
X0245701Y0251888D02*
X0209731Y0251888D01*
X0209659Y0253087D02*
X0245701Y0253087D01*
X0245701Y0254285D02*
X0210857Y0254285D01*
X0211492Y0255484D02*
X0245701Y0255484D01*
X0245701Y0256682D02*
X0211900Y0256682D01*
X0211900Y0257881D02*
X0245701Y0257881D01*
X0245701Y0259079D02*
X0211692Y0259079D01*
X0211196Y0260278D02*
X0245701Y0260278D01*
X0245701Y0261477D02*
X0210142Y0261477D01*
X0208744Y0262675D02*
X0245701Y0262675D01*
X0245701Y0263874D02*
X0210445Y0263874D01*
X0211321Y0265072D02*
X0245701Y0265072D01*
X0245701Y0266271D02*
X0211818Y0266271D01*
X0211900Y0267469D02*
X0245701Y0267469D01*
X0245701Y0268668D02*
X0211863Y0268668D01*
X0211366Y0269866D02*
X0245701Y0269866D01*
X0245701Y0287844D02*
X0011200Y0287844D01*
X0011200Y0289042D02*
X0245701Y0289042D01*
X0245701Y0290241D02*
X0011200Y0290241D01*
X0011200Y0291439D02*
X0245701Y0291439D01*
X0245701Y0292638D02*
X0011200Y0292638D01*
X0011200Y0293836D02*
X0135095Y0293836D01*
X0135143Y0293788D02*
X0137034Y0293005D01*
X0146166Y0293005D01*
X0148057Y0293788D01*
X0149504Y0295235D01*
X0150287Y0297126D01*
X0150287Y0299172D01*
X0149504Y0301062D01*
X0148057Y0302509D01*
X0146166Y0303292D01*
X0137034Y0303292D01*
X0135143Y0302509D01*
X0133696Y0301062D01*
X0132913Y0299172D01*
X0132913Y0297126D01*
X0133696Y0295235D01*
X0135143Y0293788D01*
X0133897Y0295035D02*
X0011200Y0295035D01*
X0011200Y0296233D02*
X0133283Y0296233D01*
X0132913Y0297432D02*
X0011200Y0297432D01*
X0011200Y0298630D02*
X0132913Y0298630D01*
X0133186Y0299829D02*
X0011200Y0299829D01*
X0011200Y0301027D02*
X0133682Y0301027D01*
X0134860Y0302226D02*
X0011200Y0302226D01*
X0011200Y0303424D02*
X0146995Y0303424D01*
X0147656Y0302763D02*
X0150215Y0301703D01*
X0152913Y0301703D01*
X0152913Y0301501D01*
X0153696Y0299610D01*
X0155143Y0298163D01*
X0157034Y0297380D01*
X0166166Y0297380D01*
X0168057Y0298163D01*
X0169504Y0299610D01*
X0170287Y0301501D01*
X0170287Y0303547D01*
X0169504Y0305437D01*
X0168057Y0306884D01*
X0166166Y0307667D01*
X0158562Y0307667D01*
X0158562Y0310050D01*
X0157502Y0312609D01*
X0157106Y0313005D01*
X0166166Y0313005D01*
X0168057Y0313788D01*
X0169504Y0315235D01*
X0170287Y0317126D01*
X0170287Y0319172D01*
X0169504Y0321062D01*
X0168057Y0322509D01*
X0166166Y0323292D01*
X0157034Y0323292D01*
X0155143Y0322509D01*
X0153696Y0321062D01*
X0152913Y0319172D01*
X0152913Y0317126D01*
X0153648Y0315353D01*
X0152985Y0315628D01*
X0150215Y0315628D01*
X0147656Y0314568D01*
X0145698Y0312609D01*
X0144638Y0310050D01*
X0144638Y0307280D01*
X0145698Y0304722D01*
X0147656Y0302763D01*
X0148340Y0302226D02*
X0148953Y0302226D01*
X0149518Y0301027D02*
X0153109Y0301027D01*
X0153606Y0299829D02*
X0150014Y0299829D01*
X0150287Y0298630D02*
X0154676Y0298630D01*
X0156909Y0297432D02*
X0150287Y0297432D01*
X0149917Y0296233D02*
X0188283Y0296233D01*
X0187913Y0297126D02*
X0188696Y0295235D01*
X0190143Y0293788D01*
X0192034Y0293005D01*
X0201166Y0293005D01*
X0203057Y0293788D01*
X0204504Y0295235D01*
X0205287Y0297126D01*
X0205287Y0299172D01*
X0204504Y0301062D01*
X0203057Y0302509D01*
X0201166Y0303292D01*
X0192034Y0303292D01*
X0190143Y0302509D01*
X0188696Y0301062D01*
X0187913Y0299172D01*
X0187913Y0297126D01*
X0187913Y0297432D02*
X0166291Y0297432D01*
X0168524Y0298630D02*
X0187913Y0298630D01*
X0188186Y0299829D02*
X0169594Y0299829D01*
X0170091Y0301027D02*
X0188682Y0301027D01*
X0189860Y0302226D02*
X0170287Y0302226D01*
X0170287Y0303424D02*
X0201995Y0303424D01*
X0202656Y0302763D02*
X0205215Y0301703D01*
X0207913Y0301703D01*
X0207913Y0301501D01*
X0208696Y0299610D01*
X0210143Y0298163D01*
X0212034Y0297380D01*
X0221166Y0297380D01*
X0223057Y0298163D01*
X0224504Y0299610D01*
X0225287Y0301501D01*
X0225287Y0303547D01*
X0224504Y0305437D01*
X0223057Y0306884D01*
X0221166Y0307667D01*
X0213562Y0307667D01*
X0213562Y0310050D01*
X0212502Y0312609D01*
X0212106Y0313005D01*
X0221166Y0313005D01*
X0223057Y0313788D01*
X0224504Y0315235D01*
X0225287Y0317126D01*
X0225287Y0319172D01*
X0224504Y0321062D01*
X0223057Y0322509D01*
X0221166Y0323292D01*
X0212034Y0323292D01*
X0210143Y0322509D01*
X0208696Y0321062D01*
X0207913Y0319172D01*
X0207913Y0317126D01*
X0208648Y0315353D01*
X0207985Y0315628D01*
X0205215Y0315628D01*
X0202656Y0314568D01*
X0200698Y0312609D01*
X0199638Y0310050D01*
X0199638Y0307280D01*
X0200698Y0304722D01*
X0202656Y0302763D01*
X0203340Y0302226D02*
X0203953Y0302226D01*
X0204518Y0301027D02*
X0208109Y0301027D01*
X0208606Y0299829D02*
X0205014Y0299829D01*
X0205287Y0298630D02*
X0209676Y0298630D01*
X0211909Y0297432D02*
X0205287Y0297432D01*
X0204917Y0296233D02*
X0245701Y0296233D01*
X0245701Y0295035D02*
X0204303Y0295035D01*
X0203105Y0293836D02*
X0245701Y0293836D01*
X0245701Y0297432D02*
X0221291Y0297432D01*
X0223524Y0298630D02*
X0245701Y0298630D01*
X0245701Y0299829D02*
X0224594Y0299829D01*
X0225091Y0301027D02*
X0245701Y0301027D01*
X0245701Y0302226D02*
X0225287Y0302226D01*
X0225287Y0303424D02*
X0245701Y0303424D01*
X0245701Y0304623D02*
X0224841Y0304623D01*
X0224119Y0305821D02*
X0245701Y0305821D01*
X0245701Y0307020D02*
X0222728Y0307020D01*
X0221184Y0313012D02*
X0245701Y0313012D01*
X0245701Y0311814D02*
X0212832Y0311814D01*
X0213328Y0310615D02*
X0245701Y0310615D01*
X0245701Y0309417D02*
X0213562Y0309417D01*
X0213562Y0308218D02*
X0245701Y0308218D01*
X0245701Y0314211D02*
X0223479Y0314211D01*
X0224576Y0315410D02*
X0245701Y0315410D01*
X0245701Y0316608D02*
X0225072Y0316608D01*
X0225287Y0317807D02*
X0245701Y0317807D01*
X0245701Y0319005D02*
X0225287Y0319005D01*
X0224859Y0320204D02*
X0245701Y0320204D01*
X0245701Y0321402D02*
X0224164Y0321402D01*
X0222835Y0322601D02*
X0245701Y0322601D01*
X0245701Y0323799D02*
X0123517Y0323799D01*
X0123965Y0323984D02*
X0125139Y0325159D01*
X0125775Y0326693D01*
X0125775Y0328354D01*
X0125139Y0329888D01*
X0123965Y0331063D01*
X0122430Y0331698D01*
X0120770Y0331698D01*
X0119235Y0331063D01*
X0118061Y0329888D01*
X0117425Y0328354D01*
X0117425Y0326693D01*
X0118061Y0325159D01*
X0119235Y0323984D01*
X0120770Y0323349D01*
X0122430Y0323349D01*
X0123965Y0323984D01*
X0124978Y0324998D02*
X0156750Y0324998D01*
X0154610Y0326196D02*
X0125569Y0326196D01*
X0125775Y0327395D02*
X0153579Y0327395D01*
X0153082Y0328593D02*
X0125676Y0328593D01*
X0125179Y0329792D02*
X0148937Y0329792D01*
X0146988Y0330990D02*
X0124038Y0330990D01*
X0119162Y0330990D02*
X0114038Y0330990D01*
X0113965Y0331063D02*
X0112430Y0331698D01*
X0110770Y0331698D01*
X0109235Y0331063D01*
X0108061Y0329888D01*
X0107425Y0328354D01*
X0107425Y0326693D01*
X0108061Y0325159D01*
X0109235Y0323984D01*
X0110770Y0323349D01*
X0112430Y0323349D01*
X0113965Y0323984D01*
X0115139Y0325159D01*
X0115775Y0326693D01*
X0115775Y0328354D01*
X0115139Y0329888D01*
X0113965Y0331063D01*
X0115179Y0329792D02*
X0118021Y0329792D01*
X0117524Y0328593D02*
X0115676Y0328593D01*
X0115775Y0327395D02*
X0117425Y0327395D01*
X0117631Y0326196D02*
X0115569Y0326196D01*
X0114978Y0324998D02*
X0118222Y0324998D01*
X0119683Y0323799D02*
X0113517Y0323799D01*
X0109683Y0323799D02*
X0099381Y0323799D01*
X0099206Y0323624D02*
X0100500Y0324918D01*
X0101200Y0326609D01*
X0101200Y0328439D01*
X0100500Y0330129D01*
X0099206Y0331423D01*
X0097515Y0332124D01*
X0095685Y0332124D01*
X0093994Y0331423D01*
X0092700Y0330129D01*
X0092000Y0328439D01*
X0092000Y0326609D01*
X0092700Y0324918D01*
X0093994Y0323624D01*
X0095685Y0322924D01*
X0097515Y0322924D01*
X0099206Y0323624D01*
X0100533Y0324998D02*
X0108222Y0324998D01*
X0107631Y0326196D02*
X0101029Y0326196D01*
X0101200Y0327395D02*
X0107425Y0327395D01*
X0107524Y0328593D02*
X0101136Y0328593D01*
X0100640Y0329792D02*
X0108021Y0329792D01*
X0109162Y0330990D02*
X0099639Y0330990D01*
X0093561Y0330990D02*
X0089639Y0330990D01*
X0089597Y0331032D02*
X0089011Y0331458D01*
X0088366Y0331787D01*
X0087677Y0332010D01*
X0087000Y0332118D01*
X0087000Y0327924D01*
X0086200Y0327924D01*
X0086200Y0332118D01*
X0085523Y0332010D01*
X0084834Y0331787D01*
X0084189Y0331458D01*
X0083603Y0331032D01*
X0083091Y0330520D01*
X0082666Y0329935D01*
X0082337Y0329289D01*
X0082113Y0328601D01*
X0082006Y0327924D01*
X0086200Y0327924D01*
X0086200Y0327124D01*
X0082006Y0327124D01*
X0082113Y0326446D01*
X0082337Y0325758D01*
X0082666Y0325113D01*
X0083091Y0324527D01*
X0083603Y0324015D01*
X0084189Y0323589D01*
X0084834Y0323261D01*
X0085523Y0323037D01*
X0086200Y0322930D01*
X0086200Y0327124D01*
X0087000Y0327124D01*
X0087000Y0327924D01*
X0091194Y0327924D01*
X0091087Y0328601D01*
X0090863Y0329289D01*
X0090534Y0329935D01*
X0090109Y0330520D01*
X0089597Y0331032D01*
X0090607Y0329792D02*
X0092560Y0329792D01*
X0092064Y0328593D02*
X0091088Y0328593D01*
X0091194Y0327124D02*
X0087000Y0327124D01*
X0087000Y0322930D01*
X0087677Y0323037D01*
X0088366Y0323261D01*
X0089011Y0323589D01*
X0089597Y0324015D01*
X0090109Y0324527D01*
X0090534Y0325113D01*
X0090863Y0325758D01*
X0091087Y0326446D01*
X0091194Y0327124D01*
X0092000Y0327395D02*
X0087000Y0327395D01*
X0086200Y0327395D02*
X0081200Y0327395D01*
X0081200Y0326609D02*
X0081200Y0328439D01*
X0080500Y0330129D01*
X0079206Y0331423D01*
X0077515Y0332124D01*
X0075685Y0332124D01*
X0073994Y0331423D01*
X0072700Y0330129D01*
X0072000Y0328439D01*
X0072000Y0326609D01*
X0072700Y0324918D01*
X0073994Y0323624D01*
X0075685Y0322924D01*
X0077515Y0322924D01*
X0079206Y0323624D01*
X0080500Y0324918D01*
X0081200Y0326609D01*
X0081029Y0326196D02*
X0082195Y0326196D01*
X0082749Y0324998D02*
X0080533Y0324998D01*
X0079381Y0323799D02*
X0083900Y0323799D01*
X0086200Y0323799D02*
X0087000Y0323799D01*
X0087000Y0324998D02*
X0086200Y0324998D01*
X0086200Y0326196D02*
X0087000Y0326196D01*
X0087000Y0328593D02*
X0086200Y0328593D01*
X0086200Y0329792D02*
X0087000Y0329792D01*
X0087000Y0330990D02*
X0086200Y0330990D01*
X0083561Y0330990D02*
X0079639Y0330990D01*
X0080640Y0329792D02*
X0082593Y0329792D01*
X0082112Y0328593D02*
X0081136Y0328593D01*
X0073561Y0330990D02*
X0011200Y0330990D01*
X0011200Y0329792D02*
X0072560Y0329792D01*
X0072064Y0328593D02*
X0011200Y0328593D01*
X0011200Y0327395D02*
X0072000Y0327395D01*
X0072171Y0326196D02*
X0011200Y0326196D01*
X0011200Y0324998D02*
X0072667Y0324998D01*
X0073819Y0323799D02*
X0011200Y0323799D01*
X0011200Y0322601D02*
X0155365Y0322601D01*
X0154036Y0321402D02*
X0011200Y0321402D01*
X0011200Y0320204D02*
X0153341Y0320204D01*
X0152913Y0319005D02*
X0011200Y0319005D01*
X0011200Y0317807D02*
X0152913Y0317807D01*
X0153128Y0316608D02*
X0011200Y0316608D01*
X0011200Y0315410D02*
X0129561Y0315410D01*
X0129627Y0315476D02*
X0128648Y0314496D01*
X0128117Y0313216D01*
X0128117Y0311831D01*
X0128648Y0310551D01*
X0129627Y0309571D01*
X0130907Y0309041D01*
X0132293Y0309041D01*
X0133573Y0309571D01*
X0134552Y0310551D01*
X0135083Y0311831D01*
X0135083Y0313216D01*
X0134552Y0314496D01*
X0133573Y0315476D01*
X0132293Y0316006D01*
X0130907Y0316006D01*
X0129627Y0315476D01*
X0128529Y0314211D02*
X0011200Y0314211D01*
X0011200Y0313012D02*
X0128117Y0313012D01*
X0128124Y0311814D02*
X0011200Y0311814D01*
X0011200Y0310615D02*
X0128621Y0310615D01*
X0129999Y0309417D02*
X0011200Y0309417D01*
X0011200Y0308218D02*
X0144638Y0308218D01*
X0144638Y0309417D02*
X0133201Y0309417D01*
X0134579Y0310615D02*
X0144872Y0310615D01*
X0145368Y0311814D02*
X0135076Y0311814D01*
X0135083Y0313012D02*
X0146101Y0313012D01*
X0147300Y0314211D02*
X0134671Y0314211D01*
X0133639Y0315410D02*
X0149689Y0315410D01*
X0153511Y0315410D02*
X0153624Y0315410D01*
X0157832Y0311814D02*
X0200368Y0311814D01*
X0199872Y0310615D02*
X0158328Y0310615D01*
X0158562Y0309417D02*
X0199638Y0309417D01*
X0199638Y0308218D02*
X0158562Y0308218D01*
X0166184Y0313012D02*
X0201101Y0313012D01*
X0202300Y0314211D02*
X0168479Y0314211D01*
X0169576Y0315410D02*
X0204689Y0315410D01*
X0208128Y0316608D02*
X0170072Y0316608D01*
X0170287Y0317807D02*
X0207913Y0317807D01*
X0207913Y0319005D02*
X0170287Y0319005D01*
X0169859Y0320204D02*
X0208341Y0320204D01*
X0209036Y0321402D02*
X0169164Y0321402D01*
X0167835Y0322601D02*
X0210365Y0322601D01*
X0211750Y0324998D02*
X0166450Y0324998D01*
X0168590Y0326196D02*
X0209610Y0326196D01*
X0208579Y0327395D02*
X0169621Y0327395D01*
X0170118Y0328593D02*
X0208082Y0328593D01*
X0203937Y0329792D02*
X0170287Y0329792D01*
X0170287Y0330990D02*
X0201988Y0330990D01*
X0200790Y0332189D02*
X0169814Y0332189D01*
X0169053Y0333387D02*
X0200239Y0333387D01*
X0199743Y0334586D02*
X0167570Y0334586D01*
X0158562Y0335784D02*
X0199638Y0335784D01*
X0199638Y0336983D02*
X0158562Y0336983D01*
X0145790Y0332189D02*
X0011200Y0332189D01*
X0011200Y0333387D02*
X0145239Y0333387D01*
X0144743Y0334586D02*
X0011200Y0334586D01*
X0011200Y0335784D02*
X0144638Y0335784D01*
X0144638Y0336983D02*
X0011200Y0336983D01*
X0011200Y0307020D02*
X0144746Y0307020D01*
X0145242Y0305821D02*
X0011200Y0305821D01*
X0011200Y0304623D02*
X0145796Y0304623D01*
X0149303Y0295035D02*
X0188897Y0295035D01*
X0190095Y0293836D02*
X0148105Y0293836D01*
X0167728Y0307020D02*
X0199746Y0307020D01*
X0200242Y0305821D02*
X0169119Y0305821D01*
X0169841Y0304623D02*
X0200796Y0304623D01*
X0208511Y0315410D02*
X0208624Y0315410D01*
X0221450Y0324998D02*
X0245701Y0324998D01*
X0245701Y0326196D02*
X0223590Y0326196D01*
X0224621Y0327395D02*
X0245701Y0327395D01*
X0245701Y0328593D02*
X0225118Y0328593D01*
X0225287Y0329792D02*
X0245701Y0329792D01*
X0245701Y0330990D02*
X0225287Y0330990D01*
X0224814Y0332189D02*
X0245701Y0332189D01*
X0245701Y0333387D02*
X0224053Y0333387D01*
X0222570Y0334586D02*
X0245701Y0334586D01*
X0245701Y0335784D02*
X0213562Y0335784D01*
X0213562Y0336983D02*
X0245701Y0336983D01*
X0202234Y0280653D02*
X0114595Y0280653D01*
X0103892Y0280653D02*
X0078146Y0280653D01*
X0079570Y0279454D02*
X0101794Y0279454D01*
X0099697Y0278256D02*
X0080066Y0278256D01*
X0080083Y0277057D02*
X0097599Y0277057D01*
X0095502Y0275859D02*
X0079680Y0275859D01*
X0078662Y0274660D02*
X0093405Y0274660D01*
X0074223Y0265072D02*
X0035577Y0265072D01*
X0036276Y0263874D02*
X0073390Y0263874D01*
X0073117Y0262675D02*
X0036975Y0262675D01*
X0037674Y0261477D02*
X0073264Y0261477D01*
X0073920Y0260278D02*
X0038374Y0260278D01*
X0035377Y0256682D02*
X0032554Y0256682D01*
X0033253Y0255484D02*
X0036076Y0255484D01*
X0036775Y0254285D02*
X0033953Y0254285D01*
X0034652Y0253087D02*
X0037474Y0253087D01*
X0038174Y0251888D02*
X0035351Y0251888D01*
X0036050Y0250690D02*
X0038873Y0250690D01*
X0039572Y0249491D02*
X0036749Y0249491D01*
X0037448Y0248293D02*
X0040271Y0248293D01*
X0040970Y0247094D02*
X0038147Y0247094D01*
X0038846Y0245896D02*
X0041669Y0245896D01*
X0042368Y0244697D02*
X0039546Y0244697D01*
X0040245Y0243499D02*
X0043068Y0243499D01*
X0043767Y0242300D02*
X0040944Y0242300D01*
X0041643Y0241102D02*
X0044466Y0241102D01*
X0045165Y0239903D02*
X0042342Y0239903D01*
X0043041Y0238705D02*
X0045864Y0238705D01*
X0046563Y0237506D02*
X0043740Y0237506D01*
X0044440Y0236308D02*
X0047262Y0236308D01*
X0047961Y0235109D02*
X0045139Y0235109D01*
X0045838Y0233911D02*
X0048661Y0233911D01*
X0049360Y0232712D02*
X0046537Y0232712D01*
X0047236Y0231514D02*
X0050059Y0231514D01*
X0050758Y0230315D02*
X0047935Y0230315D01*
X0048634Y0229117D02*
X0051457Y0229117D01*
X0052156Y0227918D02*
X0049333Y0227918D01*
X0050033Y0226720D02*
X0052855Y0226720D01*
X0053554Y0225521D02*
X0050732Y0225521D01*
X0051431Y0224323D02*
X0054254Y0224323D01*
X0054953Y0223124D02*
X0052130Y0223124D01*
X0052829Y0221926D02*
X0055652Y0221926D01*
X0056351Y0220727D02*
X0053528Y0220727D01*
X0054227Y0219529D02*
X0057050Y0219529D01*
X0057749Y0218330D02*
X0054927Y0218330D01*
X0055626Y0217132D02*
X0058448Y0217132D01*
X0059148Y0215933D02*
X0056325Y0215933D01*
X0057024Y0214735D02*
X0059847Y0214735D01*
X0060546Y0213536D02*
X0057723Y0213536D01*
X0058422Y0212338D02*
X0061245Y0212338D01*
X0061944Y0211139D02*
X0059121Y0211139D01*
X0059820Y0209941D02*
X0062643Y0209941D01*
X0063342Y0208742D02*
X0060520Y0208742D01*
X0061219Y0207543D02*
X0064041Y0207543D01*
X0064696Y0206345D02*
X0061918Y0206345D01*
X0062617Y0205146D02*
X0065157Y0205146D01*
X0065618Y0203948D02*
X0063415Y0203948D01*
X0063934Y0202749D02*
X0066079Y0202749D01*
X0066540Y0201551D02*
X0064314Y0201551D01*
X0064764Y0200352D02*
X0067001Y0200352D01*
X0067462Y0199154D02*
X0065213Y0199154D01*
X0065663Y0197955D02*
X0067923Y0197955D01*
X0068384Y0196757D02*
X0066112Y0196757D01*
X0066562Y0195558D02*
X0068845Y0195558D01*
X0069306Y0194360D02*
X0067011Y0194360D01*
X0067460Y0193161D02*
X0069767Y0193161D01*
X0070228Y0191963D02*
X0067910Y0191963D01*
X0068359Y0190764D02*
X0070689Y0190764D01*
X0071150Y0189566D02*
X0068809Y0189566D01*
X0069258Y0188367D02*
X0071611Y0188367D01*
X0072072Y0187169D02*
X0069708Y0187169D01*
X0070157Y0185970D02*
X0072533Y0185970D01*
X0072994Y0184772D02*
X0070607Y0184772D01*
X0071056Y0183573D02*
X0073455Y0183573D01*
X0073916Y0182375D02*
X0071505Y0182375D01*
X0071955Y0181176D02*
X0074377Y0181176D01*
X0074837Y0179978D02*
X0072404Y0179978D01*
X0072854Y0178779D02*
X0075298Y0178779D01*
X0075759Y0177581D02*
X0073303Y0177581D01*
X0073753Y0176382D02*
X0076220Y0176382D01*
X0076681Y0175184D02*
X0074202Y0175184D01*
X0074652Y0173985D02*
X0077142Y0173985D01*
X0077603Y0172787D02*
X0075101Y0172787D01*
X0075550Y0171588D02*
X0078064Y0171588D01*
X0078525Y0170390D02*
X0076000Y0170390D01*
X0076449Y0169191D02*
X0078986Y0169191D01*
X0079447Y0167993D02*
X0076899Y0167993D01*
X0077348Y0166794D02*
X0079908Y0166794D01*
X0080369Y0165596D02*
X0077798Y0165596D01*
X0078247Y0164397D02*
X0080830Y0164397D01*
X0081291Y0163199D02*
X0078696Y0163199D01*
X0079146Y0162000D02*
X0081752Y0162000D01*
X0082213Y0160802D02*
X0079595Y0160802D01*
X0080045Y0159603D02*
X0082674Y0159603D01*
X0083135Y0158405D02*
X0080494Y0158405D01*
X0080944Y0157206D02*
X0083596Y0157206D01*
X0084057Y0156008D02*
X0081393Y0156008D01*
X0081843Y0154809D02*
X0084518Y0154809D01*
X0084979Y0153610D02*
X0082292Y0153610D01*
X0082741Y0152412D02*
X0085440Y0152412D01*
X0085901Y0151213D02*
X0083191Y0151213D01*
X0083640Y0150015D02*
X0086362Y0150015D01*
X0086823Y0148816D02*
X0084090Y0148816D01*
X0084539Y0147618D02*
X0087284Y0147618D01*
X0087745Y0146419D02*
X0084989Y0146419D01*
X0085438Y0145221D02*
X0088205Y0145221D01*
X0088451Y0144022D02*
X0085888Y0144022D01*
X0086337Y0142824D02*
X0088117Y0142824D01*
X0088202Y0141625D02*
X0086786Y0141625D01*
X0087236Y0140427D02*
X0088772Y0140427D01*
X0087685Y0139228D02*
X0090455Y0139228D01*
X0092745Y0139228D02*
X0130193Y0139228D01*
X0131392Y0140427D02*
X0094428Y0140427D01*
X0094998Y0141625D02*
X0132590Y0141625D01*
X0133789Y0142824D02*
X0095083Y0142824D01*
X0094749Y0144022D02*
X0134988Y0144022D01*
X0136186Y0145221D02*
X0093828Y0145221D01*
X0092459Y0146419D02*
X0137385Y0146419D01*
X0138583Y0147618D02*
X0091998Y0147618D01*
X0091537Y0148816D02*
X0139782Y0148816D01*
X0140980Y0150015D02*
X0091076Y0150015D01*
X0090615Y0151213D02*
X0142179Y0151213D01*
X0143377Y0152412D02*
X0090154Y0152412D01*
X0089693Y0153610D02*
X0144576Y0153610D01*
X0145774Y0154809D02*
X0089232Y0154809D01*
X0088771Y0156008D02*
X0146973Y0156008D01*
X0148171Y0157206D02*
X0088310Y0157206D01*
X0087849Y0158405D02*
X0149370Y0158405D01*
X0150568Y0159603D02*
X0087388Y0159603D01*
X0086927Y0160802D02*
X0133328Y0160802D01*
X0133278Y0160838D02*
X0133927Y0160366D01*
X0134642Y0160002D01*
X0135406Y0159754D01*
X0136199Y0159628D01*
X0136314Y0159628D01*
X0136314Y0164442D01*
X0136886Y0164442D01*
X0136886Y0159628D01*
X0137001Y0159628D01*
X0137794Y0159754D01*
X0138558Y0160002D01*
X0139273Y0160366D01*
X0139922Y0160838D01*
X0140490Y0161406D01*
X0140962Y0162055D01*
X0141326Y0162771D01*
X0141574Y0163534D01*
X0141700Y0164327D01*
X0141700Y0164442D01*
X0136886Y0164442D01*
X0136886Y0165014D01*
X0141700Y0165014D01*
X0141700Y0165130D01*
X0141574Y0165923D01*
X0141326Y0166686D01*
X0140962Y0167401D01*
X0140490Y0168051D01*
X0139922Y0168618D01*
X0139273Y0169090D01*
X0138558Y0169455D01*
X0137794Y0169703D01*
X0137001Y0169828D01*
X0136886Y0169828D01*
X0136886Y0165014D01*
X0136314Y0165014D01*
X0136314Y0164442D01*
X0131500Y0164442D01*
X0131500Y0164327D01*
X0131626Y0163534D01*
X0131874Y0162771D01*
X0132238Y0162055D01*
X0132710Y0161406D01*
X0133278Y0160838D01*
X0132278Y0162000D02*
X0086466Y0162000D01*
X0086005Y0163199D02*
X0131735Y0163199D01*
X0131500Y0164397D02*
X0093153Y0164397D01*
X0094571Y0165596D02*
X0131574Y0165596D01*
X0131626Y0165923D02*
X0131500Y0165130D01*
X0131500Y0165014D01*
X0136314Y0165014D01*
X0136314Y0169828D01*
X0136199Y0169828D01*
X0135406Y0169703D01*
X0134642Y0169455D01*
X0133927Y0169090D01*
X0133278Y0168618D01*
X0132710Y0168051D01*
X0132238Y0167401D01*
X0131874Y0166686D01*
X0131626Y0165923D01*
X0131929Y0166794D02*
X0095067Y0166794D01*
X0095180Y0167993D02*
X0132668Y0167993D01*
X0134125Y0169191D02*
X0096379Y0169191D01*
X0097577Y0170390D02*
X0161355Y0170390D01*
X0162553Y0171588D02*
X0098776Y0171588D01*
X0099974Y0172787D02*
X0163752Y0172787D01*
X0164950Y0173985D02*
X0101173Y0173985D01*
X0102371Y0175184D02*
X0166149Y0175184D01*
X0167347Y0176382D02*
X0103570Y0176382D01*
X0104768Y0177581D02*
X0168546Y0177581D01*
X0169400Y0178779D02*
X0105967Y0178779D01*
X0107165Y0179978D02*
X0169400Y0179978D01*
X0169400Y0181176D02*
X0108364Y0181176D01*
X0109562Y0182375D02*
X0169400Y0182375D01*
X0169400Y0183573D02*
X0110761Y0183573D01*
X0111959Y0184772D02*
X0169400Y0184772D01*
X0169400Y0185970D02*
X0139428Y0185970D01*
X0139489Y0185995D02*
X0140924Y0187430D01*
X0141700Y0189304D01*
X0141700Y0191333D01*
X0140924Y0193208D01*
X0139489Y0194642D01*
X0137614Y0195419D01*
X0135586Y0195419D01*
X0133711Y0194642D01*
X0132276Y0193208D01*
X0131500Y0191333D01*
X0131500Y0189304D01*
X0132276Y0187430D01*
X0133711Y0185995D01*
X0135586Y0185219D01*
X0137614Y0185219D01*
X0139489Y0185995D01*
X0140662Y0187169D02*
X0169400Y0187169D01*
X0169400Y0188367D02*
X0141312Y0188367D01*
X0141700Y0189566D02*
X0169400Y0189566D01*
X0169400Y0190764D02*
X0141700Y0190764D01*
X0141439Y0191963D02*
X0169400Y0191963D01*
X0169400Y0193161D02*
X0140943Y0193161D01*
X0139772Y0194360D02*
X0169400Y0194360D01*
X0169400Y0195558D02*
X0122746Y0195558D01*
X0121548Y0194360D02*
X0133428Y0194360D01*
X0132257Y0193161D02*
X0120349Y0193161D01*
X0119150Y0191963D02*
X0131761Y0191963D01*
X0131500Y0190764D02*
X0117952Y0190764D01*
X0116753Y0189566D02*
X0131500Y0189566D01*
X0131888Y0188367D02*
X0115555Y0188367D01*
X0114356Y0187169D02*
X0132538Y0187169D01*
X0133772Y0185970D02*
X0113158Y0185970D01*
X0109332Y0188367D02*
X0101088Y0188367D01*
X0097493Y0187169D02*
X0108134Y0187169D01*
X0106935Y0185970D02*
X0094726Y0185970D01*
X0093773Y0184772D02*
X0105737Y0184772D01*
X0104052Y0205146D02*
X0094148Y0205146D01*
X0094108Y0209941D02*
X0104092Y0209941D01*
X0109108Y0209941D02*
X0116913Y0209941D01*
X0116014Y0208742D02*
X0109865Y0208742D01*
X0123945Y0196757D02*
X0169400Y0196757D01*
X0169400Y0197955D02*
X0125143Y0197955D01*
X0126342Y0199154D02*
X0169400Y0199154D01*
X0169400Y0200352D02*
X0127540Y0200352D01*
X0128739Y0201551D02*
X0169400Y0201551D01*
X0169400Y0202749D02*
X0129937Y0202749D01*
X0131136Y0203948D02*
X0169400Y0203948D01*
X0169400Y0205146D02*
X0132334Y0205146D01*
X0133533Y0206345D02*
X0169400Y0206345D01*
X0169400Y0207543D02*
X0134731Y0207543D01*
X0135930Y0208742D02*
X0169400Y0208742D01*
X0173800Y0208742D02*
X0174400Y0208742D01*
X0174400Y0209941D02*
X0173800Y0209941D01*
X0173800Y0211139D02*
X0174400Y0211139D01*
X0174400Y0212338D02*
X0173800Y0212338D01*
X0173800Y0213536D02*
X0174400Y0213536D01*
X0174400Y0207543D02*
X0173800Y0207543D01*
X0173800Y0206345D02*
X0174400Y0206345D01*
X0174400Y0205146D02*
X0173800Y0205146D01*
X0173800Y0203948D02*
X0174400Y0203948D01*
X0174400Y0202749D02*
X0173800Y0202749D01*
X0173800Y0201551D02*
X0174400Y0201551D01*
X0174400Y0200352D02*
X0173800Y0200352D01*
X0173800Y0199154D02*
X0174400Y0199154D01*
X0174400Y0197955D02*
X0173800Y0197955D01*
X0173800Y0196757D02*
X0174400Y0196757D01*
X0174400Y0195558D02*
X0173800Y0195558D01*
X0173800Y0194360D02*
X0174400Y0194360D01*
X0174400Y0193161D02*
X0173800Y0193161D01*
X0173800Y0191963D02*
X0174400Y0191963D01*
X0174400Y0190764D02*
X0173800Y0190764D01*
X0173800Y0189566D02*
X0174400Y0189566D01*
X0174400Y0188367D02*
X0173800Y0188367D01*
X0173800Y0187169D02*
X0174400Y0187169D01*
X0174400Y0185970D02*
X0173800Y0185970D01*
X0173800Y0184772D02*
X0174400Y0184772D01*
X0174400Y0183573D02*
X0173800Y0183573D01*
X0173800Y0182375D02*
X0174400Y0182375D01*
X0174400Y0181176D02*
X0173800Y0181176D01*
X0173800Y0179978D02*
X0174400Y0179978D01*
X0174400Y0178779D02*
X0173800Y0178779D01*
X0173800Y0177581D02*
X0174400Y0177581D01*
X0174400Y0176382D02*
X0173570Y0176382D01*
X0174400Y0175184D02*
X0172371Y0175184D01*
X0171173Y0173985D02*
X0174400Y0173985D01*
X0174400Y0172787D02*
X0169974Y0172787D01*
X0168776Y0171588D02*
X0174400Y0171588D01*
X0174400Y0170390D02*
X0167577Y0170390D01*
X0166379Y0169191D02*
X0174400Y0169191D01*
X0174400Y0167993D02*
X0165180Y0167993D01*
X0163982Y0166794D02*
X0174400Y0166794D01*
X0174400Y0165596D02*
X0162783Y0165596D01*
X0161585Y0164397D02*
X0174400Y0164397D01*
X0174400Y0163199D02*
X0160386Y0163199D01*
X0159188Y0162000D02*
X0174400Y0162000D01*
X0174400Y0160802D02*
X0157989Y0160802D01*
X0156791Y0159603D02*
X0174400Y0159603D01*
X0174400Y0158405D02*
X0155592Y0158405D01*
X0154394Y0157206D02*
X0174400Y0157206D01*
X0174400Y0156008D02*
X0153195Y0156008D01*
X0151997Y0154809D02*
X0174400Y0154809D01*
X0174400Y0153610D02*
X0150798Y0153610D01*
X0149600Y0152412D02*
X0173377Y0152412D01*
X0172179Y0151213D02*
X0148401Y0151213D01*
X0147203Y0150015D02*
X0170980Y0150015D01*
X0169782Y0148816D02*
X0146004Y0148816D01*
X0144806Y0147618D02*
X0168583Y0147618D01*
X0167385Y0146419D02*
X0143607Y0146419D01*
X0142409Y0145221D02*
X0166186Y0145221D01*
X0164988Y0144022D02*
X0141210Y0144022D01*
X0140012Y0142824D02*
X0163789Y0142824D01*
X0162590Y0141625D02*
X0138813Y0141625D01*
X0137614Y0140427D02*
X0161392Y0140427D01*
X0160193Y0139228D02*
X0136416Y0139228D01*
X0135217Y0138030D02*
X0158995Y0138030D01*
X0157796Y0136831D02*
X0134019Y0136831D01*
X0132820Y0135633D02*
X0156598Y0135633D01*
X0155399Y0134434D02*
X0131410Y0134434D01*
X0130041Y0133236D02*
X0154201Y0133236D01*
X0153002Y0132037D02*
X0128671Y0132037D01*
X0127301Y0130839D02*
X0151804Y0130839D01*
X0150605Y0129640D02*
X0125931Y0129640D01*
X0124562Y0128442D02*
X0149407Y0128442D01*
X0148208Y0127243D02*
X0123192Y0127243D01*
X0121822Y0126045D02*
X0147010Y0126045D01*
X0145811Y0124846D02*
X0120452Y0124846D01*
X0119083Y0123648D02*
X0144613Y0123648D01*
X0143414Y0122449D02*
X0117713Y0122449D01*
X0116343Y0121251D02*
X0142216Y0121251D01*
X0141017Y0120052D02*
X0114973Y0120052D01*
X0113604Y0118854D02*
X0139819Y0118854D01*
X0138620Y0117655D02*
X0112234Y0117655D01*
X0110864Y0116457D02*
X0137422Y0116457D01*
X0136223Y0115258D02*
X0109495Y0115258D01*
X0108125Y0114060D02*
X0135025Y0114060D01*
X0134400Y0112861D02*
X0106755Y0112861D01*
X0105385Y0111663D02*
X0121077Y0111663D01*
X0119348Y0110464D02*
X0104016Y0110464D01*
X0102646Y0109266D02*
X0118490Y0109266D01*
X0118034Y0108067D02*
X0101276Y0108067D01*
X0100128Y0106869D02*
X0099907Y0106869D01*
X0098929Y0105670D02*
X0098537Y0105670D01*
X0098296Y0104472D02*
X0097167Y0104472D01*
X0097913Y0103273D02*
X0095797Y0103273D01*
X0094428Y0102074D02*
X0097913Y0102074D01*
X0098172Y0100876D02*
X0093800Y0100876D01*
X0093800Y0099677D02*
X0098669Y0099677D01*
X0099828Y0098479D02*
X0093800Y0098479D01*
X0093800Y0097280D02*
X0109638Y0097280D01*
X0109638Y0096082D02*
X0093800Y0096082D01*
X0093800Y0094883D02*
X0109685Y0094883D01*
X0110181Y0093685D02*
X0093800Y0093685D01*
X0089365Y0102074D02*
X0076940Y0102074D01*
X0078791Y0103273D02*
X0089400Y0103273D01*
X0090437Y0104472D02*
X0079679Y0104472D01*
X0080152Y0105670D02*
X0091855Y0105670D01*
X0094435Y0118854D02*
X0098765Y0118854D01*
X0099695Y0117924D02*
X0103505Y0117924D01*
X0106200Y0120618D01*
X0106200Y0124429D01*
X0103505Y0127124D01*
X0099695Y0127124D01*
X0097000Y0124429D01*
X0097000Y0120618D01*
X0099695Y0117924D01*
X0097566Y0120052D02*
X0095634Y0120052D01*
X0096200Y0121251D02*
X0097000Y0121251D01*
X0097000Y0122449D02*
X0096200Y0122449D01*
X0096200Y0123648D02*
X0097000Y0123648D01*
X0097417Y0124846D02*
X0095783Y0124846D01*
X0094584Y0126045D02*
X0098616Y0126045D01*
X0104584Y0126045D02*
X0115140Y0126045D01*
X0113771Y0124846D02*
X0105783Y0124846D01*
X0106200Y0123648D02*
X0112401Y0123648D01*
X0111031Y0122449D02*
X0106200Y0122449D01*
X0106200Y0121251D02*
X0109661Y0121251D01*
X0108292Y0120052D02*
X0105634Y0120052D01*
X0104435Y0118854D02*
X0106922Y0118854D01*
X0105552Y0117655D02*
X0043800Y0117655D01*
X0043800Y0116457D02*
X0104183Y0116457D01*
X0102813Y0115258D02*
X0043800Y0115258D01*
X0043800Y0114060D02*
X0101443Y0114060D01*
X0091600Y0122524D02*
X0061600Y0202524D01*
X0026600Y0262524D01*
X0016600Y0267524D01*
X0012646Y0271065D02*
X0011200Y0271065D01*
X0011200Y0272263D02*
X0014193Y0272263D01*
X0013167Y0273462D02*
X0011200Y0273462D01*
X0011200Y0274660D02*
X0012049Y0274660D01*
X0011553Y0275859D02*
X0011200Y0275859D01*
X0011200Y0277057D02*
X0011300Y0277057D01*
X0011300Y0278256D02*
X0011200Y0278256D01*
X0011200Y0279454D02*
X0011663Y0279454D01*
X0011200Y0280653D02*
X0012234Y0280653D01*
X0011200Y0281851D02*
X0013432Y0281851D01*
X0016600Y0277524D02*
X0031600Y0267524D01*
X0066600Y0207524D01*
X0091600Y0142524D01*
X0088135Y0138030D02*
X0128838Y0138030D01*
X0127468Y0136831D02*
X0088584Y0136831D01*
X0089034Y0135633D02*
X0126098Y0135633D01*
X0124728Y0134434D02*
X0089483Y0134434D01*
X0089933Y0133236D02*
X0123359Y0133236D01*
X0121989Y0132037D02*
X0090382Y0132037D01*
X0090831Y0130839D02*
X0120619Y0130839D01*
X0119250Y0129640D02*
X0091281Y0129640D01*
X0091730Y0128442D02*
X0117880Y0128442D01*
X0116510Y0127243D02*
X0092180Y0127243D01*
X0087930Y0126045D02*
X0084584Y0126045D01*
X0083505Y0127124D02*
X0079695Y0127124D01*
X0077000Y0124429D01*
X0077000Y0120618D01*
X0079695Y0117924D01*
X0083505Y0117924D01*
X0086200Y0120618D01*
X0086200Y0124429D01*
X0083505Y0127124D01*
X0085783Y0124846D02*
X0087417Y0124846D01*
X0087000Y0123648D02*
X0086200Y0123648D01*
X0086200Y0122449D02*
X0087000Y0122449D01*
X0087000Y0121251D02*
X0086200Y0121251D01*
X0085634Y0120052D02*
X0087566Y0120052D01*
X0088765Y0118854D02*
X0084435Y0118854D01*
X0078765Y0118854D02*
X0074435Y0118854D01*
X0073505Y0117924D02*
X0076200Y0120618D01*
X0076200Y0122124D01*
X0072000Y0122124D01*
X0072000Y0122924D01*
X0071200Y0122924D01*
X0071200Y0127124D01*
X0069695Y0127124D01*
X0067000Y0124429D01*
X0067000Y0122924D01*
X0071200Y0122924D01*
X0071200Y0122124D01*
X0067000Y0122124D01*
X0067000Y0120618D01*
X0069695Y0117924D01*
X0071200Y0117924D01*
X0071200Y0122124D01*
X0072000Y0122124D01*
X0072000Y0117924D01*
X0073505Y0117924D01*
X0072000Y0118854D02*
X0071200Y0118854D01*
X0071200Y0120052D02*
X0072000Y0120052D01*
X0072000Y0121251D02*
X0071200Y0121251D01*
X0071200Y0122449D02*
X0066200Y0122449D01*
X0066200Y0121251D02*
X0067000Y0121251D01*
X0066200Y0120618D02*
X0063505Y0117924D01*
X0059695Y0117924D01*
X0057000Y0120618D01*
X0057000Y0124429D01*
X0059695Y0127124D01*
X0063505Y0127124D01*
X0066200Y0124429D01*
X0066200Y0120618D01*
X0065634Y0120052D02*
X0067566Y0120052D01*
X0068765Y0118854D02*
X0064435Y0118854D01*
X0066200Y0123648D02*
X0067000Y0123648D01*
X0067417Y0124846D02*
X0065783Y0124846D01*
X0064584Y0126045D02*
X0068616Y0126045D01*
X0071200Y0126045D02*
X0072000Y0126045D01*
X0072000Y0127124D02*
X0072000Y0122924D01*
X0076200Y0122924D01*
X0076200Y0124429D01*
X0073505Y0127124D01*
X0072000Y0127124D01*
X0072000Y0124846D02*
X0071200Y0124846D01*
X0071200Y0123648D02*
X0072000Y0123648D01*
X0072000Y0122449D02*
X0077000Y0122449D01*
X0077000Y0121251D02*
X0076200Y0121251D01*
X0075634Y0120052D02*
X0077566Y0120052D01*
X0077000Y0123648D02*
X0076200Y0123648D01*
X0075783Y0124846D02*
X0077417Y0124846D01*
X0078616Y0126045D02*
X0074584Y0126045D01*
X0072181Y0111663D02*
X0071019Y0111663D01*
X0071019Y0110464D02*
X0072181Y0110464D01*
X0072181Y0109266D02*
X0071019Y0109266D01*
X0071019Y0108067D02*
X0072181Y0108067D01*
X0072181Y0105670D02*
X0071019Y0105670D01*
X0071019Y0104472D02*
X0072181Y0104472D01*
X0072181Y0103273D02*
X0071019Y0103273D01*
X0071019Y0102074D02*
X0072181Y0102074D01*
X0058765Y0118854D02*
X0054435Y0118854D01*
X0053505Y0117924D02*
X0056200Y0120618D01*
X0056200Y0124429D01*
X0053505Y0127124D01*
X0049695Y0127124D01*
X0047000Y0124429D01*
X0047000Y0120618D01*
X0049695Y0117924D01*
X0053505Y0117924D01*
X0055634Y0120052D02*
X0057566Y0120052D01*
X0057000Y0121251D02*
X0056200Y0121251D01*
X0056200Y0122449D02*
X0057000Y0122449D01*
X0057000Y0123648D02*
X0056200Y0123648D01*
X0055783Y0124846D02*
X0057417Y0124846D01*
X0058616Y0126045D02*
X0054584Y0126045D01*
X0048616Y0126045D02*
X0044757Y0126045D01*
X0045083Y0127243D02*
X0087481Y0127243D01*
X0087031Y0128442D02*
X0044989Y0128442D01*
X0044409Y0129640D02*
X0086582Y0129640D01*
X0086132Y0130839D02*
X0042697Y0130839D01*
X0043848Y0124846D02*
X0047417Y0124846D01*
X0047000Y0123648D02*
X0043800Y0123648D01*
X0043800Y0122449D02*
X0047000Y0122449D01*
X0047000Y0121251D02*
X0043800Y0121251D01*
X0043800Y0120052D02*
X0047566Y0120052D01*
X0048765Y0118854D02*
X0043800Y0118854D01*
X0039400Y0118854D02*
X0038964Y0118854D01*
X0039400Y0117655D02*
X0038245Y0117655D01*
X0037525Y0116457D02*
X0039400Y0116457D01*
X0039400Y0115258D02*
X0036806Y0115258D01*
X0036087Y0114060D02*
X0039400Y0114060D01*
X0039400Y0112861D02*
X0035368Y0112861D01*
X0034649Y0111663D02*
X0039400Y0111663D01*
X0039400Y0110464D02*
X0038585Y0110464D01*
X0034615Y0110464D02*
X0033930Y0110464D01*
X0011200Y0199154D02*
X0060514Y0199154D01*
X0060065Y0200352D02*
X0011200Y0200352D01*
X0011200Y0201551D02*
X0059615Y0201551D01*
X0058921Y0202749D02*
X0018924Y0202749D01*
X0020520Y0203948D02*
X0058222Y0203948D01*
X0057523Y0205146D02*
X0021352Y0205146D01*
X0021848Y0206345D02*
X0056824Y0206345D01*
X0056125Y0207543D02*
X0021900Y0207543D01*
X0021832Y0208742D02*
X0055426Y0208742D01*
X0054727Y0209941D02*
X0021336Y0209941D01*
X0020480Y0211139D02*
X0054027Y0211139D01*
X0053328Y0212338D02*
X0018828Y0212338D01*
X0020108Y0213536D02*
X0052629Y0213536D01*
X0051930Y0214735D02*
X0021181Y0214735D01*
X0021678Y0215933D02*
X0051231Y0215933D01*
X0050532Y0217132D02*
X0021900Y0217132D01*
X0021900Y0218330D02*
X0049833Y0218330D01*
X0049133Y0219529D02*
X0021506Y0219529D01*
X0020892Y0220727D02*
X0048434Y0220727D01*
X0047735Y0221926D02*
X0019693Y0221926D01*
X0019696Y0223124D02*
X0047036Y0223124D01*
X0046337Y0224323D02*
X0020894Y0224323D01*
X0021507Y0225521D02*
X0045638Y0225521D01*
X0044939Y0226720D02*
X0021900Y0226720D01*
X0021900Y0227918D02*
X0044240Y0227918D01*
X0043540Y0229117D02*
X0021677Y0229117D01*
X0021180Y0230315D02*
X0042841Y0230315D01*
X0042142Y0231514D02*
X0020105Y0231514D01*
X0018834Y0232712D02*
X0041443Y0232712D01*
X0040744Y0233911D02*
X0020482Y0233911D01*
X0021337Y0235109D02*
X0040045Y0235109D01*
X0039346Y0236308D02*
X0021833Y0236308D01*
X0021900Y0237506D02*
X0038647Y0237506D01*
X0037947Y0238705D02*
X0021847Y0238705D01*
X0021351Y0239903D02*
X0037248Y0239903D01*
X0036549Y0241102D02*
X0020517Y0241102D01*
X0018918Y0242300D02*
X0035850Y0242300D01*
X0035151Y0243499D02*
X0020071Y0243499D01*
X0021166Y0244697D02*
X0034452Y0244697D01*
X0033753Y0245896D02*
X0021662Y0245896D01*
X0021900Y0247094D02*
X0033053Y0247094D01*
X0032354Y0248293D02*
X0021900Y0248293D01*
X0021522Y0249491D02*
X0031655Y0249491D01*
X0030956Y0250690D02*
X0020929Y0250690D01*
X0019731Y0251888D02*
X0030257Y0251888D01*
X0029558Y0253087D02*
X0019659Y0253087D01*
X0020857Y0254285D02*
X0028859Y0254285D01*
X0028160Y0255484D02*
X0021492Y0255484D01*
X0021900Y0256682D02*
X0027460Y0256682D01*
X0026761Y0257881D02*
X0021900Y0257881D01*
X0021692Y0259079D02*
X0026062Y0259079D01*
X0025363Y0260278D02*
X0021196Y0260278D01*
X0020142Y0261477D02*
X0023775Y0261477D01*
X0021378Y0262675D02*
X0018744Y0262675D01*
X0014456Y0262675D02*
X0011200Y0262675D01*
X0011200Y0261477D02*
X0013058Y0261477D01*
X0012004Y0260278D02*
X0011200Y0260278D01*
X0011200Y0259079D02*
X0011508Y0259079D01*
X0011300Y0257881D02*
X0011200Y0257881D01*
X0011200Y0256682D02*
X0011300Y0256682D01*
X0011200Y0255484D02*
X0011708Y0255484D01*
X0011200Y0254285D02*
X0012343Y0254285D01*
X0011200Y0253087D02*
X0013541Y0253087D01*
X0013469Y0251888D02*
X0011200Y0251888D01*
X0011200Y0250690D02*
X0012271Y0250690D01*
X0011678Y0249491D02*
X0011200Y0249491D01*
X0011200Y0248293D02*
X0011300Y0248293D01*
X0011300Y0247094D02*
X0011200Y0247094D01*
X0011200Y0245896D02*
X0011538Y0245896D01*
X0011200Y0244697D02*
X0012034Y0244697D01*
X0011200Y0243499D02*
X0013129Y0243499D01*
X0014282Y0242300D02*
X0011200Y0242300D01*
X0011200Y0241102D02*
X0012683Y0241102D01*
X0011849Y0239903D02*
X0011200Y0239903D01*
X0011200Y0238705D02*
X0011353Y0238705D01*
X0011300Y0237506D02*
X0011200Y0237506D01*
X0011200Y0236308D02*
X0011367Y0236308D01*
X0011200Y0235109D02*
X0011863Y0235109D01*
X0011200Y0233911D02*
X0012718Y0233911D01*
X0011200Y0232712D02*
X0014366Y0232712D01*
X0013095Y0231514D02*
X0011200Y0231514D01*
X0011200Y0230315D02*
X0012020Y0230315D01*
X0011523Y0229117D02*
X0011200Y0229117D01*
X0011200Y0227918D02*
X0011300Y0227918D01*
X0011300Y0226720D02*
X0011200Y0226720D01*
X0011200Y0225521D02*
X0011693Y0225521D01*
X0011200Y0224323D02*
X0012306Y0224323D01*
X0011200Y0223124D02*
X0013504Y0223124D01*
X0013507Y0221926D02*
X0011200Y0221926D01*
X0011200Y0220727D02*
X0012308Y0220727D01*
X0011694Y0219529D02*
X0011200Y0219529D01*
X0011200Y0218330D02*
X0011300Y0218330D01*
X0011300Y0217132D02*
X0011200Y0217132D01*
X0011200Y0215933D02*
X0011522Y0215933D01*
X0011200Y0214735D02*
X0012019Y0214735D01*
X0011200Y0213536D02*
X0013092Y0213536D01*
X0014372Y0212338D02*
X0011200Y0212338D01*
X0011200Y0211139D02*
X0012720Y0211139D01*
X0011864Y0209941D02*
X0011200Y0209941D01*
X0011200Y0208742D02*
X0011368Y0208742D01*
X0011300Y0207543D02*
X0011200Y0207543D01*
X0011200Y0206345D02*
X0011352Y0206345D01*
X0011200Y0205146D02*
X0011848Y0205146D01*
X0011200Y0203948D02*
X0012680Y0203948D01*
X0011200Y0202749D02*
X0014276Y0202749D01*
X0031855Y0257881D02*
X0034678Y0257881D01*
X0033979Y0259079D02*
X0031156Y0259079D01*
X0030457Y0260278D02*
X0033280Y0260278D01*
X0032581Y0261477D02*
X0029758Y0261477D01*
X0029059Y0262675D02*
X0031881Y0262675D01*
X0031182Y0263874D02*
X0028469Y0263874D01*
X0030483Y0265072D02*
X0026422Y0265072D01*
X0024025Y0266271D02*
X0029514Y0266271D01*
X0027716Y0267469D02*
X0021900Y0267469D01*
X0021863Y0268668D02*
X0025918Y0268668D01*
X0024120Y0269866D02*
X0021366Y0269866D01*
X0020554Y0271065D02*
X0022322Y0271065D01*
X0020525Y0272263D02*
X0019007Y0272263D01*
X0011834Y0269866D02*
X0011200Y0269866D01*
X0011200Y0268668D02*
X0011337Y0268668D01*
X0011300Y0267469D02*
X0011200Y0267469D01*
X0011200Y0266271D02*
X0011382Y0266271D01*
X0011200Y0265072D02*
X0011879Y0265072D01*
X0011200Y0263874D02*
X0012755Y0263874D01*
X0089300Y0323799D02*
X0093819Y0323799D01*
X0092667Y0324998D02*
X0090451Y0324998D01*
X0091005Y0326196D02*
X0092171Y0326196D01*
X0181600Y0237524D02*
X0201600Y0257524D01*
X0206600Y0257524D01*
X0206600Y0247524D02*
X0196600Y0247524D01*
X0186600Y0237524D01*
X0186600Y0147524D01*
X0151600Y0107524D01*
X0151600Y0097524D01*
X0156600Y0087524D01*
X0161600Y0086899D01*
X0168138Y0079303D02*
X0202985Y0079303D01*
X0203917Y0078104D02*
X0169336Y0078104D01*
X0169931Y0076906D02*
X0204849Y0076906D01*
X0205781Y0075707D02*
X0173173Y0075707D01*
X0175760Y0074509D02*
X0206713Y0074509D01*
X0207646Y0073310D02*
X0176959Y0073310D01*
X0177774Y0072112D02*
X0208696Y0072112D01*
X0209893Y0070913D02*
X0178270Y0070913D01*
X0178562Y0069715D02*
X0219638Y0069715D01*
X0219638Y0068516D02*
X0178562Y0068516D01*
X0178512Y0067318D02*
X0219688Y0067318D01*
X0216600Y0075024D02*
X0209100Y0075024D01*
X0191600Y0097524D01*
X0191600Y0227524D01*
X0206600Y0237524D01*
X0204366Y0232712D02*
X0203349Y0232712D01*
X0203095Y0231514D02*
X0201551Y0231514D01*
X0202020Y0230315D02*
X0199753Y0230315D01*
X0201523Y0229117D02*
X0197956Y0229117D01*
X0196158Y0227918D02*
X0201300Y0227918D01*
X0201300Y0226720D02*
X0194360Y0226720D01*
X0193800Y0225521D02*
X0201486Y0225521D01*
X0200288Y0224323D02*
X0193800Y0224323D01*
X0193800Y0223124D02*
X0199089Y0223124D01*
X0197891Y0221926D02*
X0193800Y0221926D01*
X0193800Y0220727D02*
X0196692Y0220727D01*
X0195494Y0219529D02*
X0193800Y0219529D01*
X0193800Y0218330D02*
X0194400Y0218330D01*
X0194400Y0217132D02*
X0193800Y0217132D01*
X0193800Y0215933D02*
X0194400Y0215933D01*
X0194400Y0214735D02*
X0193800Y0214735D01*
X0193800Y0213536D02*
X0194400Y0213536D01*
X0194400Y0212338D02*
X0193800Y0212338D01*
X0193800Y0211139D02*
X0194400Y0211139D01*
X0194400Y0209941D02*
X0193800Y0209941D01*
X0193800Y0208742D02*
X0194400Y0208742D01*
X0194400Y0207543D02*
X0193800Y0207543D01*
X0193800Y0206345D02*
X0194400Y0206345D01*
X0194400Y0205146D02*
X0193800Y0205146D01*
X0193800Y0203948D02*
X0194400Y0203948D01*
X0194400Y0202749D02*
X0193800Y0202749D01*
X0193800Y0201551D02*
X0194400Y0201551D01*
X0194400Y0200352D02*
X0193800Y0200352D01*
X0193800Y0199154D02*
X0194400Y0199154D01*
X0194400Y0197955D02*
X0193800Y0197955D01*
X0193800Y0196757D02*
X0194400Y0196757D01*
X0194400Y0195558D02*
X0193800Y0195558D01*
X0193800Y0194360D02*
X0194400Y0194360D01*
X0194400Y0193161D02*
X0193800Y0193161D01*
X0193800Y0191963D02*
X0194400Y0191963D01*
X0194400Y0190764D02*
X0193800Y0190764D01*
X0193800Y0189566D02*
X0194400Y0189566D01*
X0194400Y0188367D02*
X0193800Y0188367D01*
X0193800Y0187169D02*
X0194400Y0187169D01*
X0194400Y0185970D02*
X0193800Y0185970D01*
X0193800Y0184772D02*
X0194400Y0184772D01*
X0194400Y0183573D02*
X0193800Y0183573D01*
X0193800Y0182375D02*
X0194400Y0182375D01*
X0194400Y0181176D02*
X0193800Y0181176D01*
X0193800Y0179978D02*
X0194400Y0179978D01*
X0194400Y0178779D02*
X0193800Y0178779D01*
X0193800Y0177581D02*
X0194400Y0177581D01*
X0194400Y0176382D02*
X0193800Y0176382D01*
X0193800Y0175184D02*
X0194400Y0175184D01*
X0194400Y0173985D02*
X0193800Y0173985D01*
X0193800Y0172787D02*
X0194400Y0172787D01*
X0194400Y0171588D02*
X0193800Y0171588D01*
X0193800Y0170390D02*
X0194400Y0170390D01*
X0194400Y0169191D02*
X0193800Y0169191D01*
X0193800Y0167993D02*
X0194400Y0167993D01*
X0194400Y0166794D02*
X0193800Y0166794D01*
X0193800Y0165596D02*
X0194400Y0165596D01*
X0194400Y0164397D02*
X0193800Y0164397D01*
X0193800Y0163199D02*
X0194400Y0163199D01*
X0194400Y0162000D02*
X0193800Y0162000D01*
X0193800Y0160802D02*
X0194400Y0160802D01*
X0194400Y0159603D02*
X0193800Y0159603D01*
X0193800Y0158405D02*
X0194400Y0158405D01*
X0194400Y0157206D02*
X0193800Y0157206D01*
X0193800Y0156008D02*
X0194400Y0156008D01*
X0194400Y0154809D02*
X0193800Y0154809D01*
X0193800Y0153610D02*
X0194400Y0153610D01*
X0194400Y0152412D02*
X0193800Y0152412D01*
X0193800Y0151213D02*
X0194400Y0151213D01*
X0194400Y0150015D02*
X0193800Y0150015D01*
X0193800Y0148816D02*
X0194400Y0148816D01*
X0194400Y0147618D02*
X0193800Y0147618D01*
X0193800Y0146419D02*
X0194400Y0146419D01*
X0194400Y0145221D02*
X0193800Y0145221D01*
X0193800Y0144022D02*
X0194400Y0144022D01*
X0194400Y0142824D02*
X0193800Y0142824D01*
X0193800Y0141625D02*
X0194400Y0141625D01*
X0194400Y0140427D02*
X0193800Y0140427D01*
X0193800Y0139228D02*
X0194400Y0139228D01*
X0194400Y0138030D02*
X0193800Y0138030D01*
X0193800Y0136831D02*
X0194400Y0136831D01*
X0194400Y0135633D02*
X0193800Y0135633D01*
X0193800Y0134434D02*
X0194400Y0134434D01*
X0194400Y0133236D02*
X0193800Y0133236D01*
X0193800Y0132037D02*
X0194400Y0132037D01*
X0194400Y0130839D02*
X0193800Y0130839D01*
X0193800Y0129640D02*
X0194400Y0129640D01*
X0194400Y0128442D02*
X0193800Y0128442D01*
X0193800Y0127243D02*
X0194400Y0127243D01*
X0194400Y0126045D02*
X0193800Y0126045D01*
X0193800Y0124846D02*
X0194400Y0124846D01*
X0194400Y0123648D02*
X0193800Y0123648D01*
X0193800Y0122449D02*
X0194400Y0122449D01*
X0194400Y0121251D02*
X0193800Y0121251D01*
X0193800Y0120052D02*
X0194400Y0120052D01*
X0194400Y0118854D02*
X0193800Y0118854D01*
X0193800Y0117655D02*
X0194400Y0117655D01*
X0194400Y0116457D02*
X0193800Y0116457D01*
X0193800Y0115258D02*
X0194400Y0115258D01*
X0194400Y0114060D02*
X0193800Y0114060D01*
X0193800Y0112861D02*
X0194400Y0112861D01*
X0194400Y0111663D02*
X0193800Y0111663D01*
X0193800Y0110464D02*
X0194400Y0110464D01*
X0194400Y0109266D02*
X0193800Y0109266D01*
X0193800Y0108067D02*
X0194400Y0108067D01*
X0194400Y0106869D02*
X0193800Y0106869D01*
X0193800Y0105670D02*
X0195080Y0105670D01*
X0195698Y0104472D02*
X0193800Y0104472D01*
X0189400Y0110464D02*
X0188852Y0110464D01*
X0189400Y0111663D02*
X0187123Y0111663D01*
X0189400Y0112861D02*
X0159194Y0112861D01*
X0160242Y0114060D02*
X0189400Y0114060D01*
X0189400Y0115258D02*
X0161291Y0115258D01*
X0162340Y0116457D02*
X0189400Y0116457D01*
X0189400Y0117655D02*
X0163388Y0117655D01*
X0164437Y0118854D02*
X0189400Y0118854D01*
X0189400Y0120052D02*
X0165486Y0120052D01*
X0166534Y0121251D02*
X0189400Y0121251D01*
X0189400Y0122449D02*
X0167583Y0122449D01*
X0168632Y0123648D02*
X0189400Y0123648D01*
X0189400Y0124846D02*
X0169681Y0124846D01*
X0170729Y0126045D02*
X0189400Y0126045D01*
X0189400Y0127243D02*
X0171778Y0127243D01*
X0172827Y0128442D02*
X0189400Y0128442D01*
X0189400Y0129640D02*
X0173875Y0129640D01*
X0174924Y0130839D02*
X0189400Y0130839D01*
X0189400Y0132037D02*
X0175973Y0132037D01*
X0177021Y0133236D02*
X0189400Y0133236D01*
X0189400Y0134434D02*
X0178070Y0134434D01*
X0179119Y0135633D02*
X0189400Y0135633D01*
X0189400Y0136831D02*
X0180168Y0136831D01*
X0181216Y0138030D02*
X0189400Y0138030D01*
X0189400Y0139228D02*
X0182265Y0139228D01*
X0183314Y0140427D02*
X0189400Y0140427D01*
X0189400Y0141625D02*
X0184362Y0141625D01*
X0185411Y0142824D02*
X0189400Y0142824D01*
X0189400Y0144022D02*
X0186460Y0144022D01*
X0187508Y0145221D02*
X0189400Y0145221D01*
X0189400Y0146419D02*
X0188607Y0146419D01*
X0188800Y0147618D02*
X0189400Y0147618D01*
X0189400Y0148816D02*
X0188800Y0148816D01*
X0188800Y0150015D02*
X0189400Y0150015D01*
X0189400Y0151213D02*
X0188800Y0151213D01*
X0188800Y0152412D02*
X0189400Y0152412D01*
X0189400Y0153610D02*
X0188800Y0153610D01*
X0188800Y0154809D02*
X0189400Y0154809D01*
X0189400Y0156008D02*
X0188800Y0156008D01*
X0188800Y0157206D02*
X0189400Y0157206D01*
X0189400Y0158405D02*
X0188800Y0158405D01*
X0188800Y0159603D02*
X0189400Y0159603D01*
X0189400Y0160802D02*
X0188800Y0160802D01*
X0188800Y0162000D02*
X0189400Y0162000D01*
X0189400Y0163199D02*
X0188800Y0163199D01*
X0188800Y0164397D02*
X0189400Y0164397D01*
X0189400Y0165596D02*
X0188800Y0165596D01*
X0188800Y0166794D02*
X0189400Y0166794D01*
X0189400Y0167993D02*
X0188800Y0167993D01*
X0188800Y0169191D02*
X0189400Y0169191D01*
X0189400Y0170390D02*
X0188800Y0170390D01*
X0188800Y0171588D02*
X0189400Y0171588D01*
X0189400Y0172787D02*
X0188800Y0172787D01*
X0188800Y0173985D02*
X0189400Y0173985D01*
X0189400Y0175184D02*
X0188800Y0175184D01*
X0188800Y0176382D02*
X0189400Y0176382D01*
X0189400Y0177581D02*
X0188800Y0177581D01*
X0188800Y0178779D02*
X0189400Y0178779D01*
X0189400Y0179978D02*
X0188800Y0179978D01*
X0188800Y0181176D02*
X0189400Y0181176D01*
X0189400Y0182375D02*
X0188800Y0182375D01*
X0188800Y0183573D02*
X0189400Y0183573D01*
X0189400Y0184772D02*
X0188800Y0184772D01*
X0188800Y0185970D02*
X0189400Y0185970D01*
X0189400Y0187169D02*
X0188800Y0187169D01*
X0188800Y0188367D02*
X0189400Y0188367D01*
X0189400Y0189566D02*
X0188800Y0189566D01*
X0188800Y0190764D02*
X0189400Y0190764D01*
X0189400Y0191963D02*
X0188800Y0191963D01*
X0188800Y0193161D02*
X0189400Y0193161D01*
X0189400Y0194360D02*
X0188800Y0194360D01*
X0188800Y0195558D02*
X0189400Y0195558D01*
X0189400Y0196757D02*
X0188800Y0196757D01*
X0188800Y0197955D02*
X0189400Y0197955D01*
X0189400Y0199154D02*
X0188800Y0199154D01*
X0188800Y0200352D02*
X0189400Y0200352D01*
X0189400Y0201551D02*
X0188800Y0201551D01*
X0188800Y0202749D02*
X0189400Y0202749D01*
X0189400Y0203948D02*
X0188800Y0203948D01*
X0188800Y0205146D02*
X0189400Y0205146D01*
X0189400Y0206345D02*
X0188800Y0206345D01*
X0188800Y0207543D02*
X0189400Y0207543D01*
X0189400Y0208742D02*
X0188800Y0208742D01*
X0188800Y0209941D02*
X0189400Y0209941D01*
X0189400Y0211139D02*
X0188800Y0211139D01*
X0188800Y0212338D02*
X0189400Y0212338D01*
X0189400Y0213536D02*
X0188800Y0213536D01*
X0188800Y0214735D02*
X0189400Y0214735D01*
X0189400Y0215933D02*
X0188800Y0215933D01*
X0188800Y0217132D02*
X0189400Y0217132D01*
X0189400Y0218330D02*
X0188800Y0218330D01*
X0188800Y0219529D02*
X0189400Y0219529D01*
X0189400Y0220727D02*
X0188800Y0220727D01*
X0188800Y0221926D02*
X0189400Y0221926D01*
X0189400Y0223124D02*
X0188800Y0223124D01*
X0188800Y0224323D02*
X0189400Y0224323D01*
X0189400Y0225521D02*
X0188800Y0225521D01*
X0188800Y0226720D02*
X0189400Y0226720D01*
X0189400Y0227918D02*
X0188800Y0227918D01*
X0188800Y0229117D02*
X0190024Y0229117D01*
X0188800Y0230315D02*
X0191821Y0230315D01*
X0193619Y0231514D02*
X0188800Y0231514D01*
X0188800Y0232712D02*
X0195417Y0232712D01*
X0197215Y0233911D02*
X0188800Y0233911D01*
X0188800Y0235109D02*
X0199012Y0235109D01*
X0200810Y0236308D02*
X0188800Y0236308D01*
X0189694Y0237506D02*
X0201300Y0237506D01*
X0201353Y0238705D02*
X0190892Y0238705D01*
X0192091Y0239903D02*
X0201849Y0239903D01*
X0202683Y0241102D02*
X0193289Y0241102D01*
X0194488Y0242300D02*
X0204282Y0242300D01*
X0203129Y0243499D02*
X0195686Y0243499D01*
X0196885Y0244697D02*
X0202034Y0244697D01*
X0211180Y0230315D02*
X0245701Y0230315D01*
X0245701Y0229117D02*
X0211677Y0229117D01*
X0211900Y0227918D02*
X0245701Y0227918D01*
X0245701Y0226720D02*
X0211900Y0226720D01*
X0211507Y0225521D02*
X0245701Y0225521D01*
X0245701Y0224323D02*
X0210894Y0224323D01*
X0209696Y0223124D02*
X0245701Y0223124D01*
X0245701Y0221926D02*
X0204113Y0221926D01*
X0202915Y0220727D02*
X0245701Y0220727D01*
X0245701Y0219529D02*
X0201716Y0219529D01*
X0200518Y0218330D02*
X0245701Y0218330D01*
X0245701Y0217132D02*
X0199319Y0217132D01*
X0198800Y0215933D02*
X0245701Y0215933D01*
X0245701Y0214735D02*
X0198800Y0214735D01*
X0198800Y0213536D02*
X0245701Y0213536D01*
X0245701Y0212338D02*
X0208828Y0212338D01*
X0209602Y0212017D02*
X0207654Y0212824D01*
X0205546Y0212824D01*
X0203598Y0212017D01*
X0202107Y0210526D01*
X0201300Y0208578D01*
X0201300Y0206469D01*
X0202107Y0204521D01*
X0203598Y0203030D01*
X0204828Y0202521D01*
X0204566Y0202435D01*
X0203822Y0202057D01*
X0203147Y0201566D01*
X0202557Y0200976D01*
X0202067Y0200301D01*
X0201688Y0199558D01*
X0201430Y0198765D01*
X0201300Y0197941D01*
X0201300Y0197924D01*
X0206200Y0197924D01*
X0206200Y0197124D01*
X0201300Y0197124D01*
X0201300Y0197106D01*
X0201430Y0196283D01*
X0201688Y0195489D01*
X0202067Y0194746D01*
X0202557Y0194071D01*
X0203147Y0193481D01*
X0203822Y0192991D01*
X0204566Y0192612D01*
X0204837Y0192524D01*
X0204566Y0192435D01*
X0203822Y0192057D01*
X0203147Y0191566D01*
X0202557Y0190976D01*
X0202067Y0190301D01*
X0201688Y0189558D01*
X0201430Y0188765D01*
X0201300Y0187941D01*
X0201300Y0187924D01*
X0206200Y0187924D01*
X0206200Y0197124D01*
X0207000Y0197124D01*
X0207000Y0197924D01*
X0211900Y0197924D01*
X0211900Y0197941D01*
X0211769Y0198765D01*
X0211512Y0199558D01*
X0211133Y0200301D01*
X0210643Y0200976D01*
X0210053Y0201566D01*
X0209378Y0202057D01*
X0208634Y0202435D01*
X0208372Y0202521D01*
X0209602Y0203030D01*
X0211093Y0204521D01*
X0211900Y0206469D01*
X0211900Y0208578D01*
X0211093Y0210526D01*
X0209602Y0212017D01*
X0210480Y0211139D02*
X0245701Y0211139D01*
X0245701Y0209941D02*
X0211336Y0209941D01*
X0211832Y0208742D02*
X0245701Y0208742D01*
X0245701Y0207543D02*
X0211900Y0207543D01*
X0211848Y0206345D02*
X0245701Y0206345D01*
X0245701Y0205146D02*
X0211352Y0205146D01*
X0210520Y0203948D02*
X0245701Y0203948D01*
X0245701Y0202749D02*
X0208924Y0202749D01*
X0210068Y0201551D02*
X0245701Y0201551D01*
X0245701Y0200352D02*
X0211096Y0200352D01*
X0211643Y0199154D02*
X0245701Y0199154D01*
X0245701Y0197955D02*
X0211898Y0197955D01*
X0211900Y0197124D02*
X0207000Y0197124D01*
X0207000Y0192224D01*
X0207000Y0187924D01*
X0206200Y0187924D01*
X0206200Y0187124D01*
X0201300Y0187124D01*
X0201300Y0187106D01*
X0201430Y0186283D01*
X0201688Y0185489D01*
X0202067Y0184746D01*
X0202557Y0184071D01*
X0203147Y0183481D01*
X0203822Y0182991D01*
X0204566Y0182612D01*
X0204828Y0182526D01*
X0203598Y0182017D01*
X0202107Y0180526D01*
X0201300Y0178578D01*
X0201300Y0176469D01*
X0202107Y0174521D01*
X0203598Y0173030D01*
X0204822Y0172524D01*
X0203598Y0172017D01*
X0202107Y0170526D01*
X0201300Y0168578D01*
X0201300Y0166469D01*
X0202107Y0164521D01*
X0203598Y0163030D01*
X0204822Y0162524D01*
X0203598Y0162017D01*
X0202107Y0160526D01*
X0201300Y0158578D01*
X0201300Y0156469D01*
X0202107Y0154521D01*
X0203598Y0153030D01*
X0204822Y0152524D01*
X0203598Y0152017D01*
X0202107Y0150526D01*
X0201300Y0148578D01*
X0201300Y0146469D01*
X0202107Y0144521D01*
X0203598Y0143030D01*
X0204822Y0142524D01*
X0203598Y0142017D01*
X0202107Y0140526D01*
X0201300Y0138578D01*
X0201300Y0136469D01*
X0202107Y0134521D01*
X0203598Y0133030D01*
X0205546Y0132224D01*
X0207654Y0132224D01*
X0209602Y0133030D01*
X0211093Y0134521D01*
X0211900Y0136469D01*
X0211900Y0138578D01*
X0211093Y0140526D01*
X0209602Y0142017D01*
X0208378Y0142524D01*
X0209602Y0143030D01*
X0211093Y0144521D01*
X0211900Y0146469D01*
X0211900Y0148578D01*
X0211093Y0150526D01*
X0209602Y0152017D01*
X0208378Y0152524D01*
X0209602Y0153030D01*
X0211093Y0154521D01*
X0211900Y0156469D01*
X0211900Y0158578D01*
X0211093Y0160526D01*
X0209602Y0162017D01*
X0208378Y0162524D01*
X0209602Y0163030D01*
X0211093Y0164521D01*
X0211900Y0166469D01*
X0211900Y0168578D01*
X0211093Y0170526D01*
X0209602Y0172017D01*
X0208378Y0172524D01*
X0209602Y0173030D01*
X0211093Y0174521D01*
X0211900Y0176469D01*
X0211900Y0178578D01*
X0211093Y0180526D01*
X0209602Y0182017D01*
X0208372Y0182526D01*
X0208634Y0182612D01*
X0209378Y0182991D01*
X0210053Y0183481D01*
X0210643Y0184071D01*
X0211133Y0184746D01*
X0211512Y0185489D01*
X0211769Y0186283D01*
X0211900Y0187106D01*
X0211900Y0187124D01*
X0207000Y0187124D01*
X0207000Y0187924D01*
X0211900Y0187924D01*
X0211900Y0187941D01*
X0211769Y0188765D01*
X0211512Y0189558D01*
X0211133Y0190301D01*
X0210643Y0190976D01*
X0210053Y0191566D01*
X0209378Y0192057D01*
X0208634Y0192435D01*
X0208363Y0192524D01*
X0208634Y0192612D01*
X0209378Y0192991D01*
X0210053Y0193481D01*
X0210643Y0194071D01*
X0211133Y0194746D01*
X0211512Y0195489D01*
X0211769Y0196283D01*
X0211900Y0197106D01*
X0211900Y0197124D01*
X0211845Y0196757D02*
X0245701Y0196757D01*
X0245701Y0195558D02*
X0211534Y0195558D01*
X0210853Y0194360D02*
X0245701Y0194360D01*
X0245701Y0193161D02*
X0209613Y0193161D01*
X0209507Y0191963D02*
X0245701Y0191963D01*
X0245701Y0190764D02*
X0210797Y0190764D01*
X0211508Y0189566D02*
X0245701Y0189566D01*
X0245701Y0188367D02*
X0211832Y0188367D01*
X0211668Y0185970D02*
X0245701Y0185970D01*
X0245701Y0184772D02*
X0211146Y0184772D01*
X0210145Y0183573D02*
X0245701Y0183573D01*
X0245701Y0182375D02*
X0208738Y0182375D01*
X0210443Y0181176D02*
X0245701Y0181176D01*
X0245701Y0179978D02*
X0211320Y0179978D01*
X0211817Y0178779D02*
X0245701Y0178779D01*
X0245701Y0177581D02*
X0211900Y0177581D01*
X0211864Y0176382D02*
X0245701Y0176382D01*
X0245701Y0175184D02*
X0211367Y0175184D01*
X0210557Y0173985D02*
X0245701Y0173985D01*
X0245701Y0172787D02*
X0209014Y0172787D01*
X0210031Y0171588D02*
X0245701Y0171588D01*
X0245701Y0170390D02*
X0211150Y0170390D01*
X0211646Y0169191D02*
X0245701Y0169191D01*
X0245701Y0167993D02*
X0211900Y0167993D01*
X0211900Y0166794D02*
X0245701Y0166794D01*
X0245701Y0165596D02*
X0211538Y0165596D01*
X0210969Y0164397D02*
X0245701Y0164397D01*
X0245701Y0163199D02*
X0209770Y0163199D01*
X0209619Y0162000D02*
X0245701Y0162000D01*
X0245701Y0160802D02*
X0210817Y0160802D01*
X0211475Y0159603D02*
X0245701Y0159603D01*
X0245701Y0158405D02*
X0211900Y0158405D01*
X0211900Y0157206D02*
X0245701Y0157206D01*
X0245701Y0156008D02*
X0211709Y0156008D01*
X0211212Y0154809D02*
X0245701Y0154809D01*
X0245701Y0153610D02*
X0210182Y0153610D01*
X0208648Y0152412D02*
X0245701Y0152412D01*
X0245701Y0151213D02*
X0210405Y0151213D01*
X0211305Y0150015D02*
X0245701Y0150015D01*
X0245701Y0148816D02*
X0211801Y0148816D01*
X0211900Y0147618D02*
X0245701Y0147618D01*
X0245701Y0146419D02*
X0211879Y0146419D01*
X0211383Y0145221D02*
X0245701Y0145221D01*
X0245701Y0144022D02*
X0210594Y0144022D01*
X0209103Y0142824D02*
X0245701Y0142824D01*
X0245701Y0141625D02*
X0209994Y0141625D01*
X0211134Y0140427D02*
X0245701Y0140427D01*
X0245701Y0139228D02*
X0211631Y0139228D01*
X0211900Y0138030D02*
X0245701Y0138030D01*
X0245701Y0136831D02*
X0211900Y0136831D01*
X0211553Y0135633D02*
X0245701Y0135633D01*
X0245701Y0134434D02*
X0211006Y0134434D01*
X0209807Y0133236D02*
X0245701Y0133236D01*
X0245701Y0132037D02*
X0198800Y0132037D01*
X0198800Y0130839D02*
X0245701Y0130839D01*
X0245701Y0129640D02*
X0198800Y0129640D01*
X0198800Y0128442D02*
X0245701Y0128442D01*
X0245701Y0127243D02*
X0198800Y0127243D01*
X0198800Y0126045D02*
X0245701Y0126045D01*
X0245701Y0124846D02*
X0198800Y0124846D01*
X0198800Y0123648D02*
X0245701Y0123648D01*
X0245701Y0122449D02*
X0198800Y0122449D01*
X0198800Y0121251D02*
X0245701Y0121251D01*
X0245701Y0120052D02*
X0198800Y0120052D01*
X0198800Y0118854D02*
X0245701Y0118854D01*
X0245701Y0117655D02*
X0198800Y0117655D01*
X0198800Y0116457D02*
X0245701Y0116457D01*
X0245701Y0115258D02*
X0198800Y0115258D01*
X0198800Y0114060D02*
X0245701Y0114060D01*
X0245701Y0110464D02*
X0243852Y0110464D01*
X0244710Y0109266D02*
X0245701Y0109266D01*
X0245701Y0108067D02*
X0245166Y0108067D01*
X0245701Y0080501D02*
X0207627Y0080501D01*
X0208559Y0079303D02*
X0210062Y0079303D01*
X0202052Y0080501D02*
X0153379Y0080501D01*
X0154098Y0079303D02*
X0155062Y0079303D01*
X0154100Y0075024D02*
X0146600Y0087524D01*
X0146600Y0112524D01*
X0181600Y0152524D01*
X0181600Y0237524D01*
X0183800Y0236308D02*
X0184400Y0236308D01*
X0184400Y0235109D02*
X0183800Y0235109D01*
X0183800Y0233911D02*
X0184400Y0233911D01*
X0184400Y0232712D02*
X0183800Y0232712D01*
X0183800Y0231514D02*
X0184400Y0231514D01*
X0184400Y0230315D02*
X0183800Y0230315D01*
X0183800Y0229117D02*
X0184400Y0229117D01*
X0184400Y0227918D02*
X0183800Y0227918D01*
X0183800Y0226720D02*
X0184400Y0226720D01*
X0184400Y0225521D02*
X0183800Y0225521D01*
X0183800Y0224323D02*
X0184400Y0224323D01*
X0184400Y0223124D02*
X0183800Y0223124D01*
X0183800Y0221926D02*
X0184400Y0221926D01*
X0184400Y0220727D02*
X0183800Y0220727D01*
X0183800Y0219529D02*
X0184400Y0219529D01*
X0184400Y0218330D02*
X0183800Y0218330D01*
X0183800Y0217132D02*
X0184400Y0217132D01*
X0184400Y0215933D02*
X0183800Y0215933D01*
X0183800Y0214735D02*
X0184400Y0214735D01*
X0184400Y0213536D02*
X0183800Y0213536D01*
X0183800Y0212338D02*
X0184400Y0212338D01*
X0184400Y0211139D02*
X0183800Y0211139D01*
X0183800Y0209941D02*
X0184400Y0209941D01*
X0184400Y0208742D02*
X0183800Y0208742D01*
X0183800Y0207543D02*
X0184400Y0207543D01*
X0184400Y0206345D02*
X0183800Y0206345D01*
X0183800Y0205146D02*
X0184400Y0205146D01*
X0184400Y0203948D02*
X0183800Y0203948D01*
X0183800Y0202749D02*
X0184400Y0202749D01*
X0184400Y0201551D02*
X0183800Y0201551D01*
X0183800Y0200352D02*
X0184400Y0200352D01*
X0184400Y0199154D02*
X0183800Y0199154D01*
X0183800Y0197955D02*
X0184400Y0197955D01*
X0184400Y0196757D02*
X0183800Y0196757D01*
X0183800Y0195558D02*
X0184400Y0195558D01*
X0184400Y0194360D02*
X0183800Y0194360D01*
X0183800Y0193161D02*
X0184400Y0193161D01*
X0184400Y0191963D02*
X0183800Y0191963D01*
X0183800Y0190764D02*
X0184400Y0190764D01*
X0184400Y0189566D02*
X0183800Y0189566D01*
X0183800Y0188367D02*
X0184400Y0188367D01*
X0184400Y0187169D02*
X0183800Y0187169D01*
X0183800Y0185970D02*
X0184400Y0185970D01*
X0184400Y0184772D02*
X0183800Y0184772D01*
X0183800Y0183573D02*
X0184400Y0183573D01*
X0184400Y0182375D02*
X0183800Y0182375D01*
X0183800Y0181176D02*
X0184400Y0181176D01*
X0184400Y0179978D02*
X0183800Y0179978D01*
X0183800Y0178779D02*
X0184400Y0178779D01*
X0184400Y0177581D02*
X0183800Y0177581D01*
X0183800Y0176382D02*
X0184400Y0176382D01*
X0184400Y0175184D02*
X0183800Y0175184D01*
X0183800Y0173985D02*
X0184400Y0173985D01*
X0184400Y0172787D02*
X0183800Y0172787D01*
X0183800Y0171588D02*
X0184400Y0171588D01*
X0184400Y0170390D02*
X0183800Y0170390D01*
X0183800Y0169191D02*
X0184400Y0169191D01*
X0184400Y0167993D02*
X0183800Y0167993D01*
X0183800Y0166794D02*
X0184400Y0166794D01*
X0184400Y0165596D02*
X0183800Y0165596D01*
X0183800Y0164397D02*
X0184400Y0164397D01*
X0184400Y0163199D02*
X0183800Y0163199D01*
X0183800Y0162000D02*
X0184400Y0162000D01*
X0184400Y0160802D02*
X0183800Y0160802D01*
X0183800Y0159603D02*
X0184400Y0159603D01*
X0184400Y0158405D02*
X0183800Y0158405D01*
X0183800Y0157206D02*
X0184400Y0157206D01*
X0184400Y0156008D02*
X0183800Y0156008D01*
X0183800Y0154809D02*
X0184400Y0154809D01*
X0184400Y0153610D02*
X0183800Y0153610D01*
X0183812Y0152412D02*
X0184400Y0152412D01*
X0184400Y0151213D02*
X0183401Y0151213D01*
X0184400Y0150015D02*
X0182328Y0150015D01*
X0181279Y0148816D02*
X0184400Y0148816D01*
X0183759Y0147618D02*
X0180231Y0147618D01*
X0179182Y0146419D02*
X0182711Y0146419D01*
X0181662Y0145221D02*
X0178133Y0145221D01*
X0177085Y0144022D02*
X0180613Y0144022D01*
X0179564Y0142824D02*
X0176036Y0142824D01*
X0158958Y0167993D02*
X0140532Y0167993D01*
X0141271Y0166794D02*
X0157759Y0166794D01*
X0156561Y0165596D02*
X0141626Y0165596D01*
X0141700Y0164397D02*
X0155362Y0164397D01*
X0154164Y0163199D02*
X0141465Y0163199D01*
X0140922Y0162000D02*
X0152965Y0162000D01*
X0151767Y0160802D02*
X0139872Y0160802D01*
X0136886Y0160802D02*
X0136314Y0160802D01*
X0136314Y0162000D02*
X0136886Y0162000D01*
X0136886Y0163199D02*
X0136314Y0163199D01*
X0136314Y0164397D02*
X0136886Y0164397D01*
X0136886Y0165596D02*
X0136314Y0165596D01*
X0136314Y0166794D02*
X0136886Y0166794D01*
X0136886Y0167993D02*
X0136314Y0167993D01*
X0136314Y0169191D02*
X0136886Y0169191D01*
X0139075Y0169191D02*
X0160156Y0169191D01*
X0198800Y0169191D02*
X0201554Y0169191D01*
X0201300Y0167993D02*
X0198800Y0167993D01*
X0198800Y0166794D02*
X0201300Y0166794D01*
X0201662Y0165596D02*
X0198800Y0165596D01*
X0198800Y0164397D02*
X0202231Y0164397D01*
X0203430Y0163199D02*
X0198800Y0163199D01*
X0198800Y0162000D02*
X0203581Y0162000D01*
X0202383Y0160802D02*
X0198800Y0160802D01*
X0198800Y0159603D02*
X0201725Y0159603D01*
X0201300Y0158405D02*
X0198800Y0158405D01*
X0198800Y0157206D02*
X0201300Y0157206D01*
X0201491Y0156008D02*
X0198800Y0156008D01*
X0198800Y0154809D02*
X0201988Y0154809D01*
X0203018Y0153610D02*
X0198800Y0153610D01*
X0198800Y0152412D02*
X0204552Y0152412D01*
X0202795Y0151213D02*
X0198800Y0151213D01*
X0198800Y0150015D02*
X0201895Y0150015D01*
X0201399Y0148816D02*
X0198800Y0148816D01*
X0198800Y0147618D02*
X0201300Y0147618D01*
X0201321Y0146419D02*
X0198800Y0146419D01*
X0198800Y0145221D02*
X0201817Y0145221D01*
X0202606Y0144022D02*
X0198800Y0144022D01*
X0198800Y0142824D02*
X0204097Y0142824D01*
X0203206Y0141625D02*
X0198800Y0141625D01*
X0198800Y0140427D02*
X0202066Y0140427D01*
X0201569Y0139228D02*
X0198800Y0139228D01*
X0198800Y0138030D02*
X0201300Y0138030D01*
X0201300Y0136831D02*
X0198800Y0136831D01*
X0198800Y0135633D02*
X0201647Y0135633D01*
X0202194Y0134434D02*
X0198800Y0134434D01*
X0198800Y0133236D02*
X0203392Y0133236D01*
X0182181Y0111663D02*
X0181019Y0111663D01*
X0181019Y0110464D02*
X0182181Y0110464D01*
X0182181Y0109266D02*
X0181019Y0109266D01*
X0181019Y0108067D02*
X0182181Y0108067D01*
X0181019Y0106869D02*
X0168072Y0106869D01*
X0169271Y0105670D02*
X0173048Y0105670D01*
X0173040Y0105694D02*
X0173290Y0104924D01*
X0173658Y0104203D01*
X0174134Y0103548D01*
X0174706Y0102976D01*
X0175361Y0102500D01*
X0176082Y0102132D01*
X0176852Y0101882D01*
X0177652Y0101755D01*
X0181019Y0101755D01*
X0181019Y0106317D01*
X0172941Y0106317D01*
X0173040Y0105694D01*
X0173521Y0104472D02*
X0169904Y0104472D01*
X0173156Y0103273D02*
X0174409Y0103273D01*
X0175753Y0102074D02*
X0176260Y0102074D01*
X0181019Y0102074D02*
X0182181Y0102074D01*
X0182181Y0103273D02*
X0181019Y0103273D01*
X0181019Y0104472D02*
X0182181Y0104472D01*
X0182181Y0105670D02*
X0181019Y0105670D01*
X0176077Y0111663D02*
X0158145Y0111663D01*
X0157096Y0110464D02*
X0174348Y0110464D01*
X0173490Y0109266D02*
X0156047Y0109266D01*
X0154999Y0108067D02*
X0173034Y0108067D01*
X0155128Y0106869D02*
X0153950Y0106869D01*
X0153929Y0105670D02*
X0153800Y0105670D01*
X0134400Y0103273D02*
X0133791Y0103273D01*
X0134400Y0102074D02*
X0131940Y0102074D01*
X0134400Y0100876D02*
X0121952Y0100876D01*
X0121852Y0101882D02*
X0122652Y0101755D01*
X0126019Y0101755D01*
X0126019Y0106317D01*
X0117941Y0106317D01*
X0118040Y0105694D01*
X0118290Y0104924D01*
X0118658Y0104203D01*
X0119134Y0103548D01*
X0119706Y0102976D01*
X0120361Y0102500D01*
X0121082Y0102132D01*
X0121852Y0101882D01*
X0121260Y0102074D02*
X0120753Y0102074D01*
X0119409Y0103273D02*
X0118156Y0103273D01*
X0118521Y0104472D02*
X0114904Y0104472D01*
X0114271Y0105670D02*
X0118048Y0105670D01*
X0113072Y0106869D02*
X0126019Y0106869D01*
X0126019Y0108067D02*
X0127181Y0108067D01*
X0127181Y0109266D02*
X0126019Y0109266D01*
X0126019Y0110464D02*
X0127181Y0110464D01*
X0127181Y0111663D02*
X0126019Y0111663D01*
X0126019Y0105670D02*
X0127181Y0105670D01*
X0127181Y0104472D02*
X0126019Y0104472D01*
X0126019Y0103273D02*
X0127181Y0103273D01*
X0127181Y0102074D02*
X0126019Y0102074D01*
X0122771Y0099677D02*
X0134400Y0099677D01*
X0134400Y0098479D02*
X0123267Y0098479D01*
X0123562Y0097280D02*
X0133246Y0097280D01*
X0132047Y0096082D02*
X0123562Y0096082D01*
X0123515Y0094883D02*
X0130849Y0094883D01*
X0129650Y0093685D02*
X0123019Y0093685D01*
X0122522Y0092486D02*
X0128452Y0092486D01*
X0127253Y0091288D02*
X0121352Y0091288D01*
X0119602Y0090089D02*
X0126055Y0090089D01*
X0118173Y0075707D02*
X0151124Y0075707D01*
X0151843Y0074509D02*
X0120760Y0074509D01*
X0121959Y0073310D02*
X0152562Y0073310D01*
X0153696Y0072112D02*
X0122774Y0072112D01*
X0123270Y0070913D02*
X0154893Y0070913D01*
X0154100Y0075024D02*
X0161600Y0075024D01*
X0164638Y0069715D02*
X0123562Y0069715D01*
X0123562Y0068516D02*
X0164638Y0068516D01*
X0164688Y0067318D02*
X0123512Y0067318D01*
X0114931Y0076906D02*
X0150405Y0076906D01*
X0149686Y0078104D02*
X0114336Y0078104D01*
X0113138Y0079303D02*
X0148967Y0079303D01*
X0148248Y0080501D02*
X0100564Y0080501D01*
X0132123Y0111663D02*
X0134400Y0111663D01*
X0134400Y0110464D02*
X0133852Y0110464D01*
X0198800Y0170390D02*
X0202050Y0170390D01*
X0203169Y0171588D02*
X0198800Y0171588D01*
X0198800Y0172787D02*
X0204186Y0172787D01*
X0202643Y0173985D02*
X0198800Y0173985D01*
X0198800Y0175184D02*
X0201833Y0175184D01*
X0201336Y0176382D02*
X0198800Y0176382D01*
X0198800Y0177581D02*
X0201300Y0177581D01*
X0201383Y0178779D02*
X0198800Y0178779D01*
X0198800Y0179978D02*
X0201880Y0179978D01*
X0202757Y0181176D02*
X0198800Y0181176D01*
X0198800Y0182375D02*
X0204462Y0182375D01*
X0203055Y0183573D02*
X0198800Y0183573D01*
X0198800Y0184772D02*
X0202054Y0184772D01*
X0201532Y0185970D02*
X0198800Y0185970D01*
X0198800Y0187169D02*
X0206200Y0187169D01*
X0207000Y0187169D02*
X0245701Y0187169D01*
X0207000Y0188367D02*
X0206200Y0188367D01*
X0206200Y0189566D02*
X0207000Y0189566D01*
X0207000Y0190764D02*
X0206200Y0190764D01*
X0206200Y0191963D02*
X0207000Y0191963D01*
X0207000Y0193161D02*
X0206200Y0193161D01*
X0206200Y0194360D02*
X0207000Y0194360D01*
X0207000Y0195558D02*
X0206200Y0195558D01*
X0206200Y0196757D02*
X0207000Y0196757D01*
X0203587Y0193161D02*
X0198800Y0193161D01*
X0198800Y0191963D02*
X0203693Y0191963D01*
X0202403Y0190764D02*
X0198800Y0190764D01*
X0198800Y0189566D02*
X0201692Y0189566D01*
X0201368Y0188367D02*
X0198800Y0188367D01*
X0198800Y0194360D02*
X0202347Y0194360D01*
X0201666Y0195558D02*
X0198800Y0195558D01*
X0198800Y0196757D02*
X0201355Y0196757D01*
X0201302Y0197955D02*
X0198800Y0197955D01*
X0198800Y0199154D02*
X0201557Y0199154D01*
X0202104Y0200352D02*
X0198800Y0200352D01*
X0198800Y0201551D02*
X0203132Y0201551D01*
X0204276Y0202749D02*
X0198800Y0202749D01*
X0198800Y0203948D02*
X0202680Y0203948D01*
X0201848Y0205146D02*
X0198800Y0205146D01*
X0198800Y0206345D02*
X0201352Y0206345D01*
X0201300Y0207543D02*
X0198800Y0207543D01*
X0198800Y0208742D02*
X0201368Y0208742D01*
X0201864Y0209941D02*
X0198800Y0209941D01*
X0198800Y0211139D02*
X0202720Y0211139D01*
X0204372Y0212338D02*
X0198800Y0212338D01*
X0207439Y0091288D02*
X0210213Y0091288D01*
X0208974Y0090089D02*
X0208056Y0090089D01*
X0223138Y0079303D02*
X0245701Y0079303D01*
X0245701Y0078104D02*
X0224336Y0078104D01*
X0224931Y0076906D02*
X0245701Y0076906D01*
X0245701Y0075707D02*
X0228173Y0075707D01*
X0230760Y0074509D02*
X0245701Y0074509D01*
X0245701Y0073310D02*
X0231959Y0073310D01*
X0232774Y0072112D02*
X0245701Y0072112D01*
X0245701Y0070913D02*
X0233270Y0070913D01*
X0233562Y0069715D02*
X0245701Y0069715D01*
X0245701Y0068516D02*
X0233562Y0068516D01*
X0233512Y0067318D02*
X0245701Y0067318D01*
D17*
X0191600Y0087524D03*
X0136600Y0087524D03*
X0116600Y0147524D03*
X0096600Y0152524D03*
X0091600Y0142524D03*
X0091600Y0167524D03*
X0091600Y0187524D03*
X0091600Y0207524D03*
X0106600Y0207524D03*
X0121600Y0212524D03*
X0136600Y0212524D03*
X0156600Y0202524D03*
X0101600Y0257524D03*
X0111600Y0282524D03*
X0131600Y0312524D03*
X0076600Y0277524D03*
X0076600Y0262524D03*
X0041600Y0127524D03*
X0036600Y0107524D03*
X0081600Y0087524D03*
M02*
