G75*
%MOIN*%
%OFA0B0*%
%FSLAX25Y25*%
%IPPOS*%
%LPD*%
%AMOC8*
5,1,8,0,0,1.08239X$1,22.5*
%
%ADD10C,0.05150*%
%ADD11C,0.07400*%
%ADD12C,0.06000*%
%ADD13OC8,0.06000*%
%ADD14C,0.07087*%
%ADD15C,0.01600*%
%ADD16C,0.03962*%
%ADD17C,0.02400*%
%ADD18C,0.04000*%
D10*
X0214300Y0306874D03*
X0224300Y0306874D03*
D11*
X0234300Y0276874D03*
X0234300Y0266874D03*
X0234300Y0256874D03*
X0234300Y0246874D03*
X0234300Y0236874D03*
X0234300Y0226874D03*
X0234300Y0216874D03*
X0234300Y0206874D03*
X0234300Y0196874D03*
X0234300Y0186874D03*
X0234300Y0171874D03*
X0234300Y0161874D03*
X0234300Y0151874D03*
X0234300Y0141874D03*
X0234300Y0131874D03*
X0234300Y0121874D03*
X0234300Y0111874D03*
X0234300Y0101874D03*
X0044300Y0101874D03*
X0044300Y0111874D03*
X0044300Y0121874D03*
X0044300Y0131874D03*
X0044300Y0141874D03*
X0044300Y0151874D03*
X0044300Y0171874D03*
X0044300Y0181874D03*
X0044300Y0191874D03*
X0044300Y0201874D03*
X0044300Y0211874D03*
X0044300Y0221874D03*
X0044300Y0231874D03*
X0044300Y0241874D03*
D12*
X0011800Y0201874D03*
X0011800Y0191874D03*
X0011800Y0181874D03*
X0239300Y0309374D03*
X0249300Y0309374D03*
X0259300Y0309374D03*
D13*
X0214300Y0084374D03*
X0204300Y0084374D03*
X0194300Y0084374D03*
X0184300Y0084374D03*
X0174300Y0084374D03*
X0164300Y0084374D03*
D14*
X0175757Y0053749D02*
X0182843Y0053749D01*
X0162843Y0049374D02*
X0155757Y0049374D01*
X0155757Y0033749D02*
X0162843Y0033749D01*
X0162843Y0021874D02*
X0155757Y0021874D01*
X0117843Y0053749D02*
X0110757Y0053749D01*
X0097843Y0049374D02*
X0090757Y0049374D01*
X0090757Y0033749D02*
X0097843Y0033749D01*
X0097843Y0021874D02*
X0090757Y0021874D01*
X0052843Y0053749D02*
X0045757Y0053749D01*
X0032843Y0049374D02*
X0025757Y0049374D01*
X0025757Y0033749D02*
X0032843Y0033749D01*
X0032843Y0021874D02*
X0025757Y0021874D01*
X0025757Y0274999D02*
X0032843Y0274999D01*
X0045757Y0279374D02*
X0052843Y0279374D01*
X0052843Y0294999D02*
X0045757Y0294999D01*
X0045757Y0306874D02*
X0052843Y0306874D01*
X0090757Y0274999D02*
X0097843Y0274999D01*
X0110757Y0279374D02*
X0117843Y0279374D01*
X0117843Y0294999D02*
X0110757Y0294999D01*
X0110757Y0306874D02*
X0117843Y0306874D01*
X0240757Y0053749D02*
X0247843Y0053749D01*
X0227843Y0049374D02*
X0220757Y0049374D01*
X0220757Y0033749D02*
X0227843Y0033749D01*
X0227843Y0021874D02*
X0220757Y0021874D01*
D15*
X0008100Y0013174D02*
X0008100Y0178786D01*
X0009081Y0177805D01*
X0010845Y0177074D01*
X0012755Y0177074D01*
X0014519Y0177805D01*
X0015869Y0179155D01*
X0016600Y0180919D01*
X0016600Y0182829D01*
X0015869Y0184593D01*
X0014519Y0185943D01*
X0012755Y0186674D01*
X0010845Y0186674D01*
X0009081Y0185943D01*
X0008100Y0184962D01*
X0008100Y0188786D01*
X0009081Y0187805D01*
X0010845Y0187074D01*
X0012755Y0187074D01*
X0014519Y0187805D01*
X0015869Y0189155D01*
X0016600Y0190919D01*
X0016600Y0192829D01*
X0015869Y0194593D01*
X0014519Y0195943D01*
X0012755Y0196674D01*
X0010845Y0196674D01*
X0009081Y0195943D01*
X0008100Y0194962D01*
X0008100Y0198786D01*
X0009081Y0197805D01*
X0010845Y0197074D01*
X0012755Y0197074D01*
X0014519Y0197805D01*
X0015869Y0199155D01*
X0016600Y0200919D01*
X0016600Y0202829D01*
X0015869Y0204593D01*
X0014519Y0205943D01*
X0012755Y0206674D01*
X0010845Y0206674D01*
X0009081Y0205943D01*
X0008100Y0204962D01*
X0008100Y0315535D01*
X0033649Y0315535D01*
X0033138Y0314301D01*
X0033138Y0311849D01*
X0034076Y0309584D01*
X0035809Y0307851D01*
X0038074Y0306913D01*
X0040413Y0306913D01*
X0040413Y0305811D01*
X0041227Y0303847D01*
X0042730Y0302344D01*
X0044694Y0301531D01*
X0053906Y0301531D01*
X0055870Y0302344D01*
X0057373Y0303847D01*
X0058187Y0305811D01*
X0058187Y0307937D01*
X0057373Y0309901D01*
X0055870Y0311404D01*
X0053906Y0312217D01*
X0045462Y0312217D01*
X0045462Y0314301D01*
X0044951Y0315535D01*
X0098649Y0315535D01*
X0098138Y0314301D01*
X0098138Y0311849D01*
X0099076Y0309584D01*
X0100809Y0307851D01*
X0103074Y0306913D01*
X0105413Y0306913D01*
X0105413Y0305811D01*
X0106227Y0303847D01*
X0107730Y0302344D01*
X0109694Y0301531D01*
X0118906Y0301531D01*
X0120870Y0302344D01*
X0122373Y0303847D01*
X0123187Y0305811D01*
X0123187Y0307937D01*
X0122373Y0309901D01*
X0120870Y0311404D01*
X0118906Y0312217D01*
X0110462Y0312217D01*
X0110462Y0314301D01*
X0109951Y0315535D01*
X0264201Y0315535D01*
X0264201Y0013174D01*
X0239935Y0013174D01*
X0240462Y0014447D01*
X0240462Y0016899D01*
X0239524Y0019164D01*
X0237791Y0020897D01*
X0235526Y0021835D01*
X0233187Y0021835D01*
X0233187Y0022937D01*
X0232373Y0024901D01*
X0230870Y0026404D01*
X0228906Y0027217D01*
X0219694Y0027217D01*
X0217730Y0026404D01*
X0216227Y0024901D01*
X0215413Y0022937D01*
X0215413Y0020811D01*
X0216227Y0018847D01*
X0217730Y0017344D01*
X0219694Y0016531D01*
X0228138Y0016531D01*
X0228138Y0014447D01*
X0228665Y0013174D01*
X0174935Y0013174D01*
X0175462Y0014447D01*
X0175462Y0016899D01*
X0174524Y0019164D01*
X0172791Y0020897D01*
X0170526Y0021835D01*
X0168187Y0021835D01*
X0168187Y0022937D01*
X0167373Y0024901D01*
X0165870Y0026404D01*
X0163906Y0027217D01*
X0154694Y0027217D01*
X0152730Y0026404D01*
X0151227Y0024901D01*
X0150413Y0022937D01*
X0150413Y0020811D01*
X0151227Y0018847D01*
X0152730Y0017344D01*
X0154694Y0016531D01*
X0163138Y0016531D01*
X0163138Y0014447D01*
X0163665Y0013174D01*
X0109935Y0013174D01*
X0110462Y0014447D01*
X0110462Y0016899D01*
X0109524Y0019164D01*
X0107791Y0020897D01*
X0105526Y0021835D01*
X0103187Y0021835D01*
X0103187Y0022937D01*
X0102373Y0024901D01*
X0100870Y0026404D01*
X0098906Y0027217D01*
X0089694Y0027217D01*
X0087730Y0026404D01*
X0086839Y0025512D01*
X0071900Y0040451D01*
X0071900Y0059891D01*
X0071504Y0060847D01*
X0066504Y0065847D01*
X0065773Y0066578D01*
X0064817Y0066974D01*
X0062247Y0066974D01*
X0062505Y0067232D01*
X0063081Y0068622D01*
X0063081Y0069478D01*
X0075377Y0081774D01*
X0111553Y0081774D01*
X0112158Y0081169D01*
X0113548Y0080593D01*
X0115052Y0080593D01*
X0116442Y0081169D01*
X0117505Y0082232D01*
X0118081Y0083622D01*
X0118081Y0085126D01*
X0117505Y0086516D01*
X0117247Y0086774D01*
X0118223Y0086774D01*
X0121700Y0083297D01*
X0121700Y0075451D01*
X0113223Y0066974D01*
X0108783Y0066974D01*
X0107827Y0066578D01*
X0095966Y0054717D01*
X0089694Y0054717D01*
X0087730Y0053904D01*
X0086227Y0052401D01*
X0085413Y0050437D01*
X0085413Y0048311D01*
X0086227Y0046347D01*
X0087730Y0044844D01*
X0089694Y0044031D01*
X0098138Y0044031D01*
X0098138Y0042007D01*
X0099076Y0039742D01*
X0100305Y0038513D01*
X0098906Y0039092D01*
X0089694Y0039092D01*
X0087730Y0038279D01*
X0086227Y0036776D01*
X0085413Y0034812D01*
X0085413Y0032686D01*
X0086227Y0030722D01*
X0087730Y0029219D01*
X0089694Y0028406D01*
X0098906Y0028406D01*
X0100870Y0029219D01*
X0102373Y0030722D01*
X0103187Y0032686D01*
X0103187Y0034812D01*
X0102373Y0036776D01*
X0101375Y0037774D01*
X0103074Y0037070D01*
X0105526Y0037070D01*
X0107791Y0038008D01*
X0109524Y0039742D01*
X0110462Y0042007D01*
X0110462Y0044458D01*
X0109524Y0046723D01*
X0107791Y0048456D01*
X0105526Y0049394D01*
X0103187Y0049394D01*
X0103187Y0050437D01*
X0102373Y0052401D01*
X0101688Y0053085D01*
X0110377Y0061774D01*
X0114817Y0061774D01*
X0115773Y0062170D01*
X0116504Y0062901D01*
X0125773Y0072170D01*
X0126504Y0072901D01*
X0126900Y0073857D01*
X0126900Y0084891D01*
X0126504Y0085847D01*
X0121758Y0090593D01*
X0122552Y0090593D01*
X0123942Y0091169D01*
X0125005Y0092232D01*
X0125581Y0093622D01*
X0125581Y0095126D01*
X0125251Y0095923D01*
X0126048Y0095593D01*
X0127552Y0095593D01*
X0128942Y0096169D01*
X0130005Y0097232D01*
X0130581Y0098622D01*
X0130581Y0100126D01*
X0130005Y0101516D01*
X0128942Y0102579D01*
X0127552Y0103155D01*
X0126048Y0103155D01*
X0124658Y0102579D01*
X0124053Y0101974D01*
X0085581Y0101974D01*
X0085581Y0102626D01*
X0085005Y0104016D01*
X0083942Y0105079D01*
X0082552Y0105655D01*
X0081048Y0105655D01*
X0079658Y0105079D01*
X0078595Y0104016D01*
X0078019Y0102626D01*
X0078019Y0101122D01*
X0078595Y0099732D01*
X0079658Y0098669D01*
X0081048Y0098093D01*
X0081904Y0098093D01*
X0082096Y0097901D01*
X0082827Y0097170D01*
X0083783Y0096774D01*
X0086353Y0096774D01*
X0086095Y0096516D01*
X0085519Y0095126D01*
X0085519Y0093622D01*
X0086095Y0092232D01*
X0087158Y0091169D01*
X0088548Y0090593D01*
X0090052Y0090593D01*
X0091442Y0091169D01*
X0092047Y0091774D01*
X0103853Y0091774D01*
X0103595Y0091516D01*
X0103019Y0090126D01*
X0103019Y0088622D01*
X0103595Y0087232D01*
X0103853Y0086974D01*
X0073783Y0086974D01*
X0072827Y0086578D01*
X0059404Y0073155D01*
X0058548Y0073155D01*
X0057158Y0072579D01*
X0056095Y0071516D01*
X0055519Y0070126D01*
X0055519Y0068622D01*
X0056095Y0067232D01*
X0056353Y0066974D01*
X0040377Y0066974D01*
X0036900Y0070451D01*
X0036900Y0117344D01*
X0040221Y0118174D01*
X0041184Y0117211D01*
X0041999Y0116874D01*
X0041184Y0116537D01*
X0039637Y0114990D01*
X0038800Y0112968D01*
X0038800Y0110780D01*
X0039637Y0108759D01*
X0041184Y0107211D01*
X0041999Y0106874D01*
X0041184Y0106537D01*
X0039637Y0104990D01*
X0038800Y0102968D01*
X0038800Y0100780D01*
X0039637Y0098759D01*
X0041184Y0097211D01*
X0043206Y0096374D01*
X0045394Y0096374D01*
X0047415Y0097211D01*
X0048963Y0098759D01*
X0049800Y0100780D01*
X0049800Y0102968D01*
X0048963Y0104990D01*
X0047415Y0106537D01*
X0046601Y0106874D01*
X0047415Y0107211D01*
X0048963Y0108759D01*
X0049800Y0110780D01*
X0049800Y0112968D01*
X0048963Y0114990D01*
X0047415Y0116537D01*
X0046601Y0116874D01*
X0047415Y0117211D01*
X0048963Y0118759D01*
X0049800Y0120780D01*
X0049800Y0122968D01*
X0048963Y0124990D01*
X0047415Y0126537D01*
X0046601Y0126874D01*
X0047415Y0127211D01*
X0048963Y0128759D01*
X0049800Y0130780D01*
X0049800Y0132968D01*
X0048963Y0134990D01*
X0047415Y0136537D01*
X0046601Y0136874D01*
X0047415Y0137211D01*
X0048963Y0138759D01*
X0049800Y0140780D01*
X0049800Y0142968D01*
X0048963Y0144990D01*
X0047415Y0146537D01*
X0046601Y0146874D01*
X0047415Y0147211D01*
X0048963Y0148759D01*
X0049800Y0150780D01*
X0049800Y0152968D01*
X0048963Y0154990D01*
X0047415Y0156537D01*
X0045394Y0157374D01*
X0043206Y0157374D01*
X0041184Y0156537D01*
X0039637Y0154990D01*
X0038800Y0152968D01*
X0038800Y0150780D01*
X0039637Y0148759D01*
X0041184Y0147211D01*
X0041999Y0146874D01*
X0041184Y0146537D01*
X0039637Y0144990D01*
X0038920Y0143257D01*
X0012742Y0136974D01*
X0012533Y0136974D01*
X0012244Y0136854D01*
X0011940Y0136782D01*
X0011771Y0136658D01*
X0011577Y0136578D01*
X0011356Y0136357D01*
X0011103Y0136174D01*
X0010994Y0135995D01*
X0010846Y0135847D01*
X0010726Y0135558D01*
X0010563Y0135292D01*
X0010530Y0135085D01*
X0010450Y0134891D01*
X0010450Y0134579D01*
X0010401Y0134270D01*
X0010450Y0134066D01*
X0010450Y0024738D01*
X0010408Y0024591D01*
X0010450Y0024225D01*
X0010450Y0023857D01*
X0010509Y0023715D01*
X0010526Y0023563D01*
X0010705Y0023241D01*
X0010846Y0022901D01*
X0010954Y0022793D01*
X0011028Y0022659D01*
X0011317Y0022430D01*
X0011577Y0022170D01*
X0011719Y0022111D01*
X0011838Y0022016D01*
X0012193Y0021915D01*
X0012533Y0021774D01*
X0012686Y0021774D01*
X0020943Y0019415D01*
X0021002Y0019390D01*
X0021227Y0018847D01*
X0022730Y0017344D01*
X0024694Y0016531D01*
X0033138Y0016531D01*
X0033138Y0014447D01*
X0033665Y0013174D01*
X0008100Y0013174D01*
X0008100Y0014170D02*
X0033253Y0014170D01*
X0033138Y0015768D02*
X0008100Y0015768D01*
X0008100Y0017367D02*
X0022708Y0017367D01*
X0021178Y0018965D02*
X0008100Y0018965D01*
X0008100Y0020564D02*
X0016922Y0020564D01*
X0021800Y0021874D02*
X0029300Y0021874D01*
X0033906Y0027217D02*
X0024694Y0027217D01*
X0022730Y0026404D01*
X0021227Y0024901D01*
X0021168Y0024759D01*
X0015650Y0026335D01*
X0015650Y0132324D01*
X0040184Y0138212D01*
X0041184Y0137211D01*
X0041999Y0136874D01*
X0041184Y0136537D01*
X0039637Y0134990D01*
X0038800Y0132968D01*
X0038800Y0130780D01*
X0039637Y0128759D01*
X0041184Y0127211D01*
X0041999Y0126874D01*
X0041184Y0126537D01*
X0039637Y0124990D01*
X0038897Y0123203D01*
X0033980Y0121974D01*
X0033783Y0121974D01*
X0033483Y0121850D01*
X0033168Y0121771D01*
X0033009Y0121654D01*
X0032827Y0121578D01*
X0032598Y0121349D01*
X0032337Y0121155D01*
X0032235Y0120986D01*
X0032096Y0120847D01*
X0031972Y0120547D01*
X0031804Y0120268D01*
X0031775Y0120073D01*
X0031700Y0119891D01*
X0031700Y0119566D01*
X0031652Y0119245D01*
X0031700Y0119054D01*
X0031700Y0068857D01*
X0032096Y0067901D01*
X0032827Y0067170D01*
X0037827Y0062170D01*
X0038783Y0061774D01*
X0063223Y0061774D01*
X0066700Y0058297D01*
X0066700Y0038857D01*
X0067096Y0037901D01*
X0067827Y0037170D01*
X0085327Y0019670D01*
X0086002Y0019390D01*
X0086227Y0018847D01*
X0087730Y0017344D01*
X0089694Y0016531D01*
X0098138Y0016531D01*
X0098138Y0014447D01*
X0098665Y0013174D01*
X0044935Y0013174D01*
X0045462Y0014447D01*
X0045462Y0016899D01*
X0044524Y0019164D01*
X0042791Y0020897D01*
X0040526Y0021835D01*
X0038187Y0021835D01*
X0038187Y0022937D01*
X0037373Y0024901D01*
X0035870Y0026404D01*
X0033906Y0027217D01*
X0034533Y0026958D02*
X0078039Y0026958D01*
X0076441Y0028556D02*
X0034269Y0028556D01*
X0033906Y0028406D02*
X0035870Y0029219D01*
X0037373Y0030722D01*
X0038187Y0032686D01*
X0038187Y0034812D01*
X0037373Y0036776D01*
X0036375Y0037774D01*
X0038074Y0037070D01*
X0040526Y0037070D01*
X0042791Y0038008D01*
X0044524Y0039742D01*
X0045462Y0042007D01*
X0045462Y0044458D01*
X0044524Y0046723D01*
X0042791Y0048456D01*
X0040526Y0049394D01*
X0038187Y0049394D01*
X0038187Y0050437D01*
X0037373Y0052401D01*
X0035870Y0053904D01*
X0033906Y0054717D01*
X0024694Y0054717D01*
X0022730Y0053904D01*
X0021227Y0052401D01*
X0020413Y0050437D01*
X0020413Y0048311D01*
X0021227Y0046347D01*
X0022730Y0044844D01*
X0024694Y0044031D01*
X0033138Y0044031D01*
X0033138Y0042007D01*
X0034076Y0039742D01*
X0035305Y0038513D01*
X0033906Y0039092D01*
X0024694Y0039092D01*
X0022730Y0038279D01*
X0021227Y0036776D01*
X0020413Y0034812D01*
X0020413Y0032686D01*
X0021227Y0030722D01*
X0022730Y0029219D01*
X0024694Y0028406D01*
X0033906Y0028406D01*
X0036806Y0030155D02*
X0074842Y0030155D01*
X0073244Y0031753D02*
X0037800Y0031753D01*
X0038187Y0033352D02*
X0071645Y0033352D01*
X0070047Y0034950D02*
X0038129Y0034950D01*
X0037467Y0036549D02*
X0068448Y0036549D01*
X0066994Y0038147D02*
X0042930Y0038147D01*
X0044526Y0039746D02*
X0066700Y0039746D01*
X0066700Y0041344D02*
X0045188Y0041344D01*
X0045462Y0042943D02*
X0066700Y0042943D01*
X0066700Y0044541D02*
X0045428Y0044541D01*
X0044766Y0046140D02*
X0066700Y0046140D01*
X0066700Y0047738D02*
X0043509Y0047738D01*
X0043706Y0048797D02*
X0044505Y0048537D01*
X0045336Y0048406D01*
X0048919Y0048406D01*
X0048919Y0053368D01*
X0049681Y0053368D01*
X0049681Y0054130D01*
X0048919Y0054130D01*
X0048919Y0059092D01*
X0045336Y0059092D01*
X0044505Y0058961D01*
X0043706Y0058701D01*
X0042956Y0058319D01*
X0042276Y0057825D01*
X0041681Y0057230D01*
X0041187Y0056550D01*
X0040805Y0055800D01*
X0040545Y0055000D01*
X0040413Y0054170D01*
X0040413Y0054130D01*
X0048919Y0054130D01*
X0048919Y0053368D01*
X0040413Y0053368D01*
X0040413Y0053328D01*
X0040545Y0052498D01*
X0040805Y0051698D01*
X0041187Y0050949D01*
X0041681Y0050268D01*
X0042276Y0049673D01*
X0042956Y0049179D01*
X0043706Y0048797D01*
X0042739Y0049337D02*
X0040665Y0049337D01*
X0041196Y0050935D02*
X0037980Y0050935D01*
X0037240Y0052534D02*
X0040539Y0052534D01*
X0040413Y0054132D02*
X0035318Y0054132D01*
X0040782Y0055731D02*
X0015650Y0055731D01*
X0015650Y0057329D02*
X0041780Y0057329D01*
X0044404Y0058928D02*
X0015650Y0058928D01*
X0015650Y0060526D02*
X0064471Y0060526D01*
X0066069Y0058928D02*
X0054196Y0058928D01*
X0054095Y0058961D02*
X0053264Y0059092D01*
X0049681Y0059092D01*
X0049681Y0054130D01*
X0058187Y0054130D01*
X0058187Y0054170D01*
X0058055Y0055000D01*
X0057795Y0055800D01*
X0057413Y0056550D01*
X0056919Y0057230D01*
X0056324Y0057825D01*
X0055644Y0058319D01*
X0054894Y0058701D01*
X0054095Y0058961D01*
X0056820Y0057329D02*
X0066700Y0057329D01*
X0066700Y0055731D02*
X0057818Y0055731D01*
X0058187Y0054132D02*
X0066700Y0054132D01*
X0066700Y0052534D02*
X0058061Y0052534D01*
X0058055Y0052498D02*
X0058187Y0053328D01*
X0058187Y0053368D01*
X0049681Y0053368D01*
X0049681Y0048406D01*
X0053264Y0048406D01*
X0054095Y0048537D01*
X0054894Y0048797D01*
X0055644Y0049179D01*
X0056324Y0049673D01*
X0056919Y0050268D01*
X0057413Y0050949D01*
X0057795Y0051698D01*
X0058055Y0052498D01*
X0057404Y0050935D02*
X0066700Y0050935D01*
X0066700Y0049337D02*
X0055861Y0049337D01*
X0049681Y0049337D02*
X0048919Y0049337D01*
X0048919Y0050935D02*
X0049681Y0050935D01*
X0049681Y0052534D02*
X0048919Y0052534D01*
X0048919Y0054132D02*
X0049681Y0054132D01*
X0049681Y0055731D02*
X0048919Y0055731D01*
X0048919Y0057329D02*
X0049681Y0057329D01*
X0049681Y0058928D02*
X0048919Y0058928D01*
X0039300Y0064374D02*
X0034300Y0069374D01*
X0034300Y0119374D01*
X0044300Y0121874D01*
X0048277Y0118073D02*
X0165726Y0118073D01*
X0165500Y0118618D02*
X0166079Y0117221D01*
X0166300Y0117000D01*
X0166300Y0089162D01*
X0166288Y0089174D01*
X0162312Y0089174D01*
X0159500Y0086362D01*
X0159500Y0082386D01*
X0162312Y0079574D01*
X0166288Y0079574D01*
X0169100Y0082386D01*
X0169100Y0085331D01*
X0169500Y0084931D01*
X0169500Y0082386D01*
X0172312Y0079574D01*
X0176288Y0079574D01*
X0179100Y0082386D01*
X0179100Y0086362D01*
X0176288Y0089174D01*
X0173743Y0089174D01*
X0172300Y0090617D01*
X0172300Y0116110D01*
X0173548Y0115593D01*
X0175052Y0115593D01*
X0176442Y0116169D01*
X0177505Y0117232D01*
X0178081Y0118622D01*
X0178081Y0120126D01*
X0177505Y0121516D01*
X0176442Y0122579D01*
X0175052Y0123155D01*
X0173548Y0123155D01*
X0173100Y0122970D01*
X0173100Y0157630D01*
X0172521Y0159027D01*
X0171453Y0160095D01*
X0170056Y0160674D01*
X0168544Y0160674D01*
X0167147Y0160095D01*
X0166079Y0159027D01*
X0165500Y0157630D01*
X0165500Y0140470D01*
X0165052Y0140655D01*
X0164400Y0140655D01*
X0164400Y0161627D01*
X0165005Y0162232D01*
X0165581Y0163622D01*
X0165581Y0165126D01*
X0165005Y0166516D01*
X0163942Y0167579D01*
X0162552Y0168155D01*
X0161048Y0168155D01*
X0159658Y0167579D01*
X0158595Y0166516D01*
X0158019Y0165126D01*
X0158019Y0164270D01*
X0153223Y0159474D01*
X0150087Y0159474D01*
X0144400Y0163265D01*
X0144400Y0199891D01*
X0144004Y0200847D01*
X0143273Y0201578D01*
X0140773Y0204078D01*
X0139817Y0204474D01*
X0121283Y0204474D01*
X0120327Y0204078D01*
X0119596Y0203347D01*
X0119404Y0203155D01*
X0118548Y0203155D01*
X0117158Y0202579D01*
X0116095Y0201516D01*
X0115519Y0200126D01*
X0115519Y0198622D01*
X0116095Y0197232D01*
X0117158Y0196169D01*
X0118548Y0195593D01*
X0120052Y0195593D01*
X0121442Y0196169D01*
X0122505Y0197232D01*
X0123081Y0198622D01*
X0123081Y0199274D01*
X0138223Y0199274D01*
X0139200Y0198297D01*
X0139200Y0162129D01*
X0139149Y0161871D01*
X0139200Y0161617D01*
X0139200Y0161357D01*
X0139300Y0161114D01*
X0139352Y0160857D01*
X0139496Y0160641D01*
X0139596Y0160401D01*
X0139781Y0160216D01*
X0139927Y0159998D01*
X0140144Y0159853D01*
X0140327Y0159670D01*
X0140570Y0159569D01*
X0147644Y0154853D01*
X0147827Y0154670D01*
X0148070Y0154569D01*
X0148288Y0154424D01*
X0148543Y0154373D01*
X0148783Y0154274D01*
X0149045Y0154274D01*
X0149303Y0154223D01*
X0149557Y0154274D01*
X0154817Y0154274D01*
X0155773Y0154670D01*
X0159200Y0158097D01*
X0159200Y0138857D01*
X0159596Y0137901D01*
X0160327Y0137170D01*
X0160519Y0136978D01*
X0160519Y0136122D01*
X0161095Y0134732D01*
X0162158Y0133669D01*
X0163548Y0133093D01*
X0165052Y0133093D01*
X0165500Y0133278D01*
X0165500Y0118618D01*
X0165500Y0119671D02*
X0049341Y0119671D01*
X0049800Y0121270D02*
X0165500Y0121270D01*
X0165500Y0122868D02*
X0049800Y0122868D01*
X0049179Y0124467D02*
X0165500Y0124467D01*
X0165500Y0126065D02*
X0047887Y0126065D01*
X0047868Y0127664D02*
X0165500Y0127664D01*
X0165500Y0129262D02*
X0049171Y0129262D01*
X0049800Y0130861D02*
X0165500Y0130861D01*
X0165500Y0132459D02*
X0049800Y0132459D01*
X0049349Y0134058D02*
X0161769Y0134058D01*
X0160712Y0135656D02*
X0048296Y0135656D01*
X0047459Y0137255D02*
X0160242Y0137255D01*
X0159201Y0138853D02*
X0049002Y0138853D01*
X0049664Y0140452D02*
X0159200Y0140452D01*
X0159200Y0142050D02*
X0049800Y0142050D01*
X0049518Y0143649D02*
X0159200Y0143649D01*
X0159200Y0145247D02*
X0048705Y0145247D01*
X0046669Y0146846D02*
X0093981Y0146846D01*
X0093595Y0147232D02*
X0094658Y0146169D01*
X0096048Y0145593D01*
X0097552Y0145593D01*
X0098942Y0146169D01*
X0100005Y0147232D01*
X0100020Y0147268D01*
X0101048Y0146843D01*
X0102552Y0146843D01*
X0103942Y0147419D01*
X0104547Y0148024D01*
X0116553Y0148024D01*
X0117158Y0147419D01*
X0118548Y0146843D01*
X0120052Y0146843D01*
X0121442Y0147419D01*
X0122505Y0148482D01*
X0123081Y0149872D01*
X0123081Y0151376D01*
X0122505Y0152766D01*
X0121442Y0153829D01*
X0120052Y0154405D01*
X0118548Y0154405D01*
X0117158Y0153829D01*
X0116553Y0153224D01*
X0104547Y0153224D01*
X0103942Y0153829D01*
X0102552Y0154405D01*
X0101048Y0154405D01*
X0099658Y0153829D01*
X0098595Y0152766D01*
X0098580Y0152730D01*
X0097552Y0153155D01*
X0097262Y0153155D01*
X0093499Y0156917D01*
X0092397Y0157374D01*
X0084147Y0157374D01*
X0083942Y0157579D01*
X0082552Y0158155D01*
X0081048Y0158155D01*
X0079658Y0157579D01*
X0078595Y0156516D01*
X0078019Y0155126D01*
X0078019Y0153622D01*
X0078595Y0152232D01*
X0079658Y0151169D01*
X0081048Y0150593D01*
X0082552Y0150593D01*
X0083942Y0151169D01*
X0084147Y0151374D01*
X0090557Y0151374D01*
X0093019Y0148912D01*
X0093019Y0148622D01*
X0093595Y0147232D01*
X0093092Y0148445D02*
X0048649Y0148445D01*
X0049495Y0150043D02*
X0091888Y0150043D01*
X0095578Y0154839D02*
X0147659Y0154839D01*
X0149300Y0156874D02*
X0154300Y0156874D01*
X0161800Y0164374D01*
X0161800Y0139374D01*
X0164300Y0136874D01*
X0164400Y0142050D02*
X0165500Y0142050D01*
X0165500Y0143649D02*
X0164400Y0143649D01*
X0164400Y0145247D02*
X0165500Y0145247D01*
X0165500Y0146846D02*
X0164400Y0146846D01*
X0164400Y0148445D02*
X0165500Y0148445D01*
X0165500Y0150043D02*
X0164400Y0150043D01*
X0164400Y0151642D02*
X0165500Y0151642D01*
X0165500Y0153240D02*
X0164400Y0153240D01*
X0164400Y0154839D02*
X0165500Y0154839D01*
X0165500Y0156437D02*
X0164400Y0156437D01*
X0164400Y0158036D02*
X0165668Y0158036D01*
X0166686Y0159634D02*
X0164400Y0159634D01*
X0164400Y0161233D02*
X0228800Y0161233D01*
X0228800Y0160780D02*
X0229637Y0158759D01*
X0231184Y0157211D01*
X0231999Y0156874D01*
X0231184Y0156537D01*
X0229637Y0154990D01*
X0228800Y0152968D01*
X0228800Y0150780D01*
X0229637Y0148759D01*
X0231184Y0147211D01*
X0231999Y0146874D01*
X0231184Y0146537D01*
X0229637Y0144990D01*
X0228800Y0142968D01*
X0228800Y0140780D01*
X0229637Y0138759D01*
X0231184Y0137211D01*
X0231999Y0136874D01*
X0231184Y0136537D01*
X0229637Y0134990D01*
X0228800Y0132968D01*
X0228800Y0130780D01*
X0229637Y0128759D01*
X0231184Y0127211D01*
X0231999Y0126874D01*
X0231184Y0126537D01*
X0229637Y0124990D01*
X0228800Y0122968D01*
X0228800Y0120780D01*
X0229637Y0118759D01*
X0231184Y0117211D01*
X0231999Y0116874D01*
X0231184Y0116537D01*
X0229637Y0114990D01*
X0228800Y0112968D01*
X0228800Y0110780D01*
X0229637Y0108759D01*
X0231184Y0107211D01*
X0231999Y0106874D01*
X0231184Y0106537D01*
X0229637Y0104990D01*
X0228800Y0102968D01*
X0228800Y0100780D01*
X0229637Y0098759D01*
X0231184Y0097211D01*
X0233206Y0096374D01*
X0235394Y0096374D01*
X0237415Y0097211D01*
X0238963Y0098759D01*
X0239800Y0100780D01*
X0239800Y0102968D01*
X0238963Y0104990D01*
X0237415Y0106537D01*
X0236601Y0106874D01*
X0237415Y0107211D01*
X0238963Y0108759D01*
X0239800Y0110780D01*
X0239800Y0112968D01*
X0238963Y0114990D01*
X0237415Y0116537D01*
X0236601Y0116874D01*
X0237415Y0117211D01*
X0238963Y0118759D01*
X0239800Y0120780D01*
X0239800Y0122968D01*
X0238963Y0124990D01*
X0237415Y0126537D01*
X0236601Y0126874D01*
X0237415Y0127211D01*
X0238963Y0128759D01*
X0239800Y0130780D01*
X0239800Y0132968D01*
X0238963Y0134990D01*
X0237415Y0136537D01*
X0236601Y0136874D01*
X0237415Y0137211D01*
X0238963Y0138759D01*
X0239800Y0140780D01*
X0239800Y0142968D01*
X0238963Y0144990D01*
X0237415Y0146537D01*
X0236601Y0146874D01*
X0237415Y0147211D01*
X0238963Y0148759D01*
X0239800Y0150780D01*
X0239800Y0152968D01*
X0238963Y0154990D01*
X0237415Y0156537D01*
X0236601Y0156874D01*
X0237415Y0157211D01*
X0238963Y0158759D01*
X0239800Y0160780D01*
X0239800Y0162968D01*
X0238963Y0164990D01*
X0237415Y0166537D01*
X0236601Y0166874D01*
X0237415Y0167211D01*
X0238963Y0168759D01*
X0239800Y0170780D01*
X0239800Y0172968D01*
X0238963Y0174990D01*
X0237415Y0176537D01*
X0235394Y0177374D01*
X0233206Y0177374D01*
X0231184Y0176537D01*
X0229637Y0174990D01*
X0228800Y0172968D01*
X0228800Y0170780D01*
X0229637Y0168759D01*
X0231184Y0167211D01*
X0231999Y0166874D01*
X0231184Y0166537D01*
X0229637Y0164990D01*
X0228800Y0162968D01*
X0228800Y0160780D01*
X0229275Y0159634D02*
X0171914Y0159634D01*
X0172932Y0158036D02*
X0230360Y0158036D01*
X0231085Y0156437D02*
X0173100Y0156437D01*
X0173100Y0154839D02*
X0229575Y0154839D01*
X0228913Y0153240D02*
X0173100Y0153240D01*
X0173100Y0151642D02*
X0228800Y0151642D01*
X0229105Y0150043D02*
X0173100Y0150043D01*
X0173100Y0148445D02*
X0229951Y0148445D01*
X0231931Y0146846D02*
X0173100Y0146846D01*
X0173100Y0145247D02*
X0229895Y0145247D01*
X0229082Y0143649D02*
X0173100Y0143649D01*
X0173100Y0142050D02*
X0228800Y0142050D01*
X0228936Y0140452D02*
X0173100Y0140452D01*
X0173100Y0138853D02*
X0229598Y0138853D01*
X0231141Y0137255D02*
X0173100Y0137255D01*
X0173100Y0135656D02*
X0230304Y0135656D01*
X0229251Y0134058D02*
X0173100Y0134058D01*
X0173100Y0132459D02*
X0228800Y0132459D01*
X0228800Y0130861D02*
X0173100Y0130861D01*
X0173100Y0129262D02*
X0229429Y0129262D01*
X0230732Y0127664D02*
X0173100Y0127664D01*
X0173100Y0126065D02*
X0230713Y0126065D01*
X0229421Y0124467D02*
X0173100Y0124467D01*
X0175744Y0122868D02*
X0228800Y0122868D01*
X0228800Y0121270D02*
X0177607Y0121270D01*
X0178081Y0119671D02*
X0229259Y0119671D01*
X0230323Y0118073D02*
X0177854Y0118073D01*
X0176748Y0116474D02*
X0231122Y0116474D01*
X0229590Y0114876D02*
X0172300Y0114876D01*
X0172300Y0113277D02*
X0228928Y0113277D01*
X0228800Y0111679D02*
X0172300Y0111679D01*
X0172300Y0110080D02*
X0229090Y0110080D01*
X0229914Y0108482D02*
X0172300Y0108482D01*
X0172300Y0106883D02*
X0231977Y0106883D01*
X0229933Y0105285D02*
X0172300Y0105285D01*
X0172300Y0103686D02*
X0229097Y0103686D01*
X0228800Y0102088D02*
X0172300Y0102088D01*
X0172300Y0100489D02*
X0228920Y0100489D01*
X0229583Y0098891D02*
X0172300Y0098891D01*
X0172300Y0097292D02*
X0231104Y0097292D01*
X0237496Y0097292D02*
X0264201Y0097292D01*
X0264201Y0095694D02*
X0172300Y0095694D01*
X0172300Y0094095D02*
X0264201Y0094095D01*
X0264201Y0092497D02*
X0172300Y0092497D01*
X0172300Y0090898D02*
X0264201Y0090898D01*
X0264201Y0089300D02*
X0173617Y0089300D01*
X0177761Y0087701D02*
X0180839Y0087701D01*
X0179500Y0086362D02*
X0182312Y0089174D01*
X0184100Y0089174D01*
X0184100Y0084574D01*
X0184100Y0084174D01*
X0184500Y0084174D01*
X0184500Y0084574D01*
X0189100Y0084574D01*
X0189100Y0086362D01*
X0186288Y0089174D01*
X0184500Y0089174D01*
X0184500Y0084574D01*
X0184100Y0084574D01*
X0179500Y0084574D01*
X0179500Y0086362D01*
X0179500Y0086103D02*
X0179100Y0086103D01*
X0179100Y0084504D02*
X0184100Y0084504D01*
X0184100Y0084174D02*
X0179500Y0084174D01*
X0179500Y0082386D01*
X0182312Y0079574D01*
X0184100Y0079574D01*
X0184100Y0084174D01*
X0184500Y0084174D02*
X0184500Y0079574D01*
X0186288Y0079574D01*
X0189100Y0082386D01*
X0189100Y0084174D01*
X0184500Y0084174D01*
X0184500Y0084504D02*
X0189500Y0084504D01*
X0189500Y0082906D02*
X0189100Y0082906D01*
X0189500Y0082386D02*
X0192312Y0079574D01*
X0196288Y0079574D01*
X0199100Y0082386D01*
X0199100Y0086362D01*
X0196288Y0089174D01*
X0192312Y0089174D01*
X0189500Y0086362D01*
X0189500Y0082386D01*
X0190579Y0081307D02*
X0188021Y0081307D01*
X0186423Y0079709D02*
X0192177Y0079709D01*
X0196423Y0079709D02*
X0202177Y0079709D01*
X0202312Y0079574D02*
X0206288Y0079574D01*
X0209100Y0082386D01*
X0209100Y0086362D01*
X0206288Y0089174D01*
X0202312Y0089174D01*
X0199500Y0086362D01*
X0199500Y0082386D01*
X0202312Y0079574D01*
X0200579Y0081307D02*
X0198021Y0081307D01*
X0199100Y0082906D02*
X0199500Y0082906D01*
X0199500Y0084504D02*
X0199100Y0084504D01*
X0199100Y0086103D02*
X0199500Y0086103D01*
X0200839Y0087701D02*
X0197761Y0087701D01*
X0190839Y0087701D02*
X0187761Y0087701D01*
X0189100Y0086103D02*
X0189500Y0086103D01*
X0184500Y0086103D02*
X0184100Y0086103D01*
X0184100Y0087701D02*
X0184500Y0087701D01*
X0184500Y0082906D02*
X0184100Y0082906D01*
X0184100Y0081307D02*
X0184500Y0081307D01*
X0184500Y0079709D02*
X0184100Y0079709D01*
X0182177Y0079709D02*
X0176423Y0079709D01*
X0178021Y0081307D02*
X0180579Y0081307D01*
X0179500Y0082906D02*
X0179100Y0082906D01*
X0172177Y0079709D02*
X0166423Y0079709D01*
X0168021Y0081307D02*
X0170579Y0081307D01*
X0169500Y0082906D02*
X0169100Y0082906D01*
X0169100Y0084504D02*
X0169500Y0084504D01*
X0166300Y0089300D02*
X0123051Y0089300D01*
X0123289Y0090898D02*
X0166300Y0090898D01*
X0166300Y0092497D02*
X0125115Y0092497D01*
X0125581Y0094095D02*
X0166300Y0094095D01*
X0166300Y0095694D02*
X0127795Y0095694D01*
X0125805Y0095694D02*
X0125346Y0095694D01*
X0121800Y0094374D02*
X0089300Y0094374D01*
X0090789Y0090898D02*
X0103339Y0090898D01*
X0103019Y0089300D02*
X0036900Y0089300D01*
X0036900Y0090898D02*
X0087811Y0090898D01*
X0085985Y0092497D02*
X0036900Y0092497D01*
X0036900Y0094095D02*
X0085519Y0094095D01*
X0085754Y0095694D02*
X0036900Y0095694D01*
X0036900Y0097292D02*
X0041104Y0097292D01*
X0039583Y0098891D02*
X0036900Y0098891D01*
X0036900Y0100489D02*
X0038920Y0100489D01*
X0038800Y0102088D02*
X0036900Y0102088D01*
X0036900Y0103686D02*
X0039097Y0103686D01*
X0039933Y0105285D02*
X0036900Y0105285D01*
X0036900Y0106883D02*
X0041977Y0106883D01*
X0039914Y0108482D02*
X0036900Y0108482D01*
X0036900Y0110080D02*
X0039090Y0110080D01*
X0038800Y0111679D02*
X0036900Y0111679D01*
X0036900Y0113277D02*
X0038928Y0113277D01*
X0039590Y0114876D02*
X0036900Y0114876D01*
X0036900Y0116474D02*
X0041122Y0116474D01*
X0040323Y0118073D02*
X0039815Y0118073D01*
X0037557Y0122868D02*
X0015650Y0122868D01*
X0015650Y0121270D02*
X0032491Y0121270D01*
X0031700Y0119671D02*
X0015650Y0119671D01*
X0015650Y0118073D02*
X0031700Y0118073D01*
X0031700Y0116474D02*
X0015650Y0116474D01*
X0015650Y0114876D02*
X0031700Y0114876D01*
X0031700Y0113277D02*
X0015650Y0113277D01*
X0015650Y0111679D02*
X0031700Y0111679D01*
X0031700Y0110080D02*
X0015650Y0110080D01*
X0015650Y0108482D02*
X0031700Y0108482D01*
X0031700Y0106883D02*
X0015650Y0106883D01*
X0015650Y0105285D02*
X0031700Y0105285D01*
X0031700Y0103686D02*
X0015650Y0103686D01*
X0015650Y0102088D02*
X0031700Y0102088D01*
X0031700Y0100489D02*
X0015650Y0100489D01*
X0015650Y0098891D02*
X0031700Y0098891D01*
X0031700Y0097292D02*
X0015650Y0097292D01*
X0015650Y0095694D02*
X0031700Y0095694D01*
X0031700Y0094095D02*
X0015650Y0094095D01*
X0015650Y0092497D02*
X0031700Y0092497D01*
X0031700Y0090898D02*
X0015650Y0090898D01*
X0015650Y0089300D02*
X0031700Y0089300D01*
X0031700Y0087701D02*
X0015650Y0087701D01*
X0015650Y0086103D02*
X0031700Y0086103D01*
X0031700Y0084504D02*
X0015650Y0084504D01*
X0015650Y0082906D02*
X0031700Y0082906D01*
X0031700Y0081307D02*
X0015650Y0081307D01*
X0015650Y0079709D02*
X0031700Y0079709D01*
X0031700Y0078110D02*
X0015650Y0078110D01*
X0015650Y0076511D02*
X0031700Y0076511D01*
X0031700Y0074913D02*
X0015650Y0074913D01*
X0015650Y0073314D02*
X0031700Y0073314D01*
X0031700Y0071716D02*
X0015650Y0071716D01*
X0015650Y0070117D02*
X0031700Y0070117D01*
X0031840Y0068519D02*
X0015650Y0068519D01*
X0015650Y0066920D02*
X0033077Y0066920D01*
X0034675Y0065322D02*
X0015650Y0065322D01*
X0015650Y0063723D02*
X0036274Y0063723D01*
X0037936Y0062125D02*
X0015650Y0062125D01*
X0010450Y0062125D02*
X0008100Y0062125D01*
X0008100Y0063723D02*
X0010450Y0063723D01*
X0010450Y0065322D02*
X0008100Y0065322D01*
X0008100Y0066920D02*
X0010450Y0066920D01*
X0010450Y0068519D02*
X0008100Y0068519D01*
X0008100Y0070117D02*
X0010450Y0070117D01*
X0010450Y0071716D02*
X0008100Y0071716D01*
X0008100Y0073314D02*
X0010450Y0073314D01*
X0010450Y0074913D02*
X0008100Y0074913D01*
X0008100Y0076511D02*
X0010450Y0076511D01*
X0010450Y0078110D02*
X0008100Y0078110D01*
X0008100Y0079709D02*
X0010450Y0079709D01*
X0010450Y0081307D02*
X0008100Y0081307D01*
X0008100Y0082906D02*
X0010450Y0082906D01*
X0010450Y0084504D02*
X0008100Y0084504D01*
X0008100Y0086103D02*
X0010450Y0086103D01*
X0010450Y0087701D02*
X0008100Y0087701D01*
X0008100Y0089300D02*
X0010450Y0089300D01*
X0010450Y0090898D02*
X0008100Y0090898D01*
X0008100Y0092497D02*
X0010450Y0092497D01*
X0010450Y0094095D02*
X0008100Y0094095D01*
X0008100Y0095694D02*
X0010450Y0095694D01*
X0010450Y0097292D02*
X0008100Y0097292D01*
X0008100Y0098891D02*
X0010450Y0098891D01*
X0010450Y0100489D02*
X0008100Y0100489D01*
X0008100Y0102088D02*
X0010450Y0102088D01*
X0010450Y0103686D02*
X0008100Y0103686D01*
X0008100Y0105285D02*
X0010450Y0105285D01*
X0010450Y0106883D02*
X0008100Y0106883D01*
X0008100Y0108482D02*
X0010450Y0108482D01*
X0010450Y0110080D02*
X0008100Y0110080D01*
X0008100Y0111679D02*
X0010450Y0111679D01*
X0010450Y0113277D02*
X0008100Y0113277D01*
X0008100Y0114876D02*
X0010450Y0114876D01*
X0010450Y0116474D02*
X0008100Y0116474D01*
X0008100Y0118073D02*
X0010450Y0118073D01*
X0010450Y0119671D02*
X0008100Y0119671D01*
X0008100Y0121270D02*
X0010450Y0121270D01*
X0010450Y0122868D02*
X0008100Y0122868D01*
X0008100Y0124467D02*
X0010450Y0124467D01*
X0010450Y0126065D02*
X0008100Y0126065D01*
X0008100Y0127664D02*
X0010450Y0127664D01*
X0010450Y0129262D02*
X0008100Y0129262D01*
X0008100Y0130861D02*
X0010450Y0130861D01*
X0010450Y0132459D02*
X0008100Y0132459D01*
X0008100Y0134058D02*
X0010450Y0134058D01*
X0010767Y0135656D02*
X0008100Y0135656D01*
X0008100Y0137255D02*
X0013913Y0137255D01*
X0013050Y0134374D02*
X0044300Y0141874D01*
X0041931Y0146846D02*
X0008100Y0146846D01*
X0008100Y0148445D02*
X0039951Y0148445D01*
X0039105Y0150043D02*
X0008100Y0150043D01*
X0008100Y0151642D02*
X0038800Y0151642D01*
X0038913Y0153240D02*
X0008100Y0153240D01*
X0008100Y0154839D02*
X0039575Y0154839D01*
X0041085Y0156437D02*
X0008100Y0156437D01*
X0008100Y0158036D02*
X0080759Y0158036D01*
X0082841Y0158036D02*
X0142870Y0158036D01*
X0145268Y0156437D02*
X0093980Y0156437D01*
X0097177Y0153240D02*
X0099069Y0153240D01*
X0101800Y0150624D02*
X0119300Y0150624D01*
X0116569Y0153240D02*
X0104531Y0153240D01*
X0102560Y0146846D02*
X0118540Y0146846D01*
X0120060Y0146846D02*
X0159200Y0146846D01*
X0159200Y0148445D02*
X0122468Y0148445D01*
X0123081Y0150043D02*
X0159200Y0150043D01*
X0159200Y0151642D02*
X0122971Y0151642D01*
X0122031Y0153240D02*
X0159200Y0153240D01*
X0159200Y0154839D02*
X0155941Y0154839D01*
X0157540Y0156437D02*
X0159200Y0156437D01*
X0159200Y0158036D02*
X0159138Y0158036D01*
X0156580Y0162831D02*
X0145052Y0162831D01*
X0144400Y0164430D02*
X0158019Y0164430D01*
X0158393Y0166028D02*
X0144400Y0166028D01*
X0144400Y0167627D02*
X0159772Y0167627D01*
X0161048Y0170593D02*
X0162552Y0170593D01*
X0163942Y0171169D01*
X0164547Y0171774D01*
X0196553Y0171774D01*
X0197158Y0171169D01*
X0198548Y0170593D01*
X0200052Y0170593D01*
X0201442Y0171169D01*
X0202505Y0172232D01*
X0203081Y0173622D01*
X0203081Y0175126D01*
X0202505Y0176516D01*
X0201442Y0177579D01*
X0200052Y0178155D01*
X0198548Y0178155D01*
X0197158Y0177579D01*
X0196553Y0176974D01*
X0192247Y0176974D01*
X0192505Y0177232D01*
X0193081Y0178622D01*
X0193081Y0180126D01*
X0192505Y0181516D01*
X0191442Y0182579D01*
X0190052Y0183155D01*
X0188548Y0183155D01*
X0187158Y0182579D01*
X0186553Y0181974D01*
X0185791Y0181974D01*
X0186049Y0182232D01*
X0186624Y0183622D01*
X0186624Y0185126D01*
X0186049Y0186516D01*
X0184985Y0187579D01*
X0183595Y0188155D01*
X0182091Y0188155D01*
X0180701Y0187579D01*
X0180096Y0186974D01*
X0164547Y0186974D01*
X0163942Y0187579D01*
X0162552Y0188155D01*
X0161048Y0188155D01*
X0159658Y0187579D01*
X0158595Y0186516D01*
X0158019Y0185126D01*
X0158019Y0183622D01*
X0158261Y0183036D01*
X0157158Y0182579D01*
X0156095Y0181516D01*
X0155519Y0180126D01*
X0155519Y0178622D01*
X0156095Y0177232D01*
X0157158Y0176169D01*
X0158261Y0175712D01*
X0158019Y0175126D01*
X0158019Y0173622D01*
X0158595Y0172232D01*
X0159658Y0171169D01*
X0161048Y0170593D01*
X0160491Y0170824D02*
X0144400Y0170824D01*
X0144400Y0172422D02*
X0158516Y0172422D01*
X0158019Y0174021D02*
X0144400Y0174021D01*
X0144400Y0175619D02*
X0158223Y0175619D01*
X0156109Y0177218D02*
X0144400Y0177218D01*
X0144400Y0178816D02*
X0155519Y0178816D01*
X0155638Y0180415D02*
X0144400Y0180415D01*
X0144400Y0182013D02*
X0156592Y0182013D01*
X0158023Y0183612D02*
X0144400Y0183612D01*
X0144400Y0185210D02*
X0158054Y0185210D01*
X0158887Y0186809D02*
X0144400Y0186809D01*
X0144400Y0188407D02*
X0175289Y0188407D01*
X0174658Y0188669D02*
X0176048Y0188093D01*
X0177552Y0188093D01*
X0178942Y0188669D01*
X0180005Y0189732D01*
X0180581Y0191122D01*
X0180581Y0192626D01*
X0180005Y0194016D01*
X0178942Y0195079D01*
X0177552Y0195655D01*
X0176696Y0195655D01*
X0176504Y0195847D01*
X0175773Y0196578D01*
X0174817Y0196974D01*
X0164547Y0196974D01*
X0163942Y0197579D01*
X0162552Y0198155D01*
X0161048Y0198155D01*
X0159658Y0197579D01*
X0158595Y0196516D01*
X0158019Y0195126D01*
X0158019Y0193622D01*
X0158595Y0192232D01*
X0159658Y0191169D01*
X0161048Y0190593D01*
X0162552Y0190593D01*
X0163942Y0191169D01*
X0164547Y0191774D01*
X0173019Y0191774D01*
X0173019Y0191122D01*
X0173595Y0189732D01*
X0174658Y0188669D01*
X0173481Y0190006D02*
X0144400Y0190006D01*
X0144400Y0191604D02*
X0159222Y0191604D01*
X0158192Y0193203D02*
X0144400Y0193203D01*
X0144400Y0194801D02*
X0158019Y0194801D01*
X0158546Y0196400D02*
X0144400Y0196400D01*
X0144400Y0197998D02*
X0160669Y0197998D01*
X0162931Y0197998D02*
X0228813Y0197998D01*
X0228800Y0197968D02*
X0228800Y0195780D01*
X0229637Y0193759D01*
X0231184Y0192211D01*
X0231999Y0191874D01*
X0231184Y0191537D01*
X0229637Y0189990D01*
X0228800Y0187968D01*
X0228800Y0185780D01*
X0229637Y0183759D01*
X0231184Y0182211D01*
X0233206Y0181374D01*
X0235394Y0181374D01*
X0237415Y0182211D01*
X0238963Y0183759D01*
X0239800Y0185780D01*
X0239800Y0187968D01*
X0238963Y0189990D01*
X0237415Y0191537D01*
X0236601Y0191874D01*
X0237415Y0192211D01*
X0238963Y0193759D01*
X0239800Y0195780D01*
X0239800Y0197968D01*
X0238963Y0199990D01*
X0237415Y0201537D01*
X0236601Y0201874D01*
X0237415Y0202211D01*
X0238963Y0203759D01*
X0239800Y0205780D01*
X0239800Y0207968D01*
X0238963Y0209990D01*
X0237415Y0211537D01*
X0236601Y0211874D01*
X0237415Y0212211D01*
X0238963Y0213759D01*
X0239800Y0215780D01*
X0239800Y0217968D01*
X0238963Y0219990D01*
X0237415Y0221537D01*
X0236601Y0221874D01*
X0237415Y0222211D01*
X0238963Y0223759D01*
X0239800Y0225780D01*
X0239800Y0227968D01*
X0238963Y0229990D01*
X0237415Y0231537D01*
X0236601Y0231874D01*
X0237415Y0232211D01*
X0238963Y0233759D01*
X0239800Y0235780D01*
X0239800Y0237968D01*
X0238963Y0239990D01*
X0237415Y0241537D01*
X0236601Y0241874D01*
X0237183Y0242170D01*
X0237883Y0242679D01*
X0238495Y0243291D01*
X0239004Y0243991D01*
X0239397Y0244763D01*
X0239665Y0245586D01*
X0239800Y0246441D01*
X0239800Y0246674D01*
X0234500Y0246674D01*
X0234500Y0247074D01*
X0239800Y0247074D01*
X0239800Y0247307D01*
X0239665Y0248162D01*
X0239397Y0248985D01*
X0239004Y0249757D01*
X0238495Y0250457D01*
X0237883Y0251069D01*
X0237183Y0251578D01*
X0236601Y0251874D01*
X0237415Y0252211D01*
X0238963Y0253759D01*
X0239800Y0255780D01*
X0239800Y0257968D01*
X0238963Y0259990D01*
X0237415Y0261537D01*
X0236601Y0261874D01*
X0237415Y0262211D01*
X0238963Y0263759D01*
X0239800Y0265780D01*
X0239800Y0267968D01*
X0238963Y0269990D01*
X0237415Y0271537D01*
X0236601Y0271874D01*
X0237415Y0272211D01*
X0238963Y0273759D01*
X0239800Y0275780D01*
X0239800Y0277968D01*
X0238963Y0279990D01*
X0237415Y0281537D01*
X0235394Y0282374D01*
X0233206Y0282374D01*
X0231184Y0281537D01*
X0229637Y0279990D01*
X0228800Y0277968D01*
X0228800Y0275780D01*
X0229637Y0273759D01*
X0231184Y0272211D01*
X0231999Y0271874D01*
X0231184Y0271537D01*
X0229637Y0269990D01*
X0228800Y0267968D01*
X0228800Y0265780D01*
X0229637Y0263759D01*
X0231184Y0262211D01*
X0231999Y0261874D01*
X0231184Y0261537D01*
X0229637Y0259990D01*
X0228800Y0257968D01*
X0228800Y0255780D01*
X0229637Y0253759D01*
X0231184Y0252211D01*
X0231999Y0251874D01*
X0231417Y0251578D01*
X0230717Y0251069D01*
X0230105Y0250457D01*
X0229596Y0249757D01*
X0229203Y0248985D01*
X0228935Y0248162D01*
X0228800Y0247307D01*
X0228800Y0247074D01*
X0234100Y0247074D01*
X0234100Y0246674D01*
X0228800Y0246674D01*
X0228800Y0246441D01*
X0228935Y0245586D01*
X0229203Y0244763D01*
X0229596Y0243991D01*
X0230105Y0243291D01*
X0230717Y0242679D01*
X0231417Y0242170D01*
X0231999Y0241874D01*
X0231184Y0241537D01*
X0229637Y0239990D01*
X0228800Y0237968D01*
X0228800Y0235780D01*
X0229637Y0233759D01*
X0231184Y0232211D01*
X0231999Y0231874D01*
X0231184Y0231537D01*
X0229637Y0229990D01*
X0229424Y0229474D01*
X0228783Y0229474D01*
X0227827Y0229078D01*
X0225723Y0226974D01*
X0157877Y0226974D01*
X0155581Y0229270D01*
X0155581Y0230126D01*
X0155005Y0231516D01*
X0153942Y0232579D01*
X0152552Y0233155D01*
X0151048Y0233155D01*
X0149658Y0232579D01*
X0148595Y0231516D01*
X0148019Y0230126D01*
X0148019Y0228622D01*
X0148595Y0227232D01*
X0149658Y0226169D01*
X0151048Y0225593D01*
X0151904Y0225593D01*
X0154596Y0222901D01*
X0155327Y0222170D01*
X0156283Y0221774D01*
X0227317Y0221774D01*
X0228273Y0222170D01*
X0229004Y0222901D01*
X0229749Y0223646D01*
X0231184Y0222211D01*
X0231999Y0221874D01*
X0231184Y0221537D01*
X0229637Y0219990D01*
X0228800Y0217968D01*
X0228800Y0217031D01*
X0228686Y0216974D01*
X0124914Y0216974D01*
X0122943Y0217959D01*
X0122505Y0219016D01*
X0121442Y0220079D01*
X0120052Y0220655D01*
X0118548Y0220655D01*
X0117158Y0220079D01*
X0116095Y0219016D01*
X0115519Y0217626D01*
X0115519Y0216122D01*
X0116095Y0214732D01*
X0117158Y0213669D01*
X0118548Y0213093D01*
X0120052Y0213093D01*
X0120597Y0213319D01*
X0122760Y0212237D01*
X0122827Y0212170D01*
X0123220Y0212007D01*
X0123600Y0211817D01*
X0123695Y0211810D01*
X0123783Y0211774D01*
X0124208Y0211774D01*
X0124632Y0211744D01*
X0124722Y0211774D01*
X0228878Y0211774D01*
X0228968Y0211744D01*
X0229392Y0211774D01*
X0229817Y0211774D01*
X0229905Y0211810D01*
X0230000Y0211817D01*
X0230380Y0212007D01*
X0230773Y0212170D01*
X0230840Y0212237D01*
X0231052Y0212343D01*
X0231184Y0212211D01*
X0231999Y0211874D01*
X0231184Y0211537D01*
X0229637Y0209990D01*
X0228800Y0207968D01*
X0228800Y0205780D01*
X0229637Y0203759D01*
X0231184Y0202211D01*
X0231999Y0201874D01*
X0231184Y0201537D01*
X0229637Y0199990D01*
X0228800Y0197968D01*
X0228800Y0196400D02*
X0175951Y0196400D01*
X0174300Y0194374D02*
X0176800Y0191874D01*
X0174300Y0194374D02*
X0161800Y0194374D01*
X0164378Y0191604D02*
X0173019Y0191604D01*
X0178311Y0188407D02*
X0228982Y0188407D01*
X0228800Y0186809D02*
X0185756Y0186809D01*
X0186590Y0185210D02*
X0229036Y0185210D01*
X0229784Y0183612D02*
X0186620Y0183612D01*
X0186592Y0182013D02*
X0185830Y0182013D01*
X0182843Y0184374D02*
X0161800Y0184374D01*
X0159300Y0179374D02*
X0189300Y0179374D01*
X0192008Y0182013D02*
X0231663Y0182013D01*
X0232829Y0177218D02*
X0201804Y0177218D01*
X0202877Y0175619D02*
X0230267Y0175619D01*
X0229236Y0174021D02*
X0203081Y0174021D01*
X0202584Y0172422D02*
X0228800Y0172422D01*
X0228800Y0170824D02*
X0200609Y0170824D01*
X0197991Y0170824D02*
X0163109Y0170824D01*
X0163828Y0167627D02*
X0230769Y0167627D01*
X0230676Y0166028D02*
X0165207Y0166028D01*
X0165581Y0164430D02*
X0229405Y0164430D01*
X0228800Y0162831D02*
X0165254Y0162831D01*
X0161800Y0174374D02*
X0199300Y0174374D01*
X0196796Y0177218D02*
X0192491Y0177218D01*
X0193081Y0178816D02*
X0264201Y0178816D01*
X0264201Y0177218D02*
X0235771Y0177218D01*
X0238333Y0175619D02*
X0264201Y0175619D01*
X0264201Y0174021D02*
X0239364Y0174021D01*
X0239800Y0172422D02*
X0264201Y0172422D01*
X0264201Y0170824D02*
X0239800Y0170824D01*
X0239156Y0169225D02*
X0264201Y0169225D01*
X0264201Y0167627D02*
X0237831Y0167627D01*
X0237924Y0166028D02*
X0264201Y0166028D01*
X0264201Y0164430D02*
X0239195Y0164430D01*
X0239800Y0162831D02*
X0264201Y0162831D01*
X0264201Y0161233D02*
X0239800Y0161233D01*
X0239325Y0159634D02*
X0264201Y0159634D01*
X0264201Y0158036D02*
X0238240Y0158036D01*
X0237515Y0156437D02*
X0264201Y0156437D01*
X0264201Y0154839D02*
X0239025Y0154839D01*
X0239687Y0153240D02*
X0264201Y0153240D01*
X0264201Y0151642D02*
X0239800Y0151642D01*
X0239495Y0150043D02*
X0264201Y0150043D01*
X0264201Y0148445D02*
X0238649Y0148445D01*
X0236669Y0146846D02*
X0264201Y0146846D01*
X0264201Y0145247D02*
X0238705Y0145247D01*
X0239518Y0143649D02*
X0264201Y0143649D01*
X0264201Y0142050D02*
X0239800Y0142050D01*
X0239664Y0140452D02*
X0264201Y0140452D01*
X0264201Y0138853D02*
X0239002Y0138853D01*
X0237459Y0137255D02*
X0264201Y0137255D01*
X0264201Y0135656D02*
X0238296Y0135656D01*
X0239349Y0134058D02*
X0264201Y0134058D01*
X0264201Y0132459D02*
X0239800Y0132459D01*
X0239800Y0130861D02*
X0264201Y0130861D01*
X0264201Y0129262D02*
X0239171Y0129262D01*
X0237868Y0127664D02*
X0264201Y0127664D01*
X0264201Y0126065D02*
X0237887Y0126065D01*
X0239179Y0124467D02*
X0264201Y0124467D01*
X0264201Y0122868D02*
X0239800Y0122868D01*
X0239800Y0121270D02*
X0264201Y0121270D01*
X0264201Y0119671D02*
X0239341Y0119671D01*
X0238277Y0118073D02*
X0264201Y0118073D01*
X0264201Y0116474D02*
X0237478Y0116474D01*
X0239010Y0114876D02*
X0264201Y0114876D01*
X0264201Y0113277D02*
X0239672Y0113277D01*
X0239800Y0111679D02*
X0264201Y0111679D01*
X0264201Y0110080D02*
X0239510Y0110080D01*
X0238686Y0108482D02*
X0264201Y0108482D01*
X0264201Y0106883D02*
X0236623Y0106883D01*
X0238667Y0105285D02*
X0264201Y0105285D01*
X0264201Y0103686D02*
X0239503Y0103686D01*
X0239800Y0102088D02*
X0264201Y0102088D01*
X0264201Y0100489D02*
X0239680Y0100489D01*
X0239017Y0098891D02*
X0264201Y0098891D01*
X0264201Y0087701D02*
X0217761Y0087701D01*
X0219100Y0086362D02*
X0216288Y0089174D01*
X0212312Y0089174D01*
X0209500Y0086362D01*
X0209500Y0082386D01*
X0212312Y0079574D01*
X0216288Y0079574D01*
X0219100Y0082386D01*
X0219100Y0086362D01*
X0219100Y0086103D02*
X0264201Y0086103D01*
X0264201Y0084504D02*
X0219100Y0084504D01*
X0219100Y0082906D02*
X0264201Y0082906D01*
X0264201Y0081307D02*
X0218021Y0081307D01*
X0216423Y0079709D02*
X0264201Y0079709D01*
X0264201Y0078110D02*
X0126900Y0078110D01*
X0126900Y0076511D02*
X0264201Y0076511D01*
X0264201Y0074913D02*
X0126900Y0074913D01*
X0126675Y0073314D02*
X0264201Y0073314D01*
X0264201Y0071716D02*
X0125319Y0071716D01*
X0125773Y0072170D02*
X0125773Y0072170D01*
X0124300Y0074374D02*
X0124300Y0084374D01*
X0119300Y0089374D01*
X0106800Y0089374D01*
X0103400Y0087701D02*
X0036900Y0087701D01*
X0036900Y0086103D02*
X0072352Y0086103D01*
X0070753Y0084504D02*
X0036900Y0084504D01*
X0036900Y0082906D02*
X0069155Y0082906D01*
X0067556Y0081307D02*
X0036900Y0081307D01*
X0036900Y0079709D02*
X0065958Y0079709D01*
X0064359Y0078110D02*
X0036900Y0078110D01*
X0036900Y0076511D02*
X0062761Y0076511D01*
X0061162Y0074913D02*
X0036900Y0074913D01*
X0036900Y0073314D02*
X0059564Y0073314D01*
X0056295Y0071716D02*
X0036900Y0071716D01*
X0037234Y0070117D02*
X0055519Y0070117D01*
X0055562Y0068519D02*
X0038832Y0068519D01*
X0039300Y0064374D02*
X0064300Y0064374D01*
X0069300Y0059374D01*
X0069300Y0039374D01*
X0086800Y0021874D01*
X0094300Y0021874D01*
X0098138Y0015768D02*
X0045462Y0015768D01*
X0045347Y0014170D02*
X0098253Y0014170D01*
X0103187Y0022162D02*
X0150413Y0022162D01*
X0150516Y0020564D02*
X0108124Y0020564D01*
X0109606Y0018965D02*
X0151178Y0018965D01*
X0152708Y0017367D02*
X0110269Y0017367D01*
X0110462Y0015768D02*
X0163138Y0015768D01*
X0163253Y0014170D02*
X0110347Y0014170D01*
X0102845Y0023761D02*
X0150755Y0023761D01*
X0151685Y0025359D02*
X0101915Y0025359D01*
X0099533Y0026958D02*
X0154067Y0026958D01*
X0154694Y0028406D02*
X0163906Y0028406D01*
X0165870Y0029219D01*
X0167373Y0030722D01*
X0168187Y0032686D01*
X0168187Y0034812D01*
X0167373Y0036776D01*
X0166375Y0037774D01*
X0168074Y0037070D01*
X0170526Y0037070D01*
X0172791Y0038008D01*
X0174524Y0039742D01*
X0175462Y0042007D01*
X0175462Y0044458D01*
X0174524Y0046723D01*
X0172791Y0048456D01*
X0170526Y0049394D01*
X0168187Y0049394D01*
X0168187Y0050437D01*
X0167373Y0052401D01*
X0165870Y0053904D01*
X0163906Y0054717D01*
X0154694Y0054717D01*
X0152730Y0053904D01*
X0151227Y0052401D01*
X0150413Y0050437D01*
X0150413Y0048311D01*
X0151227Y0046347D01*
X0152730Y0044844D01*
X0154694Y0044031D01*
X0163138Y0044031D01*
X0163138Y0042007D01*
X0164076Y0039742D01*
X0165305Y0038513D01*
X0163906Y0039092D01*
X0154694Y0039092D01*
X0152730Y0038279D01*
X0151227Y0036776D01*
X0150413Y0034812D01*
X0150413Y0032686D01*
X0151227Y0030722D01*
X0152730Y0029219D01*
X0154694Y0028406D01*
X0154331Y0028556D02*
X0099269Y0028556D01*
X0101806Y0030155D02*
X0151794Y0030155D01*
X0150800Y0031753D02*
X0102800Y0031753D01*
X0103187Y0033352D02*
X0150413Y0033352D01*
X0150471Y0034950D02*
X0103129Y0034950D01*
X0102467Y0036549D02*
X0151133Y0036549D01*
X0152598Y0038147D02*
X0107930Y0038147D01*
X0109526Y0039746D02*
X0164074Y0039746D01*
X0163412Y0041344D02*
X0110188Y0041344D01*
X0110462Y0042943D02*
X0163138Y0042943D01*
X0167467Y0036549D02*
X0216133Y0036549D01*
X0216227Y0036776D02*
X0215413Y0034812D01*
X0215413Y0032686D01*
X0216227Y0030722D01*
X0217730Y0029219D01*
X0219694Y0028406D01*
X0228906Y0028406D01*
X0230870Y0029219D01*
X0232373Y0030722D01*
X0233187Y0032686D01*
X0233187Y0034812D01*
X0232373Y0036776D01*
X0231375Y0037774D01*
X0233074Y0037070D01*
X0235526Y0037070D01*
X0237791Y0038008D01*
X0239524Y0039742D01*
X0240462Y0042007D01*
X0240462Y0044458D01*
X0239524Y0046723D01*
X0237791Y0048456D01*
X0235526Y0049394D01*
X0233187Y0049394D01*
X0233187Y0050437D01*
X0232373Y0052401D01*
X0230870Y0053904D01*
X0228906Y0054717D01*
X0219694Y0054717D01*
X0217730Y0053904D01*
X0216227Y0052401D01*
X0215413Y0050437D01*
X0215413Y0048311D01*
X0216227Y0046347D01*
X0217730Y0044844D01*
X0219694Y0044031D01*
X0228138Y0044031D01*
X0228138Y0042007D01*
X0229076Y0039742D01*
X0230305Y0038513D01*
X0228906Y0039092D01*
X0219694Y0039092D01*
X0217730Y0038279D01*
X0216227Y0036776D01*
X0217598Y0038147D02*
X0172930Y0038147D01*
X0174526Y0039746D02*
X0229074Y0039746D01*
X0228412Y0041344D02*
X0175188Y0041344D01*
X0175462Y0042943D02*
X0228138Y0042943D01*
X0232467Y0036549D02*
X0264201Y0036549D01*
X0264201Y0038147D02*
X0237930Y0038147D01*
X0239526Y0039746D02*
X0264201Y0039746D01*
X0264201Y0041344D02*
X0240188Y0041344D01*
X0240462Y0042943D02*
X0264201Y0042943D01*
X0264201Y0044541D02*
X0240428Y0044541D01*
X0239766Y0046140D02*
X0264201Y0046140D01*
X0264201Y0047738D02*
X0238509Y0047738D01*
X0238706Y0048797D02*
X0239505Y0048537D01*
X0240336Y0048406D01*
X0243919Y0048406D01*
X0243919Y0053368D01*
X0244681Y0053368D01*
X0244681Y0054130D01*
X0243919Y0054130D01*
X0243919Y0059092D01*
X0240336Y0059092D01*
X0239505Y0058961D01*
X0238706Y0058701D01*
X0237956Y0058319D01*
X0237276Y0057825D01*
X0236681Y0057230D01*
X0236187Y0056550D01*
X0235805Y0055800D01*
X0235545Y0055000D01*
X0235413Y0054170D01*
X0235413Y0054130D01*
X0243919Y0054130D01*
X0243919Y0053368D01*
X0235413Y0053368D01*
X0235413Y0053328D01*
X0235545Y0052498D01*
X0235805Y0051698D01*
X0236187Y0050949D01*
X0236681Y0050268D01*
X0237276Y0049673D01*
X0237956Y0049179D01*
X0238706Y0048797D01*
X0237739Y0049337D02*
X0235665Y0049337D01*
X0236196Y0050935D02*
X0232980Y0050935D01*
X0232240Y0052534D02*
X0235539Y0052534D01*
X0235413Y0054132D02*
X0230318Y0054132D01*
X0235782Y0055731D02*
X0187818Y0055731D01*
X0187795Y0055800D02*
X0187413Y0056550D01*
X0186919Y0057230D01*
X0186324Y0057825D01*
X0185644Y0058319D01*
X0184894Y0058701D01*
X0184095Y0058961D01*
X0183264Y0059092D01*
X0179681Y0059092D01*
X0179681Y0054130D01*
X0178919Y0054130D01*
X0178919Y0059092D01*
X0175336Y0059092D01*
X0174505Y0058961D01*
X0173706Y0058701D01*
X0172956Y0058319D01*
X0172276Y0057825D01*
X0171681Y0057230D01*
X0171187Y0056550D01*
X0170805Y0055800D01*
X0170545Y0055000D01*
X0170413Y0054170D01*
X0170413Y0054130D01*
X0178919Y0054130D01*
X0178919Y0053368D01*
X0179681Y0053368D01*
X0179681Y0054130D01*
X0188187Y0054130D01*
X0188187Y0054170D01*
X0188055Y0055000D01*
X0187795Y0055800D01*
X0188187Y0054132D02*
X0218282Y0054132D01*
X0216360Y0052534D02*
X0188061Y0052534D01*
X0188055Y0052498D02*
X0188187Y0053328D01*
X0188187Y0053368D01*
X0179681Y0053368D01*
X0179681Y0048406D01*
X0183264Y0048406D01*
X0184095Y0048537D01*
X0184894Y0048797D01*
X0185644Y0049179D01*
X0186324Y0049673D01*
X0186919Y0050268D01*
X0187413Y0050949D01*
X0187795Y0051698D01*
X0188055Y0052498D01*
X0187404Y0050935D02*
X0215620Y0050935D01*
X0215413Y0049337D02*
X0185861Y0049337D01*
X0179681Y0049337D02*
X0178919Y0049337D01*
X0178919Y0048406D02*
X0175336Y0048406D01*
X0174505Y0048537D01*
X0173706Y0048797D01*
X0172956Y0049179D01*
X0172276Y0049673D01*
X0171681Y0050268D01*
X0171187Y0050949D01*
X0170805Y0051698D01*
X0170545Y0052498D01*
X0170413Y0053328D01*
X0170413Y0053368D01*
X0178919Y0053368D01*
X0178919Y0048406D01*
X0178919Y0050935D02*
X0179681Y0050935D01*
X0179681Y0052534D02*
X0178919Y0052534D01*
X0178919Y0054132D02*
X0179681Y0054132D01*
X0179681Y0055731D02*
X0178919Y0055731D01*
X0178919Y0057329D02*
X0179681Y0057329D01*
X0179681Y0058928D02*
X0178919Y0058928D01*
X0174404Y0058928D02*
X0119196Y0058928D01*
X0119095Y0058961D02*
X0118264Y0059092D01*
X0114681Y0059092D01*
X0114681Y0054130D01*
X0113919Y0054130D01*
X0113919Y0059092D01*
X0110336Y0059092D01*
X0109505Y0058961D01*
X0108706Y0058701D01*
X0107956Y0058319D01*
X0107276Y0057825D01*
X0106681Y0057230D01*
X0106187Y0056550D01*
X0105805Y0055800D01*
X0105545Y0055000D01*
X0105413Y0054170D01*
X0105413Y0054130D01*
X0113919Y0054130D01*
X0113919Y0053368D01*
X0114681Y0053368D01*
X0114681Y0054130D01*
X0123187Y0054130D01*
X0123187Y0054170D01*
X0123055Y0055000D01*
X0122795Y0055800D01*
X0122413Y0056550D01*
X0121919Y0057230D01*
X0121324Y0057825D01*
X0120644Y0058319D01*
X0119894Y0058701D01*
X0119095Y0058961D01*
X0121820Y0057329D02*
X0171780Y0057329D01*
X0170782Y0055731D02*
X0122818Y0055731D01*
X0123187Y0054132D02*
X0153282Y0054132D01*
X0151360Y0052534D02*
X0123061Y0052534D01*
X0123055Y0052498D02*
X0123187Y0053328D01*
X0123187Y0053368D01*
X0114681Y0053368D01*
X0114681Y0048406D01*
X0118264Y0048406D01*
X0119095Y0048537D01*
X0119894Y0048797D01*
X0120644Y0049179D01*
X0121324Y0049673D01*
X0121919Y0050268D01*
X0122413Y0050949D01*
X0122795Y0051698D01*
X0123055Y0052498D01*
X0122404Y0050935D02*
X0150620Y0050935D01*
X0150413Y0049337D02*
X0120861Y0049337D01*
X0114681Y0049337D02*
X0113919Y0049337D01*
X0113919Y0048406D02*
X0110336Y0048406D01*
X0109505Y0048537D01*
X0108706Y0048797D01*
X0107956Y0049179D01*
X0107276Y0049673D01*
X0106681Y0050268D01*
X0106187Y0050949D01*
X0105805Y0051698D01*
X0105545Y0052498D01*
X0105413Y0053328D01*
X0105413Y0053368D01*
X0113919Y0053368D01*
X0113919Y0048406D01*
X0113919Y0050935D02*
X0114681Y0050935D01*
X0114681Y0052534D02*
X0113919Y0052534D01*
X0113919Y0054132D02*
X0114681Y0054132D01*
X0114681Y0055731D02*
X0113919Y0055731D01*
X0113919Y0057329D02*
X0114681Y0057329D01*
X0114681Y0058928D02*
X0113919Y0058928D01*
X0115664Y0062125D02*
X0156202Y0062125D01*
X0156095Y0062232D02*
X0157158Y0061169D01*
X0158548Y0060593D01*
X0160052Y0060593D01*
X0161442Y0061169D01*
X0162047Y0061774D01*
X0211553Y0061774D01*
X0212158Y0061169D01*
X0213548Y0060593D01*
X0215052Y0060593D01*
X0216442Y0061169D01*
X0217505Y0062232D01*
X0218081Y0063622D01*
X0218081Y0065126D01*
X0217505Y0066516D01*
X0216442Y0067579D01*
X0215052Y0068155D01*
X0213548Y0068155D01*
X0212158Y0067579D01*
X0211553Y0066974D01*
X0162047Y0066974D01*
X0161442Y0067579D01*
X0160052Y0068155D01*
X0158548Y0068155D01*
X0157158Y0067579D01*
X0156095Y0066516D01*
X0155519Y0065126D01*
X0155519Y0063622D01*
X0156095Y0062232D01*
X0155519Y0063723D02*
X0117326Y0063723D01*
X0118925Y0065322D02*
X0155600Y0065322D01*
X0156499Y0066920D02*
X0120523Y0066920D01*
X0122122Y0068519D02*
X0264201Y0068519D01*
X0264201Y0070117D02*
X0123720Y0070117D01*
X0124300Y0074374D02*
X0114300Y0064374D01*
X0109300Y0064374D01*
X0094300Y0049374D01*
X0096980Y0055731D02*
X0071900Y0055731D01*
X0071900Y0057329D02*
X0098578Y0057329D01*
X0100177Y0058928D02*
X0071900Y0058928D01*
X0071637Y0060526D02*
X0101775Y0060526D01*
X0103374Y0062125D02*
X0070226Y0062125D01*
X0068628Y0063723D02*
X0104972Y0063723D01*
X0106571Y0065322D02*
X0067029Y0065322D01*
X0064947Y0066920D02*
X0108653Y0066920D01*
X0114768Y0068519D02*
X0063038Y0068519D01*
X0063720Y0070117D02*
X0116366Y0070117D01*
X0117965Y0071716D02*
X0065319Y0071716D01*
X0066917Y0073314D02*
X0119564Y0073314D01*
X0121162Y0074913D02*
X0068516Y0074913D01*
X0070114Y0076511D02*
X0121700Y0076511D01*
X0121700Y0078110D02*
X0071713Y0078110D01*
X0073311Y0079709D02*
X0121700Y0079709D01*
X0121700Y0081307D02*
X0116580Y0081307D01*
X0117784Y0082906D02*
X0121700Y0082906D01*
X0120493Y0084504D02*
X0118081Y0084504D01*
X0117677Y0086103D02*
X0118895Y0086103D01*
X0114300Y0084374D02*
X0074300Y0084374D01*
X0059300Y0069374D01*
X0071900Y0054132D02*
X0088282Y0054132D01*
X0086360Y0052534D02*
X0071900Y0052534D01*
X0071900Y0050935D02*
X0085620Y0050935D01*
X0085413Y0049337D02*
X0071900Y0049337D01*
X0071900Y0047738D02*
X0085651Y0047738D01*
X0086434Y0046140D02*
X0071900Y0046140D01*
X0071900Y0044541D02*
X0088461Y0044541D01*
X0087598Y0038147D02*
X0074204Y0038147D01*
X0075802Y0036549D02*
X0086133Y0036549D01*
X0085471Y0034950D02*
X0077401Y0034950D01*
X0078999Y0033352D02*
X0085413Y0033352D01*
X0085800Y0031753D02*
X0080598Y0031753D01*
X0082196Y0030155D02*
X0086794Y0030155D01*
X0089331Y0028556D02*
X0083795Y0028556D01*
X0085393Y0026958D02*
X0089067Y0026958D01*
X0082835Y0022162D02*
X0038187Y0022162D01*
X0037845Y0023761D02*
X0081236Y0023761D01*
X0079638Y0025359D02*
X0036915Y0025359D01*
X0043124Y0020564D02*
X0084433Y0020564D01*
X0086178Y0018965D02*
X0044606Y0018965D01*
X0045269Y0017367D02*
X0087708Y0017367D01*
X0099074Y0039746D02*
X0072605Y0039746D01*
X0071900Y0041344D02*
X0098412Y0041344D01*
X0098138Y0042943D02*
X0071900Y0042943D01*
X0074910Y0081307D02*
X0112020Y0081307D01*
X0124650Y0087701D02*
X0160839Y0087701D01*
X0159500Y0086103D02*
X0126248Y0086103D01*
X0126900Y0084504D02*
X0159500Y0084504D01*
X0159500Y0082906D02*
X0126900Y0082906D01*
X0126900Y0081307D02*
X0160579Y0081307D01*
X0162177Y0079709D02*
X0126900Y0079709D01*
X0130030Y0097292D02*
X0166300Y0097292D01*
X0166300Y0098891D02*
X0130581Y0098891D01*
X0130431Y0100489D02*
X0166300Y0100489D01*
X0166300Y0102088D02*
X0129434Y0102088D01*
X0130052Y0103093D02*
X0128548Y0103093D01*
X0127158Y0103669D01*
X0126553Y0104274D01*
X0107047Y0104274D01*
X0106442Y0103669D01*
X0105052Y0103093D01*
X0103548Y0103093D01*
X0102158Y0103669D01*
X0101095Y0104732D01*
X0100519Y0106122D01*
X0100519Y0107626D01*
X0101095Y0109016D01*
X0102158Y0110079D01*
X0103548Y0110655D01*
X0105052Y0110655D01*
X0106442Y0110079D01*
X0107047Y0109474D01*
X0126553Y0109474D01*
X0127158Y0110079D01*
X0128548Y0110655D01*
X0130052Y0110655D01*
X0131442Y0110079D01*
X0132505Y0109016D01*
X0133081Y0107626D01*
X0133081Y0106122D01*
X0132505Y0104732D01*
X0131442Y0103669D01*
X0130052Y0103093D01*
X0131459Y0103686D02*
X0166300Y0103686D01*
X0166300Y0105285D02*
X0132734Y0105285D01*
X0133081Y0106883D02*
X0166300Y0106883D01*
X0166300Y0108482D02*
X0132727Y0108482D01*
X0131440Y0110080D02*
X0166300Y0110080D01*
X0166300Y0111679D02*
X0049800Y0111679D01*
X0049672Y0113277D02*
X0166300Y0113277D01*
X0166300Y0114876D02*
X0049010Y0114876D01*
X0047478Y0116474D02*
X0166300Y0116474D01*
X0149300Y0156874D02*
X0141800Y0161874D01*
X0141800Y0199374D01*
X0139300Y0201874D01*
X0121800Y0201874D01*
X0119300Y0199374D01*
X0122823Y0197998D02*
X0139200Y0197998D01*
X0139200Y0196400D02*
X0121673Y0196400D01*
X0116927Y0196400D02*
X0047428Y0196400D01*
X0047183Y0196578D02*
X0046601Y0196874D01*
X0047415Y0197211D01*
X0048963Y0198759D01*
X0049800Y0200780D01*
X0049800Y0202968D01*
X0048963Y0204990D01*
X0047415Y0206537D01*
X0046601Y0206874D01*
X0047415Y0207211D01*
X0048963Y0208759D01*
X0049800Y0210780D01*
X0049800Y0212968D01*
X0048963Y0214990D01*
X0047415Y0216537D01*
X0046601Y0216874D01*
X0047415Y0217211D01*
X0048963Y0218759D01*
X0049800Y0220780D01*
X0049800Y0222968D01*
X0048963Y0224990D01*
X0047415Y0226537D01*
X0046601Y0226874D01*
X0047415Y0227211D01*
X0048963Y0228759D01*
X0049800Y0230780D01*
X0049800Y0232968D01*
X0048963Y0234990D01*
X0047415Y0236537D01*
X0046601Y0236874D01*
X0047415Y0237211D01*
X0048963Y0238759D01*
X0049800Y0240780D01*
X0049800Y0242968D01*
X0048963Y0244990D01*
X0047415Y0246537D01*
X0045394Y0247374D01*
X0043206Y0247374D01*
X0041184Y0246537D01*
X0039637Y0244990D01*
X0038800Y0242968D01*
X0038800Y0240780D01*
X0039637Y0238759D01*
X0041184Y0237211D01*
X0041999Y0236874D01*
X0041184Y0236537D01*
X0039637Y0234990D01*
X0038800Y0232968D01*
X0038800Y0230780D01*
X0039637Y0228759D01*
X0041184Y0227211D01*
X0041999Y0226874D01*
X0041184Y0226537D01*
X0039637Y0224990D01*
X0038800Y0222968D01*
X0038800Y0220780D01*
X0039637Y0218759D01*
X0041184Y0217211D01*
X0041999Y0216874D01*
X0041184Y0216537D01*
X0039637Y0214990D01*
X0038800Y0212968D01*
X0038800Y0210780D01*
X0039637Y0208759D01*
X0041184Y0207211D01*
X0041999Y0206874D01*
X0041184Y0206537D01*
X0039637Y0204990D01*
X0038800Y0202968D01*
X0038800Y0200780D01*
X0039637Y0198759D01*
X0041184Y0197211D01*
X0041999Y0196874D01*
X0041417Y0196578D01*
X0040717Y0196069D01*
X0040105Y0195457D01*
X0039596Y0194757D01*
X0039203Y0193985D01*
X0038935Y0193162D01*
X0038800Y0192307D01*
X0038800Y0192074D01*
X0044100Y0192074D01*
X0044100Y0191674D01*
X0044500Y0191674D01*
X0044500Y0192074D01*
X0049800Y0192074D01*
X0049800Y0192307D01*
X0049665Y0193162D01*
X0049397Y0193985D01*
X0049004Y0194757D01*
X0048495Y0195457D01*
X0047883Y0196069D01*
X0047183Y0196578D01*
X0048202Y0197998D02*
X0115777Y0197998D01*
X0115519Y0199597D02*
X0049310Y0199597D01*
X0049800Y0201195D02*
X0115962Y0201195D01*
X0117676Y0202794D02*
X0049800Y0202794D01*
X0049210Y0204392D02*
X0121086Y0204392D01*
X0122464Y0212385D02*
X0049800Y0212385D01*
X0049800Y0210786D02*
X0230434Y0210786D01*
X0229305Y0209188D02*
X0049141Y0209188D01*
X0047794Y0207589D02*
X0228800Y0207589D01*
X0228800Y0205991D02*
X0047961Y0205991D01*
X0049379Y0213983D02*
X0116843Y0213983D01*
X0115743Y0215582D02*
X0048370Y0215582D01*
X0047341Y0217180D02*
X0115519Y0217180D01*
X0115996Y0218779D02*
X0048971Y0218779D01*
X0049633Y0220378D02*
X0117878Y0220378D01*
X0120722Y0220378D02*
X0230025Y0220378D01*
X0229136Y0218779D02*
X0122604Y0218779D01*
X0124501Y0217180D02*
X0228800Y0217180D01*
X0229300Y0214374D02*
X0124300Y0214374D01*
X0119300Y0216874D01*
X0139200Y0194801D02*
X0048972Y0194801D01*
X0049651Y0193203D02*
X0139200Y0193203D01*
X0139200Y0191604D02*
X0049800Y0191604D01*
X0049800Y0191674D02*
X0044500Y0191674D01*
X0044500Y0182074D01*
X0049800Y0182074D01*
X0049800Y0182307D01*
X0049665Y0183162D01*
X0049397Y0183985D01*
X0049004Y0184757D01*
X0048495Y0185457D01*
X0047883Y0186069D01*
X0047183Y0186578D01*
X0046602Y0186874D01*
X0047183Y0187170D01*
X0047883Y0187679D01*
X0048495Y0188291D01*
X0049004Y0188991D01*
X0049397Y0189763D01*
X0049665Y0190586D01*
X0049800Y0191441D01*
X0049800Y0191674D01*
X0049476Y0190006D02*
X0139200Y0190006D01*
X0139200Y0188407D02*
X0048580Y0188407D01*
X0046730Y0186809D02*
X0105137Y0186809D01*
X0104845Y0186516D02*
X0104269Y0185126D01*
X0104269Y0183622D01*
X0104845Y0182232D01*
X0105103Y0181974D01*
X0102047Y0181974D01*
X0101442Y0182579D01*
X0100052Y0183155D01*
X0098548Y0183155D01*
X0097158Y0182579D01*
X0096095Y0181516D01*
X0095519Y0180126D01*
X0095519Y0178622D01*
X0096095Y0177232D01*
X0096801Y0176526D01*
X0089046Y0174975D01*
X0088942Y0175079D01*
X0087552Y0175655D01*
X0086048Y0175655D01*
X0084658Y0175079D01*
X0083595Y0174016D01*
X0083019Y0172626D01*
X0083019Y0171122D01*
X0083595Y0169732D01*
X0084658Y0168669D01*
X0086048Y0168093D01*
X0087552Y0168093D01*
X0088942Y0168669D01*
X0090005Y0169732D01*
X0090065Y0169875D01*
X0099557Y0171774D01*
X0116553Y0171774D01*
X0117158Y0171169D01*
X0118548Y0170593D01*
X0120052Y0170593D01*
X0121442Y0171169D01*
X0122505Y0172232D01*
X0123081Y0173622D01*
X0123081Y0175126D01*
X0122505Y0176516D01*
X0122147Y0176874D01*
X0122505Y0177232D01*
X0123081Y0178622D01*
X0123081Y0180126D01*
X0122505Y0181516D01*
X0122147Y0181874D01*
X0122505Y0182232D01*
X0123081Y0183622D01*
X0123081Y0185126D01*
X0122505Y0186516D01*
X0121442Y0187579D01*
X0120052Y0188155D01*
X0118548Y0188155D01*
X0117158Y0187579D01*
X0116553Y0186974D01*
X0110797Y0186974D01*
X0110192Y0187579D01*
X0108802Y0188155D01*
X0107298Y0188155D01*
X0105908Y0187579D01*
X0104845Y0186516D01*
X0104304Y0185210D02*
X0048674Y0185210D01*
X0049518Y0183612D02*
X0104273Y0183612D01*
X0105063Y0182013D02*
X0102008Y0182013D01*
X0099300Y0179374D02*
X0119300Y0179374D01*
X0122962Y0180415D02*
X0139200Y0180415D01*
X0139200Y0182013D02*
X0122287Y0182013D01*
X0123077Y0183612D02*
X0139200Y0183612D01*
X0139200Y0185210D02*
X0123046Y0185210D01*
X0122213Y0186809D02*
X0139200Y0186809D01*
X0139200Y0178816D02*
X0123081Y0178816D01*
X0122491Y0177218D02*
X0139200Y0177218D01*
X0139200Y0175619D02*
X0122877Y0175619D01*
X0123081Y0174021D02*
X0139200Y0174021D01*
X0139200Y0172422D02*
X0122584Y0172422D01*
X0120609Y0170824D02*
X0139200Y0170824D01*
X0139200Y0169225D02*
X0089498Y0169225D01*
X0086800Y0171874D02*
X0099300Y0174374D01*
X0119300Y0174374D01*
X0117991Y0170824D02*
X0094806Y0170824D01*
X0092269Y0175619D02*
X0087639Y0175619D01*
X0085961Y0175619D02*
X0048333Y0175619D01*
X0048963Y0174990D02*
X0047415Y0176537D01*
X0046601Y0176874D01*
X0047183Y0177170D01*
X0047883Y0177679D01*
X0048495Y0178291D01*
X0049004Y0178991D01*
X0049397Y0179763D01*
X0049665Y0180586D01*
X0049800Y0181441D01*
X0049800Y0181674D01*
X0044500Y0181674D01*
X0044500Y0182074D01*
X0044100Y0182074D01*
X0044100Y0181674D01*
X0038800Y0181674D01*
X0038800Y0181441D01*
X0038935Y0180586D01*
X0039203Y0179763D01*
X0039596Y0178991D01*
X0040105Y0178291D01*
X0040717Y0177679D01*
X0041417Y0177170D01*
X0041999Y0176874D01*
X0041184Y0176537D01*
X0039637Y0174990D01*
X0038800Y0172968D01*
X0038800Y0170780D01*
X0039637Y0168759D01*
X0041184Y0167211D01*
X0043206Y0166374D01*
X0045394Y0166374D01*
X0047415Y0167211D01*
X0048963Y0168759D01*
X0049800Y0170780D01*
X0049800Y0172968D01*
X0048963Y0174990D01*
X0049364Y0174021D02*
X0083599Y0174021D01*
X0083019Y0172422D02*
X0049800Y0172422D01*
X0049800Y0170824D02*
X0083142Y0170824D01*
X0084102Y0169225D02*
X0049156Y0169225D01*
X0047831Y0167627D02*
X0139200Y0167627D01*
X0139200Y0166028D02*
X0008100Y0166028D01*
X0008100Y0164430D02*
X0139200Y0164430D01*
X0139200Y0162831D02*
X0008100Y0162831D01*
X0008100Y0161233D02*
X0139251Y0161233D01*
X0140414Y0159634D02*
X0008100Y0159634D01*
X0008100Y0167627D02*
X0040769Y0167627D01*
X0039444Y0169225D02*
X0008100Y0169225D01*
X0008100Y0170824D02*
X0038800Y0170824D01*
X0038800Y0172422D02*
X0008100Y0172422D01*
X0008100Y0174021D02*
X0039236Y0174021D01*
X0040267Y0175619D02*
X0008100Y0175619D01*
X0008100Y0177218D02*
X0010498Y0177218D01*
X0013102Y0177218D02*
X0041352Y0177218D01*
X0039723Y0178816D02*
X0015530Y0178816D01*
X0016391Y0180415D02*
X0038991Y0180415D01*
X0038800Y0182074D02*
X0044100Y0182074D01*
X0044100Y0187374D01*
X0044100Y0191674D01*
X0038800Y0191674D01*
X0038800Y0191441D01*
X0038935Y0190586D01*
X0039203Y0189763D01*
X0039596Y0188991D01*
X0040105Y0188291D01*
X0040717Y0187679D01*
X0041417Y0187170D01*
X0041998Y0186874D01*
X0041417Y0186578D01*
X0040717Y0186069D01*
X0040105Y0185457D01*
X0039596Y0184757D01*
X0039203Y0183985D01*
X0038935Y0183162D01*
X0038800Y0182307D01*
X0038800Y0182074D01*
X0039082Y0183612D02*
X0016276Y0183612D01*
X0016600Y0182013D02*
X0044100Y0182013D01*
X0044500Y0182013D02*
X0096592Y0182013D01*
X0095638Y0180415D02*
X0049609Y0180415D01*
X0048877Y0178816D02*
X0095519Y0178816D01*
X0096109Y0177218D02*
X0047248Y0177218D01*
X0044500Y0183612D02*
X0044100Y0183612D01*
X0044100Y0185210D02*
X0044500Y0185210D01*
X0044500Y0186809D02*
X0044100Y0186809D01*
X0044100Y0188407D02*
X0044500Y0188407D01*
X0044500Y0190006D02*
X0044100Y0190006D01*
X0044100Y0191604D02*
X0044500Y0191604D01*
X0041870Y0186809D02*
X0008100Y0186809D01*
X0008100Y0188407D02*
X0008479Y0188407D01*
X0008348Y0185210D02*
X0008100Y0185210D01*
X0015252Y0185210D02*
X0039926Y0185210D01*
X0040020Y0188407D02*
X0015121Y0188407D01*
X0016222Y0190006D02*
X0039124Y0190006D01*
X0038800Y0191604D02*
X0016600Y0191604D01*
X0016445Y0193203D02*
X0038949Y0193203D01*
X0039628Y0194801D02*
X0015661Y0194801D01*
X0013417Y0196400D02*
X0041172Y0196400D01*
X0040397Y0197998D02*
X0014713Y0197998D01*
X0016052Y0199597D02*
X0039290Y0199597D01*
X0038800Y0201195D02*
X0016600Y0201195D01*
X0016600Y0202794D02*
X0038800Y0202794D01*
X0039390Y0204392D02*
X0015952Y0204392D01*
X0014404Y0205991D02*
X0040639Y0205991D01*
X0040806Y0207589D02*
X0008100Y0207589D01*
X0008100Y0205991D02*
X0009196Y0205991D01*
X0008100Y0209188D02*
X0039459Y0209188D01*
X0038800Y0210786D02*
X0008100Y0210786D01*
X0008100Y0212385D02*
X0038800Y0212385D01*
X0039221Y0213983D02*
X0008100Y0213983D01*
X0008100Y0215582D02*
X0040230Y0215582D01*
X0041259Y0217180D02*
X0008100Y0217180D01*
X0008100Y0218779D02*
X0039629Y0218779D01*
X0038967Y0220378D02*
X0008100Y0220378D01*
X0008100Y0221976D02*
X0038800Y0221976D01*
X0039051Y0223575D02*
X0008100Y0223575D01*
X0008100Y0225173D02*
X0039821Y0225173D01*
X0041752Y0226772D02*
X0008100Y0226772D01*
X0008100Y0228370D02*
X0040026Y0228370D01*
X0039136Y0229969D02*
X0008100Y0229969D01*
X0008100Y0231567D02*
X0038800Y0231567D01*
X0038882Y0233166D02*
X0008100Y0233166D01*
X0008100Y0234764D02*
X0039544Y0234764D01*
X0041010Y0236363D02*
X0008100Y0236363D01*
X0008100Y0237961D02*
X0040435Y0237961D01*
X0039305Y0239560D02*
X0008100Y0239560D01*
X0008100Y0241158D02*
X0038800Y0241158D01*
X0038800Y0242757D02*
X0008100Y0242757D01*
X0008100Y0244355D02*
X0039375Y0244355D01*
X0040602Y0245954D02*
X0008100Y0245954D01*
X0008100Y0247552D02*
X0228839Y0247552D01*
X0228877Y0245954D02*
X0047998Y0245954D01*
X0049225Y0244355D02*
X0229411Y0244355D01*
X0230639Y0242757D02*
X0049800Y0242757D01*
X0049800Y0241158D02*
X0230806Y0241158D01*
X0229459Y0239560D02*
X0049295Y0239560D01*
X0048165Y0237961D02*
X0228800Y0237961D01*
X0228800Y0236363D02*
X0047590Y0236363D01*
X0049056Y0234764D02*
X0229221Y0234764D01*
X0230230Y0233166D02*
X0049718Y0233166D01*
X0049800Y0231567D02*
X0148646Y0231567D01*
X0148019Y0229969D02*
X0049464Y0229969D01*
X0048574Y0228370D02*
X0148123Y0228370D01*
X0149055Y0226772D02*
X0046848Y0226772D01*
X0048779Y0225173D02*
X0152324Y0225173D01*
X0153923Y0223575D02*
X0049549Y0223575D01*
X0049800Y0221976D02*
X0155795Y0221976D01*
X0156800Y0224374D02*
X0226800Y0224374D01*
X0229300Y0226874D01*
X0234300Y0226874D01*
X0236847Y0221976D02*
X0246700Y0221976D01*
X0246700Y0220378D02*
X0238575Y0220378D01*
X0239464Y0218779D02*
X0246700Y0218779D01*
X0246700Y0217180D02*
X0239800Y0217180D01*
X0239718Y0215582D02*
X0246700Y0215582D01*
X0246700Y0213983D02*
X0239056Y0213983D01*
X0237589Y0212385D02*
X0246700Y0212385D01*
X0246700Y0210786D02*
X0238166Y0210786D01*
X0239295Y0209188D02*
X0246700Y0209188D01*
X0246700Y0207589D02*
X0239800Y0207589D01*
X0239800Y0205991D02*
X0246700Y0205991D01*
X0246700Y0204392D02*
X0239225Y0204392D01*
X0237998Y0202794D02*
X0246700Y0202794D01*
X0246700Y0201195D02*
X0237757Y0201195D01*
X0239125Y0199597D02*
X0246700Y0199597D01*
X0246700Y0197998D02*
X0239787Y0197998D01*
X0239800Y0196400D02*
X0246700Y0196400D01*
X0246700Y0194801D02*
X0239395Y0194801D01*
X0238407Y0193203D02*
X0245758Y0193203D01*
X0245519Y0192626D02*
X0245519Y0191122D01*
X0246095Y0189732D01*
X0247158Y0188669D01*
X0248548Y0188093D01*
X0250052Y0188093D01*
X0251442Y0188669D01*
X0252505Y0189732D01*
X0253081Y0191122D01*
X0253081Y0192626D01*
X0252505Y0194016D01*
X0251900Y0194621D01*
X0251900Y0296627D01*
X0252505Y0297232D01*
X0253081Y0298622D01*
X0253081Y0300126D01*
X0252505Y0301516D01*
X0251442Y0302579D01*
X0250052Y0303155D01*
X0248548Y0303155D01*
X0247158Y0302579D01*
X0246095Y0301516D01*
X0245519Y0300126D01*
X0245519Y0298622D01*
X0246095Y0297232D01*
X0246700Y0296627D01*
X0246700Y0194621D01*
X0246095Y0194016D01*
X0245519Y0192626D01*
X0245519Y0191604D02*
X0237252Y0191604D01*
X0238946Y0190006D02*
X0245981Y0190006D01*
X0247789Y0188407D02*
X0239618Y0188407D01*
X0239800Y0186809D02*
X0264201Y0186809D01*
X0264201Y0188407D02*
X0250811Y0188407D01*
X0252619Y0190006D02*
X0264201Y0190006D01*
X0264201Y0191604D02*
X0253081Y0191604D01*
X0252842Y0193203D02*
X0264201Y0193203D01*
X0264201Y0194801D02*
X0251900Y0194801D01*
X0251900Y0196400D02*
X0264201Y0196400D01*
X0264201Y0197998D02*
X0251900Y0197998D01*
X0251900Y0199597D02*
X0264201Y0199597D01*
X0264201Y0201195D02*
X0251900Y0201195D01*
X0251900Y0202794D02*
X0264201Y0202794D01*
X0264201Y0204392D02*
X0251900Y0204392D01*
X0251900Y0205991D02*
X0264201Y0205991D01*
X0264201Y0207589D02*
X0251900Y0207589D01*
X0251900Y0209188D02*
X0264201Y0209188D01*
X0264201Y0210786D02*
X0251900Y0210786D01*
X0251900Y0212385D02*
X0264201Y0212385D01*
X0264201Y0213983D02*
X0251900Y0213983D01*
X0251900Y0215582D02*
X0264201Y0215582D01*
X0264201Y0217180D02*
X0251900Y0217180D01*
X0251900Y0218779D02*
X0264201Y0218779D01*
X0264201Y0220378D02*
X0251900Y0220378D01*
X0251900Y0221976D02*
X0264201Y0221976D01*
X0264201Y0223575D02*
X0251900Y0223575D01*
X0251900Y0225173D02*
X0264201Y0225173D01*
X0264201Y0226772D02*
X0251900Y0226772D01*
X0251900Y0228370D02*
X0264201Y0228370D01*
X0264201Y0229969D02*
X0251900Y0229969D01*
X0251900Y0231567D02*
X0264201Y0231567D01*
X0264201Y0233166D02*
X0251900Y0233166D01*
X0251900Y0234764D02*
X0264201Y0234764D01*
X0264201Y0236363D02*
X0251900Y0236363D01*
X0251900Y0237961D02*
X0264201Y0237961D01*
X0264201Y0239560D02*
X0251900Y0239560D01*
X0251900Y0241158D02*
X0264201Y0241158D01*
X0264201Y0242757D02*
X0251900Y0242757D01*
X0251900Y0244355D02*
X0264201Y0244355D01*
X0264201Y0245954D02*
X0251900Y0245954D01*
X0251900Y0247552D02*
X0264201Y0247552D01*
X0264201Y0249151D02*
X0251900Y0249151D01*
X0251900Y0250749D02*
X0264201Y0250749D01*
X0264201Y0252348D02*
X0251900Y0252348D01*
X0251900Y0253946D02*
X0264201Y0253946D01*
X0264201Y0255545D02*
X0251900Y0255545D01*
X0251900Y0257143D02*
X0264201Y0257143D01*
X0264201Y0258742D02*
X0251900Y0258742D01*
X0251900Y0260340D02*
X0264201Y0260340D01*
X0264201Y0261939D02*
X0251900Y0261939D01*
X0251900Y0263537D02*
X0264201Y0263537D01*
X0264201Y0265136D02*
X0251900Y0265136D01*
X0251900Y0266734D02*
X0264201Y0266734D01*
X0264201Y0268333D02*
X0251900Y0268333D01*
X0251900Y0269931D02*
X0264201Y0269931D01*
X0264201Y0271530D02*
X0251900Y0271530D01*
X0251900Y0273128D02*
X0264201Y0273128D01*
X0264201Y0274727D02*
X0251900Y0274727D01*
X0251900Y0276325D02*
X0264201Y0276325D01*
X0264201Y0277924D02*
X0251900Y0277924D01*
X0251900Y0279522D02*
X0264201Y0279522D01*
X0264201Y0281121D02*
X0251900Y0281121D01*
X0251900Y0282719D02*
X0264201Y0282719D01*
X0264201Y0284318D02*
X0251900Y0284318D01*
X0251900Y0285916D02*
X0264201Y0285916D01*
X0264201Y0287515D02*
X0251900Y0287515D01*
X0251900Y0289113D02*
X0264201Y0289113D01*
X0264201Y0290712D02*
X0251900Y0290712D01*
X0251900Y0292311D02*
X0264201Y0292311D01*
X0264201Y0293909D02*
X0251900Y0293909D01*
X0251900Y0295508D02*
X0264201Y0295508D01*
X0264201Y0297106D02*
X0252379Y0297106D01*
X0253081Y0298705D02*
X0264201Y0298705D01*
X0264201Y0300303D02*
X0253008Y0300303D01*
X0252120Y0301902D02*
X0264201Y0301902D01*
X0264201Y0303500D02*
X0227113Y0303500D01*
X0226778Y0303165D02*
X0228009Y0304396D01*
X0228675Y0306004D01*
X0228675Y0307744D01*
X0228009Y0309352D01*
X0226778Y0310583D01*
X0225170Y0311249D01*
X0223430Y0311249D01*
X0221822Y0310583D01*
X0220591Y0309352D01*
X0219925Y0307744D01*
X0219925Y0306004D01*
X0220591Y0304396D01*
X0221822Y0303165D01*
X0223430Y0302499D01*
X0225170Y0302499D01*
X0226778Y0303165D01*
X0228300Y0305099D02*
X0237079Y0305099D01*
X0236581Y0305305D02*
X0238345Y0304574D01*
X0240255Y0304574D01*
X0242019Y0305305D01*
X0243369Y0306655D01*
X0244100Y0308419D01*
X0244100Y0310329D01*
X0243369Y0312093D01*
X0242019Y0313443D01*
X0240255Y0314174D01*
X0238345Y0314174D01*
X0236581Y0313443D01*
X0235231Y0312093D01*
X0234500Y0310329D01*
X0234500Y0308419D01*
X0235231Y0306655D01*
X0236581Y0305305D01*
X0235213Y0306697D02*
X0228675Y0306697D01*
X0228446Y0308296D02*
X0234551Y0308296D01*
X0234500Y0309894D02*
X0227467Y0309894D01*
X0234982Y0311493D02*
X0120656Y0311493D01*
X0122376Y0309894D02*
X0211133Y0309894D01*
X0210591Y0309352D02*
X0211822Y0310583D01*
X0213430Y0311249D01*
X0215170Y0311249D01*
X0216778Y0310583D01*
X0218009Y0309352D01*
X0218675Y0307744D01*
X0218675Y0306004D01*
X0218009Y0304396D01*
X0216778Y0303165D01*
X0215170Y0302499D01*
X0213430Y0302499D01*
X0211822Y0303165D01*
X0210591Y0304396D01*
X0209925Y0306004D01*
X0209925Y0307744D01*
X0210591Y0309352D01*
X0210154Y0308296D02*
X0123038Y0308296D01*
X0123187Y0306697D02*
X0209925Y0306697D01*
X0210300Y0305099D02*
X0178896Y0305099D01*
X0178942Y0305079D02*
X0177552Y0305655D01*
X0176048Y0305655D01*
X0174658Y0305079D01*
X0173595Y0304016D01*
X0173019Y0302626D01*
X0173019Y0301122D01*
X0173595Y0299732D01*
X0174200Y0299127D01*
X0174200Y0289621D01*
X0173595Y0289016D01*
X0173019Y0287626D01*
X0173019Y0286122D01*
X0173595Y0284732D01*
X0174658Y0283669D01*
X0176048Y0283093D01*
X0177552Y0283093D01*
X0178942Y0283669D01*
X0180005Y0284732D01*
X0180581Y0286122D01*
X0180581Y0287626D01*
X0180005Y0289016D01*
X0179400Y0289621D01*
X0179400Y0299127D01*
X0180005Y0299732D01*
X0180581Y0301122D01*
X0180581Y0302626D01*
X0180005Y0304016D01*
X0178942Y0305079D01*
X0180219Y0303500D02*
X0211487Y0303500D01*
X0217113Y0303500D02*
X0221487Y0303500D01*
X0220300Y0305099D02*
X0218300Y0305099D01*
X0218675Y0306697D02*
X0219925Y0306697D01*
X0220154Y0308296D02*
X0218446Y0308296D01*
X0217467Y0309894D02*
X0221133Y0309894D01*
X0236229Y0313091D02*
X0110462Y0313091D01*
X0110301Y0314690D02*
X0264201Y0314690D01*
X0264201Y0313091D02*
X0262371Y0313091D01*
X0262019Y0313443D02*
X0260255Y0314174D01*
X0258345Y0314174D01*
X0256581Y0313443D01*
X0255231Y0312093D01*
X0254500Y0310329D01*
X0254500Y0308419D01*
X0255231Y0306655D01*
X0256581Y0305305D01*
X0258345Y0304574D01*
X0260255Y0304574D01*
X0262019Y0305305D01*
X0263369Y0306655D01*
X0264100Y0308419D01*
X0264100Y0310329D01*
X0263369Y0312093D01*
X0262019Y0313443D01*
X0263618Y0311493D02*
X0264201Y0311493D01*
X0264201Y0309894D02*
X0264100Y0309894D01*
X0264049Y0308296D02*
X0264201Y0308296D01*
X0264201Y0306697D02*
X0263387Y0306697D01*
X0264201Y0305099D02*
X0261521Y0305099D01*
X0257079Y0305099D02*
X0251482Y0305099D01*
X0251816Y0305269D02*
X0251143Y0304926D01*
X0250424Y0304692D01*
X0249678Y0304574D01*
X0249500Y0304574D01*
X0249500Y0309174D01*
X0249500Y0309574D01*
X0254100Y0309574D01*
X0254100Y0309752D01*
X0253982Y0310498D01*
X0253748Y0311217D01*
X0253405Y0311890D01*
X0252961Y0312501D01*
X0252427Y0313035D01*
X0251816Y0313479D01*
X0251143Y0313822D01*
X0250424Y0314056D01*
X0249678Y0314174D01*
X0249500Y0314174D01*
X0249500Y0309574D01*
X0249100Y0309574D01*
X0249100Y0309174D01*
X0249500Y0309174D01*
X0254100Y0309174D01*
X0254100Y0308996D01*
X0253982Y0308250D01*
X0253748Y0307531D01*
X0253405Y0306858D01*
X0252961Y0306247D01*
X0252427Y0305713D01*
X0251816Y0305269D01*
X0253288Y0306697D02*
X0255213Y0306697D01*
X0254551Y0308296D02*
X0253989Y0308296D01*
X0254077Y0309894D02*
X0254500Y0309894D01*
X0254982Y0311493D02*
X0253608Y0311493D01*
X0252350Y0313091D02*
X0256229Y0313091D01*
X0249500Y0313091D02*
X0249100Y0313091D01*
X0249100Y0314174D02*
X0248922Y0314174D01*
X0248176Y0314056D01*
X0247457Y0313822D01*
X0246784Y0313479D01*
X0246173Y0313035D01*
X0245639Y0312501D01*
X0245195Y0311890D01*
X0244852Y0311217D01*
X0244618Y0310498D01*
X0244500Y0309752D01*
X0244500Y0309574D01*
X0249100Y0309574D01*
X0249100Y0314174D01*
X0249100Y0311493D02*
X0249500Y0311493D01*
X0249500Y0309894D02*
X0249100Y0309894D01*
X0249100Y0309174D02*
X0244500Y0309174D01*
X0244500Y0308996D01*
X0244618Y0308250D01*
X0244852Y0307531D01*
X0245195Y0306858D01*
X0245639Y0306247D01*
X0246173Y0305713D01*
X0246784Y0305269D01*
X0247457Y0304926D01*
X0248176Y0304692D01*
X0248922Y0304574D01*
X0249100Y0304574D01*
X0249100Y0309174D01*
X0249100Y0308296D02*
X0249500Y0308296D01*
X0249500Y0306697D02*
X0249100Y0306697D01*
X0249100Y0305099D02*
X0249500Y0305099D01*
X0247118Y0305099D02*
X0241521Y0305099D01*
X0243387Y0306697D02*
X0245312Y0306697D01*
X0244611Y0308296D02*
X0244049Y0308296D01*
X0244100Y0309894D02*
X0244523Y0309894D01*
X0244992Y0311493D02*
X0243618Y0311493D01*
X0242371Y0313091D02*
X0246250Y0313091D01*
X0246480Y0301902D02*
X0180581Y0301902D01*
X0180242Y0300303D02*
X0245592Y0300303D01*
X0245519Y0298705D02*
X0179400Y0298705D01*
X0179400Y0297106D02*
X0246221Y0297106D01*
X0246700Y0295508D02*
X0179400Y0295508D01*
X0179400Y0293909D02*
X0246700Y0293909D01*
X0246700Y0292311D02*
X0179400Y0292311D01*
X0179400Y0290712D02*
X0246700Y0290712D01*
X0246700Y0289113D02*
X0179908Y0289113D01*
X0180581Y0287515D02*
X0246700Y0287515D01*
X0246700Y0285916D02*
X0180496Y0285916D01*
X0179591Y0284318D02*
X0246700Y0284318D01*
X0246700Y0282719D02*
X0122054Y0282719D01*
X0122373Y0282401D02*
X0120870Y0283904D01*
X0118906Y0284717D01*
X0110462Y0284717D01*
X0110462Y0286741D01*
X0109524Y0289006D01*
X0108295Y0290235D01*
X0109694Y0289656D01*
X0118906Y0289656D01*
X0120870Y0290469D01*
X0122373Y0291972D01*
X0123187Y0293936D01*
X0123187Y0296062D01*
X0122373Y0298026D01*
X0120870Y0299529D01*
X0118906Y0300342D01*
X0109694Y0300342D01*
X0107730Y0299529D01*
X0106227Y0298026D01*
X0105413Y0296062D01*
X0105413Y0293936D01*
X0106227Y0291972D01*
X0107225Y0290974D01*
X0105526Y0291678D01*
X0103074Y0291678D01*
X0100809Y0290740D01*
X0099076Y0289006D01*
X0098138Y0286741D01*
X0098138Y0284290D01*
X0099076Y0282025D01*
X0100809Y0280292D01*
X0103074Y0279354D01*
X0105413Y0279354D01*
X0105413Y0278311D01*
X0106227Y0276347D01*
X0107730Y0274844D01*
X0109694Y0274031D01*
X0118906Y0274031D01*
X0120870Y0274844D01*
X0122373Y0276347D01*
X0123187Y0278311D01*
X0123187Y0280437D01*
X0122373Y0282401D01*
X0122903Y0281121D02*
X0230769Y0281121D01*
X0229444Y0279522D02*
X0123187Y0279522D01*
X0123026Y0277924D02*
X0228800Y0277924D01*
X0228800Y0276325D02*
X0122351Y0276325D01*
X0120587Y0274727D02*
X0229236Y0274727D01*
X0230267Y0273128D02*
X0102852Y0273128D01*
X0103187Y0273936D02*
X0102373Y0271972D01*
X0100870Y0270469D01*
X0098906Y0269656D01*
X0089694Y0269656D01*
X0087730Y0270469D01*
X0086227Y0271972D01*
X0085413Y0273936D01*
X0085413Y0276062D01*
X0086227Y0278026D01*
X0087730Y0279529D01*
X0089694Y0280342D01*
X0098906Y0280342D01*
X0100870Y0279529D01*
X0102373Y0278026D01*
X0103187Y0276062D01*
X0103187Y0273936D01*
X0103187Y0274727D02*
X0108013Y0274727D01*
X0106249Y0276325D02*
X0103077Y0276325D01*
X0102415Y0277924D02*
X0105574Y0277924D01*
X0102667Y0279522D02*
X0100876Y0279522D01*
X0099980Y0281121D02*
X0057903Y0281121D01*
X0058187Y0280437D02*
X0057373Y0282401D01*
X0055870Y0283904D01*
X0053906Y0284717D01*
X0045462Y0284717D01*
X0045462Y0286741D01*
X0044524Y0289006D01*
X0043295Y0290235D01*
X0044694Y0289656D01*
X0053906Y0289656D01*
X0055870Y0290469D01*
X0057373Y0291972D01*
X0058187Y0293936D01*
X0058187Y0296062D01*
X0057373Y0298026D01*
X0055870Y0299529D01*
X0053906Y0300342D01*
X0044694Y0300342D01*
X0042730Y0299529D01*
X0041227Y0298026D01*
X0040413Y0296062D01*
X0040413Y0293936D01*
X0041227Y0291972D01*
X0042225Y0290974D01*
X0040526Y0291678D01*
X0038074Y0291678D01*
X0035809Y0290740D01*
X0034076Y0289006D01*
X0033138Y0286741D01*
X0033138Y0284290D01*
X0034076Y0282025D01*
X0035809Y0280292D01*
X0038074Y0279354D01*
X0040413Y0279354D01*
X0040413Y0278311D01*
X0041227Y0276347D01*
X0042730Y0274844D01*
X0044694Y0274031D01*
X0053906Y0274031D01*
X0055870Y0274844D01*
X0057373Y0276347D01*
X0058187Y0278311D01*
X0058187Y0280437D01*
X0058187Y0279522D02*
X0087724Y0279522D01*
X0086185Y0277924D02*
X0058026Y0277924D01*
X0057351Y0276325D02*
X0085523Y0276325D01*
X0085413Y0274727D02*
X0055587Y0274727D01*
X0057054Y0282719D02*
X0098788Y0282719D01*
X0098138Y0284318D02*
X0054870Y0284318D01*
X0056113Y0290712D02*
X0100782Y0290712D01*
X0099183Y0289113D02*
X0044417Y0289113D01*
X0045142Y0287515D02*
X0098458Y0287515D01*
X0098138Y0285916D02*
X0045462Y0285916D01*
X0041087Y0292311D02*
X0008100Y0292311D01*
X0008100Y0293909D02*
X0040425Y0293909D01*
X0040413Y0295508D02*
X0008100Y0295508D01*
X0008100Y0297106D02*
X0040846Y0297106D01*
X0041906Y0298705D02*
X0008100Y0298705D01*
X0008100Y0300303D02*
X0044599Y0300303D01*
X0043798Y0301902D02*
X0008100Y0301902D01*
X0008100Y0303500D02*
X0041574Y0303500D01*
X0040709Y0305099D02*
X0008100Y0305099D01*
X0008100Y0306697D02*
X0040413Y0306697D01*
X0035364Y0308296D02*
X0008100Y0308296D01*
X0008100Y0309894D02*
X0033948Y0309894D01*
X0033285Y0311493D02*
X0008100Y0311493D01*
X0008100Y0313091D02*
X0033138Y0313091D01*
X0033299Y0314690D02*
X0008100Y0314690D01*
X0008100Y0290712D02*
X0035782Y0290712D01*
X0034183Y0289113D02*
X0008100Y0289113D01*
X0008100Y0287515D02*
X0033458Y0287515D01*
X0033138Y0285916D02*
X0008100Y0285916D01*
X0008100Y0284318D02*
X0033138Y0284318D01*
X0033788Y0282719D02*
X0008100Y0282719D01*
X0008100Y0281121D02*
X0034980Y0281121D01*
X0033906Y0280342D02*
X0035870Y0279529D01*
X0037373Y0278026D01*
X0038187Y0276062D01*
X0038187Y0273936D01*
X0037373Y0271972D01*
X0035870Y0270469D01*
X0033906Y0269656D01*
X0024694Y0269656D01*
X0022730Y0270469D01*
X0021227Y0271972D01*
X0020413Y0273936D01*
X0020413Y0276062D01*
X0021227Y0278026D01*
X0022730Y0279529D01*
X0024694Y0280342D01*
X0033906Y0280342D01*
X0035876Y0279522D02*
X0037667Y0279522D01*
X0037415Y0277924D02*
X0040574Y0277924D01*
X0041249Y0276325D02*
X0038077Y0276325D01*
X0038187Y0274727D02*
X0043013Y0274727D01*
X0037852Y0273128D02*
X0085748Y0273128D01*
X0086669Y0271530D02*
X0036931Y0271530D01*
X0034572Y0269931D02*
X0089028Y0269931D01*
X0099572Y0269931D02*
X0229613Y0269931D01*
X0228951Y0268333D02*
X0008100Y0268333D01*
X0008100Y0269931D02*
X0024028Y0269931D01*
X0021669Y0271530D02*
X0008100Y0271530D01*
X0008100Y0273128D02*
X0020748Y0273128D01*
X0020413Y0274727D02*
X0008100Y0274727D01*
X0008100Y0276325D02*
X0020523Y0276325D01*
X0021185Y0277924D02*
X0008100Y0277924D01*
X0008100Y0279522D02*
X0022724Y0279522D01*
X0008100Y0266734D02*
X0228800Y0266734D01*
X0229067Y0265136D02*
X0008100Y0265136D01*
X0008100Y0263537D02*
X0229859Y0263537D01*
X0231842Y0261939D02*
X0008100Y0261939D01*
X0008100Y0260340D02*
X0229988Y0260340D01*
X0229121Y0258742D02*
X0008100Y0258742D01*
X0008100Y0257143D02*
X0228800Y0257143D01*
X0228897Y0255545D02*
X0008100Y0255545D01*
X0008100Y0253946D02*
X0229560Y0253946D01*
X0231048Y0252348D02*
X0008100Y0252348D01*
X0008100Y0250749D02*
X0230397Y0250749D01*
X0229287Y0249151D02*
X0008100Y0249151D01*
X0008100Y0197998D02*
X0008887Y0197998D01*
X0008100Y0196400D02*
X0010183Y0196400D01*
X0008100Y0145247D02*
X0039895Y0145247D01*
X0039082Y0143649D02*
X0008100Y0143649D01*
X0008100Y0142050D02*
X0033894Y0142050D01*
X0036195Y0137255D02*
X0041141Y0137255D01*
X0040304Y0135656D02*
X0029534Y0135656D01*
X0027234Y0140452D02*
X0008100Y0140452D01*
X0008100Y0138853D02*
X0020573Y0138853D01*
X0022874Y0134058D02*
X0039251Y0134058D01*
X0038800Y0132459D02*
X0016213Y0132459D01*
X0015650Y0130861D02*
X0038800Y0130861D01*
X0039429Y0129262D02*
X0015650Y0129262D01*
X0015650Y0127664D02*
X0040732Y0127664D01*
X0040713Y0126065D02*
X0015650Y0126065D01*
X0015650Y0124467D02*
X0039421Y0124467D01*
X0049510Y0110080D02*
X0102160Y0110080D01*
X0100873Y0108482D02*
X0048686Y0108482D01*
X0046623Y0106883D02*
X0100519Y0106883D01*
X0100866Y0105285D02*
X0083446Y0105285D01*
X0085142Y0103686D02*
X0102141Y0103686D01*
X0104300Y0106874D02*
X0129300Y0106874D01*
X0127141Y0103686D02*
X0106459Y0103686D01*
X0106440Y0110080D02*
X0127160Y0110080D01*
X0124166Y0102088D02*
X0085581Y0102088D01*
X0084300Y0099374D02*
X0126800Y0099374D01*
X0109129Y0060526D02*
X0264201Y0060526D01*
X0264201Y0058928D02*
X0249196Y0058928D01*
X0249095Y0058961D02*
X0248264Y0059092D01*
X0244681Y0059092D01*
X0244681Y0054130D01*
X0253187Y0054130D01*
X0253187Y0054170D01*
X0253055Y0055000D01*
X0252795Y0055800D01*
X0252413Y0056550D01*
X0251919Y0057230D01*
X0251324Y0057825D01*
X0250644Y0058319D01*
X0249894Y0058701D01*
X0249095Y0058961D01*
X0251820Y0057329D02*
X0264201Y0057329D01*
X0264201Y0055731D02*
X0252818Y0055731D01*
X0253187Y0054132D02*
X0264201Y0054132D01*
X0264201Y0052534D02*
X0253061Y0052534D01*
X0253055Y0052498D02*
X0253187Y0053328D01*
X0253187Y0053368D01*
X0244681Y0053368D01*
X0244681Y0048406D01*
X0248264Y0048406D01*
X0249095Y0048537D01*
X0249894Y0048797D01*
X0250644Y0049179D01*
X0251324Y0049673D01*
X0251919Y0050268D01*
X0252413Y0050949D01*
X0252795Y0051698D01*
X0253055Y0052498D01*
X0252404Y0050935D02*
X0264201Y0050935D01*
X0264201Y0049337D02*
X0250861Y0049337D01*
X0244681Y0049337D02*
X0243919Y0049337D01*
X0243919Y0050935D02*
X0244681Y0050935D01*
X0244681Y0052534D02*
X0243919Y0052534D01*
X0243919Y0054132D02*
X0244681Y0054132D01*
X0244681Y0055731D02*
X0243919Y0055731D01*
X0243919Y0057329D02*
X0244681Y0057329D01*
X0244681Y0058928D02*
X0243919Y0058928D01*
X0239404Y0058928D02*
X0184196Y0058928D01*
X0186820Y0057329D02*
X0236780Y0057329D01*
X0233129Y0034950D02*
X0264201Y0034950D01*
X0264201Y0033352D02*
X0233187Y0033352D01*
X0232800Y0031753D02*
X0264201Y0031753D01*
X0264201Y0030155D02*
X0231806Y0030155D01*
X0229269Y0028556D02*
X0264201Y0028556D01*
X0264201Y0026958D02*
X0229533Y0026958D01*
X0231915Y0025359D02*
X0264201Y0025359D01*
X0264201Y0023761D02*
X0232845Y0023761D01*
X0233187Y0022162D02*
X0264201Y0022162D01*
X0264201Y0020564D02*
X0238124Y0020564D01*
X0239606Y0018965D02*
X0264201Y0018965D01*
X0264201Y0017367D02*
X0240269Y0017367D01*
X0240462Y0015768D02*
X0264201Y0015768D01*
X0264201Y0014170D02*
X0240347Y0014170D01*
X0228253Y0014170D02*
X0175347Y0014170D01*
X0175462Y0015768D02*
X0228138Y0015768D01*
X0219067Y0026958D02*
X0164533Y0026958D01*
X0164269Y0028556D02*
X0219331Y0028556D01*
X0216794Y0030155D02*
X0166806Y0030155D01*
X0167800Y0031753D02*
X0215800Y0031753D01*
X0215413Y0033352D02*
X0168187Y0033352D01*
X0168129Y0034950D02*
X0215471Y0034950D01*
X0218461Y0044541D02*
X0175428Y0044541D01*
X0174766Y0046140D02*
X0216434Y0046140D01*
X0215651Y0047738D02*
X0173509Y0047738D01*
X0172739Y0049337D02*
X0170665Y0049337D01*
X0171196Y0050935D02*
X0167980Y0050935D01*
X0167240Y0052534D02*
X0170539Y0052534D01*
X0170413Y0054132D02*
X0165318Y0054132D01*
X0159300Y0064374D02*
X0214300Y0064374D01*
X0217101Y0066920D02*
X0264201Y0066920D01*
X0264201Y0065322D02*
X0218000Y0065322D01*
X0218081Y0063723D02*
X0264201Y0063723D01*
X0264201Y0062125D02*
X0217398Y0062125D01*
X0212177Y0079709D02*
X0206423Y0079709D01*
X0208021Y0081307D02*
X0210579Y0081307D01*
X0209500Y0082906D02*
X0209100Y0082906D01*
X0209100Y0084504D02*
X0209500Y0084504D01*
X0209500Y0086103D02*
X0209100Y0086103D01*
X0207761Y0087701D02*
X0210839Y0087701D01*
X0216685Y0025359D02*
X0166915Y0025359D01*
X0167845Y0023761D02*
X0215755Y0023761D01*
X0215413Y0022162D02*
X0168187Y0022162D01*
X0173124Y0020564D02*
X0215516Y0020564D01*
X0216178Y0018965D02*
X0174606Y0018965D01*
X0175269Y0017367D02*
X0217708Y0017367D01*
X0153461Y0044541D02*
X0110428Y0044541D01*
X0109766Y0046140D02*
X0151434Y0046140D01*
X0150651Y0047738D02*
X0108509Y0047738D01*
X0107739Y0049337D02*
X0105665Y0049337D01*
X0106196Y0050935D02*
X0102980Y0050935D01*
X0102240Y0052534D02*
X0105539Y0052534D01*
X0105413Y0054132D02*
X0102735Y0054132D01*
X0104334Y0055731D02*
X0105782Y0055731D01*
X0105932Y0057329D02*
X0106780Y0057329D01*
X0107531Y0058928D02*
X0109404Y0058928D01*
X0082705Y0097292D02*
X0047496Y0097292D01*
X0049017Y0098891D02*
X0079436Y0098891D01*
X0078281Y0100489D02*
X0049680Y0100489D01*
X0049800Y0102088D02*
X0078019Y0102088D01*
X0078458Y0103686D02*
X0049503Y0103686D01*
X0048667Y0105285D02*
X0080154Y0105285D01*
X0081800Y0101874D02*
X0084300Y0099374D01*
X0099619Y0146846D02*
X0101040Y0146846D01*
X0079185Y0151642D02*
X0049800Y0151642D01*
X0049687Y0153240D02*
X0078177Y0153240D01*
X0078019Y0154839D02*
X0049025Y0154839D01*
X0047515Y0156437D02*
X0078562Y0156437D01*
X0108050Y0184374D02*
X0119300Y0184374D01*
X0140014Y0204392D02*
X0229375Y0204392D01*
X0230602Y0202794D02*
X0142057Y0202794D01*
X0143656Y0201195D02*
X0230843Y0201195D01*
X0229475Y0199597D02*
X0144400Y0199597D01*
X0156800Y0224374D02*
X0151800Y0229374D01*
X0155581Y0229969D02*
X0229629Y0229969D01*
X0231258Y0231567D02*
X0154954Y0231567D01*
X0156481Y0228370D02*
X0227119Y0228370D01*
X0229677Y0223575D02*
X0229821Y0223575D01*
X0231753Y0221976D02*
X0227805Y0221976D01*
X0229300Y0214374D02*
X0234300Y0216874D01*
X0238779Y0223575D02*
X0246700Y0223575D01*
X0246700Y0225173D02*
X0239549Y0225173D01*
X0239800Y0226772D02*
X0246700Y0226772D01*
X0246700Y0228370D02*
X0239633Y0228370D01*
X0238971Y0229969D02*
X0246700Y0229969D01*
X0246700Y0231567D02*
X0237342Y0231567D01*
X0238370Y0233166D02*
X0246700Y0233166D01*
X0246700Y0234764D02*
X0239379Y0234764D01*
X0239800Y0236363D02*
X0246700Y0236363D01*
X0246700Y0237961D02*
X0239800Y0237961D01*
X0239141Y0239560D02*
X0246700Y0239560D01*
X0246700Y0241158D02*
X0237794Y0241158D01*
X0237961Y0242757D02*
X0246700Y0242757D01*
X0246700Y0244355D02*
X0239189Y0244355D01*
X0239723Y0245954D02*
X0246700Y0245954D01*
X0246700Y0247552D02*
X0239761Y0247552D01*
X0239313Y0249151D02*
X0246700Y0249151D01*
X0246700Y0250749D02*
X0238203Y0250749D01*
X0237552Y0252348D02*
X0246700Y0252348D01*
X0246700Y0253946D02*
X0239040Y0253946D01*
X0239703Y0255545D02*
X0246700Y0255545D01*
X0246700Y0257143D02*
X0239800Y0257143D01*
X0239479Y0258742D02*
X0246700Y0258742D01*
X0246700Y0260340D02*
X0238612Y0260340D01*
X0236758Y0261939D02*
X0246700Y0261939D01*
X0246700Y0263537D02*
X0238741Y0263537D01*
X0239533Y0265136D02*
X0246700Y0265136D01*
X0246700Y0266734D02*
X0239800Y0266734D01*
X0239649Y0268333D02*
X0246700Y0268333D01*
X0246700Y0269931D02*
X0238987Y0269931D01*
X0237422Y0271530D02*
X0246700Y0271530D01*
X0246700Y0273128D02*
X0238333Y0273128D01*
X0239364Y0274727D02*
X0246700Y0274727D01*
X0246700Y0276325D02*
X0239800Y0276325D01*
X0239800Y0277924D02*
X0246700Y0277924D01*
X0246700Y0279522D02*
X0239156Y0279522D01*
X0237831Y0281121D02*
X0246700Y0281121D01*
X0249300Y0299374D02*
X0249300Y0191874D01*
X0239564Y0185210D02*
X0264201Y0185210D01*
X0264201Y0183612D02*
X0238816Y0183612D01*
X0236937Y0182013D02*
X0264201Y0182013D01*
X0264201Y0180415D02*
X0192962Y0180415D01*
X0180581Y0191604D02*
X0231348Y0191604D01*
X0230193Y0193203D02*
X0180342Y0193203D01*
X0179220Y0194801D02*
X0229205Y0194801D01*
X0229654Y0190006D02*
X0180119Y0190006D01*
X0154982Y0161233D02*
X0147449Y0161233D01*
X0149847Y0159634D02*
X0153383Y0159634D01*
X0144400Y0169225D02*
X0229444Y0169225D01*
X0231178Y0271530D02*
X0101931Y0271530D01*
X0110462Y0285916D02*
X0173104Y0285916D01*
X0173019Y0287515D02*
X0110142Y0287515D01*
X0109417Y0289113D02*
X0173692Y0289113D01*
X0174200Y0290712D02*
X0121113Y0290712D01*
X0122513Y0292311D02*
X0174200Y0292311D01*
X0174200Y0293909D02*
X0123175Y0293909D01*
X0123187Y0295508D02*
X0174200Y0295508D01*
X0174200Y0297106D02*
X0122754Y0297106D01*
X0121694Y0298705D02*
X0174200Y0298705D01*
X0173358Y0300303D02*
X0119001Y0300303D01*
X0119802Y0301902D02*
X0173019Y0301902D01*
X0173381Y0303500D02*
X0122026Y0303500D01*
X0122891Y0305099D02*
X0174704Y0305099D01*
X0176800Y0301874D02*
X0176800Y0286874D01*
X0174009Y0284318D02*
X0119870Y0284318D01*
X0106906Y0298705D02*
X0056694Y0298705D01*
X0057754Y0297106D02*
X0105846Y0297106D01*
X0105413Y0295508D02*
X0058187Y0295508D01*
X0058175Y0293909D02*
X0105425Y0293909D01*
X0106087Y0292311D02*
X0057513Y0292311D01*
X0054001Y0300303D02*
X0109599Y0300303D01*
X0108798Y0301902D02*
X0054802Y0301902D01*
X0057026Y0303500D02*
X0106574Y0303500D01*
X0105709Y0305099D02*
X0057891Y0305099D01*
X0058187Y0306697D02*
X0105413Y0306697D01*
X0100364Y0308296D02*
X0058038Y0308296D01*
X0057376Y0309894D02*
X0098948Y0309894D01*
X0098285Y0311493D02*
X0055656Y0311493D01*
X0045462Y0313091D02*
X0098138Y0313091D01*
X0098299Y0314690D02*
X0045301Y0314690D01*
X0013050Y0134374D02*
X0013050Y0024374D01*
X0021800Y0021874D01*
X0021685Y0025359D02*
X0019066Y0025359D01*
X0015650Y0026958D02*
X0024067Y0026958D01*
X0024331Y0028556D02*
X0015650Y0028556D01*
X0015650Y0030155D02*
X0021794Y0030155D01*
X0020800Y0031753D02*
X0015650Y0031753D01*
X0015650Y0033352D02*
X0020413Y0033352D01*
X0020471Y0034950D02*
X0015650Y0034950D01*
X0015650Y0036549D02*
X0021133Y0036549D01*
X0022598Y0038147D02*
X0015650Y0038147D01*
X0015650Y0039746D02*
X0034074Y0039746D01*
X0033412Y0041344D02*
X0015650Y0041344D01*
X0015650Y0042943D02*
X0033138Y0042943D01*
X0023461Y0044541D02*
X0015650Y0044541D01*
X0015650Y0046140D02*
X0021434Y0046140D01*
X0020651Y0047738D02*
X0015650Y0047738D01*
X0015650Y0049337D02*
X0020413Y0049337D01*
X0020620Y0050935D02*
X0015650Y0050935D01*
X0015650Y0052534D02*
X0021360Y0052534D01*
X0023282Y0054132D02*
X0015650Y0054132D01*
X0010450Y0054132D02*
X0008100Y0054132D01*
X0008100Y0052534D02*
X0010450Y0052534D01*
X0010450Y0050935D02*
X0008100Y0050935D01*
X0008100Y0049337D02*
X0010450Y0049337D01*
X0010450Y0047738D02*
X0008100Y0047738D01*
X0008100Y0046140D02*
X0010450Y0046140D01*
X0010450Y0044541D02*
X0008100Y0044541D01*
X0008100Y0042943D02*
X0010450Y0042943D01*
X0010450Y0041344D02*
X0008100Y0041344D01*
X0008100Y0039746D02*
X0010450Y0039746D01*
X0010450Y0038147D02*
X0008100Y0038147D01*
X0008100Y0036549D02*
X0010450Y0036549D01*
X0010450Y0034950D02*
X0008100Y0034950D01*
X0008100Y0033352D02*
X0010450Y0033352D01*
X0010450Y0031753D02*
X0008100Y0031753D01*
X0008100Y0030155D02*
X0010450Y0030155D01*
X0010450Y0028556D02*
X0008100Y0028556D01*
X0008100Y0026958D02*
X0010450Y0026958D01*
X0010450Y0025359D02*
X0008100Y0025359D01*
X0008100Y0023761D02*
X0010490Y0023761D01*
X0011596Y0022162D02*
X0008100Y0022162D01*
X0008100Y0055731D02*
X0010450Y0055731D01*
X0010450Y0057329D02*
X0008100Y0057329D01*
X0008100Y0058928D02*
X0010450Y0058928D01*
X0010450Y0060526D02*
X0008100Y0060526D01*
D16*
X0026800Y0066874D03*
X0059300Y0069374D03*
X0081800Y0101874D03*
X0089300Y0094374D03*
X0104300Y0106874D03*
X0106800Y0089374D03*
X0114300Y0084374D03*
X0121800Y0094374D03*
X0126800Y0099374D03*
X0129300Y0106874D03*
X0149300Y0116874D03*
X0149300Y0134374D03*
X0156800Y0146874D03*
X0164300Y0136874D03*
X0174300Y0119374D03*
X0169300Y0156874D03*
X0161800Y0164374D03*
X0161800Y0174374D03*
X0159300Y0179374D03*
X0161800Y0184374D03*
X0161800Y0194374D03*
X0159300Y0201874D03*
X0176800Y0191874D03*
X0182843Y0184374D03*
X0189300Y0179374D03*
X0199300Y0174374D03*
X0151800Y0229374D03*
X0119300Y0216874D03*
X0109300Y0226874D03*
X0119300Y0199374D03*
X0119300Y0184374D03*
X0119300Y0179374D03*
X0119300Y0174374D03*
X0108050Y0184374D03*
X0099300Y0179374D03*
X0099300Y0164374D03*
X0101800Y0150624D03*
X0096800Y0149374D03*
X0081800Y0154374D03*
X0086800Y0171874D03*
X0086800Y0179374D03*
X0119300Y0150624D03*
X0159300Y0064374D03*
X0149300Y0041874D03*
X0209300Y0056874D03*
X0214300Y0064374D03*
X0224300Y0079374D03*
X0249300Y0191874D03*
X0261800Y0219374D03*
X0204300Y0266874D03*
X0176800Y0286874D03*
X0176800Y0301874D03*
X0249300Y0299374D03*
X0071800Y0281874D03*
X0021800Y0224374D03*
D17*
X0081800Y0154374D02*
X0091800Y0154374D01*
X0096800Y0149374D01*
X0169300Y0121874D02*
X0171800Y0119374D01*
X0174300Y0119374D01*
X0169300Y0119374D02*
X0169300Y0089374D01*
X0174300Y0084374D01*
D18*
X0169300Y0119374D02*
X0169300Y0121874D01*
X0169300Y0156874D01*
M02*
