%
M48
M72
T01C0.02362
T02C0.03150
T03C0.04000
T04C0.04724
%
T01
X26800Y66874
X59300Y69374
X81800Y101874
X89300Y94374
X104300Y106874
X106800Y89374
X114300Y84374
X121800Y94374
X126800Y99374
X129300Y106874
X149300Y116874
X149300Y134374
X156800Y146874
X164300Y136874
X174300Y119374
X169300Y156874
X161800Y164374
X161800Y174374
X159300Y179374
X161800Y184374
X161800Y194374
X159300Y201874
X176800Y191874
X182843Y184374
X189300Y179374
X199300Y174374
X151800Y229374
X119300Y216874
X109300Y226874
X119300Y199374
X119300Y184374
X119300Y179374
X119300Y174374
X108050Y184374
X99300Y179374
X99300Y164374
X101800Y150624
X96800Y149374
X81800Y154374
X86800Y171874
X86800Y179374
X119300Y150624
X159300Y64374
X149300Y41874
X209300Y56874
X214300Y64374
X224300Y79374
X249300Y191874
X261800Y219374
X204300Y266874
X176800Y286874
X176800Y301874
X249300Y299374
X71800Y281874
X21800Y224374
T02
X214300Y306874
X224300Y306874
T03
X239300Y309374
X249300Y309374
X259300Y309374
X234300Y276874
X234300Y266874
X234300Y256874
X234300Y246874
X234300Y236874
X234300Y226874
X234300Y216874
X234300Y206874
X234300Y196874
X234300Y186874
X234300Y171874
X234300Y161874
X234300Y151874
X234300Y141874
X234300Y131874
X234300Y121874
X234300Y111874
X234300Y101874
X214300Y84374
X204300Y84374
X194300Y84374
X184300Y84374
X174300Y84374
X164300Y84374
X44300Y101874
X44300Y111874
X44300Y121874
X44300Y131874
X44300Y141874
X44300Y151874
X44300Y171874
X44300Y181874
X44300Y191874
X44300Y201874
X44300Y211874
X44300Y221874
X44300Y231874
X44300Y241874
X11800Y201874
X11800Y191874
X11800Y181874
T04
X29300Y21874
X29300Y33749
X39300Y43232
X29300Y49374
X49300Y53749
X39300Y15673
X94300Y21874
X94300Y33749
X104300Y43232
X114300Y53749
X94300Y49374
X104300Y15673
X159300Y21874
X169300Y15673
X159300Y33749
X169300Y43232
X159300Y49374
X179300Y53749
X224300Y49374
X234300Y43232
X224300Y33749
X224300Y21874
X234300Y15673
X244300Y53749
X94300Y274999
X104300Y285516
X114300Y279374
X114300Y294999
X114300Y306874
X104300Y313075
X49300Y306874
X49300Y294999
X39300Y285516
X49300Y279374
X29300Y274999
X39300Y313075
M30
