G75*
%MOIN*%
%OFA0B0*%
%FSLAX25Y25*%
%IPPOS*%
%LPD*%
%AMOC8*
5,1,8,0,0,1.08239X$1,22.5*
%
%ADD10C,0.00300*%
%ADD11C,0.00600*%
%ADD12C,0.00800*%
%ADD13C,0.00200*%
%ADD14C,0.01000*%
%ADD15R,0.08268X0.01181*%
%ADD16C,0.00400*%
%ADD17C,0.00500*%
%ADD18C,0.02174*%
%ADD19R,0.00787X0.00787*%
D10*
X0012947Y0014524D02*
X0012947Y0016993D01*
X0012947Y0018207D02*
X0012947Y0020059D01*
X0013564Y0020676D01*
X0014798Y0020676D01*
X0015416Y0020059D01*
X0015416Y0018207D01*
X0016650Y0018207D02*
X0012947Y0018207D01*
X0012947Y0015758D02*
X0016650Y0015758D01*
X0015416Y0019442D02*
X0016650Y0020676D01*
X0016650Y0021890D02*
X0012947Y0021890D01*
X0012947Y0023742D01*
X0013564Y0024359D01*
X0014798Y0024359D01*
X0015416Y0023742D01*
X0015416Y0021890D01*
X0015416Y0023125D02*
X0016650Y0024359D01*
X0016033Y0025573D02*
X0016650Y0026191D01*
X0016650Y0027425D01*
X0016033Y0028042D01*
X0015416Y0028042D01*
X0014798Y0027425D01*
X0014798Y0026191D01*
X0014181Y0025573D01*
X0013564Y0025573D01*
X0012947Y0026191D01*
X0012947Y0027425D01*
X0013564Y0028042D01*
X0014181Y0029257D02*
X0012947Y0030491D01*
X0016650Y0030491D01*
X0016650Y0029257D02*
X0016650Y0031725D01*
X0055447Y0019442D02*
X0056681Y0018207D01*
X0055447Y0016993D02*
X0058533Y0016993D01*
X0059150Y0016376D01*
X0059150Y0015141D01*
X0058533Y0014524D01*
X0055447Y0014524D01*
X0059150Y0018207D02*
X0059150Y0020676D01*
X0059150Y0019442D02*
X0055447Y0019442D01*
X0080447Y0020059D02*
X0080447Y0018207D01*
X0084150Y0018207D01*
X0082916Y0018207D02*
X0082916Y0020059D01*
X0082298Y0020676D01*
X0081064Y0020676D01*
X0080447Y0020059D01*
X0080447Y0021890D02*
X0080447Y0023742D01*
X0081064Y0024359D01*
X0082298Y0024359D01*
X0082916Y0023742D01*
X0082916Y0021890D01*
X0084150Y0021890D02*
X0080447Y0021890D01*
X0082916Y0023125D02*
X0084150Y0024359D01*
X0083533Y0025573D02*
X0084150Y0026191D01*
X0084150Y0027425D01*
X0083533Y0028042D01*
X0082916Y0028042D01*
X0082298Y0027425D01*
X0082298Y0026191D01*
X0081681Y0025573D01*
X0081064Y0025573D01*
X0080447Y0026191D01*
X0080447Y0027425D01*
X0081064Y0028042D01*
X0081064Y0029257D02*
X0080447Y0029874D01*
X0080447Y0031108D01*
X0081064Y0031725D01*
X0081681Y0031725D01*
X0084150Y0029257D01*
X0084150Y0031725D01*
X0084150Y0020676D02*
X0082916Y0019442D01*
X0080447Y0016993D02*
X0080447Y0014524D01*
X0080447Y0015758D02*
X0084150Y0015758D01*
X0120447Y0014524D02*
X0123533Y0014524D01*
X0124150Y0015141D01*
X0124150Y0016376D01*
X0123533Y0016993D01*
X0120447Y0016993D01*
X0121064Y0018207D02*
X0120447Y0018824D01*
X0120447Y0020059D01*
X0121064Y0020676D01*
X0121681Y0020676D01*
X0124150Y0018207D01*
X0124150Y0020676D01*
X0145447Y0020059D02*
X0145447Y0018207D01*
X0149150Y0018207D01*
X0147916Y0018207D02*
X0147916Y0020059D01*
X0147298Y0020676D01*
X0146064Y0020676D01*
X0145447Y0020059D01*
X0145447Y0021890D02*
X0145447Y0023742D01*
X0146064Y0024359D01*
X0147298Y0024359D01*
X0147916Y0023742D01*
X0147916Y0021890D01*
X0149150Y0021890D02*
X0145447Y0021890D01*
X0147916Y0023125D02*
X0149150Y0024359D01*
X0148533Y0025573D02*
X0149150Y0026191D01*
X0149150Y0027425D01*
X0148533Y0028042D01*
X0147916Y0028042D01*
X0147298Y0027425D01*
X0147298Y0026191D01*
X0146681Y0025573D01*
X0146064Y0025573D01*
X0145447Y0026191D01*
X0145447Y0027425D01*
X0146064Y0028042D01*
X0146064Y0029257D02*
X0145447Y0029874D01*
X0145447Y0031108D01*
X0146064Y0031725D01*
X0146681Y0031725D01*
X0147298Y0031108D01*
X0147916Y0031725D01*
X0148533Y0031725D01*
X0149150Y0031108D01*
X0149150Y0029874D01*
X0148533Y0029257D01*
X0147298Y0030491D02*
X0147298Y0031108D01*
X0149150Y0020676D02*
X0147916Y0019442D01*
X0145447Y0016993D02*
X0145447Y0014524D01*
X0145447Y0015758D02*
X0149150Y0015758D01*
X0185447Y0016324D02*
X0185447Y0017559D01*
X0186064Y0018176D01*
X0186681Y0018176D01*
X0187298Y0017559D01*
X0187916Y0018176D01*
X0188533Y0018176D01*
X0189150Y0017559D01*
X0189150Y0016324D01*
X0188533Y0015707D01*
X0188533Y0014493D02*
X0185447Y0014493D01*
X0186064Y0015707D02*
X0185447Y0016324D01*
X0187298Y0016942D02*
X0187298Y0017559D01*
X0188533Y0014493D02*
X0189150Y0013876D01*
X0189150Y0012641D01*
X0188533Y0012024D01*
X0185447Y0012024D01*
X0210447Y0014524D02*
X0210447Y0016993D01*
X0210447Y0018207D02*
X0210447Y0020059D01*
X0211064Y0020676D01*
X0212298Y0020676D01*
X0212916Y0020059D01*
X0212916Y0018207D01*
X0214150Y0018207D02*
X0210447Y0018207D01*
X0210447Y0015758D02*
X0214150Y0015758D01*
X0212916Y0019442D02*
X0214150Y0020676D01*
X0214150Y0021890D02*
X0210447Y0021890D01*
X0210447Y0023742D01*
X0211064Y0024359D01*
X0212298Y0024359D01*
X0212916Y0023742D01*
X0212916Y0021890D01*
X0212916Y0023125D02*
X0214150Y0024359D01*
X0213533Y0025573D02*
X0214150Y0026191D01*
X0214150Y0027425D01*
X0213533Y0028042D01*
X0212916Y0028042D01*
X0212298Y0027425D01*
X0212298Y0026191D01*
X0211681Y0025573D01*
X0211064Y0025573D01*
X0210447Y0026191D01*
X0210447Y0027425D01*
X0211064Y0028042D01*
X0212298Y0029257D02*
X0212298Y0031725D01*
X0210447Y0031108D02*
X0212298Y0029257D01*
X0210447Y0031108D02*
X0214150Y0031108D01*
X0247947Y0020059D02*
X0249798Y0018207D01*
X0249798Y0020676D01*
X0247947Y0020059D02*
X0251650Y0020059D01*
X0251033Y0016993D02*
X0247947Y0016993D01*
X0247947Y0014524D02*
X0251033Y0014524D01*
X0251650Y0015141D01*
X0251650Y0016376D01*
X0251033Y0016993D01*
X0260447Y0027024D02*
X0260447Y0028876D01*
X0261064Y0029493D01*
X0261681Y0029493D01*
X0262298Y0028876D01*
X0262298Y0027024D01*
X0260447Y0027024D02*
X0264150Y0027024D01*
X0264150Y0028876D01*
X0263533Y0029493D01*
X0262916Y0029493D01*
X0262298Y0028876D01*
X0261681Y0030707D02*
X0264150Y0030707D01*
X0262916Y0030707D02*
X0261681Y0031942D01*
X0261681Y0032559D01*
X0261681Y0033776D02*
X0263533Y0033776D01*
X0264150Y0034394D01*
X0264150Y0036245D01*
X0261681Y0036245D01*
X0261681Y0037460D02*
X0263533Y0037460D01*
X0264150Y0038077D01*
X0264150Y0039928D01*
X0264767Y0039928D02*
X0265384Y0039311D01*
X0265384Y0038694D01*
X0264767Y0039928D02*
X0261681Y0039928D01*
X0262298Y0041143D02*
X0261681Y0041760D01*
X0261681Y0042994D01*
X0262298Y0043612D01*
X0262916Y0043612D01*
X0262916Y0041143D01*
X0263533Y0041143D02*
X0262298Y0041143D01*
X0263533Y0041143D02*
X0264150Y0041760D01*
X0264150Y0042994D01*
X0264150Y0044826D02*
X0261681Y0044826D01*
X0261681Y0046060D02*
X0261681Y0046677D01*
X0261681Y0046060D02*
X0262916Y0044826D01*
X0262916Y0047895D02*
X0262916Y0050364D01*
X0262298Y0050364D01*
X0261681Y0049747D01*
X0261681Y0048512D01*
X0262298Y0047895D01*
X0263533Y0047895D01*
X0264150Y0048512D01*
X0264150Y0049747D01*
X0264150Y0055261D02*
X0260447Y0055261D01*
X0262298Y0055261D02*
X0262298Y0057730D01*
X0262298Y0058945D02*
X0263533Y0058945D01*
X0264150Y0059562D01*
X0264150Y0060796D01*
X0263533Y0061413D01*
X0262298Y0061413D01*
X0261681Y0060796D01*
X0261681Y0059562D01*
X0262298Y0058945D01*
X0260447Y0057730D02*
X0264150Y0057730D01*
X0264150Y0062628D02*
X0264150Y0064479D01*
X0263533Y0065097D01*
X0262916Y0064479D01*
X0262916Y0063245D01*
X0262298Y0062628D01*
X0261681Y0063245D01*
X0261681Y0065097D01*
X0261681Y0066311D02*
X0261681Y0068162D01*
X0262298Y0068780D01*
X0263533Y0068780D01*
X0264150Y0068162D01*
X0264150Y0066311D01*
X0265384Y0066311D02*
X0261681Y0066311D01*
X0261681Y0069994D02*
X0261681Y0070611D01*
X0264150Y0070611D01*
X0264150Y0069994D02*
X0264150Y0071228D01*
X0263533Y0073067D02*
X0261064Y0073067D01*
X0261681Y0073684D02*
X0261681Y0072449D01*
X0263533Y0073067D02*
X0264150Y0073684D01*
X0263533Y0074905D02*
X0262916Y0075522D01*
X0262916Y0077374D01*
X0262298Y0077374D02*
X0264150Y0077374D01*
X0264150Y0075522D01*
X0263533Y0074905D01*
X0261681Y0075522D02*
X0261681Y0076756D01*
X0262298Y0077374D01*
X0260447Y0078588D02*
X0260447Y0079205D01*
X0264150Y0079205D01*
X0264150Y0078588D02*
X0264150Y0079822D01*
X0265384Y0081043D02*
X0264150Y0082278D01*
X0264150Y0081661D01*
X0263533Y0081661D01*
X0263533Y0082278D01*
X0264150Y0082278D01*
X0263533Y0087182D02*
X0261064Y0087182D01*
X0260447Y0087799D01*
X0260447Y0089034D01*
X0261064Y0089651D01*
X0263533Y0089651D01*
X0264150Y0089034D01*
X0264150Y0087799D01*
X0263533Y0087182D01*
X0261681Y0090865D02*
X0261681Y0092100D01*
X0261064Y0091482D02*
X0263533Y0091482D01*
X0264150Y0092100D01*
X0263533Y0093938D02*
X0264150Y0094555D01*
X0263533Y0093938D02*
X0261064Y0093938D01*
X0261681Y0093321D02*
X0261681Y0094555D01*
X0261681Y0096393D02*
X0261681Y0097628D01*
X0262298Y0098245D01*
X0264150Y0098245D01*
X0264150Y0096393D01*
X0263533Y0095776D01*
X0262916Y0096393D01*
X0262916Y0098245D01*
X0263533Y0099459D02*
X0261681Y0099459D01*
X0263533Y0099459D02*
X0264150Y0100076D01*
X0263533Y0100694D01*
X0264150Y0101311D01*
X0263533Y0101928D01*
X0261681Y0101928D01*
X0261681Y0103759D02*
X0261681Y0104994D01*
X0262298Y0105611D01*
X0264150Y0105611D01*
X0264150Y0103759D01*
X0263533Y0103142D01*
X0262916Y0103759D01*
X0262916Y0105611D01*
X0263533Y0107443D02*
X0264150Y0107443D01*
X0264150Y0108060D01*
X0263533Y0108060D01*
X0263533Y0107443D01*
X0264150Y0108060D02*
X0265384Y0106825D01*
X0263533Y0112964D02*
X0261064Y0112964D01*
X0260447Y0113581D01*
X0260447Y0114816D01*
X0261064Y0115433D01*
X0261681Y0117264D02*
X0261681Y0118499D01*
X0262298Y0119116D01*
X0264150Y0119116D01*
X0264150Y0117264D01*
X0263533Y0116647D01*
X0262916Y0117264D01*
X0262916Y0119116D01*
X0264150Y0120330D02*
X0261681Y0120330D01*
X0261681Y0122182D01*
X0262298Y0122799D01*
X0264150Y0122799D01*
X0263533Y0124013D02*
X0262916Y0124631D01*
X0262916Y0126482D01*
X0262298Y0126482D02*
X0264150Y0126482D01*
X0264150Y0124631D01*
X0263533Y0124013D01*
X0261681Y0124631D02*
X0261681Y0125865D01*
X0262298Y0126482D01*
X0262298Y0127697D02*
X0261681Y0128314D01*
X0261681Y0130165D01*
X0260447Y0130165D02*
X0264150Y0130165D01*
X0264150Y0128314D01*
X0263533Y0127697D01*
X0262298Y0127697D01*
X0263533Y0131380D02*
X0262916Y0131997D01*
X0262916Y0133849D01*
X0262298Y0133849D02*
X0264150Y0133849D01*
X0264150Y0131997D01*
X0263533Y0131380D01*
X0261681Y0131997D02*
X0261681Y0133231D01*
X0262298Y0133849D01*
X0263533Y0115433D02*
X0264150Y0114816D01*
X0264150Y0113581D01*
X0263533Y0112964D01*
X0260447Y0070611D02*
X0259830Y0070611D01*
X0216285Y0120274D02*
X0213816Y0120274D01*
X0216285Y0122743D01*
X0216285Y0123360D01*
X0215668Y0123977D01*
X0214433Y0123977D01*
X0213816Y0123360D01*
X0211368Y0123977D02*
X0211368Y0120274D01*
X0212602Y0120274D02*
X0210133Y0120274D01*
X0208919Y0120274D02*
X0207684Y0121508D01*
X0208302Y0121508D02*
X0206450Y0121508D01*
X0206450Y0120274D02*
X0206450Y0123977D01*
X0208302Y0123977D01*
X0208919Y0123360D01*
X0208919Y0122126D01*
X0208302Y0121508D01*
X0210133Y0122743D02*
X0211368Y0123977D01*
X0210985Y0107727D02*
X0209750Y0107727D01*
X0209133Y0107110D01*
X0209133Y0104641D01*
X0211602Y0107110D01*
X0211602Y0104641D01*
X0210985Y0104024D01*
X0209750Y0104024D01*
X0209133Y0104641D01*
X0207919Y0104024D02*
X0205450Y0104024D01*
X0206684Y0104024D02*
X0206684Y0107727D01*
X0205450Y0106493D01*
X0210985Y0107727D02*
X0211602Y0107110D01*
X0212816Y0107727D02*
X0212816Y0104024D01*
X0212816Y0105258D02*
X0215285Y0107727D01*
X0213433Y0105876D02*
X0215285Y0104024D01*
X0192785Y0111524D02*
X0190933Y0113376D01*
X0190316Y0112758D02*
X0192785Y0115227D01*
X0190316Y0115227D02*
X0190316Y0111524D01*
X0189102Y0112141D02*
X0188485Y0111524D01*
X0187250Y0111524D01*
X0186633Y0112141D01*
X0189102Y0114610D01*
X0189102Y0112141D01*
X0188150Y0112598D02*
X0184447Y0112598D01*
X0184447Y0115067D01*
X0184184Y0115227D02*
X0184184Y0111524D01*
X0182950Y0111524D02*
X0185419Y0111524D01*
X0185681Y0111384D02*
X0188150Y0111384D01*
X0188150Y0109532D01*
X0187533Y0108915D01*
X0185681Y0108915D01*
X0186633Y0112141D02*
X0186633Y0114610D01*
X0187250Y0115227D01*
X0188485Y0115227D01*
X0189102Y0114610D01*
X0186298Y0113833D02*
X0186298Y0112598D01*
X0184184Y0115227D02*
X0182950Y0113993D01*
X0188150Y0104018D02*
X0188150Y0101549D01*
X0188150Y0100324D02*
X0188150Y0099707D01*
X0187533Y0099707D01*
X0187533Y0100324D01*
X0188150Y0100324D01*
X0187533Y0098493D02*
X0185064Y0098493D01*
X0187533Y0096024D01*
X0188150Y0096641D01*
X0188150Y0097876D01*
X0187533Y0098493D01*
X0185064Y0098493D02*
X0184447Y0097876D01*
X0184447Y0096641D01*
X0185064Y0096024D01*
X0187533Y0096024D01*
X0185681Y0101549D02*
X0184447Y0102783D01*
X0188150Y0102783D01*
X0172650Y0101559D02*
X0168947Y0101559D01*
X0170798Y0099707D01*
X0170798Y0102176D01*
X0169564Y0098493D02*
X0168947Y0097876D01*
X0168947Y0096641D01*
X0169564Y0096024D01*
X0172033Y0096024D01*
X0172650Y0096641D01*
X0172650Y0097876D01*
X0172033Y0098493D01*
X0183950Y0125274D02*
X0183950Y0128977D01*
X0185802Y0128977D01*
X0186419Y0128360D01*
X0186419Y0127126D01*
X0185802Y0126508D01*
X0183950Y0126508D01*
X0185184Y0126508D02*
X0186419Y0125274D01*
X0187633Y0125274D02*
X0190102Y0125274D01*
X0191316Y0125274D02*
X0193785Y0125274D01*
X0192551Y0125274D02*
X0192551Y0128977D01*
X0191316Y0127743D01*
X0188868Y0128977D02*
X0188868Y0125274D01*
X0187633Y0127743D02*
X0188868Y0128977D01*
X0167102Y0149141D02*
X0166485Y0148524D01*
X0165250Y0148524D01*
X0164633Y0149141D01*
X0163419Y0149141D02*
X0162802Y0148524D01*
X0161567Y0148524D01*
X0160950Y0149141D01*
X0160950Y0151610D01*
X0161567Y0152227D01*
X0162802Y0152227D01*
X0163419Y0151610D01*
X0164633Y0152227D02*
X0164633Y0150376D01*
X0165868Y0150993D01*
X0166485Y0150993D01*
X0167102Y0150376D01*
X0167102Y0149141D01*
X0167102Y0152227D02*
X0164633Y0152227D01*
X0172401Y0173524D02*
X0174869Y0175993D01*
X0174869Y0176610D01*
X0174252Y0177227D01*
X0173018Y0177227D01*
X0172401Y0176610D01*
X0172401Y0173524D02*
X0174869Y0173524D01*
X0176084Y0173524D02*
X0178552Y0175993D01*
X0178552Y0176610D01*
X0177935Y0177227D01*
X0176701Y0177227D01*
X0176084Y0176610D01*
X0176084Y0173524D02*
X0178552Y0173524D01*
X0179767Y0174141D02*
X0182236Y0176610D01*
X0182236Y0174141D01*
X0181618Y0173524D01*
X0180384Y0173524D01*
X0179767Y0174141D01*
X0179767Y0176610D01*
X0180384Y0177227D01*
X0181618Y0177227D01*
X0182236Y0176610D01*
X0187401Y0183524D02*
X0189869Y0185993D01*
X0189869Y0186610D01*
X0189252Y0187227D01*
X0188018Y0187227D01*
X0187401Y0186610D01*
X0187401Y0183524D02*
X0189869Y0183524D01*
X0191084Y0183524D02*
X0193552Y0185993D01*
X0193552Y0186610D01*
X0192935Y0187227D01*
X0191701Y0187227D01*
X0191084Y0186610D01*
X0191084Y0183524D02*
X0193552Y0183524D01*
X0194767Y0184141D02*
X0194767Y0186610D01*
X0195384Y0187227D01*
X0196618Y0187227D01*
X0197236Y0186610D01*
X0194767Y0184141D01*
X0195384Y0183524D01*
X0196618Y0183524D01*
X0197236Y0184141D01*
X0197236Y0186610D01*
X0199901Y0186610D02*
X0200518Y0187227D01*
X0201752Y0187227D01*
X0202369Y0186610D01*
X0202369Y0185993D01*
X0199901Y0183524D01*
X0202369Y0183524D01*
X0203584Y0183524D02*
X0206052Y0185993D01*
X0206052Y0186610D01*
X0205435Y0187227D01*
X0204201Y0187227D01*
X0203584Y0186610D01*
X0203584Y0183524D02*
X0206052Y0183524D01*
X0207267Y0184141D02*
X0209736Y0186610D01*
X0209736Y0184141D01*
X0209118Y0183524D01*
X0207884Y0183524D01*
X0207267Y0184141D01*
X0207267Y0186610D01*
X0207884Y0187227D01*
X0209118Y0187227D01*
X0209736Y0186610D01*
X0203767Y0202274D02*
X0203767Y0202891D01*
X0206236Y0205360D01*
X0206236Y0205977D01*
X0203767Y0205977D01*
X0202552Y0205360D02*
X0202552Y0204126D01*
X0201935Y0203508D01*
X0200084Y0203508D01*
X0200084Y0202274D02*
X0200084Y0205977D01*
X0201935Y0205977D01*
X0202552Y0205360D01*
X0201318Y0203508D02*
X0202552Y0202274D01*
X0196236Y0202891D02*
X0196236Y0203508D01*
X0195618Y0204126D01*
X0193767Y0204126D01*
X0193767Y0202891D01*
X0194384Y0202274D01*
X0195618Y0202274D01*
X0196236Y0202891D01*
X0195001Y0205360D02*
X0193767Y0204126D01*
X0192552Y0204126D02*
X0191935Y0203508D01*
X0190084Y0203508D01*
X0190084Y0202274D02*
X0190084Y0205977D01*
X0191935Y0205977D01*
X0192552Y0205360D01*
X0192552Y0204126D01*
X0191318Y0203508D02*
X0192552Y0202274D01*
X0195001Y0205360D02*
X0196236Y0205977D01*
X0186236Y0205977D02*
X0183767Y0205977D01*
X0183767Y0204126D01*
X0185001Y0204743D01*
X0185618Y0204743D01*
X0186236Y0204126D01*
X0186236Y0202891D01*
X0185618Y0202274D01*
X0184384Y0202274D01*
X0183767Y0202891D01*
X0182552Y0202274D02*
X0181318Y0203508D01*
X0181935Y0203508D02*
X0180084Y0203508D01*
X0180084Y0202274D02*
X0180084Y0205977D01*
X0181935Y0205977D01*
X0182552Y0205360D01*
X0182552Y0204126D01*
X0181935Y0203508D01*
X0151618Y0236024D02*
X0150384Y0236024D01*
X0149767Y0236641D01*
X0152236Y0239110D01*
X0152236Y0236641D01*
X0151618Y0236024D01*
X0149767Y0236641D02*
X0149767Y0239110D01*
X0150384Y0239727D01*
X0151618Y0239727D01*
X0152236Y0239110D01*
X0148552Y0239110D02*
X0148552Y0236641D01*
X0147935Y0236024D01*
X0146701Y0236024D01*
X0146084Y0236641D01*
X0148552Y0239110D01*
X0147935Y0239727D01*
X0146701Y0239727D01*
X0146084Y0239110D01*
X0146084Y0236641D01*
X0144869Y0236024D02*
X0142401Y0236024D01*
X0143635Y0236024D02*
X0143635Y0239727D01*
X0142401Y0238493D01*
X0143118Y0223477D02*
X0141267Y0221626D01*
X0143736Y0221626D01*
X0143118Y0223477D02*
X0143118Y0219774D01*
X0140052Y0219774D02*
X0138818Y0221008D01*
X0139435Y0221008D02*
X0137584Y0221008D01*
X0137584Y0219774D02*
X0137584Y0223477D01*
X0139435Y0223477D01*
X0140052Y0222860D01*
X0140052Y0221626D01*
X0139435Y0221008D01*
X0119736Y0221641D02*
X0119118Y0221024D01*
X0117884Y0221024D01*
X0117267Y0221641D01*
X0119736Y0224110D01*
X0119736Y0221641D01*
X0119736Y0224110D02*
X0119118Y0224727D01*
X0117884Y0224727D01*
X0117267Y0224110D01*
X0117267Y0221641D01*
X0116052Y0221641D02*
X0115435Y0221024D01*
X0114201Y0221024D01*
X0113584Y0221641D01*
X0116052Y0224110D01*
X0116052Y0221641D01*
X0113584Y0221641D02*
X0113584Y0224110D01*
X0114201Y0224727D01*
X0115435Y0224727D01*
X0116052Y0224110D01*
X0112369Y0221024D02*
X0109901Y0221024D01*
X0111135Y0221024D02*
X0111135Y0224727D01*
X0109901Y0223493D01*
X0110634Y0213477D02*
X0111868Y0213477D01*
X0112486Y0212860D01*
X0112486Y0212243D01*
X0111868Y0211626D01*
X0112486Y0211008D01*
X0112486Y0210391D01*
X0111868Y0209774D01*
X0110634Y0209774D01*
X0110017Y0210391D01*
X0110098Y0209645D02*
X0107630Y0209645D01*
X0107630Y0205941D01*
X0106415Y0205941D02*
X0106415Y0208410D01*
X0107630Y0207793D02*
X0108864Y0207793D01*
X0108802Y0209774D02*
X0107568Y0211008D01*
X0108185Y0211008D02*
X0106334Y0211008D01*
X0106334Y0209774D02*
X0106334Y0213477D01*
X0108185Y0213477D01*
X0108802Y0212860D01*
X0108802Y0211626D01*
X0108185Y0211008D01*
X0110017Y0212860D02*
X0110634Y0213477D01*
X0111251Y0211626D02*
X0111868Y0211626D01*
X0106415Y0205941D02*
X0104564Y0205941D01*
X0103946Y0206559D01*
X0103946Y0208410D01*
X0099049Y0209027D02*
X0096580Y0206559D01*
X0097197Y0205941D01*
X0098432Y0205941D01*
X0099049Y0206559D01*
X0099049Y0209027D01*
X0098432Y0209645D01*
X0097197Y0209645D01*
X0096580Y0209027D01*
X0096580Y0206559D01*
X0095366Y0206559D02*
X0095366Y0209027D01*
X0092897Y0206559D01*
X0093514Y0205941D01*
X0094748Y0205941D01*
X0095366Y0206559D01*
X0095366Y0209027D02*
X0094748Y0209645D01*
X0093514Y0209645D01*
X0092897Y0209027D01*
X0092897Y0206559D01*
X0091683Y0205941D02*
X0089214Y0205941D01*
X0090448Y0205941D02*
X0090448Y0209645D01*
X0089214Y0208410D01*
X0092331Y0198857D02*
X0091714Y0198240D01*
X0091714Y0195771D01*
X0092331Y0195154D01*
X0093565Y0195154D01*
X0094183Y0195771D01*
X0095397Y0195154D02*
X0097866Y0197623D01*
X0097866Y0198240D01*
X0097248Y0198857D01*
X0096014Y0198857D01*
X0095397Y0198240D01*
X0094183Y0198240D02*
X0093565Y0198857D01*
X0092331Y0198857D01*
X0095397Y0195154D02*
X0097866Y0195154D01*
X0074419Y0201376D02*
X0071950Y0201376D01*
X0072916Y0190110D02*
X0072916Y0187641D01*
X0074150Y0188876D02*
X0071681Y0188876D01*
X0071767Y0183227D02*
X0074236Y0183227D01*
X0073001Y0181376D02*
X0071767Y0181376D01*
X0070552Y0181993D02*
X0070552Y0179524D01*
X0068701Y0179524D01*
X0068084Y0180141D01*
X0068084Y0181993D01*
X0063186Y0179524D02*
X0060717Y0179524D01*
X0059493Y0179524D02*
X0058876Y0179524D01*
X0058876Y0180141D01*
X0059493Y0180141D01*
X0059493Y0179524D01*
X0057661Y0180141D02*
X0057044Y0179524D01*
X0055810Y0179524D01*
X0055193Y0180141D01*
X0057661Y0182610D01*
X0057661Y0180141D01*
X0055193Y0180141D02*
X0055193Y0182610D01*
X0055810Y0183227D01*
X0057044Y0183227D01*
X0057661Y0182610D01*
X0060717Y0181993D02*
X0061952Y0183227D01*
X0061952Y0179524D01*
X0063701Y0167727D02*
X0063084Y0167110D01*
X0063084Y0164641D01*
X0063701Y0164024D01*
X0064935Y0164024D01*
X0065552Y0164641D01*
X0066767Y0164024D02*
X0069236Y0164024D01*
X0068001Y0164024D02*
X0068001Y0167727D01*
X0066767Y0166493D01*
X0065552Y0167110D02*
X0064935Y0167727D01*
X0063701Y0167727D01*
X0071767Y0179524D02*
X0071767Y0183227D01*
X0062947Y0135560D02*
X0062947Y0133091D01*
X0066650Y0133091D01*
X0066650Y0131876D02*
X0064181Y0131876D01*
X0064798Y0133091D02*
X0064798Y0134325D01*
X0066650Y0131876D02*
X0066650Y0130025D01*
X0066033Y0129408D01*
X0064181Y0129408D01*
X0066650Y0124510D02*
X0066650Y0122041D01*
X0066650Y0120817D02*
X0066650Y0120200D01*
X0066033Y0120200D01*
X0066033Y0120817D01*
X0066650Y0120817D01*
X0066033Y0118985D02*
X0066650Y0118368D01*
X0066650Y0117134D01*
X0066033Y0116517D01*
X0063564Y0118985D01*
X0066033Y0118985D01*
X0066033Y0116517D02*
X0063564Y0116517D01*
X0062947Y0117134D01*
X0062947Y0118368D01*
X0063564Y0118985D01*
X0064181Y0122041D02*
X0062947Y0123276D01*
X0066650Y0123276D01*
X0070317Y0119727D02*
X0069700Y0119110D01*
X0069700Y0116641D01*
X0070317Y0116024D01*
X0071552Y0116024D01*
X0072169Y0116641D01*
X0073383Y0116641D02*
X0074000Y0116024D01*
X0075235Y0116024D01*
X0075852Y0116641D01*
X0075852Y0117258D01*
X0075235Y0117876D01*
X0073383Y0117876D01*
X0073383Y0116641D01*
X0073383Y0117876D02*
X0074618Y0119110D01*
X0075852Y0119727D01*
X0072169Y0119110D02*
X0071552Y0119727D01*
X0070317Y0119727D01*
X0026533Y0163024D02*
X0027150Y0163641D01*
X0027150Y0164876D01*
X0026533Y0165493D01*
X0025298Y0165493D01*
X0024681Y0164876D01*
X0024681Y0164258D01*
X0025298Y0163024D01*
X0023447Y0163024D01*
X0023447Y0165493D01*
X0024064Y0166707D02*
X0023447Y0167324D01*
X0023447Y0168559D01*
X0024064Y0169176D01*
X0026533Y0166707D01*
X0027150Y0167324D01*
X0027150Y0168559D01*
X0026533Y0169176D01*
X0024064Y0169176D01*
X0024064Y0170390D02*
X0023447Y0171007D01*
X0023447Y0172242D01*
X0024064Y0172859D01*
X0026533Y0170390D01*
X0027150Y0171007D01*
X0027150Y0172242D01*
X0026533Y0172859D01*
X0024064Y0172859D01*
X0024064Y0170390D02*
X0026533Y0170390D01*
X0026533Y0166707D02*
X0024064Y0166707D01*
X0010900Y0166493D02*
X0009666Y0165258D01*
X0009666Y0165876D02*
X0009666Y0164024D01*
X0010900Y0164024D02*
X0007197Y0164024D01*
X0007197Y0165876D01*
X0007814Y0166493D01*
X0009048Y0166493D01*
X0009666Y0165876D01*
X0010900Y0167707D02*
X0010900Y0170176D01*
X0010900Y0168942D02*
X0007197Y0168942D01*
X0008431Y0167707D01*
X0007814Y0171390D02*
X0007197Y0172007D01*
X0007197Y0173242D01*
X0007814Y0173859D01*
X0008431Y0173859D01*
X0009048Y0173242D01*
X0009666Y0173859D01*
X0010283Y0173859D01*
X0010900Y0173242D01*
X0010900Y0172007D01*
X0010283Y0171390D01*
X0009048Y0172625D02*
X0009048Y0173242D01*
X0010064Y0138310D02*
X0009447Y0137692D01*
X0009447Y0136458D01*
X0010064Y0135841D01*
X0010064Y0134626D02*
X0009447Y0134009D01*
X0009447Y0132158D01*
X0013150Y0132158D01*
X0013150Y0134009D01*
X0012533Y0134626D01*
X0010064Y0134626D01*
X0013150Y0135841D02*
X0010681Y0138310D01*
X0010064Y0138310D01*
X0013150Y0138310D02*
X0013150Y0135841D01*
X0013150Y0130943D02*
X0013150Y0128475D01*
X0009447Y0128475D01*
X0009447Y0130943D01*
X0011298Y0129709D02*
X0011298Y0128475D01*
X0013150Y0127260D02*
X0013150Y0124791D01*
X0009447Y0124791D01*
X0030681Y0250975D02*
X0029447Y0252209D01*
X0033150Y0252209D01*
X0033150Y0250975D02*
X0033150Y0253443D01*
X0032533Y0254658D02*
X0030064Y0257127D01*
X0032533Y0257127D01*
X0033150Y0256509D01*
X0033150Y0255275D01*
X0032533Y0254658D01*
X0030064Y0254658D01*
X0029447Y0255275D01*
X0029447Y0256509D01*
X0030064Y0257127D01*
X0030064Y0258341D02*
X0029447Y0258958D01*
X0029447Y0260192D01*
X0030064Y0260810D01*
X0032533Y0258341D01*
X0033150Y0258958D01*
X0033150Y0260192D01*
X0032533Y0260810D01*
X0030064Y0260810D01*
X0030064Y0258341D02*
X0032533Y0258341D01*
X0044447Y0258958D02*
X0044447Y0260192D01*
X0045064Y0260810D01*
X0045681Y0260810D01*
X0046298Y0260192D01*
X0046298Y0258958D01*
X0045681Y0258341D01*
X0045064Y0258341D01*
X0044447Y0258958D01*
X0046298Y0258958D02*
X0046916Y0258341D01*
X0047533Y0258341D01*
X0048150Y0258958D01*
X0048150Y0260192D01*
X0047533Y0260810D01*
X0046916Y0260810D01*
X0046298Y0260192D01*
X0046298Y0257127D02*
X0046916Y0256509D01*
X0046916Y0254658D01*
X0048150Y0254658D02*
X0044447Y0254658D01*
X0044447Y0256509D01*
X0045064Y0257127D01*
X0046298Y0257127D01*
X0046916Y0255892D02*
X0048150Y0257127D01*
X0022533Y0284658D02*
X0023150Y0285275D01*
X0023150Y0286509D01*
X0022533Y0287127D01*
X0019447Y0287127D01*
X0019447Y0288341D02*
X0021298Y0288341D01*
X0020681Y0289575D01*
X0020681Y0290192D01*
X0021298Y0290810D01*
X0022533Y0290810D01*
X0023150Y0290192D01*
X0023150Y0288958D01*
X0022533Y0288341D01*
X0019447Y0288341D02*
X0019447Y0290810D01*
X0019447Y0284658D02*
X0022533Y0284658D01*
X0059447Y0296108D02*
X0059447Y0298577D01*
X0059447Y0299791D02*
X0059447Y0301643D01*
X0060064Y0302260D01*
X0061298Y0302260D01*
X0061916Y0301643D01*
X0061916Y0299791D01*
X0063150Y0299791D02*
X0059447Y0299791D01*
X0059447Y0297343D02*
X0063150Y0297343D01*
X0061916Y0301026D02*
X0063150Y0302260D01*
X0063150Y0303475D02*
X0059447Y0303475D01*
X0059447Y0305326D01*
X0060064Y0305943D01*
X0061298Y0305943D01*
X0061916Y0305326D01*
X0061916Y0303475D01*
X0061916Y0304709D02*
X0063150Y0305943D01*
X0062533Y0307158D02*
X0063150Y0307775D01*
X0063150Y0309009D01*
X0062533Y0309626D01*
X0061916Y0309626D01*
X0061298Y0309009D01*
X0061298Y0307775D01*
X0060681Y0307158D01*
X0060064Y0307158D01*
X0059447Y0307775D01*
X0059447Y0309009D01*
X0060064Y0309626D01*
X0059447Y0310841D02*
X0061298Y0310841D01*
X0060681Y0312075D01*
X0060681Y0312692D01*
X0061298Y0313310D01*
X0062533Y0313310D01*
X0063150Y0312692D01*
X0063150Y0311458D01*
X0062533Y0310841D01*
X0059447Y0310841D02*
X0059447Y0313310D01*
X0084447Y0288310D02*
X0085064Y0287075D01*
X0086298Y0285841D01*
X0086298Y0287692D01*
X0086916Y0288310D01*
X0087533Y0288310D01*
X0088150Y0287692D01*
X0088150Y0286458D01*
X0087533Y0285841D01*
X0086298Y0285841D01*
X0087533Y0284627D02*
X0084447Y0284627D01*
X0084447Y0282158D02*
X0087533Y0282158D01*
X0088150Y0282775D01*
X0088150Y0284009D01*
X0087533Y0284627D01*
X0124447Y0296108D02*
X0124447Y0298577D01*
X0124447Y0299791D02*
X0124447Y0301643D01*
X0125064Y0302260D01*
X0126298Y0302260D01*
X0126916Y0301643D01*
X0126916Y0299791D01*
X0128150Y0299791D02*
X0124447Y0299791D01*
X0124447Y0297343D02*
X0128150Y0297343D01*
X0126916Y0301026D02*
X0128150Y0302260D01*
X0128150Y0303475D02*
X0124447Y0303475D01*
X0124447Y0305326D01*
X0125064Y0305943D01*
X0126298Y0305943D01*
X0126916Y0305326D01*
X0126916Y0303475D01*
X0126916Y0304709D02*
X0128150Y0305943D01*
X0127533Y0307158D02*
X0128150Y0307775D01*
X0128150Y0309009D01*
X0127533Y0309626D01*
X0126916Y0309626D01*
X0126298Y0309009D01*
X0126298Y0307775D01*
X0125681Y0307158D01*
X0125064Y0307158D01*
X0124447Y0307775D01*
X0124447Y0309009D01*
X0125064Y0309626D01*
X0126298Y0310841D02*
X0125064Y0312075D01*
X0124447Y0313310D01*
X0126298Y0312692D02*
X0126298Y0310841D01*
X0127533Y0310841D01*
X0128150Y0311458D01*
X0128150Y0312692D01*
X0127533Y0313310D01*
X0126916Y0313310D01*
X0126298Y0312692D01*
X0146576Y0282085D02*
X0148428Y0282085D01*
X0149045Y0281468D01*
X0149045Y0280234D01*
X0148428Y0279617D01*
X0146576Y0279617D01*
X0147810Y0279617D02*
X0149045Y0278382D01*
X0150259Y0278999D02*
X0150876Y0278382D01*
X0152111Y0278382D01*
X0152728Y0278999D01*
X0152728Y0280234D01*
X0151494Y0280234D01*
X0152728Y0281468D02*
X0152111Y0282085D01*
X0150876Y0282085D01*
X0150259Y0281468D01*
X0150259Y0278999D01*
X0146576Y0278382D02*
X0146576Y0282085D01*
X0153942Y0282085D02*
X0153942Y0278382D01*
X0155794Y0278382D01*
X0156411Y0278999D01*
X0156411Y0279617D01*
X0155794Y0280234D01*
X0153942Y0280234D01*
X0153942Y0282085D02*
X0155794Y0282085D01*
X0156411Y0281468D01*
X0156411Y0280851D01*
X0155794Y0280234D01*
X0157625Y0282085D02*
X0157625Y0278382D01*
X0160094Y0278382D01*
X0161309Y0278382D02*
X0163777Y0278382D01*
X0164992Y0278382D02*
X0164992Y0282085D01*
X0166843Y0282085D01*
X0167460Y0281468D01*
X0167460Y0278999D01*
X0166843Y0278382D01*
X0164992Y0278382D01*
X0162543Y0280234D02*
X0161309Y0280234D01*
X0161309Y0282085D02*
X0161309Y0278382D01*
X0161309Y0282085D02*
X0163777Y0282085D01*
X0168675Y0282085D02*
X0168675Y0280234D01*
X0169909Y0280851D01*
X0170526Y0280851D01*
X0171144Y0280234D01*
X0171144Y0278999D01*
X0170526Y0278382D01*
X0169292Y0278382D01*
X0168675Y0278999D01*
X0168675Y0282085D02*
X0171144Y0282085D01*
X0172358Y0281468D02*
X0172975Y0282085D01*
X0174210Y0282085D01*
X0174827Y0281468D01*
X0172358Y0278999D01*
X0172975Y0278382D01*
X0174210Y0278382D01*
X0174827Y0278999D01*
X0174827Y0281468D01*
X0176041Y0282085D02*
X0176041Y0280234D01*
X0177276Y0280851D01*
X0177893Y0280851D01*
X0178510Y0280234D01*
X0178510Y0278999D01*
X0177893Y0278382D01*
X0176658Y0278382D01*
X0176041Y0278999D01*
X0176041Y0282085D02*
X0178510Y0282085D01*
X0179724Y0281468D02*
X0180341Y0282085D01*
X0181576Y0282085D01*
X0182193Y0281468D01*
X0179724Y0278999D01*
X0180341Y0278382D01*
X0181576Y0278382D01*
X0182193Y0278999D01*
X0182193Y0281468D01*
X0179724Y0281468D02*
X0179724Y0278999D01*
X0172358Y0278999D02*
X0172358Y0281468D01*
X0185447Y0297024D02*
X0185447Y0298876D01*
X0186064Y0299493D01*
X0187298Y0299493D01*
X0187916Y0298876D01*
X0187916Y0297024D01*
X0189150Y0297024D02*
X0185447Y0297024D01*
X0187916Y0298258D02*
X0189150Y0299493D01*
X0189150Y0300707D02*
X0189150Y0303176D01*
X0189150Y0301942D02*
X0185447Y0301942D01*
X0186681Y0300707D01*
X0186064Y0304390D02*
X0185447Y0305007D01*
X0185447Y0306242D01*
X0186064Y0306859D01*
X0188533Y0304390D01*
X0189150Y0305007D01*
X0189150Y0306242D01*
X0188533Y0306859D01*
X0186064Y0306859D01*
X0186064Y0304390D02*
X0188533Y0304390D01*
X0200447Y0305758D02*
X0204150Y0305758D01*
X0204150Y0304524D02*
X0204150Y0306993D01*
X0205200Y0306477D02*
X0205200Y0302774D01*
X0205200Y0304008D02*
X0207052Y0304008D01*
X0207669Y0304626D01*
X0207669Y0305860D01*
X0207052Y0306477D01*
X0205200Y0306477D01*
X0203533Y0308207D02*
X0201064Y0310676D01*
X0203533Y0310676D01*
X0204150Y0310059D01*
X0204150Y0308824D01*
X0203533Y0308207D01*
X0201064Y0308207D01*
X0200447Y0308824D01*
X0200447Y0310059D01*
X0201064Y0310676D01*
X0201064Y0311890D02*
X0200447Y0312507D01*
X0200447Y0313742D01*
X0201064Y0314359D01*
X0203533Y0311890D01*
X0204150Y0312507D01*
X0204150Y0313742D01*
X0203533Y0314359D01*
X0201064Y0314359D01*
X0201064Y0311890D02*
X0203533Y0311890D01*
X0200447Y0305758D02*
X0201681Y0304524D01*
X0206434Y0304008D02*
X0207669Y0302774D01*
X0208883Y0302774D02*
X0211352Y0302774D01*
X0210118Y0302774D02*
X0210118Y0306477D01*
X0208883Y0305243D01*
X0220700Y0304477D02*
X0220700Y0301391D01*
X0221317Y0300774D01*
X0222552Y0300774D01*
X0223169Y0301391D01*
X0223169Y0304477D01*
X0224383Y0303860D02*
X0224383Y0303243D01*
X0225000Y0302626D01*
X0226235Y0302626D01*
X0226852Y0302008D01*
X0226852Y0301391D01*
X0226235Y0300774D01*
X0225000Y0300774D01*
X0224383Y0301391D01*
X0225618Y0300157D02*
X0225618Y0305094D01*
X0226235Y0304477D02*
X0226852Y0303860D01*
X0226235Y0304477D02*
X0225000Y0304477D01*
X0224383Y0303860D01*
X0228066Y0304477D02*
X0230535Y0304477D01*
X0230535Y0303860D01*
X0228066Y0301391D01*
X0228066Y0300774D01*
X0228834Y0300977D02*
X0230685Y0300977D01*
X0231302Y0300360D01*
X0231302Y0299126D01*
X0230685Y0298508D01*
X0228834Y0298508D01*
X0228834Y0297274D02*
X0228834Y0300977D01*
X0230068Y0298508D02*
X0231302Y0297274D01*
X0232517Y0297274D02*
X0234986Y0299743D01*
X0234986Y0300360D01*
X0234368Y0300977D01*
X0233134Y0300977D01*
X0232517Y0300360D01*
X0232517Y0297274D02*
X0234986Y0297274D01*
X0233467Y0285727D02*
X0232233Y0285727D01*
X0231616Y0285110D01*
X0231616Y0284493D01*
X0232233Y0283876D01*
X0233467Y0283876D01*
X0234084Y0283258D01*
X0234084Y0282641D01*
X0233467Y0282024D01*
X0232233Y0282024D01*
X0231616Y0282641D01*
X0231616Y0283258D01*
X0232233Y0283876D01*
X0233467Y0283876D02*
X0234084Y0284493D01*
X0234084Y0285110D01*
X0233467Y0285727D01*
X0235518Y0283477D02*
X0234901Y0282860D01*
X0235518Y0283477D02*
X0236752Y0283477D01*
X0237369Y0282860D01*
X0237369Y0282243D01*
X0234901Y0279774D01*
X0237369Y0279774D01*
X0238584Y0279774D02*
X0241052Y0282243D01*
X0241052Y0282860D01*
X0240435Y0283477D01*
X0239201Y0283477D01*
X0238584Y0282860D01*
X0238584Y0279774D02*
X0241052Y0279774D01*
X0242267Y0280391D02*
X0244736Y0282860D01*
X0244736Y0280391D01*
X0244118Y0279774D01*
X0242884Y0279774D01*
X0242267Y0280391D01*
X0242267Y0282860D01*
X0242884Y0283477D01*
X0244118Y0283477D01*
X0244736Y0282860D01*
X0250950Y0281110D02*
X0251567Y0281727D01*
X0252802Y0281727D01*
X0253419Y0281110D01*
X0253419Y0280493D01*
X0252802Y0279876D01*
X0253419Y0279258D01*
X0253419Y0278641D01*
X0252802Y0278024D01*
X0251567Y0278024D01*
X0250950Y0278641D01*
X0252184Y0279876D02*
X0252802Y0279876D01*
X0254633Y0278641D02*
X0255250Y0278641D01*
X0255250Y0278024D01*
X0254633Y0278024D01*
X0254633Y0278641D01*
X0256475Y0278641D02*
X0257092Y0278024D01*
X0258326Y0278024D01*
X0258943Y0278641D01*
X0258943Y0279258D01*
X0258326Y0279876D01*
X0257709Y0279876D01*
X0258326Y0279876D02*
X0258943Y0280493D01*
X0258943Y0281110D01*
X0258326Y0281727D01*
X0257092Y0281727D01*
X0256475Y0281110D01*
X0263841Y0280493D02*
X0263841Y0278641D01*
X0264458Y0278024D01*
X0266310Y0278024D01*
X0266310Y0280493D01*
X0267524Y0279876D02*
X0268759Y0279876D01*
X0269993Y0281727D02*
X0267524Y0281727D01*
X0267524Y0278024D01*
X0263533Y0257775D02*
X0262916Y0257775D01*
X0262298Y0257158D01*
X0262298Y0255306D01*
X0263533Y0255306D01*
X0264150Y0255923D01*
X0264150Y0257158D01*
X0263533Y0257775D01*
X0261064Y0256540D02*
X0262298Y0255306D01*
X0261064Y0256540D02*
X0260447Y0257775D01*
X0260447Y0252857D02*
X0264150Y0252857D01*
X0264150Y0251623D02*
X0264150Y0254092D01*
X0261681Y0251623D02*
X0260447Y0252857D01*
X0261064Y0250409D02*
X0263533Y0247940D01*
X0264150Y0248557D01*
X0264150Y0249791D01*
X0263533Y0250409D01*
X0261064Y0250409D01*
X0260447Y0249791D01*
X0260447Y0248557D01*
X0261064Y0247940D01*
X0263533Y0247940D01*
X0264150Y0246725D02*
X0264150Y0244257D01*
X0261681Y0246725D01*
X0261064Y0246725D01*
X0260447Y0246108D01*
X0260447Y0244874D01*
X0261064Y0244257D01*
X0261681Y0239359D02*
X0261681Y0237507D01*
X0262298Y0236890D01*
X0263533Y0236890D01*
X0264150Y0237507D01*
X0264150Y0239359D01*
X0262916Y0235676D02*
X0262298Y0235676D01*
X0261681Y0235059D01*
X0261681Y0233824D01*
X0262298Y0233207D01*
X0263533Y0233207D01*
X0264150Y0233824D01*
X0264150Y0235059D01*
X0262916Y0235676D02*
X0262916Y0233207D01*
X0263533Y0231993D02*
X0261064Y0231993D01*
X0260447Y0231376D01*
X0260447Y0229524D01*
X0264150Y0229524D01*
X0264150Y0231376D01*
X0263533Y0231993D01*
X0229784Y0282024D02*
X0228550Y0282024D01*
X0227933Y0282641D01*
X0226718Y0282024D02*
X0224249Y0282024D01*
X0225484Y0282024D02*
X0225484Y0285727D01*
X0224249Y0284493D01*
X0223035Y0285110D02*
X0222418Y0285727D01*
X0221183Y0285727D01*
X0220566Y0285110D01*
X0220566Y0284493D01*
X0221183Y0283876D01*
X0222418Y0283876D01*
X0223035Y0283258D01*
X0223035Y0282641D01*
X0222418Y0282024D01*
X0221183Y0282024D01*
X0220566Y0282641D01*
X0219352Y0282641D02*
X0218735Y0282024D01*
X0217500Y0282024D01*
X0216883Y0282641D01*
X0215669Y0282641D02*
X0215052Y0282024D01*
X0213200Y0282024D01*
X0213200Y0285727D01*
X0215052Y0285727D01*
X0215669Y0285110D01*
X0215669Y0284493D01*
X0215052Y0283876D01*
X0213200Y0283876D01*
X0215052Y0283876D02*
X0215669Y0283258D01*
X0215669Y0282641D01*
X0217500Y0283876D02*
X0218735Y0283876D01*
X0219352Y0283258D01*
X0219352Y0282641D01*
X0217500Y0283876D02*
X0216883Y0284493D01*
X0216883Y0285110D01*
X0217500Y0285727D01*
X0218735Y0285727D01*
X0219352Y0285110D01*
X0214102Y0290860D02*
X0211633Y0288391D01*
X0211633Y0287774D01*
X0209802Y0287774D02*
X0209802Y0291477D01*
X0207950Y0289626D01*
X0210419Y0289626D01*
X0211633Y0291477D02*
X0214102Y0291477D01*
X0214102Y0290860D01*
X0227933Y0285110D02*
X0228550Y0285727D01*
X0229784Y0285727D01*
X0230401Y0285110D01*
X0230401Y0284493D01*
X0229784Y0283876D01*
X0230401Y0283258D01*
X0230401Y0282641D01*
X0229784Y0282024D01*
X0229784Y0283876D02*
X0229167Y0283876D01*
X0200416Y0247610D02*
X0200416Y0245141D01*
X0201650Y0246376D02*
X0199181Y0246376D01*
X0199419Y0276376D02*
X0196950Y0276376D01*
X0168775Y0308441D02*
X0166307Y0308441D01*
X0167541Y0308441D02*
X0167541Y0312145D01*
X0166307Y0310910D01*
X0165092Y0311527D02*
X0165092Y0309059D01*
X0164475Y0308441D01*
X0162623Y0308441D01*
X0162623Y0312145D01*
X0164475Y0312145D01*
X0165092Y0311527D01*
X0161409Y0312145D02*
X0158940Y0312145D01*
X0158940Y0308441D01*
X0161409Y0308441D01*
X0160175Y0310293D02*
X0158940Y0310293D01*
X0157726Y0308441D02*
X0155257Y0308441D01*
X0155257Y0312145D01*
X0147493Y0141727D02*
X0145024Y0141727D01*
X0145024Y0138024D01*
X0143810Y0138024D02*
X0143810Y0140493D01*
X0145024Y0139876D02*
X0146259Y0139876D01*
X0143810Y0138024D02*
X0141958Y0138024D01*
X0141341Y0138641D01*
X0141341Y0140493D01*
X0136443Y0138024D02*
X0133975Y0138024D01*
X0132750Y0138024D02*
X0132133Y0138024D01*
X0132133Y0138641D01*
X0132750Y0138641D01*
X0132750Y0138024D01*
X0130919Y0138641D02*
X0130919Y0141110D01*
X0128450Y0138641D01*
X0129067Y0138024D01*
X0130302Y0138024D01*
X0130919Y0138641D01*
X0130919Y0141110D02*
X0130302Y0141727D01*
X0129067Y0141727D01*
X0128450Y0141110D01*
X0128450Y0138641D01*
X0133975Y0140493D02*
X0135209Y0141727D01*
X0135209Y0138024D01*
D11*
X0119300Y0135574D02*
X0119300Y0131374D01*
X0119300Y0127374D01*
X0119300Y0123174D01*
X0119298Y0123098D01*
X0119292Y0123022D01*
X0119283Y0122947D01*
X0119269Y0122872D01*
X0119252Y0122798D01*
X0119231Y0122725D01*
X0119207Y0122653D01*
X0119178Y0122582D01*
X0119147Y0122513D01*
X0119112Y0122446D01*
X0119073Y0122381D01*
X0119031Y0122317D01*
X0118986Y0122256D01*
X0118938Y0122197D01*
X0118887Y0122141D01*
X0118833Y0122087D01*
X0118777Y0122036D01*
X0118718Y0121988D01*
X0118657Y0121943D01*
X0118593Y0121901D01*
X0118528Y0121862D01*
X0118461Y0121827D01*
X0118392Y0121796D01*
X0118321Y0121767D01*
X0118249Y0121743D01*
X0118176Y0121722D01*
X0118102Y0121705D01*
X0118027Y0121691D01*
X0117952Y0121682D01*
X0117876Y0121676D01*
X0117800Y0121674D01*
X0119300Y0127374D02*
X0119212Y0127376D01*
X0119123Y0127382D01*
X0119035Y0127392D01*
X0118948Y0127405D01*
X0118861Y0127423D01*
X0118775Y0127444D01*
X0118690Y0127469D01*
X0118607Y0127498D01*
X0118524Y0127531D01*
X0118444Y0127567D01*
X0118365Y0127606D01*
X0118287Y0127649D01*
X0118212Y0127696D01*
X0118139Y0127746D01*
X0118068Y0127799D01*
X0117999Y0127855D01*
X0117933Y0127914D01*
X0117870Y0127976D01*
X0117810Y0128040D01*
X0117752Y0128107D01*
X0117698Y0128177D01*
X0117646Y0128249D01*
X0117598Y0128323D01*
X0117553Y0128400D01*
X0117512Y0128478D01*
X0117474Y0128558D01*
X0117440Y0128639D01*
X0117409Y0128722D01*
X0117382Y0128807D01*
X0117359Y0128892D01*
X0117340Y0128978D01*
X0117324Y0129066D01*
X0117312Y0129153D01*
X0117304Y0129241D01*
X0117300Y0129330D01*
X0117300Y0129418D01*
X0117304Y0129507D01*
X0117312Y0129595D01*
X0117324Y0129682D01*
X0117340Y0129770D01*
X0117359Y0129856D01*
X0117382Y0129941D01*
X0117409Y0130026D01*
X0117440Y0130109D01*
X0117474Y0130190D01*
X0117512Y0130270D01*
X0117553Y0130348D01*
X0117598Y0130425D01*
X0117646Y0130499D01*
X0117698Y0130571D01*
X0117752Y0130641D01*
X0117810Y0130708D01*
X0117870Y0130772D01*
X0117933Y0130834D01*
X0117999Y0130893D01*
X0118068Y0130949D01*
X0118139Y0131002D01*
X0118212Y0131052D01*
X0118287Y0131099D01*
X0118365Y0131142D01*
X0118444Y0131181D01*
X0118524Y0131217D01*
X0118607Y0131250D01*
X0118690Y0131279D01*
X0118775Y0131304D01*
X0118861Y0131325D01*
X0118948Y0131343D01*
X0119035Y0131356D01*
X0119123Y0131366D01*
X0119212Y0131372D01*
X0119300Y0131374D01*
X0119300Y0135574D02*
X0119298Y0135650D01*
X0119292Y0135726D01*
X0119283Y0135801D01*
X0119269Y0135876D01*
X0119252Y0135950D01*
X0119231Y0136023D01*
X0119207Y0136095D01*
X0119178Y0136166D01*
X0119147Y0136235D01*
X0119112Y0136302D01*
X0119073Y0136367D01*
X0119031Y0136431D01*
X0118986Y0136492D01*
X0118938Y0136551D01*
X0118887Y0136607D01*
X0118833Y0136661D01*
X0118777Y0136712D01*
X0118718Y0136760D01*
X0118657Y0136805D01*
X0118593Y0136847D01*
X0118528Y0136886D01*
X0118461Y0136921D01*
X0118392Y0136952D01*
X0118321Y0136981D01*
X0118249Y0137005D01*
X0118176Y0137026D01*
X0118102Y0137043D01*
X0118027Y0137057D01*
X0117952Y0137066D01*
X0117876Y0137072D01*
X0117800Y0137074D01*
X0133100Y0161874D02*
X0137300Y0161874D01*
X0141300Y0161874D01*
X0145500Y0161874D01*
X0145576Y0161876D01*
X0145652Y0161882D01*
X0145727Y0161891D01*
X0145802Y0161905D01*
X0145876Y0161922D01*
X0145949Y0161943D01*
X0146021Y0161967D01*
X0146092Y0161996D01*
X0146161Y0162027D01*
X0146228Y0162062D01*
X0146293Y0162101D01*
X0146357Y0162143D01*
X0146418Y0162188D01*
X0146477Y0162236D01*
X0146533Y0162287D01*
X0146587Y0162341D01*
X0146638Y0162397D01*
X0146686Y0162456D01*
X0146731Y0162517D01*
X0146773Y0162581D01*
X0146812Y0162646D01*
X0146847Y0162713D01*
X0146878Y0162782D01*
X0146907Y0162853D01*
X0146931Y0162925D01*
X0146952Y0162998D01*
X0146969Y0163072D01*
X0146983Y0163147D01*
X0146992Y0163222D01*
X0146998Y0163298D01*
X0147000Y0163374D01*
X0141300Y0161874D02*
X0141298Y0161962D01*
X0141292Y0162051D01*
X0141282Y0162139D01*
X0141269Y0162226D01*
X0141251Y0162313D01*
X0141230Y0162399D01*
X0141205Y0162484D01*
X0141176Y0162567D01*
X0141143Y0162650D01*
X0141107Y0162730D01*
X0141068Y0162809D01*
X0141025Y0162887D01*
X0140978Y0162962D01*
X0140928Y0163035D01*
X0140875Y0163106D01*
X0140819Y0163175D01*
X0140760Y0163241D01*
X0140698Y0163304D01*
X0140634Y0163364D01*
X0140567Y0163422D01*
X0140497Y0163476D01*
X0140425Y0163528D01*
X0140351Y0163576D01*
X0140274Y0163621D01*
X0140196Y0163662D01*
X0140116Y0163700D01*
X0140035Y0163734D01*
X0139952Y0163765D01*
X0139867Y0163792D01*
X0139782Y0163815D01*
X0139696Y0163834D01*
X0139608Y0163850D01*
X0139521Y0163862D01*
X0139433Y0163870D01*
X0139344Y0163874D01*
X0139256Y0163874D01*
X0139167Y0163870D01*
X0139079Y0163862D01*
X0138992Y0163850D01*
X0138904Y0163834D01*
X0138818Y0163815D01*
X0138733Y0163792D01*
X0138648Y0163765D01*
X0138565Y0163734D01*
X0138484Y0163700D01*
X0138404Y0163662D01*
X0138326Y0163621D01*
X0138249Y0163576D01*
X0138175Y0163528D01*
X0138103Y0163476D01*
X0138033Y0163422D01*
X0137966Y0163364D01*
X0137902Y0163304D01*
X0137840Y0163241D01*
X0137781Y0163175D01*
X0137725Y0163106D01*
X0137672Y0163035D01*
X0137622Y0162962D01*
X0137575Y0162887D01*
X0137532Y0162809D01*
X0137493Y0162730D01*
X0137457Y0162650D01*
X0137424Y0162567D01*
X0137395Y0162484D01*
X0137370Y0162399D01*
X0137349Y0162313D01*
X0137331Y0162226D01*
X0137318Y0162139D01*
X0137308Y0162051D01*
X0137302Y0161962D01*
X0137300Y0161874D01*
X0133100Y0161874D02*
X0133024Y0161876D01*
X0132948Y0161882D01*
X0132873Y0161891D01*
X0132798Y0161905D01*
X0132724Y0161922D01*
X0132651Y0161943D01*
X0132579Y0161967D01*
X0132508Y0161996D01*
X0132439Y0162027D01*
X0132372Y0162062D01*
X0132307Y0162101D01*
X0132243Y0162143D01*
X0132182Y0162188D01*
X0132123Y0162236D01*
X0132067Y0162287D01*
X0132013Y0162341D01*
X0131962Y0162397D01*
X0131914Y0162456D01*
X0131869Y0162517D01*
X0131827Y0162581D01*
X0131788Y0162646D01*
X0131753Y0162713D01*
X0131722Y0162782D01*
X0131693Y0162853D01*
X0131669Y0162925D01*
X0131648Y0162998D01*
X0131631Y0163072D01*
X0131617Y0163147D01*
X0131608Y0163222D01*
X0131602Y0163298D01*
X0131600Y0163374D01*
X0131600Y0200374D02*
X0131602Y0200450D01*
X0131608Y0200526D01*
X0131617Y0200601D01*
X0131631Y0200676D01*
X0131648Y0200750D01*
X0131669Y0200823D01*
X0131693Y0200895D01*
X0131722Y0200966D01*
X0131753Y0201035D01*
X0131788Y0201102D01*
X0131827Y0201167D01*
X0131869Y0201231D01*
X0131914Y0201292D01*
X0131962Y0201351D01*
X0132013Y0201407D01*
X0132067Y0201461D01*
X0132123Y0201512D01*
X0132182Y0201560D01*
X0132243Y0201605D01*
X0132307Y0201647D01*
X0132372Y0201686D01*
X0132439Y0201721D01*
X0132508Y0201752D01*
X0132579Y0201781D01*
X0132651Y0201805D01*
X0132724Y0201826D01*
X0132798Y0201843D01*
X0132873Y0201857D01*
X0132948Y0201866D01*
X0133024Y0201872D01*
X0133100Y0201874D01*
X0145500Y0201874D01*
X0145576Y0201872D01*
X0145652Y0201866D01*
X0145727Y0201857D01*
X0145802Y0201843D01*
X0145876Y0201826D01*
X0145949Y0201805D01*
X0146021Y0201781D01*
X0146092Y0201752D01*
X0146161Y0201721D01*
X0146228Y0201686D01*
X0146293Y0201647D01*
X0146357Y0201605D01*
X0146418Y0201560D01*
X0146477Y0201512D01*
X0146533Y0201461D01*
X0146587Y0201407D01*
X0146638Y0201351D01*
X0146686Y0201292D01*
X0146731Y0201231D01*
X0146773Y0201167D01*
X0146812Y0201102D01*
X0146847Y0201035D01*
X0146878Y0200966D01*
X0146907Y0200895D01*
X0146931Y0200823D01*
X0146952Y0200750D01*
X0146969Y0200676D01*
X0146983Y0200601D01*
X0146992Y0200526D01*
X0146998Y0200450D01*
X0147000Y0200374D01*
X0142981Y0227012D02*
X0140619Y0227012D01*
X0140619Y0231736D02*
X0142981Y0231736D01*
X0134320Y0232110D02*
X0109280Y0232110D01*
X0109280Y0266539D01*
X0132288Y0266539D01*
X0132288Y0232504D01*
X0134320Y0232110D02*
X0134320Y0266539D01*
X0132288Y0266539D01*
X0110481Y0219236D02*
X0108119Y0219236D01*
X0108119Y0214512D02*
X0110481Y0214512D01*
X0086820Y0212110D02*
X0061780Y0212110D01*
X0061780Y0246539D01*
X0084788Y0246539D01*
X0084788Y0212504D01*
X0086820Y0212110D02*
X0086820Y0246539D01*
X0084788Y0246539D01*
X0065823Y0233577D02*
X0063555Y0233577D01*
X0063555Y0230174D01*
X0062140Y0230174D02*
X0059872Y0230174D01*
X0059872Y0233577D01*
X0062140Y0233577D01*
X0061006Y0231875D02*
X0059872Y0231875D01*
X0058457Y0231875D02*
X0057890Y0231308D01*
X0056189Y0231308D01*
X0057323Y0231308D02*
X0058457Y0230174D01*
X0058457Y0231875D02*
X0058457Y0233010D01*
X0057890Y0233577D01*
X0056189Y0233577D01*
X0056189Y0230174D01*
X0054774Y0230741D02*
X0054774Y0233010D01*
X0054207Y0233577D01*
X0053073Y0233577D01*
X0052505Y0233010D01*
X0052505Y0230741D01*
X0053073Y0230174D01*
X0054207Y0230174D01*
X0054774Y0230741D01*
X0051184Y0230174D02*
X0050050Y0230174D01*
X0050617Y0230174D02*
X0050617Y0233577D01*
X0050050Y0233577D02*
X0051184Y0233577D01*
X0051751Y0223577D02*
X0052319Y0223010D01*
X0052319Y0221875D01*
X0051751Y0221308D01*
X0050050Y0221308D01*
X0050050Y0220174D02*
X0050050Y0223577D01*
X0051751Y0223577D01*
X0053733Y0223010D02*
X0053733Y0222443D01*
X0054300Y0221875D01*
X0055435Y0221875D01*
X0056002Y0221308D01*
X0056002Y0220741D01*
X0055435Y0220174D01*
X0054300Y0220174D01*
X0053733Y0220741D01*
X0052319Y0220174D02*
X0051184Y0221308D01*
X0053733Y0223010D02*
X0054300Y0223577D01*
X0055435Y0223577D01*
X0056002Y0223010D01*
X0057416Y0223577D02*
X0059685Y0223577D01*
X0058551Y0223577D02*
X0058551Y0220174D01*
X0059825Y0213577D02*
X0060959Y0213577D01*
X0061526Y0213010D01*
X0061526Y0212443D01*
X0060959Y0211875D01*
X0061526Y0211308D01*
X0061526Y0210741D01*
X0060959Y0210174D01*
X0059825Y0210174D01*
X0059258Y0210741D01*
X0057983Y0210741D02*
X0057983Y0210174D01*
X0057416Y0210174D01*
X0057416Y0210741D01*
X0057983Y0210741D01*
X0056002Y0210741D02*
X0055435Y0210174D01*
X0054300Y0210174D01*
X0053733Y0210741D01*
X0054867Y0211875D02*
X0055435Y0211875D01*
X0056002Y0211308D01*
X0056002Y0210741D01*
X0055435Y0211875D02*
X0056002Y0212443D01*
X0056002Y0213010D01*
X0055435Y0213577D01*
X0054300Y0213577D01*
X0053733Y0213010D01*
X0052319Y0211875D02*
X0050050Y0211875D01*
X0051184Y0210741D02*
X0051184Y0213010D01*
X0059258Y0213010D02*
X0059825Y0213577D01*
X0060392Y0211875D02*
X0060959Y0211875D01*
X0062941Y0211308D02*
X0062941Y0213577D01*
X0065210Y0213577D02*
X0065210Y0211308D01*
X0064075Y0210174D01*
X0062941Y0211308D01*
X0059685Y0203577D02*
X0059685Y0201308D01*
X0058551Y0200174D01*
X0057416Y0201308D01*
X0057416Y0203577D01*
X0056002Y0203577D02*
X0053733Y0203577D01*
X0053733Y0201875D01*
X0054867Y0202443D01*
X0055435Y0202443D01*
X0056002Y0201875D01*
X0056002Y0200741D01*
X0055435Y0200174D01*
X0054300Y0200174D01*
X0053733Y0200741D01*
X0052319Y0201875D02*
X0050050Y0201875D01*
X0051184Y0200741D02*
X0051184Y0203010D01*
X0050617Y0193577D02*
X0050050Y0193010D01*
X0050050Y0190741D01*
X0050617Y0190174D01*
X0051751Y0190174D01*
X0052319Y0190741D01*
X0052319Y0191875D01*
X0051184Y0191875D01*
X0052319Y0193010D02*
X0051751Y0193577D01*
X0050617Y0193577D01*
X0053733Y0193577D02*
X0053733Y0190174D01*
X0056002Y0190174D02*
X0053733Y0193577D01*
X0056002Y0193577D02*
X0056002Y0190174D01*
X0057416Y0190174D02*
X0059118Y0190174D01*
X0059685Y0190741D01*
X0059685Y0193010D01*
X0059118Y0193577D01*
X0057416Y0193577D01*
X0057416Y0190174D01*
X0057416Y0183577D02*
X0059118Y0183577D01*
X0059685Y0183010D01*
X0059685Y0180741D01*
X0059118Y0180174D01*
X0057416Y0180174D01*
X0057416Y0183577D01*
X0056002Y0183577D02*
X0056002Y0180174D01*
X0053733Y0183577D01*
X0053733Y0180174D01*
X0052319Y0180741D02*
X0052319Y0181875D01*
X0051184Y0181875D01*
X0050050Y0180741D02*
X0050617Y0180174D01*
X0051751Y0180174D01*
X0052319Y0180741D01*
X0052319Y0183010D02*
X0051751Y0183577D01*
X0050617Y0183577D01*
X0050050Y0183010D01*
X0050050Y0180741D01*
X0050050Y0173577D02*
X0050050Y0171308D01*
X0051184Y0170174D01*
X0052319Y0171308D01*
X0052319Y0173577D01*
X0053733Y0173577D02*
X0054867Y0173577D01*
X0054300Y0173577D02*
X0054300Y0170174D01*
X0053733Y0170174D02*
X0054867Y0170174D01*
X0056189Y0170174D02*
X0056189Y0173577D01*
X0058457Y0170174D01*
X0058457Y0173577D01*
X0051751Y0153577D02*
X0052319Y0153010D01*
X0050050Y0150741D01*
X0050617Y0150174D01*
X0051751Y0150174D01*
X0052319Y0150741D01*
X0052319Y0153010D01*
X0051751Y0153577D02*
X0050617Y0153577D01*
X0050050Y0153010D01*
X0050050Y0150741D01*
X0051184Y0143577D02*
X0051184Y0140174D01*
X0050050Y0140174D02*
X0052319Y0140174D01*
X0050050Y0142443D02*
X0051184Y0143577D01*
X0057181Y0140385D02*
X0057181Y0138684D01*
X0059450Y0138684D01*
X0059450Y0137363D02*
X0059450Y0136228D01*
X0059450Y0136795D02*
X0056047Y0136795D01*
X0056047Y0136228D02*
X0056047Y0137363D01*
X0057181Y0140385D02*
X0057749Y0140952D01*
X0059450Y0140952D01*
X0051751Y0133577D02*
X0052319Y0133010D01*
X0052319Y0132443D01*
X0050050Y0130174D01*
X0052319Y0130174D01*
X0051751Y0133577D02*
X0050617Y0133577D01*
X0050050Y0133010D01*
X0057181Y0131131D02*
X0057181Y0129429D01*
X0057749Y0128862D01*
X0058883Y0128862D01*
X0059450Y0129429D01*
X0059450Y0131131D01*
X0060017Y0131131D02*
X0057181Y0131131D01*
X0060017Y0131131D02*
X0060584Y0130563D01*
X0060584Y0129996D01*
X0058883Y0127447D02*
X0057749Y0127447D01*
X0057181Y0126880D01*
X0057181Y0125746D01*
X0057749Y0125179D01*
X0058883Y0125179D01*
X0059450Y0125746D01*
X0059450Y0126880D01*
X0058883Y0127447D01*
X0059450Y0123858D02*
X0059450Y0122723D01*
X0059450Y0123291D02*
X0056047Y0123291D01*
X0056047Y0122723D01*
X0057749Y0121309D02*
X0057181Y0120742D01*
X0057181Y0119607D01*
X0058316Y0119607D02*
X0058316Y0121309D01*
X0057749Y0121309D02*
X0059450Y0121309D01*
X0059450Y0119607D01*
X0058883Y0119040D01*
X0058316Y0119607D01*
X0057749Y0117626D02*
X0059450Y0117626D01*
X0057749Y0117626D02*
X0057181Y0117059D01*
X0057181Y0115357D01*
X0059450Y0115357D01*
X0059450Y0113943D02*
X0057181Y0113943D01*
X0056047Y0112808D01*
X0057181Y0111674D01*
X0059450Y0111674D01*
X0057749Y0111674D02*
X0057749Y0113943D01*
X0052319Y0111875D02*
X0050050Y0111875D01*
X0051751Y0113577D01*
X0051751Y0110174D01*
X0052319Y0103577D02*
X0050050Y0103577D01*
X0050050Y0101875D01*
X0051184Y0102443D01*
X0051751Y0102443D01*
X0052319Y0101875D01*
X0052319Y0100741D01*
X0051751Y0100174D01*
X0050617Y0100174D01*
X0050050Y0100741D01*
X0050617Y0120174D02*
X0050050Y0120741D01*
X0050617Y0120174D02*
X0051751Y0120174D01*
X0052319Y0120741D01*
X0052319Y0121308D01*
X0051751Y0121875D01*
X0051184Y0121875D01*
X0051751Y0121875D02*
X0052319Y0122443D01*
X0052319Y0123010D01*
X0051751Y0123577D01*
X0050617Y0123577D01*
X0050050Y0123010D01*
X0079300Y0123174D02*
X0079300Y0135574D01*
X0079302Y0135650D01*
X0079308Y0135726D01*
X0079317Y0135801D01*
X0079331Y0135876D01*
X0079348Y0135950D01*
X0079369Y0136023D01*
X0079393Y0136095D01*
X0079422Y0136166D01*
X0079453Y0136235D01*
X0079488Y0136302D01*
X0079527Y0136367D01*
X0079569Y0136431D01*
X0079614Y0136492D01*
X0079662Y0136551D01*
X0079713Y0136607D01*
X0079767Y0136661D01*
X0079823Y0136712D01*
X0079882Y0136760D01*
X0079943Y0136805D01*
X0080007Y0136847D01*
X0080072Y0136886D01*
X0080139Y0136921D01*
X0080208Y0136952D01*
X0080279Y0136981D01*
X0080351Y0137005D01*
X0080424Y0137026D01*
X0080498Y0137043D01*
X0080573Y0137057D01*
X0080648Y0137066D01*
X0080724Y0137072D01*
X0080800Y0137074D01*
X0079300Y0123174D02*
X0079302Y0123098D01*
X0079308Y0123022D01*
X0079317Y0122947D01*
X0079331Y0122872D01*
X0079348Y0122798D01*
X0079369Y0122725D01*
X0079393Y0122653D01*
X0079422Y0122582D01*
X0079453Y0122513D01*
X0079488Y0122446D01*
X0079527Y0122381D01*
X0079569Y0122317D01*
X0079614Y0122256D01*
X0079662Y0122197D01*
X0079713Y0122141D01*
X0079767Y0122087D01*
X0079823Y0122036D01*
X0079882Y0121988D01*
X0079943Y0121943D01*
X0080007Y0121901D01*
X0080072Y0121862D01*
X0080139Y0121827D01*
X0080208Y0121796D01*
X0080279Y0121767D01*
X0080351Y0121743D01*
X0080424Y0121722D01*
X0080498Y0121705D01*
X0080573Y0121691D01*
X0080648Y0121682D01*
X0080724Y0121676D01*
X0080800Y0121674D01*
X0019162Y0165693D02*
X0019162Y0168055D01*
X0014438Y0168055D02*
X0014438Y0165693D01*
X0014300Y0176874D02*
X0009300Y0176874D01*
X0006800Y0179374D01*
X0006800Y0184374D01*
X0009300Y0186874D01*
X0006800Y0189374D01*
X0006800Y0194374D01*
X0009300Y0196874D01*
X0006800Y0199374D01*
X0006800Y0204374D01*
X0009300Y0206874D01*
X0014300Y0206874D01*
X0016800Y0204374D01*
X0016800Y0199374D01*
X0014300Y0196874D01*
X0016800Y0194374D01*
X0016800Y0189374D01*
X0014300Y0186874D01*
X0016800Y0184374D01*
X0016800Y0179374D01*
X0014300Y0176874D01*
X0014300Y0186874D02*
X0009300Y0186874D01*
X0009300Y0196874D02*
X0014300Y0196874D01*
X0063555Y0231875D02*
X0064689Y0231875D01*
X0161800Y0089374D02*
X0166800Y0089374D01*
X0169300Y0086874D01*
X0171800Y0089374D01*
X0176800Y0089374D01*
X0179300Y0086874D01*
X0181800Y0089374D01*
X0186800Y0089374D01*
X0189300Y0086874D01*
X0191800Y0089374D01*
X0196800Y0089374D01*
X0199300Y0086874D01*
X0201800Y0089374D01*
X0206800Y0089374D01*
X0209300Y0086874D01*
X0211800Y0089374D01*
X0216800Y0089374D01*
X0219300Y0086874D01*
X0219300Y0081874D01*
X0216800Y0079374D01*
X0211800Y0079374D01*
X0209300Y0081874D01*
X0206800Y0079374D01*
X0201800Y0079374D01*
X0199300Y0081874D01*
X0199300Y0086874D01*
X0199300Y0081874D02*
X0196800Y0079374D01*
X0191800Y0079374D01*
X0189300Y0081874D01*
X0186800Y0079374D01*
X0181800Y0079374D01*
X0179300Y0081874D01*
X0176800Y0079374D01*
X0171800Y0079374D01*
X0169300Y0081874D01*
X0166800Y0079374D01*
X0161800Y0079374D01*
X0159300Y0081874D01*
X0159300Y0086874D01*
X0161800Y0089374D01*
X0169300Y0086874D02*
X0169300Y0081874D01*
X0179300Y0081874D02*
X0179300Y0086874D01*
X0189300Y0086874D02*
X0189300Y0081874D01*
X0209300Y0081874D02*
X0209300Y0086874D01*
X0222234Y0100174D02*
X0222234Y0103577D01*
X0223935Y0103577D01*
X0224502Y0103010D01*
X0224502Y0101875D01*
X0223935Y0101308D01*
X0222234Y0101308D01*
X0223368Y0101308D02*
X0224502Y0100174D01*
X0225917Y0100174D02*
X0228185Y0103577D01*
X0225917Y0103577D02*
X0228185Y0100174D01*
X0228185Y0110174D02*
X0225917Y0113577D01*
X0224502Y0113577D02*
X0222234Y0113577D01*
X0223368Y0113577D02*
X0223368Y0110174D01*
X0225917Y0110174D02*
X0228185Y0113577D01*
X0228185Y0120174D02*
X0225917Y0120174D01*
X0228185Y0122443D01*
X0228185Y0123010D01*
X0227618Y0123577D01*
X0226484Y0123577D01*
X0225917Y0123010D01*
X0226484Y0130174D02*
X0225917Y0130741D01*
X0226484Y0130174D02*
X0227618Y0130174D01*
X0228185Y0130741D01*
X0228185Y0131308D01*
X0227618Y0131875D01*
X0227051Y0131875D01*
X0227618Y0131875D02*
X0228185Y0132443D01*
X0228185Y0133010D01*
X0227618Y0133577D01*
X0226484Y0133577D01*
X0225917Y0133010D01*
X0227618Y0140174D02*
X0227618Y0143577D01*
X0225917Y0141875D01*
X0228185Y0141875D01*
X0227618Y0150174D02*
X0226484Y0150174D01*
X0225917Y0150741D01*
X0225917Y0151875D02*
X0227051Y0152443D01*
X0227618Y0152443D01*
X0228185Y0151875D01*
X0228185Y0150741D01*
X0227618Y0150174D01*
X0225917Y0151875D02*
X0225917Y0153577D01*
X0228185Y0153577D01*
X0227618Y0160174D02*
X0226484Y0160174D01*
X0225917Y0160741D01*
X0225917Y0161875D01*
X0227618Y0161875D01*
X0228185Y0161308D01*
X0228185Y0160741D01*
X0227618Y0160174D01*
X0225917Y0161875D02*
X0227051Y0163010D01*
X0228185Y0163577D01*
X0225917Y0170174D02*
X0225917Y0170741D01*
X0228185Y0173010D01*
X0228185Y0173577D01*
X0225917Y0173577D01*
X0226484Y0185174D02*
X0225917Y0185741D01*
X0225917Y0186308D01*
X0226484Y0186875D01*
X0227618Y0186875D01*
X0228185Y0186308D01*
X0228185Y0185741D01*
X0227618Y0185174D01*
X0226484Y0185174D01*
X0226484Y0186875D02*
X0225917Y0187443D01*
X0225917Y0188010D01*
X0226484Y0188577D01*
X0227618Y0188577D01*
X0228185Y0188010D01*
X0228185Y0187443D01*
X0227618Y0186875D01*
X0227618Y0195174D02*
X0226484Y0195174D01*
X0225917Y0195741D01*
X0226484Y0196875D02*
X0228185Y0196875D01*
X0228185Y0195741D02*
X0228185Y0198010D01*
X0227618Y0198577D01*
X0226484Y0198577D01*
X0225917Y0198010D01*
X0225917Y0197443D01*
X0226484Y0196875D01*
X0227618Y0195174D02*
X0228185Y0195741D01*
X0227618Y0205174D02*
X0226484Y0205174D01*
X0225917Y0205741D01*
X0228185Y0208010D01*
X0228185Y0205741D01*
X0227618Y0205174D01*
X0225917Y0205741D02*
X0225917Y0208010D01*
X0226484Y0208577D01*
X0227618Y0208577D01*
X0228185Y0208010D01*
X0224502Y0205174D02*
X0222234Y0205174D01*
X0223368Y0205174D02*
X0223368Y0208577D01*
X0222234Y0207443D01*
X0222234Y0215174D02*
X0224502Y0215174D01*
X0223368Y0215174D02*
X0223368Y0218577D01*
X0222234Y0217443D01*
X0225917Y0217443D02*
X0227051Y0218577D01*
X0227051Y0215174D01*
X0225917Y0215174D02*
X0228185Y0215174D01*
X0228185Y0225174D02*
X0225917Y0225174D01*
X0228185Y0227443D01*
X0228185Y0228010D01*
X0227618Y0228577D01*
X0226484Y0228577D01*
X0225917Y0228010D01*
X0223368Y0228577D02*
X0223368Y0225174D01*
X0222234Y0225174D02*
X0224502Y0225174D01*
X0222234Y0227443D02*
X0223368Y0228577D01*
X0223368Y0235174D02*
X0223368Y0238577D01*
X0222234Y0237443D01*
X0222234Y0235174D02*
X0224502Y0235174D01*
X0225917Y0235741D02*
X0226484Y0235174D01*
X0227618Y0235174D01*
X0228185Y0235741D01*
X0228185Y0236308D01*
X0227618Y0236875D01*
X0227051Y0236875D01*
X0227618Y0236875D02*
X0228185Y0237443D01*
X0228185Y0238010D01*
X0227618Y0238577D01*
X0226484Y0238577D01*
X0225917Y0238010D01*
X0225917Y0245174D02*
X0227618Y0245174D01*
X0228185Y0245741D01*
X0228185Y0248010D01*
X0227618Y0248577D01*
X0225917Y0248577D01*
X0225917Y0245174D01*
X0224502Y0245174D02*
X0224502Y0248577D01*
X0222234Y0248577D02*
X0222234Y0245174D01*
X0220819Y0245741D02*
X0220819Y0246875D01*
X0219685Y0246875D01*
X0220819Y0245741D02*
X0220252Y0245174D01*
X0219118Y0245174D01*
X0218551Y0245741D01*
X0218551Y0248010D01*
X0219118Y0248577D01*
X0220252Y0248577D01*
X0220819Y0248010D01*
X0222234Y0248577D02*
X0224502Y0245174D01*
X0224502Y0255174D02*
X0222234Y0255174D01*
X0222234Y0258577D01*
X0224502Y0258577D01*
X0225917Y0258577D02*
X0228185Y0258577D01*
X0227051Y0256875D02*
X0225917Y0256875D01*
X0225917Y0255174D02*
X0225917Y0258577D01*
X0223368Y0256875D02*
X0222234Y0256875D01*
X0220819Y0256875D02*
X0220819Y0258010D01*
X0220252Y0258577D01*
X0218551Y0258577D01*
X0218551Y0255174D01*
X0218551Y0256308D02*
X0220252Y0256308D01*
X0220819Y0256875D01*
X0219685Y0256308D02*
X0220819Y0255174D01*
X0217136Y0255174D02*
X0217136Y0257443D01*
X0216002Y0258577D01*
X0214867Y0257443D01*
X0214867Y0255174D01*
X0214867Y0256875D02*
X0217136Y0256875D01*
X0219118Y0265174D02*
X0218551Y0265741D01*
X0219118Y0265174D02*
X0220252Y0265174D01*
X0220819Y0265741D01*
X0220819Y0266308D01*
X0220252Y0266875D01*
X0219118Y0266875D01*
X0218551Y0267443D01*
X0218551Y0268010D01*
X0219118Y0268577D01*
X0220252Y0268577D01*
X0220819Y0268010D01*
X0222234Y0268577D02*
X0222234Y0265174D01*
X0223935Y0265174D01*
X0224502Y0265741D01*
X0224502Y0268010D01*
X0223935Y0268577D01*
X0222234Y0268577D01*
X0225917Y0267443D02*
X0225917Y0265174D01*
X0225917Y0266875D02*
X0228185Y0266875D01*
X0228185Y0267443D02*
X0228185Y0265174D01*
X0228185Y0267443D02*
X0227051Y0268577D01*
X0225917Y0267443D01*
X0225917Y0275174D02*
X0228185Y0275174D01*
X0225917Y0275174D02*
X0225917Y0278577D01*
X0224502Y0278010D02*
X0223935Y0278577D01*
X0222801Y0278577D01*
X0222234Y0278010D01*
X0222234Y0275741D01*
X0222801Y0275174D01*
X0223935Y0275174D01*
X0224502Y0275741D01*
X0220819Y0275741D02*
X0220252Y0275174D01*
X0219118Y0275174D01*
X0218551Y0275741D01*
X0219118Y0276875D02*
X0218551Y0277443D01*
X0218551Y0278010D01*
X0219118Y0278577D01*
X0220252Y0278577D01*
X0220819Y0278010D01*
X0220252Y0276875D02*
X0220819Y0276308D01*
X0220819Y0275741D01*
X0220252Y0276875D02*
X0219118Y0276875D01*
X0218700Y0293193D02*
X0218700Y0296974D01*
X0221711Y0296974D01*
X0226791Y0296974D02*
X0229900Y0296974D01*
X0229900Y0293193D01*
X0239438Y0293055D02*
X0239438Y0290693D01*
X0244162Y0290693D02*
X0244162Y0293055D01*
X0241800Y0304374D02*
X0236800Y0304374D01*
X0234300Y0306874D01*
X0234300Y0311874D01*
X0236800Y0314374D01*
X0241800Y0314374D01*
X0244300Y0311874D01*
X0246800Y0314374D01*
X0251800Y0314374D01*
X0254300Y0311874D01*
X0256800Y0314374D01*
X0261800Y0314374D01*
X0264300Y0311874D01*
X0264300Y0306874D01*
X0261800Y0304374D01*
X0256800Y0304374D01*
X0254300Y0306874D01*
X0251800Y0304374D01*
X0246800Y0304374D01*
X0244300Y0306874D01*
X0241800Y0304374D01*
X0244300Y0306874D02*
X0244300Y0311874D01*
X0254300Y0311874D02*
X0254300Y0306874D01*
X0209231Y0299236D02*
X0206869Y0299236D01*
X0206869Y0294512D02*
X0209231Y0294512D01*
X0206662Y0195555D02*
X0206662Y0193193D01*
X0201938Y0193193D02*
X0201938Y0195555D01*
X0196662Y0195555D02*
X0196662Y0193193D01*
X0191938Y0193193D02*
X0191938Y0195555D01*
X0186662Y0195555D02*
X0186662Y0193193D01*
X0181938Y0193193D02*
X0181938Y0195555D01*
X0188119Y0121736D02*
X0190481Y0121736D01*
X0190481Y0117012D02*
X0188119Y0117012D01*
X0210619Y0116736D02*
X0212981Y0116736D01*
X0212981Y0112012D02*
X0210619Y0112012D01*
X0252595Y0125742D02*
X0253662Y0124674D01*
X0254730Y0124674D01*
X0255797Y0125742D01*
X0255797Y0127877D01*
X0256865Y0128944D01*
X0257932Y0128944D01*
X0259000Y0127877D01*
X0259000Y0125742D01*
X0257932Y0124674D01*
X0252595Y0125742D02*
X0252595Y0127877D01*
X0253662Y0128944D01*
X0255797Y0131120D02*
X0254730Y0132187D01*
X0254730Y0134322D01*
X0255797Y0135390D01*
X0256865Y0135390D01*
X0256865Y0131120D01*
X0257932Y0131120D02*
X0255797Y0131120D01*
X0257932Y0131120D02*
X0259000Y0132187D01*
X0259000Y0134322D01*
X0259000Y0137565D02*
X0254730Y0137565D01*
X0254730Y0140768D01*
X0255797Y0141835D01*
X0259000Y0141835D01*
X0259000Y0144011D02*
X0259000Y0147213D01*
X0257932Y0148281D01*
X0256865Y0147213D01*
X0256865Y0145078D01*
X0255797Y0144011D01*
X0254730Y0145078D01*
X0254730Y0148281D01*
X0254730Y0151524D02*
X0254730Y0153659D01*
X0255797Y0154726D01*
X0259000Y0154726D01*
X0259000Y0151524D01*
X0257932Y0150456D01*
X0256865Y0151524D01*
X0256865Y0154726D01*
X0255797Y0156902D02*
X0257932Y0156902D01*
X0259000Y0157969D01*
X0259000Y0161172D01*
X0257932Y0164415D02*
X0259000Y0165482D01*
X0257932Y0164415D02*
X0253662Y0164415D01*
X0254730Y0165482D02*
X0254730Y0163347D01*
X0254730Y0161172D02*
X0254730Y0157969D01*
X0255797Y0156902D01*
X0253662Y0174089D02*
X0252595Y0175157D01*
X0252595Y0177292D01*
X0253662Y0178360D01*
X0254730Y0178360D01*
X0255797Y0177292D01*
X0256865Y0178360D01*
X0257932Y0178360D01*
X0259000Y0177292D01*
X0259000Y0175157D01*
X0257932Y0174089D01*
X0255797Y0176225D02*
X0255797Y0177292D01*
X0257932Y0180535D02*
X0257932Y0181603D01*
X0259000Y0181603D01*
X0259000Y0180535D01*
X0257932Y0180535D01*
X0257932Y0183758D02*
X0253662Y0188028D01*
X0257932Y0188028D01*
X0259000Y0186960D01*
X0259000Y0184825D01*
X0257932Y0183758D01*
X0253662Y0183758D01*
X0252595Y0184825D01*
X0252595Y0186960D01*
X0253662Y0188028D01*
X0254730Y0191271D02*
X0254730Y0193406D01*
X0255797Y0194474D01*
X0259000Y0194474D01*
X0259000Y0191271D01*
X0257932Y0190203D01*
X0256865Y0191271D01*
X0256865Y0194474D01*
D12*
X0217017Y0237720D02*
X0207174Y0237720D01*
X0217017Y0237720D02*
X0217017Y0281028D01*
X0207174Y0281028D01*
X0191426Y0281028D02*
X0181583Y0281028D01*
X0181583Y0237720D01*
X0191426Y0237720D01*
X0088946Y0204610D02*
X0088946Y0188075D01*
X0084615Y0183744D01*
X0080678Y0183744D01*
X0076544Y0183744D02*
X0072410Y0183744D01*
X0068080Y0188075D01*
X0068080Y0204610D01*
X0076347Y0204610D01*
X0080678Y0204610D02*
X0088946Y0204610D01*
X0080678Y0203823D02*
X0080910Y0203770D01*
X0081141Y0203711D01*
X0081370Y0203647D01*
X0081597Y0203576D01*
X0081823Y0203501D01*
X0082047Y0203420D01*
X0082269Y0203333D01*
X0082488Y0203241D01*
X0082705Y0203144D01*
X0082920Y0203041D01*
X0083132Y0202933D01*
X0083342Y0202820D01*
X0083549Y0202702D01*
X0083752Y0202579D01*
X0083953Y0202451D01*
X0084151Y0202318D01*
X0084345Y0202181D01*
X0084536Y0202038D01*
X0084723Y0201891D01*
X0084907Y0201740D01*
X0085086Y0201584D01*
X0085262Y0201424D01*
X0085434Y0201259D01*
X0085602Y0201090D01*
X0085766Y0200918D01*
X0085926Y0200741D01*
X0086081Y0200560D01*
X0086232Y0200376D01*
X0086378Y0200188D01*
X0086519Y0199997D01*
X0086656Y0199802D01*
X0086788Y0199604D01*
X0086915Y0199403D01*
X0087038Y0199198D01*
X0087155Y0198991D01*
X0087267Y0198781D01*
X0087374Y0198568D01*
X0087476Y0198353D01*
X0087572Y0198136D01*
X0087663Y0197916D01*
X0087749Y0197694D01*
X0087829Y0197469D01*
X0087904Y0197243D01*
X0087973Y0197016D01*
X0088037Y0196786D01*
X0088095Y0196555D01*
X0088147Y0196323D01*
X0088194Y0196090D01*
X0088235Y0195855D01*
X0088270Y0195620D01*
X0088299Y0195384D01*
X0088323Y0195147D01*
X0088341Y0194909D01*
X0088353Y0194672D01*
X0088359Y0194434D01*
X0088359Y0194196D01*
X0088354Y0193958D01*
X0088343Y0193720D01*
X0088326Y0193482D01*
X0088303Y0193245D01*
X0088275Y0193009D01*
X0088240Y0192773D01*
X0088200Y0192539D01*
X0088155Y0192305D01*
X0088103Y0192073D01*
X0088046Y0191842D01*
X0087983Y0191612D01*
X0087915Y0191384D01*
X0087841Y0191158D01*
X0087762Y0190933D01*
X0087677Y0190711D01*
X0087587Y0190490D01*
X0087491Y0190272D01*
X0087390Y0190057D01*
X0087284Y0189844D01*
X0087173Y0189633D01*
X0087056Y0189426D01*
X0086935Y0189221D01*
X0086808Y0189019D01*
X0086677Y0188821D01*
X0086541Y0188625D01*
X0086400Y0188433D01*
X0086255Y0188245D01*
X0086105Y0188060D01*
X0085950Y0187879D01*
X0085791Y0187702D01*
X0085628Y0187528D01*
X0085461Y0187359D01*
X0085289Y0187194D01*
X0085114Y0187033D01*
X0084935Y0186876D01*
X0084752Y0186724D01*
X0084565Y0186576D01*
X0084375Y0186433D01*
X0084181Y0186295D01*
X0083984Y0186161D01*
X0083784Y0186033D01*
X0083581Y0185909D01*
X0083374Y0185790D01*
X0083165Y0185676D01*
X0082953Y0185567D01*
X0082739Y0185464D01*
X0082522Y0185366D01*
X0082303Y0185273D01*
X0082081Y0185186D01*
X0081858Y0185104D01*
X0081633Y0185027D01*
X0081405Y0184956D01*
X0081176Y0184891D01*
X0080946Y0184831D01*
X0080714Y0184777D01*
X0080481Y0184728D01*
X0076544Y0184531D02*
X0076310Y0184585D01*
X0076076Y0184643D01*
X0075845Y0184708D01*
X0075615Y0184778D01*
X0075387Y0184854D01*
X0075160Y0184935D01*
X0074936Y0185021D01*
X0074714Y0185114D01*
X0074494Y0185211D01*
X0074277Y0185314D01*
X0074062Y0185422D01*
X0073850Y0185535D01*
X0073640Y0185654D01*
X0073434Y0185777D01*
X0073231Y0185905D01*
X0073031Y0186039D01*
X0072834Y0186177D01*
X0072640Y0186320D01*
X0072450Y0186467D01*
X0072264Y0186619D01*
X0072082Y0186776D01*
X0071903Y0186937D01*
X0071729Y0187102D01*
X0071558Y0187272D01*
X0071392Y0187445D01*
X0071229Y0187623D01*
X0071072Y0187804D01*
X0070918Y0187990D01*
X0070770Y0188179D01*
X0070626Y0188371D01*
X0070486Y0188567D01*
X0070352Y0188766D01*
X0070222Y0188969D01*
X0070097Y0189174D01*
X0069977Y0189383D01*
X0069863Y0189594D01*
X0069753Y0189808D01*
X0069649Y0190025D01*
X0069550Y0190244D01*
X0069457Y0190466D01*
X0069369Y0190690D01*
X0069286Y0190915D01*
X0069209Y0191143D01*
X0069138Y0191373D01*
X0069072Y0191604D01*
X0069011Y0191837D01*
X0068957Y0192071D01*
X0068908Y0192306D01*
X0068865Y0192543D01*
X0068827Y0192780D01*
X0068796Y0193019D01*
X0068770Y0193258D01*
X0068750Y0193498D01*
X0068736Y0193738D01*
X0068727Y0193978D01*
X0068725Y0194218D01*
X0068728Y0194459D01*
X0068738Y0194699D01*
X0068753Y0194939D01*
X0068774Y0195179D01*
X0068800Y0195418D01*
X0068833Y0195656D01*
X0068871Y0195893D01*
X0068915Y0196130D01*
X0068965Y0196365D01*
X0069021Y0196599D01*
X0069082Y0196831D01*
X0069149Y0197062D01*
X0069221Y0197292D01*
X0069299Y0197519D01*
X0069383Y0197745D01*
X0069472Y0197968D01*
X0069566Y0198189D01*
X0069666Y0198408D01*
X0069771Y0198624D01*
X0069881Y0198838D01*
X0069996Y0199049D01*
X0070117Y0199257D01*
X0070242Y0199462D01*
X0070373Y0199664D01*
X0070508Y0199863D01*
X0070648Y0200058D01*
X0070793Y0200250D01*
X0070943Y0200438D01*
X0071097Y0200623D01*
X0071255Y0200804D01*
X0071418Y0200981D01*
X0071585Y0201154D01*
X0071756Y0201323D01*
X0071932Y0201487D01*
X0072111Y0201648D01*
X0072294Y0201803D01*
X0072481Y0201955D01*
X0072671Y0202102D01*
X0072865Y0202244D01*
X0073063Y0202381D01*
X0073263Y0202514D01*
X0073467Y0202641D01*
X0073674Y0202764D01*
X0073884Y0202881D01*
X0074096Y0202994D01*
X0074311Y0203101D01*
X0074529Y0203203D01*
X0074749Y0203300D01*
X0074972Y0203391D01*
X0075197Y0203477D01*
X0075423Y0203557D01*
X0075652Y0203632D01*
X0075882Y0203701D01*
X0076114Y0203764D01*
X0076347Y0203822D01*
D13*
X0079300Y0135674D02*
X0119300Y0135674D01*
X0145600Y0161874D02*
X0145600Y0201874D01*
X0258400Y0301341D02*
X0258767Y0300974D01*
X0259501Y0300974D01*
X0259868Y0301341D01*
X0260610Y0301341D02*
X0260977Y0300974D01*
X0261711Y0300974D01*
X0262078Y0301341D01*
X0262078Y0301708D01*
X0261711Y0302075D01*
X0261344Y0302075D01*
X0261711Y0302075D02*
X0262078Y0302442D01*
X0262078Y0302809D01*
X0261711Y0303176D01*
X0260977Y0303176D01*
X0260610Y0302809D01*
X0259868Y0302809D02*
X0259501Y0303176D01*
X0258767Y0303176D01*
X0258400Y0302809D01*
X0258400Y0301341D01*
D14*
X0117292Y0303626D02*
X0117292Y0298114D01*
X0117292Y0291815D02*
X0117292Y0282366D01*
X0117292Y0276067D02*
X0117292Y0271343D01*
X0091308Y0271343D01*
X0091308Y0278035D02*
X0091308Y0317406D01*
X0117292Y0317406D02*
X0117292Y0309925D01*
X0052292Y0309925D02*
X0052292Y0317406D01*
X0052292Y0303626D02*
X0052292Y0298114D01*
X0052292Y0291815D02*
X0052292Y0282366D01*
X0052292Y0276067D02*
X0052292Y0271343D01*
X0026308Y0271343D01*
X0026308Y0278035D02*
X0026308Y0317406D01*
X0069300Y0152524D02*
X0066544Y0148390D01*
X0072253Y0148390D01*
X0069300Y0152524D01*
X0052292Y0057406D02*
X0026308Y0057406D01*
X0026308Y0052681D01*
X0026308Y0046382D02*
X0026308Y0036933D01*
X0026308Y0030634D02*
X0026308Y0025122D01*
X0026308Y0018823D02*
X0026308Y0011343D01*
X0052292Y0011343D02*
X0052292Y0050713D01*
X0091308Y0052681D02*
X0091308Y0057406D01*
X0117292Y0057406D01*
X0117292Y0050713D02*
X0117292Y0011343D01*
X0091308Y0011343D02*
X0091308Y0018823D01*
X0091308Y0025122D02*
X0091308Y0030634D01*
X0091308Y0036933D02*
X0091308Y0046382D01*
X0156308Y0046382D02*
X0156308Y0036933D01*
X0156308Y0030634D02*
X0156308Y0025122D01*
X0156308Y0018823D02*
X0156308Y0011343D01*
X0182292Y0011343D02*
X0182292Y0050713D01*
X0182292Y0057406D02*
X0156308Y0057406D01*
X0156308Y0052681D01*
X0221308Y0052681D02*
X0221308Y0057406D01*
X0247292Y0057406D01*
X0247292Y0050713D02*
X0247292Y0011343D01*
X0221308Y0011343D02*
X0221308Y0018823D01*
X0221308Y0025122D02*
X0221308Y0030634D01*
X0221308Y0036933D02*
X0221308Y0046382D01*
D15*
X0069300Y0152720D03*
D16*
X0074560Y0152601D02*
X0074560Y0154403D01*
X0075160Y0155003D01*
X0077562Y0155003D01*
X0078163Y0154403D01*
X0078163Y0152601D01*
X0074560Y0152601D01*
X0075761Y0156285D02*
X0074560Y0157486D01*
X0078163Y0157486D01*
X0078163Y0156285D02*
X0078163Y0158687D01*
X0063037Y0156285D02*
X0062437Y0156285D01*
X0060034Y0158687D01*
X0059434Y0158687D01*
X0059434Y0156285D01*
X0059434Y0153802D02*
X0063037Y0153802D01*
X0063037Y0152601D02*
X0063037Y0155003D01*
X0060635Y0152601D02*
X0059434Y0153802D01*
X0060034Y0151320D02*
X0060635Y0151320D01*
X0061235Y0150720D01*
X0061235Y0149519D01*
X0060635Y0148918D01*
X0060034Y0148918D01*
X0059434Y0149519D01*
X0059434Y0150720D01*
X0060034Y0151320D01*
X0061235Y0150720D02*
X0061836Y0151320D01*
X0062437Y0151320D01*
X0063037Y0150720D01*
X0063037Y0149519D01*
X0062437Y0148918D01*
X0061836Y0148918D01*
X0061235Y0149519D01*
X0061235Y0147637D02*
X0062437Y0147637D01*
X0063037Y0147037D01*
X0063037Y0145836D01*
X0062437Y0145235D01*
X0061235Y0145235D02*
X0060635Y0146436D01*
X0060635Y0147037D01*
X0061235Y0147637D01*
X0059434Y0147637D02*
X0059434Y0145235D01*
X0061235Y0145235D01*
X0063037Y0143954D02*
X0059434Y0143954D01*
X0059434Y0141552D02*
X0063037Y0143954D01*
X0063037Y0141552D02*
X0059434Y0141552D01*
X0059434Y0139070D02*
X0063037Y0139070D01*
X0063037Y0137869D02*
X0063037Y0140271D01*
X0060635Y0137869D02*
X0059434Y0139070D01*
X0074051Y0205574D02*
X0073451Y0206175D01*
X0073451Y0208577D01*
X0074051Y0209177D01*
X0075252Y0209177D01*
X0075853Y0208577D01*
X0075853Y0206175D01*
X0075252Y0205574D01*
X0074051Y0205574D01*
X0077134Y0205574D02*
X0077134Y0209177D01*
X0077734Y0207376D02*
X0079536Y0205574D01*
X0080817Y0206175D02*
X0081417Y0205574D01*
X0082618Y0205574D01*
X0083219Y0206175D01*
X0083219Y0206775D01*
X0082618Y0207376D01*
X0082018Y0207376D01*
X0082618Y0207376D02*
X0083219Y0207976D01*
X0083219Y0208577D01*
X0082618Y0209177D01*
X0081417Y0209177D01*
X0080817Y0208577D01*
X0079536Y0209177D02*
X0077134Y0206775D01*
X0081031Y0248262D02*
X0079496Y0249797D01*
X0084100Y0249797D01*
X0084100Y0251331D02*
X0084100Y0248262D01*
X0083333Y0252866D02*
X0080263Y0252866D01*
X0079496Y0253633D01*
X0079496Y0255168D01*
X0080263Y0255935D01*
X0083333Y0252866D01*
X0084100Y0253633D01*
X0084100Y0255168D01*
X0083333Y0255935D01*
X0080263Y0255935D01*
X0080263Y0257470D02*
X0079496Y0258237D01*
X0079496Y0259772D01*
X0080263Y0260539D01*
X0083333Y0257470D01*
X0084100Y0258237D01*
X0084100Y0259772D01*
X0083333Y0260539D01*
X0080263Y0260539D01*
X0080263Y0257470D02*
X0083333Y0257470D01*
X0094496Y0258237D02*
X0095263Y0257470D01*
X0096031Y0257470D01*
X0096798Y0258237D01*
X0096798Y0260539D01*
X0098333Y0260539D02*
X0095263Y0260539D01*
X0094496Y0259772D01*
X0094496Y0258237D01*
X0095263Y0255935D02*
X0096798Y0255935D01*
X0097565Y0255168D01*
X0097565Y0252866D01*
X0097565Y0254401D02*
X0099100Y0255935D01*
X0098333Y0257470D02*
X0099100Y0258237D01*
X0099100Y0259772D01*
X0098333Y0260539D01*
X0095263Y0255935D02*
X0094496Y0255168D01*
X0094496Y0252866D01*
X0099100Y0252866D01*
X0121551Y0229177D02*
X0120951Y0228577D01*
X0120951Y0226175D01*
X0121551Y0225574D01*
X0122752Y0225574D01*
X0123353Y0226175D01*
X0123353Y0228577D01*
X0122752Y0229177D01*
X0121551Y0229177D01*
X0124634Y0229177D02*
X0124634Y0225574D01*
X0124634Y0226775D02*
X0127036Y0229177D01*
X0128317Y0228577D02*
X0128917Y0229177D01*
X0130118Y0229177D01*
X0130719Y0228577D01*
X0130719Y0227976D01*
X0128317Y0225574D01*
X0130719Y0225574D01*
X0127036Y0225574D02*
X0125234Y0227376D01*
X0226700Y0314875D02*
X0227301Y0314274D01*
X0227901Y0314274D01*
X0228502Y0314875D01*
X0228502Y0317877D01*
X0229102Y0317877D02*
X0227901Y0317877D01*
X0230383Y0317877D02*
X0230383Y0314274D01*
X0230383Y0315475D02*
X0232185Y0315475D01*
X0232785Y0316076D01*
X0232785Y0317277D01*
X0232185Y0317877D01*
X0230383Y0317877D01*
X0234066Y0316676D02*
X0235267Y0317877D01*
X0235267Y0314274D01*
X0234066Y0314274D02*
X0236468Y0314274D01*
D17*
X0227800Y0309874D02*
X0227800Y0303874D01*
X0220800Y0303874D01*
X0220800Y0306874D01*
X0220800Y0309874D01*
X0222300Y0309874D01*
X0227800Y0309874D01*
X0220800Y0309874D02*
X0217800Y0309874D01*
X0220800Y0306874D01*
X0217800Y0303874D01*
X0217800Y0309874D01*
X0216300Y0309874D01*
X0210800Y0309874D01*
X0210800Y0303874D01*
X0217800Y0303874D01*
X0220800Y0303874D01*
X0222300Y0309874D02*
X0222298Y0309982D01*
X0222292Y0310090D01*
X0222282Y0310198D01*
X0222269Y0310306D01*
X0222251Y0310413D01*
X0222230Y0310519D01*
X0222205Y0310624D01*
X0222176Y0310729D01*
X0222143Y0310832D01*
X0222107Y0310934D01*
X0222066Y0311035D01*
X0222023Y0311134D01*
X0221975Y0311231D01*
X0221925Y0311327D01*
X0221871Y0311421D01*
X0221813Y0311512D01*
X0221752Y0311602D01*
X0221688Y0311690D01*
X0221621Y0311775D01*
X0221551Y0311857D01*
X0221478Y0311937D01*
X0221402Y0312014D01*
X0221323Y0312089D01*
X0221242Y0312160D01*
X0221158Y0312229D01*
X0221072Y0312295D01*
X0220984Y0312357D01*
X0220893Y0312416D01*
X0220800Y0312472D01*
X0220705Y0312525D01*
X0220609Y0312574D01*
X0220510Y0312619D01*
X0220410Y0312661D01*
X0220309Y0312699D01*
X0220206Y0312734D01*
X0220103Y0312765D01*
X0219998Y0312792D01*
X0219892Y0312815D01*
X0219785Y0312834D01*
X0219678Y0312850D01*
X0219570Y0312862D01*
X0219462Y0312870D01*
X0219354Y0312874D01*
X0219246Y0312874D01*
X0219138Y0312870D01*
X0219030Y0312862D01*
X0218922Y0312850D01*
X0218815Y0312834D01*
X0218708Y0312815D01*
X0218602Y0312792D01*
X0218497Y0312765D01*
X0218394Y0312734D01*
X0218291Y0312699D01*
X0218190Y0312661D01*
X0218090Y0312619D01*
X0217991Y0312574D01*
X0217895Y0312525D01*
X0217800Y0312472D01*
X0217707Y0312416D01*
X0217616Y0312357D01*
X0217528Y0312295D01*
X0217442Y0312229D01*
X0217358Y0312160D01*
X0217277Y0312089D01*
X0217198Y0312014D01*
X0217122Y0311937D01*
X0217049Y0311857D01*
X0216979Y0311775D01*
X0216912Y0311690D01*
X0216848Y0311602D01*
X0216787Y0311512D01*
X0216729Y0311421D01*
X0216675Y0311327D01*
X0216625Y0311231D01*
X0216577Y0311134D01*
X0216534Y0311035D01*
X0216493Y0310934D01*
X0216457Y0310832D01*
X0216424Y0310729D01*
X0216395Y0310624D01*
X0216370Y0310519D01*
X0216349Y0310413D01*
X0216331Y0310306D01*
X0216318Y0310198D01*
X0216308Y0310090D01*
X0216302Y0309982D01*
X0216300Y0309874D01*
X0172794Y0286291D02*
X0172796Y0286338D01*
X0172802Y0286384D01*
X0172811Y0286430D01*
X0172825Y0286474D01*
X0172842Y0286518D01*
X0172863Y0286559D01*
X0172887Y0286599D01*
X0172914Y0286637D01*
X0172945Y0286672D01*
X0172978Y0286705D01*
X0173014Y0286735D01*
X0173053Y0286761D01*
X0173093Y0286785D01*
X0173135Y0286804D01*
X0173179Y0286821D01*
X0173224Y0286833D01*
X0173270Y0286842D01*
X0173316Y0286847D01*
X0173363Y0286848D01*
X0173409Y0286845D01*
X0173455Y0286838D01*
X0173501Y0286827D01*
X0173545Y0286813D01*
X0173588Y0286795D01*
X0173629Y0286773D01*
X0173669Y0286748D01*
X0173706Y0286720D01*
X0173741Y0286689D01*
X0173773Y0286655D01*
X0173802Y0286618D01*
X0173827Y0286580D01*
X0173850Y0286539D01*
X0173869Y0286496D01*
X0173884Y0286452D01*
X0173896Y0286407D01*
X0173904Y0286361D01*
X0173908Y0286314D01*
X0173908Y0286268D01*
X0173904Y0286221D01*
X0173896Y0286175D01*
X0173884Y0286130D01*
X0173869Y0286086D01*
X0173850Y0286043D01*
X0173827Y0286002D01*
X0173802Y0285964D01*
X0173773Y0285927D01*
X0173741Y0285893D01*
X0173706Y0285862D01*
X0173669Y0285834D01*
X0173630Y0285809D01*
X0173588Y0285787D01*
X0173545Y0285769D01*
X0173501Y0285755D01*
X0173455Y0285744D01*
X0173409Y0285737D01*
X0173363Y0285734D01*
X0173316Y0285735D01*
X0173270Y0285740D01*
X0173224Y0285749D01*
X0173179Y0285761D01*
X0173135Y0285778D01*
X0173093Y0285797D01*
X0173053Y0285821D01*
X0173014Y0285847D01*
X0172978Y0285877D01*
X0172945Y0285910D01*
X0172914Y0285945D01*
X0172887Y0285983D01*
X0172863Y0286023D01*
X0172842Y0286064D01*
X0172825Y0286108D01*
X0172811Y0286152D01*
X0172802Y0286198D01*
X0172796Y0286244D01*
X0172794Y0286291D01*
X0171643Y0287031D02*
X0171643Y0290969D01*
X0167706Y0287031D01*
X0151957Y0287031D01*
X0151957Y0306717D01*
X0171643Y0306717D01*
X0171643Y0290969D01*
X0171643Y0287031D02*
X0167706Y0287031D01*
X0153532Y0296874D02*
X0153534Y0297077D01*
X0153542Y0297280D01*
X0153554Y0297482D01*
X0153572Y0297684D01*
X0153594Y0297886D01*
X0153621Y0298087D01*
X0153654Y0298288D01*
X0153691Y0298487D01*
X0153733Y0298686D01*
X0153780Y0298883D01*
X0153831Y0299079D01*
X0153888Y0299274D01*
X0153949Y0299468D01*
X0154015Y0299659D01*
X0154086Y0299850D01*
X0154161Y0300038D01*
X0154241Y0300225D01*
X0154326Y0300409D01*
X0154415Y0300591D01*
X0154508Y0300772D01*
X0154606Y0300949D01*
X0154708Y0301125D01*
X0154815Y0301297D01*
X0154925Y0301467D01*
X0155040Y0301635D01*
X0155159Y0301799D01*
X0155282Y0301961D01*
X0155409Y0302119D01*
X0155539Y0302274D01*
X0155674Y0302426D01*
X0155812Y0302575D01*
X0155954Y0302720D01*
X0156099Y0302862D01*
X0156248Y0303000D01*
X0156400Y0303135D01*
X0156555Y0303265D01*
X0156713Y0303392D01*
X0156875Y0303515D01*
X0157039Y0303634D01*
X0157207Y0303749D01*
X0157377Y0303859D01*
X0157549Y0303966D01*
X0157725Y0304068D01*
X0157902Y0304166D01*
X0158083Y0304259D01*
X0158265Y0304348D01*
X0158449Y0304433D01*
X0158636Y0304513D01*
X0158824Y0304588D01*
X0159015Y0304659D01*
X0159206Y0304725D01*
X0159400Y0304786D01*
X0159595Y0304843D01*
X0159791Y0304894D01*
X0159988Y0304941D01*
X0160187Y0304983D01*
X0160386Y0305020D01*
X0160587Y0305053D01*
X0160788Y0305080D01*
X0160990Y0305102D01*
X0161192Y0305120D01*
X0161394Y0305132D01*
X0161597Y0305140D01*
X0161800Y0305142D01*
X0162003Y0305140D01*
X0162206Y0305132D01*
X0162408Y0305120D01*
X0162610Y0305102D01*
X0162812Y0305080D01*
X0163013Y0305053D01*
X0163214Y0305020D01*
X0163413Y0304983D01*
X0163612Y0304941D01*
X0163809Y0304894D01*
X0164005Y0304843D01*
X0164200Y0304786D01*
X0164394Y0304725D01*
X0164585Y0304659D01*
X0164776Y0304588D01*
X0164964Y0304513D01*
X0165151Y0304433D01*
X0165335Y0304348D01*
X0165517Y0304259D01*
X0165698Y0304166D01*
X0165875Y0304068D01*
X0166051Y0303966D01*
X0166223Y0303859D01*
X0166393Y0303749D01*
X0166561Y0303634D01*
X0166725Y0303515D01*
X0166887Y0303392D01*
X0167045Y0303265D01*
X0167200Y0303135D01*
X0167352Y0303000D01*
X0167501Y0302862D01*
X0167646Y0302720D01*
X0167788Y0302575D01*
X0167926Y0302426D01*
X0168061Y0302274D01*
X0168191Y0302119D01*
X0168318Y0301961D01*
X0168441Y0301799D01*
X0168560Y0301635D01*
X0168675Y0301467D01*
X0168785Y0301297D01*
X0168892Y0301125D01*
X0168994Y0300949D01*
X0169092Y0300772D01*
X0169185Y0300591D01*
X0169274Y0300409D01*
X0169359Y0300225D01*
X0169439Y0300038D01*
X0169514Y0299850D01*
X0169585Y0299659D01*
X0169651Y0299468D01*
X0169712Y0299274D01*
X0169769Y0299079D01*
X0169820Y0298883D01*
X0169867Y0298686D01*
X0169909Y0298487D01*
X0169946Y0298288D01*
X0169979Y0298087D01*
X0170006Y0297886D01*
X0170028Y0297684D01*
X0170046Y0297482D01*
X0170058Y0297280D01*
X0170066Y0297077D01*
X0170068Y0296874D01*
X0170066Y0296671D01*
X0170058Y0296468D01*
X0170046Y0296266D01*
X0170028Y0296064D01*
X0170006Y0295862D01*
X0169979Y0295661D01*
X0169946Y0295460D01*
X0169909Y0295261D01*
X0169867Y0295062D01*
X0169820Y0294865D01*
X0169769Y0294669D01*
X0169712Y0294474D01*
X0169651Y0294280D01*
X0169585Y0294089D01*
X0169514Y0293898D01*
X0169439Y0293710D01*
X0169359Y0293523D01*
X0169274Y0293339D01*
X0169185Y0293157D01*
X0169092Y0292976D01*
X0168994Y0292799D01*
X0168892Y0292623D01*
X0168785Y0292451D01*
X0168675Y0292281D01*
X0168560Y0292113D01*
X0168441Y0291949D01*
X0168318Y0291787D01*
X0168191Y0291629D01*
X0168061Y0291474D01*
X0167926Y0291322D01*
X0167788Y0291173D01*
X0167646Y0291028D01*
X0167501Y0290886D01*
X0167352Y0290748D01*
X0167200Y0290613D01*
X0167045Y0290483D01*
X0166887Y0290356D01*
X0166725Y0290233D01*
X0166561Y0290114D01*
X0166393Y0289999D01*
X0166223Y0289889D01*
X0166051Y0289782D01*
X0165875Y0289680D01*
X0165698Y0289582D01*
X0165517Y0289489D01*
X0165335Y0289400D01*
X0165151Y0289315D01*
X0164964Y0289235D01*
X0164776Y0289160D01*
X0164585Y0289089D01*
X0164394Y0289023D01*
X0164200Y0288962D01*
X0164005Y0288905D01*
X0163809Y0288854D01*
X0163612Y0288807D01*
X0163413Y0288765D01*
X0163214Y0288728D01*
X0163013Y0288695D01*
X0162812Y0288668D01*
X0162610Y0288646D01*
X0162408Y0288628D01*
X0162206Y0288616D01*
X0162003Y0288608D01*
X0161800Y0288606D01*
X0161597Y0288608D01*
X0161394Y0288616D01*
X0161192Y0288628D01*
X0160990Y0288646D01*
X0160788Y0288668D01*
X0160587Y0288695D01*
X0160386Y0288728D01*
X0160187Y0288765D01*
X0159988Y0288807D01*
X0159791Y0288854D01*
X0159595Y0288905D01*
X0159400Y0288962D01*
X0159206Y0289023D01*
X0159015Y0289089D01*
X0158824Y0289160D01*
X0158636Y0289235D01*
X0158449Y0289315D01*
X0158265Y0289400D01*
X0158083Y0289489D01*
X0157902Y0289582D01*
X0157725Y0289680D01*
X0157549Y0289782D01*
X0157377Y0289889D01*
X0157207Y0289999D01*
X0157039Y0290114D01*
X0156875Y0290233D01*
X0156713Y0290356D01*
X0156555Y0290483D01*
X0156400Y0290613D01*
X0156248Y0290748D01*
X0156099Y0290886D01*
X0155954Y0291028D01*
X0155812Y0291173D01*
X0155674Y0291322D01*
X0155539Y0291474D01*
X0155409Y0291629D01*
X0155282Y0291787D01*
X0155159Y0291949D01*
X0155040Y0292113D01*
X0154925Y0292281D01*
X0154815Y0292451D01*
X0154708Y0292623D01*
X0154606Y0292799D01*
X0154508Y0292976D01*
X0154415Y0293157D01*
X0154326Y0293339D01*
X0154241Y0293523D01*
X0154161Y0293710D01*
X0154086Y0293898D01*
X0154015Y0294089D01*
X0153949Y0294280D01*
X0153888Y0294474D01*
X0153831Y0294669D01*
X0153780Y0294865D01*
X0153733Y0295062D01*
X0153691Y0295261D01*
X0153654Y0295460D01*
X0153621Y0295661D01*
X0153594Y0295862D01*
X0153572Y0296064D01*
X0153554Y0296266D01*
X0153542Y0296468D01*
X0153534Y0296671D01*
X0153532Y0296874D01*
X0124050Y0260646D02*
X0119546Y0260646D01*
X0121047Y0259145D01*
X0119546Y0257644D01*
X0124050Y0257644D01*
X0123299Y0256042D02*
X0124050Y0255292D01*
X0124050Y0253790D01*
X0123299Y0253040D01*
X0123299Y0251438D02*
X0124050Y0250688D01*
X0124050Y0249186D01*
X0123299Y0248436D01*
X0121798Y0248436D02*
X0121047Y0249937D01*
X0121047Y0250688D01*
X0121798Y0251438D01*
X0123299Y0251438D01*
X0121047Y0253040D02*
X0121798Y0253790D01*
X0121798Y0255292D01*
X0122549Y0256042D01*
X0123299Y0256042D01*
X0121047Y0253040D02*
X0120297Y0253040D01*
X0119546Y0253790D01*
X0119546Y0255292D01*
X0120297Y0256042D01*
X0119546Y0251438D02*
X0119546Y0248436D01*
X0121798Y0248436D01*
X0121047Y0246834D02*
X0120297Y0246834D01*
X0119546Y0246084D01*
X0119546Y0244583D01*
X0120297Y0243832D01*
X0119546Y0242230D02*
X0124050Y0242230D01*
X0119546Y0239228D01*
X0124050Y0239228D01*
X0124050Y0236876D02*
X0119546Y0236876D01*
X0121798Y0234624D01*
X0121798Y0237627D01*
X0124050Y0243832D02*
X0121047Y0246834D01*
X0124050Y0246834D02*
X0124050Y0243832D01*
X0138297Y0188542D02*
X0137546Y0187792D01*
X0137546Y0185540D01*
X0142050Y0185540D01*
X0142050Y0187792D01*
X0141299Y0188542D01*
X0138297Y0188542D01*
X0138297Y0183938D02*
X0141299Y0180936D01*
X0142050Y0181686D01*
X0142050Y0183188D01*
X0141299Y0183938D01*
X0138297Y0183938D01*
X0137546Y0183188D01*
X0137546Y0181686D01*
X0138297Y0180936D01*
X0141299Y0180936D01*
X0142050Y0179334D02*
X0142050Y0176332D01*
X0139047Y0179334D01*
X0138297Y0179334D01*
X0137546Y0178584D01*
X0137546Y0177083D01*
X0138297Y0176332D01*
X0137546Y0174730D02*
X0137546Y0171728D01*
X0139798Y0171728D01*
X0139047Y0173229D01*
X0139047Y0173980D01*
X0139798Y0174730D01*
X0141299Y0174730D01*
X0142050Y0173980D01*
X0142050Y0172479D01*
X0141299Y0171728D01*
X0139798Y0170127D02*
X0139798Y0167124D01*
X0137546Y0169376D01*
X0142050Y0169376D01*
X0143947Y0160128D02*
X0143947Y0155624D01*
X0142446Y0155624D02*
X0145449Y0155624D01*
X0142446Y0158627D02*
X0143947Y0160128D01*
X0140845Y0159377D02*
X0140094Y0160128D01*
X0138593Y0160128D01*
X0137842Y0159377D01*
X0137842Y0156375D01*
X0138593Y0155624D01*
X0140094Y0155624D01*
X0140845Y0156375D01*
X0136274Y0155624D02*
X0134773Y0155624D01*
X0135523Y0155624D02*
X0135523Y0160128D01*
X0134773Y0160128D02*
X0136274Y0160128D01*
X0124799Y0135523D02*
X0125550Y0134772D01*
X0125550Y0133271D01*
X0124799Y0132520D01*
X0124799Y0130919D02*
X0125550Y0130168D01*
X0125550Y0128667D01*
X0124799Y0127916D01*
X0121797Y0127916D01*
X0121046Y0128667D01*
X0121046Y0130168D01*
X0121797Y0130919D01*
X0121797Y0132520D02*
X0121046Y0133271D01*
X0121046Y0134772D01*
X0121797Y0135523D01*
X0122547Y0135523D01*
X0123298Y0134772D01*
X0124049Y0135523D01*
X0124799Y0135523D01*
X0123298Y0134772D02*
X0123298Y0134021D01*
X0121046Y0126348D02*
X0121046Y0124847D01*
X0121046Y0125598D02*
X0125550Y0125598D01*
X0125550Y0126348D02*
X0125550Y0124847D01*
X0112949Y0128375D02*
X0112949Y0131377D01*
X0112198Y0132128D01*
X0109946Y0132128D01*
X0109946Y0127624D01*
X0112198Y0127624D01*
X0112949Y0128375D01*
X0108345Y0128375D02*
X0107594Y0127624D01*
X0106093Y0127624D01*
X0105342Y0128375D01*
X0105342Y0129876D02*
X0106843Y0130627D01*
X0107594Y0130627D01*
X0108345Y0129876D01*
X0108345Y0128375D01*
X0105342Y0129876D02*
X0105342Y0132128D01*
X0108345Y0132128D01*
X0103741Y0132128D02*
X0103741Y0131377D01*
X0100738Y0128375D01*
X0100738Y0127624D01*
X0099137Y0128375D02*
X0098386Y0127624D01*
X0096885Y0127624D01*
X0096134Y0128375D01*
X0096134Y0131377D01*
X0096885Y0132128D01*
X0098386Y0132128D01*
X0099137Y0131377D01*
X0100738Y0132128D02*
X0103741Y0132128D01*
X0094533Y0132128D02*
X0094533Y0127624D01*
X0094533Y0129876D02*
X0091530Y0129876D01*
X0089929Y0129876D02*
X0086926Y0129876D01*
X0089178Y0132128D01*
X0089178Y0127624D01*
X0091530Y0127624D02*
X0091530Y0132128D01*
X0085325Y0132128D02*
X0085325Y0131377D01*
X0082322Y0128375D01*
X0082322Y0127624D01*
X0082322Y0132128D02*
X0085325Y0132128D01*
X0074298Y0214624D02*
X0074298Y0217627D01*
X0076550Y0216876D02*
X0072046Y0216876D01*
X0074298Y0214624D01*
X0072046Y0219228D02*
X0076550Y0222230D01*
X0072046Y0222230D01*
X0072797Y0223832D02*
X0072046Y0224583D01*
X0072046Y0226084D01*
X0072797Y0226834D01*
X0073547Y0226834D01*
X0076550Y0223832D01*
X0076550Y0226834D01*
X0075799Y0228436D02*
X0076550Y0229186D01*
X0076550Y0230688D01*
X0075799Y0231438D01*
X0074298Y0231438D01*
X0073547Y0230688D01*
X0073547Y0229937D01*
X0074298Y0228436D01*
X0072046Y0228436D01*
X0072046Y0231438D01*
X0072797Y0233040D02*
X0073547Y0233040D01*
X0074298Y0233790D01*
X0074298Y0235292D01*
X0075049Y0236042D01*
X0075799Y0236042D01*
X0076550Y0235292D01*
X0076550Y0233790D01*
X0075799Y0233040D01*
X0072797Y0233040D02*
X0072046Y0233790D01*
X0072046Y0235292D01*
X0072797Y0236042D01*
X0072046Y0237644D02*
X0073547Y0239145D01*
X0072046Y0240646D01*
X0076550Y0240646D01*
X0076550Y0237644D02*
X0072046Y0237644D01*
X0072046Y0219228D02*
X0076550Y0219228D01*
X0014350Y0221783D02*
X0013599Y0221032D01*
X0014350Y0221783D02*
X0014350Y0223284D01*
X0013599Y0224034D01*
X0012849Y0224034D01*
X0012098Y0223284D01*
X0012098Y0222533D01*
X0012098Y0223284D02*
X0011347Y0224034D01*
X0010597Y0224034D01*
X0009846Y0223284D01*
X0009846Y0221783D01*
X0010597Y0221032D01*
X0010597Y0219430D02*
X0012098Y0219430D01*
X0012849Y0218680D01*
X0012849Y0216428D01*
X0014350Y0216428D02*
X0009846Y0216428D01*
X0009846Y0218680D01*
X0010597Y0219430D01*
X0009846Y0214827D02*
X0009846Y0213325D01*
X0009846Y0214076D02*
X0013599Y0214076D01*
X0014350Y0213325D01*
X0014350Y0212575D01*
X0013599Y0211824D01*
X0207539Y0076928D02*
X0209041Y0076928D01*
X0208290Y0076928D02*
X0208290Y0073175D01*
X0207539Y0072424D01*
X0206789Y0072424D01*
X0206038Y0073175D01*
X0210642Y0073925D02*
X0212894Y0073925D01*
X0213645Y0074676D01*
X0213645Y0076177D01*
X0212894Y0076928D01*
X0210642Y0076928D01*
X0210642Y0072424D01*
X0215246Y0072424D02*
X0218249Y0075427D01*
X0218249Y0076177D01*
X0217498Y0076928D01*
X0215997Y0076928D01*
X0215246Y0076177D01*
X0215246Y0072424D02*
X0218249Y0072424D01*
D18*
X0129674Y0235594D03*
X0082174Y0215594D03*
D19*
X0011800Y0148980D03*
M02*
