G75*
%MOIN*%
%OFA0B0*%
%FSLAX25Y25*%
%IPPOS*%
%LPD*%
%AMOC8*
5,1,8,0,0,1.08239X$1,22.5*
%
%ADD10C,0.05950*%
%ADD11C,0.08200*%
%ADD12C,0.06800*%
%ADD13OC8,0.06800*%
%ADD14C,0.05524*%
%ADD15C,0.07887*%
%ADD16C,0.04762*%
D10*
X0214300Y0306874D03*
X0224300Y0306874D03*
D11*
X0234300Y0276874D03*
X0234300Y0266874D03*
X0234300Y0256874D03*
X0234300Y0246874D03*
X0234300Y0236874D03*
X0234300Y0226874D03*
X0234300Y0216874D03*
X0234300Y0206874D03*
X0234300Y0196874D03*
X0234300Y0186874D03*
X0234300Y0171874D03*
X0234300Y0161874D03*
X0234300Y0151874D03*
X0234300Y0141874D03*
X0234300Y0131874D03*
X0234300Y0121874D03*
X0234300Y0111874D03*
X0234300Y0101874D03*
X0044300Y0101874D03*
X0044300Y0111874D03*
X0044300Y0121874D03*
X0044300Y0131874D03*
X0044300Y0141874D03*
X0044300Y0151874D03*
X0044300Y0171874D03*
X0044300Y0181874D03*
X0044300Y0191874D03*
X0044300Y0201874D03*
X0044300Y0211874D03*
X0044300Y0221874D03*
X0044300Y0231874D03*
X0044300Y0241874D03*
D12*
X0011800Y0201874D03*
X0011800Y0191874D03*
X0011800Y0181874D03*
X0239300Y0309374D03*
X0249300Y0309374D03*
X0259300Y0309374D03*
D13*
X0214300Y0084374D03*
X0204300Y0084374D03*
X0194300Y0084374D03*
X0184300Y0084374D03*
X0174300Y0084374D03*
X0164300Y0084374D03*
D14*
X0169300Y0043232D03*
X0169300Y0015673D03*
X0104300Y0015673D03*
X0104300Y0043232D03*
X0039300Y0043232D03*
X0039300Y0015673D03*
X0234300Y0015673D03*
X0234300Y0043232D03*
X0104300Y0285516D03*
X0104300Y0313075D03*
X0039300Y0313075D03*
X0039300Y0285516D03*
D15*
X0032843Y0021874D02*
X0025757Y0021874D01*
X0025757Y0033749D02*
X0032843Y0033749D01*
X0032843Y0049374D02*
X0025757Y0049374D01*
X0045757Y0053749D02*
X0052843Y0053749D01*
X0090757Y0049374D02*
X0097843Y0049374D01*
X0110757Y0053749D02*
X0117843Y0053749D01*
X0097843Y0033749D02*
X0090757Y0033749D01*
X0090757Y0021874D02*
X0097843Y0021874D01*
X0155757Y0021874D02*
X0162843Y0021874D01*
X0162843Y0033749D02*
X0155757Y0033749D01*
X0155757Y0049374D02*
X0162843Y0049374D01*
X0175757Y0053749D02*
X0182843Y0053749D01*
X0220757Y0049374D02*
X0227843Y0049374D01*
X0240757Y0053749D02*
X0247843Y0053749D01*
X0227843Y0033749D02*
X0220757Y0033749D01*
X0220757Y0021874D02*
X0227843Y0021874D01*
X0097843Y0274999D02*
X0090757Y0274999D01*
X0110757Y0279374D02*
X0117843Y0279374D01*
X0117843Y0294999D02*
X0110757Y0294999D01*
X0110757Y0306874D02*
X0117843Y0306874D01*
X0052843Y0306874D02*
X0045757Y0306874D01*
X0045757Y0294999D02*
X0052843Y0294999D01*
X0052843Y0279374D02*
X0045757Y0279374D01*
X0032843Y0274999D02*
X0025757Y0274999D01*
D16*
X0021800Y0224374D03*
X0071800Y0281874D03*
X0109300Y0226874D03*
X0119300Y0216874D03*
X0119300Y0199374D03*
X0119300Y0184374D03*
X0119300Y0179374D03*
X0119300Y0174374D03*
X0108050Y0184374D03*
X0099300Y0179374D03*
X0099300Y0164374D03*
X0101800Y0150624D03*
X0096800Y0149374D03*
X0081800Y0154374D03*
X0086800Y0171874D03*
X0086800Y0179374D03*
X0119300Y0150624D03*
X0149300Y0134374D03*
X0156800Y0146874D03*
X0164300Y0136874D03*
X0174300Y0119374D03*
X0149300Y0116874D03*
X0129300Y0106874D03*
X0126800Y0099374D03*
X0121800Y0094374D03*
X0114300Y0084374D03*
X0106800Y0089374D03*
X0104300Y0106874D03*
X0089300Y0094374D03*
X0081800Y0101874D03*
X0059300Y0069374D03*
X0026800Y0066874D03*
X0149300Y0041874D03*
X0159300Y0064374D03*
X0209300Y0056874D03*
X0214300Y0064374D03*
X0224300Y0079374D03*
X0169300Y0156874D03*
X0161800Y0164374D03*
X0161800Y0174374D03*
X0159300Y0179374D03*
X0161800Y0184374D03*
X0161800Y0194374D03*
X0159300Y0201874D03*
X0176800Y0191874D03*
X0182843Y0184374D03*
X0189300Y0179374D03*
X0199300Y0174374D03*
X0151800Y0229374D03*
X0176800Y0286874D03*
X0176800Y0301874D03*
X0204300Y0266874D03*
X0249300Y0299374D03*
X0261800Y0219374D03*
X0249300Y0191874D03*
M02*
