G75*
%MOIN*%
%OFA0B0*%
%FSLAX25Y25*%
%IPPOS*%
%LPD*%
%AMOC8*
5,1,8,0,0,1.08239X$1,22.5*
%
%ADD10C,0.05150*%
%ADD11C,0.07400*%
%ADD12C,0.06000*%
%ADD13OC8,0.06000*%
%ADD14C,0.07087*%
%ADD15C,0.07000*%
%ADD16C,0.01200*%
%ADD17C,0.03765*%
D10*
X0111600Y0327524D03*
X0121600Y0327524D03*
D11*
X0206600Y0277524D03*
X0206600Y0267524D03*
X0206600Y0257524D03*
X0206600Y0247524D03*
X0206600Y0237524D03*
X0206600Y0227524D03*
X0206600Y0207524D03*
X0206600Y0197524D03*
X0206600Y0187524D03*
X0206600Y0177524D03*
X0206600Y0167524D03*
X0206600Y0157524D03*
X0206600Y0147524D03*
X0206600Y0137524D03*
X0016600Y0142524D03*
X0016600Y0152524D03*
X0016600Y0162524D03*
X0016600Y0172524D03*
X0016600Y0182524D03*
X0016600Y0192524D03*
X0016600Y0207524D03*
X0016600Y0217524D03*
X0016600Y0227524D03*
X0016600Y0237524D03*
X0016600Y0247524D03*
X0016600Y0257524D03*
X0016600Y0267524D03*
X0016600Y0277524D03*
X0016600Y0132524D03*
X0016600Y0122524D03*
X0016600Y0112524D03*
X0016600Y0102524D03*
D12*
X0076600Y0327524D03*
X0086600Y0327524D03*
X0096600Y0327524D03*
D13*
X0091600Y0097524D03*
X0081600Y0097524D03*
X0071600Y0097524D03*
X0061600Y0097524D03*
X0051600Y0097524D03*
X0101600Y0097524D03*
D14*
X0103057Y0067524D02*
X0110143Y0067524D01*
X0123057Y0071899D02*
X0130143Y0071899D01*
X0110143Y0051899D02*
X0103057Y0051899D01*
X0103057Y0040024D02*
X0110143Y0040024D01*
X0075143Y0071899D02*
X0068057Y0071899D01*
X0055143Y0067524D02*
X0048057Y0067524D01*
X0048057Y0051899D02*
X0055143Y0051899D01*
X0055143Y0040024D02*
X0048057Y0040024D01*
X0158057Y0040024D02*
X0165143Y0040024D01*
X0165143Y0051899D02*
X0158057Y0051899D01*
X0158057Y0067524D02*
X0165143Y0067524D01*
X0178057Y0071899D02*
X0185143Y0071899D01*
X0213057Y0067524D02*
X0220143Y0067524D01*
X0233057Y0071899D02*
X0240143Y0071899D01*
X0220143Y0051899D02*
X0213057Y0051899D01*
X0213057Y0040024D02*
X0220143Y0040024D01*
X0200143Y0298149D02*
X0193057Y0298149D01*
X0213057Y0302524D02*
X0220143Y0302524D01*
X0220143Y0318149D02*
X0213057Y0318149D01*
X0213057Y0330024D02*
X0220143Y0330024D01*
X0165143Y0330024D02*
X0158057Y0330024D01*
X0158057Y0318149D02*
X0165143Y0318149D01*
X0165143Y0302524D02*
X0158057Y0302524D01*
X0145143Y0298149D02*
X0138057Y0298149D01*
D15*
X0136600Y0190319D03*
X0136600Y0164728D03*
D16*
X0011200Y0032124D02*
X0011200Y0337884D01*
X0144752Y0337884D01*
X0144638Y0337609D01*
X0144638Y0334840D01*
X0145698Y0332281D01*
X0147656Y0330322D01*
X0150215Y0329262D01*
X0152913Y0329262D01*
X0152913Y0329001D01*
X0153696Y0327110D01*
X0155143Y0325663D01*
X0157034Y0324880D01*
X0166166Y0324880D01*
X0168057Y0325663D01*
X0169504Y0327110D01*
X0170287Y0329001D01*
X0170287Y0331047D01*
X0169504Y0332937D01*
X0168057Y0334384D01*
X0166166Y0335167D01*
X0158562Y0335167D01*
X0158562Y0337609D01*
X0158448Y0337884D01*
X0199752Y0337884D01*
X0199638Y0337609D01*
X0199638Y0334840D01*
X0200698Y0332281D01*
X0202656Y0330322D01*
X0205215Y0329262D01*
X0207913Y0329262D01*
X0207913Y0329001D01*
X0208696Y0327110D01*
X0210143Y0325663D01*
X0212034Y0324880D01*
X0221166Y0324880D01*
X0223057Y0325663D01*
X0224504Y0327110D01*
X0225287Y0329001D01*
X0225287Y0331047D01*
X0224504Y0332937D01*
X0223057Y0334384D01*
X0221166Y0335167D01*
X0213562Y0335167D01*
X0213562Y0337609D01*
X0213448Y0337884D01*
X0245701Y0337884D01*
X0245701Y0032124D01*
X0233432Y0032124D01*
X0233562Y0032438D01*
X0233562Y0035208D01*
X0232502Y0037767D01*
X0230544Y0039725D01*
X0227985Y0040785D01*
X0225287Y0040785D01*
X0225287Y0041047D01*
X0224504Y0042937D01*
X0223057Y0044384D01*
X0221166Y0045167D01*
X0214897Y0045167D01*
X0213453Y0046755D01*
X0221166Y0046755D01*
X0223057Y0047538D01*
X0224504Y0048985D01*
X0225287Y0050876D01*
X0225287Y0052922D01*
X0224552Y0054694D01*
X0225215Y0054420D01*
X0227985Y0054420D01*
X0230544Y0055480D01*
X0232502Y0057438D01*
X0233562Y0059997D01*
X0233562Y0062767D01*
X0232502Y0065326D01*
X0230544Y0067284D01*
X0227985Y0068344D01*
X0225287Y0068344D01*
X0225287Y0068547D01*
X0224504Y0070437D01*
X0223057Y0071884D01*
X0221166Y0072667D01*
X0212034Y0072667D01*
X0210143Y0071884D01*
X0208696Y0070437D01*
X0207913Y0068547D01*
X0207913Y0066501D01*
X0208696Y0064610D01*
X0210143Y0063163D01*
X0212034Y0062380D01*
X0219638Y0062380D01*
X0219638Y0059997D01*
X0220698Y0057438D01*
X0221094Y0057042D01*
X0214677Y0057042D01*
X0198800Y0073415D01*
X0198800Y0216612D01*
X0204744Y0222556D01*
X0205546Y0222224D01*
X0207654Y0222224D01*
X0209602Y0223030D01*
X0211093Y0224521D01*
X0211900Y0226469D01*
X0211900Y0228578D01*
X0211093Y0230526D01*
X0209602Y0232017D01*
X0208378Y0232524D01*
X0209602Y0233030D01*
X0211093Y0234521D01*
X0211900Y0236469D01*
X0211900Y0238578D01*
X0211093Y0240526D01*
X0209602Y0242017D01*
X0208378Y0242524D01*
X0209602Y0243030D01*
X0211093Y0244521D01*
X0211900Y0246469D01*
X0211900Y0248578D01*
X0211093Y0250526D01*
X0209602Y0252017D01*
X0208378Y0252524D01*
X0209602Y0253030D01*
X0211093Y0254521D01*
X0211900Y0256469D01*
X0211900Y0258578D01*
X0211093Y0260526D01*
X0209602Y0262017D01*
X0208378Y0262524D01*
X0209602Y0263030D01*
X0211093Y0264521D01*
X0211900Y0266469D01*
X0211900Y0268578D01*
X0211093Y0270526D01*
X0209602Y0272017D01*
X0208378Y0272524D01*
X0209602Y0273030D01*
X0211093Y0274521D01*
X0211900Y0276469D01*
X0211900Y0278578D01*
X0211093Y0280526D01*
X0209602Y0282017D01*
X0207654Y0282824D01*
X0205546Y0282824D01*
X0203598Y0282017D01*
X0202107Y0280526D01*
X0201300Y0278578D01*
X0201300Y0276469D01*
X0201632Y0275667D01*
X0169400Y0243435D01*
X0169400Y0123435D01*
X0135689Y0089724D01*
X0116756Y0089724D01*
X0116009Y0089830D01*
X0115867Y0089724D01*
X0115689Y0089724D01*
X0115155Y0089190D01*
X0095867Y0074724D01*
X0095689Y0074724D01*
X0095155Y0074190D01*
X0094551Y0073737D01*
X0094526Y0073561D01*
X0094400Y0073435D01*
X0094400Y0072680D01*
X0094293Y0071933D01*
X0094400Y0071790D01*
X0094400Y0048257D01*
X0094293Y0048115D01*
X0094400Y0047367D01*
X0094400Y0046612D01*
X0094526Y0046487D01*
X0094551Y0046310D01*
X0095155Y0045857D01*
X0095689Y0045324D01*
X0095867Y0045324D01*
X0098847Y0043088D01*
X0098696Y0042937D01*
X0097913Y0041047D01*
X0097913Y0039001D01*
X0098696Y0037110D01*
X0100143Y0035663D01*
X0102034Y0034880D01*
X0109638Y0034880D01*
X0109638Y0032438D01*
X0109768Y0032124D01*
X0068432Y0032124D01*
X0068562Y0032438D01*
X0068562Y0035208D01*
X0067502Y0037767D01*
X0065544Y0039725D01*
X0062985Y0040785D01*
X0060287Y0040785D01*
X0060287Y0041047D01*
X0059504Y0042937D01*
X0058057Y0044384D01*
X0056166Y0045167D01*
X0047034Y0045167D01*
X0045143Y0044384D01*
X0043696Y0042937D01*
X0042913Y0041047D01*
X0042913Y0039001D01*
X0043696Y0037110D01*
X0045143Y0035663D01*
X0047034Y0034880D01*
X0054638Y0034880D01*
X0054638Y0032438D01*
X0054768Y0032124D01*
X0011200Y0032124D01*
X0011200Y0032318D02*
X0054688Y0032318D01*
X0054638Y0033516D02*
X0011200Y0033516D01*
X0011200Y0034715D02*
X0054638Y0034715D01*
X0059931Y0041906D02*
X0098269Y0041906D01*
X0097913Y0040707D02*
X0063173Y0040707D01*
X0065760Y0039509D02*
X0097913Y0039509D01*
X0098199Y0038310D02*
X0066959Y0038310D01*
X0067774Y0037112D02*
X0098696Y0037112D01*
X0099893Y0035913D02*
X0068270Y0035913D01*
X0068562Y0034715D02*
X0109638Y0034715D01*
X0109638Y0033516D02*
X0068562Y0033516D01*
X0068512Y0032318D02*
X0109688Y0032318D01*
X0106600Y0040024D02*
X0096600Y0047524D01*
X0096600Y0072524D01*
X0116600Y0087524D01*
X0136600Y0087524D01*
X0171600Y0122524D01*
X0171600Y0242524D01*
X0206600Y0277524D01*
X0209790Y0273218D02*
X0245701Y0273218D01*
X0245701Y0272020D02*
X0209594Y0272020D01*
X0210798Y0270821D02*
X0245701Y0270821D01*
X0245701Y0269623D02*
X0211467Y0269623D01*
X0211900Y0268424D02*
X0245701Y0268424D01*
X0245701Y0267226D02*
X0211900Y0267226D01*
X0211717Y0266027D02*
X0245701Y0266027D01*
X0245701Y0264829D02*
X0211220Y0264829D01*
X0210202Y0263630D02*
X0245701Y0263630D01*
X0245701Y0262432D02*
X0208600Y0262432D01*
X0210386Y0261233D02*
X0245701Y0261233D01*
X0245701Y0260035D02*
X0211296Y0260035D01*
X0211793Y0258836D02*
X0245701Y0258836D01*
X0245701Y0257638D02*
X0211900Y0257638D01*
X0211888Y0256439D02*
X0245701Y0256439D01*
X0245701Y0255241D02*
X0211391Y0255241D01*
X0210614Y0254042D02*
X0245701Y0254042D01*
X0245701Y0252844D02*
X0209151Y0252844D01*
X0209974Y0251645D02*
X0245701Y0251645D01*
X0245701Y0250447D02*
X0211126Y0250447D01*
X0211622Y0249248D02*
X0245701Y0249248D01*
X0245701Y0248050D02*
X0211900Y0248050D01*
X0211900Y0246851D02*
X0245701Y0246851D01*
X0245701Y0245653D02*
X0211562Y0245653D01*
X0211026Y0244454D02*
X0245701Y0244454D01*
X0245701Y0243256D02*
X0209827Y0243256D01*
X0209505Y0242057D02*
X0245701Y0242057D01*
X0245701Y0240859D02*
X0210760Y0240859D01*
X0211452Y0239660D02*
X0245701Y0239660D01*
X0245701Y0238462D02*
X0211900Y0238462D01*
X0211900Y0237263D02*
X0245701Y0237263D01*
X0245701Y0236065D02*
X0211732Y0236065D01*
X0211236Y0234866D02*
X0245701Y0234866D01*
X0245701Y0233668D02*
X0210239Y0233668D01*
X0208510Y0232469D02*
X0245701Y0232469D01*
X0245701Y0231271D02*
X0210348Y0231271D01*
X0211281Y0230072D02*
X0245701Y0230072D01*
X0245701Y0228874D02*
X0211778Y0228874D01*
X0211900Y0227675D02*
X0245701Y0227675D01*
X0245701Y0226477D02*
X0211900Y0226477D01*
X0211406Y0225278D02*
X0245701Y0225278D01*
X0245701Y0224079D02*
X0210651Y0224079D01*
X0209241Y0222881D02*
X0245701Y0222881D01*
X0245701Y0221682D02*
X0203870Y0221682D01*
X0202672Y0220484D02*
X0245701Y0220484D01*
X0245701Y0219285D02*
X0201473Y0219285D01*
X0200275Y0218087D02*
X0245701Y0218087D01*
X0245701Y0216888D02*
X0199076Y0216888D01*
X0198800Y0215690D02*
X0245701Y0215690D01*
X0245701Y0214491D02*
X0198800Y0214491D01*
X0198800Y0213293D02*
X0245701Y0213293D01*
X0245701Y0212094D02*
X0209415Y0212094D01*
X0209602Y0212017D02*
X0207654Y0212824D01*
X0205546Y0212824D01*
X0203598Y0212017D01*
X0202107Y0210526D01*
X0201300Y0208578D01*
X0201300Y0206469D01*
X0202107Y0204521D01*
X0203598Y0203030D01*
X0204828Y0202521D01*
X0204566Y0202435D01*
X0203822Y0202057D01*
X0203147Y0201566D01*
X0202557Y0200976D01*
X0202067Y0200301D01*
X0201688Y0199558D01*
X0201430Y0198765D01*
X0201300Y0197941D01*
X0201300Y0197924D01*
X0206200Y0197924D01*
X0206200Y0197124D01*
X0201300Y0197124D01*
X0201300Y0197106D01*
X0201430Y0196283D01*
X0201688Y0195489D01*
X0202067Y0194746D01*
X0202557Y0194071D01*
X0203147Y0193481D01*
X0203822Y0192991D01*
X0204566Y0192612D01*
X0204837Y0192524D01*
X0204566Y0192435D01*
X0203822Y0192057D01*
X0203147Y0191566D01*
X0202557Y0190976D01*
X0202067Y0190301D01*
X0201688Y0189558D01*
X0201430Y0188765D01*
X0201300Y0187941D01*
X0201300Y0187924D01*
X0206200Y0187924D01*
X0206200Y0197124D01*
X0207000Y0197124D01*
X0207000Y0197924D01*
X0211900Y0197924D01*
X0211900Y0197941D01*
X0211769Y0198765D01*
X0211512Y0199558D01*
X0211133Y0200301D01*
X0210643Y0200976D01*
X0210053Y0201566D01*
X0209378Y0202057D01*
X0208634Y0202435D01*
X0208372Y0202521D01*
X0209602Y0203030D01*
X0211093Y0204521D01*
X0211900Y0206469D01*
X0211900Y0208578D01*
X0211093Y0210526D01*
X0209602Y0212017D01*
X0210723Y0210896D02*
X0245701Y0210896D01*
X0245701Y0209697D02*
X0211436Y0209697D01*
X0211900Y0208499D02*
X0245701Y0208499D01*
X0245701Y0207300D02*
X0211900Y0207300D01*
X0211748Y0206102D02*
X0245701Y0206102D01*
X0245701Y0204903D02*
X0211251Y0204903D01*
X0210276Y0203705D02*
X0245701Y0203705D01*
X0245701Y0202506D02*
X0208416Y0202506D01*
X0210311Y0201308D02*
X0245701Y0201308D01*
X0245701Y0200109D02*
X0211231Y0200109D01*
X0211722Y0198911D02*
X0245701Y0198911D01*
X0245701Y0197712D02*
X0207000Y0197712D01*
X0207000Y0197124D02*
X0211900Y0197124D01*
X0211900Y0197106D01*
X0211769Y0196283D01*
X0211512Y0195489D01*
X0211133Y0194746D01*
X0210643Y0194071D01*
X0210053Y0193481D01*
X0209378Y0192991D01*
X0208634Y0192612D01*
X0208363Y0192524D01*
X0208634Y0192435D01*
X0209378Y0192057D01*
X0210053Y0191566D01*
X0210643Y0190976D01*
X0211133Y0190301D01*
X0211512Y0189558D01*
X0211769Y0188765D01*
X0211900Y0187941D01*
X0211900Y0187924D01*
X0207000Y0187924D01*
X0206200Y0187924D01*
X0206200Y0187124D01*
X0201300Y0187124D01*
X0201300Y0187106D01*
X0201430Y0186283D01*
X0201688Y0185489D01*
X0202067Y0184746D01*
X0202557Y0184071D01*
X0203147Y0183481D01*
X0203822Y0182991D01*
X0204566Y0182612D01*
X0204828Y0182526D01*
X0203598Y0182017D01*
X0202107Y0180526D01*
X0201300Y0178578D01*
X0201300Y0176469D01*
X0202107Y0174521D01*
X0203598Y0173030D01*
X0204822Y0172524D01*
X0203598Y0172017D01*
X0202107Y0170526D01*
X0201300Y0168578D01*
X0201300Y0166469D01*
X0202107Y0164521D01*
X0203598Y0163030D01*
X0204822Y0162524D01*
X0203598Y0162017D01*
X0202107Y0160526D01*
X0201300Y0158578D01*
X0201300Y0156469D01*
X0202107Y0154521D01*
X0203598Y0153030D01*
X0204822Y0152524D01*
X0203598Y0152017D01*
X0202107Y0150526D01*
X0201300Y0148578D01*
X0201300Y0146469D01*
X0202107Y0144521D01*
X0203598Y0143030D01*
X0204822Y0142524D01*
X0203598Y0142017D01*
X0202107Y0140526D01*
X0201300Y0138578D01*
X0201300Y0136469D01*
X0202107Y0134521D01*
X0203598Y0133030D01*
X0205546Y0132224D01*
X0207654Y0132224D01*
X0209602Y0133030D01*
X0211093Y0134521D01*
X0211900Y0136469D01*
X0211900Y0138578D01*
X0211093Y0140526D01*
X0209602Y0142017D01*
X0208378Y0142524D01*
X0209602Y0143030D01*
X0211093Y0144521D01*
X0211900Y0146469D01*
X0211900Y0148578D01*
X0211093Y0150526D01*
X0209602Y0152017D01*
X0208378Y0152524D01*
X0209602Y0153030D01*
X0211093Y0154521D01*
X0211900Y0156469D01*
X0211900Y0158578D01*
X0211093Y0160526D01*
X0209602Y0162017D01*
X0208378Y0162524D01*
X0209602Y0163030D01*
X0211093Y0164521D01*
X0211900Y0166469D01*
X0211900Y0168578D01*
X0211093Y0170526D01*
X0209602Y0172017D01*
X0208378Y0172524D01*
X0209602Y0173030D01*
X0211093Y0174521D01*
X0211900Y0176469D01*
X0211900Y0178578D01*
X0211093Y0180526D01*
X0209602Y0182017D01*
X0208372Y0182526D01*
X0208634Y0182612D01*
X0209378Y0182991D01*
X0210053Y0183481D01*
X0210643Y0184071D01*
X0211133Y0184746D01*
X0211512Y0185489D01*
X0211769Y0186283D01*
X0211900Y0187106D01*
X0211900Y0187124D01*
X0207000Y0187124D01*
X0207000Y0187924D01*
X0207000Y0192224D01*
X0207000Y0197124D01*
X0207000Y0196514D02*
X0206200Y0196514D01*
X0206200Y0197712D02*
X0198800Y0197712D01*
X0198800Y0196514D02*
X0201394Y0196514D01*
X0201777Y0195315D02*
X0198800Y0195315D01*
X0198800Y0194117D02*
X0202524Y0194117D01*
X0203964Y0192918D02*
X0198800Y0192918D01*
X0198800Y0191720D02*
X0203358Y0191720D01*
X0202227Y0190521D02*
X0198800Y0190521D01*
X0198800Y0189323D02*
X0201612Y0189323D01*
X0201329Y0188124D02*
X0198800Y0188124D01*
X0198800Y0186926D02*
X0201329Y0186926D01*
X0201611Y0185727D02*
X0198800Y0185727D01*
X0198800Y0184529D02*
X0202225Y0184529D01*
X0203355Y0183330D02*
X0198800Y0183330D01*
X0198800Y0182132D02*
X0203875Y0182132D01*
X0202514Y0180933D02*
X0198800Y0180933D01*
X0198800Y0179735D02*
X0201779Y0179735D01*
X0201300Y0178536D02*
X0198800Y0178536D01*
X0198800Y0177338D02*
X0201300Y0177338D01*
X0201437Y0176139D02*
X0198800Y0176139D01*
X0198800Y0174941D02*
X0201933Y0174941D01*
X0202886Y0173742D02*
X0198800Y0173742D01*
X0198800Y0172543D02*
X0204774Y0172543D01*
X0202926Y0171345D02*
X0198800Y0171345D01*
X0198800Y0170146D02*
X0201950Y0170146D01*
X0201453Y0168948D02*
X0198800Y0168948D01*
X0198800Y0167749D02*
X0201300Y0167749D01*
X0201300Y0166551D02*
X0198800Y0166551D01*
X0198800Y0165352D02*
X0201763Y0165352D01*
X0202474Y0164154D02*
X0198800Y0164154D01*
X0198800Y0162955D02*
X0203779Y0162955D01*
X0203338Y0161757D02*
X0198800Y0161757D01*
X0198800Y0160558D02*
X0202139Y0160558D01*
X0201624Y0159360D02*
X0198800Y0159360D01*
X0198800Y0158161D02*
X0201300Y0158161D01*
X0201300Y0156963D02*
X0198800Y0156963D01*
X0198800Y0155764D02*
X0201592Y0155764D01*
X0202088Y0154566D02*
X0198800Y0154566D01*
X0198800Y0153367D02*
X0203261Y0153367D01*
X0203965Y0152169D02*
X0198800Y0152169D01*
X0198800Y0150970D02*
X0202551Y0150970D01*
X0201795Y0149772D02*
X0198800Y0149772D01*
X0198800Y0148573D02*
X0201300Y0148573D01*
X0201300Y0147375D02*
X0198800Y0147375D01*
X0198800Y0146176D02*
X0201421Y0146176D01*
X0201918Y0144978D02*
X0198800Y0144978D01*
X0198800Y0143779D02*
X0202849Y0143779D01*
X0204684Y0142581D02*
X0198800Y0142581D01*
X0198800Y0141382D02*
X0202963Y0141382D01*
X0201965Y0140184D02*
X0198800Y0140184D01*
X0198800Y0138985D02*
X0201469Y0138985D01*
X0201300Y0137787D02*
X0198800Y0137787D01*
X0198800Y0136588D02*
X0201300Y0136588D01*
X0201747Y0135390D02*
X0198800Y0135390D01*
X0198800Y0134191D02*
X0202437Y0134191D01*
X0203689Y0132993D02*
X0198800Y0132993D01*
X0198800Y0131794D02*
X0245701Y0131794D01*
X0245701Y0130596D02*
X0198800Y0130596D01*
X0198800Y0129397D02*
X0245701Y0129397D01*
X0245701Y0128199D02*
X0198800Y0128199D01*
X0198800Y0127000D02*
X0245701Y0127000D01*
X0245701Y0125802D02*
X0198800Y0125802D01*
X0198800Y0124603D02*
X0245701Y0124603D01*
X0245701Y0123405D02*
X0198800Y0123405D01*
X0198800Y0122206D02*
X0245701Y0122206D01*
X0245701Y0121008D02*
X0198800Y0121008D01*
X0198800Y0119809D02*
X0245701Y0119809D01*
X0245701Y0118610D02*
X0198800Y0118610D01*
X0198800Y0117412D02*
X0245701Y0117412D01*
X0245701Y0116213D02*
X0198800Y0116213D01*
X0198800Y0115015D02*
X0245701Y0115015D01*
X0245701Y0113816D02*
X0198800Y0113816D01*
X0198800Y0112618D02*
X0245701Y0112618D01*
X0245701Y0111419D02*
X0198800Y0111419D01*
X0198800Y0110221D02*
X0245701Y0110221D01*
X0245701Y0109022D02*
X0198800Y0109022D01*
X0198800Y0107824D02*
X0245701Y0107824D01*
X0245701Y0106625D02*
X0198800Y0106625D01*
X0198800Y0105427D02*
X0245701Y0105427D01*
X0245701Y0104228D02*
X0198800Y0104228D01*
X0198800Y0103030D02*
X0245701Y0103030D01*
X0245701Y0101831D02*
X0198800Y0101831D01*
X0198800Y0100633D02*
X0245701Y0100633D01*
X0245701Y0099434D02*
X0198800Y0099434D01*
X0198800Y0098236D02*
X0245701Y0098236D01*
X0245701Y0097037D02*
X0198800Y0097037D01*
X0198800Y0095839D02*
X0245701Y0095839D01*
X0245701Y0094640D02*
X0198800Y0094640D01*
X0198800Y0093442D02*
X0245701Y0093442D01*
X0245701Y0092243D02*
X0198800Y0092243D01*
X0198800Y0091045D02*
X0245701Y0091045D01*
X0245701Y0089846D02*
X0198800Y0089846D01*
X0198800Y0088648D02*
X0245701Y0088648D01*
X0245701Y0087449D02*
X0198800Y0087449D01*
X0198800Y0086251D02*
X0245701Y0086251D01*
X0245701Y0085052D02*
X0198800Y0085052D01*
X0198800Y0083854D02*
X0245701Y0083854D01*
X0245701Y0082655D02*
X0198800Y0082655D01*
X0198800Y0081457D02*
X0245701Y0081457D01*
X0245701Y0080258D02*
X0198800Y0080258D01*
X0198800Y0079060D02*
X0245701Y0079060D01*
X0245701Y0077861D02*
X0198800Y0077861D01*
X0198800Y0076663D02*
X0231077Y0076663D01*
X0231082Y0076665D02*
X0230361Y0076298D01*
X0229706Y0075822D01*
X0229134Y0075249D01*
X0228658Y0074594D01*
X0228290Y0073873D01*
X0228040Y0073103D01*
X0227941Y0072480D01*
X0236019Y0072480D01*
X0236019Y0077042D01*
X0232652Y0077042D01*
X0231852Y0076915D01*
X0231082Y0076665D01*
X0229348Y0075464D02*
X0198800Y0075464D01*
X0198800Y0074266D02*
X0228490Y0074266D01*
X0228034Y0073067D02*
X0199138Y0073067D01*
X0200300Y0071869D02*
X0210128Y0071869D01*
X0208929Y0070670D02*
X0201462Y0070670D01*
X0202624Y0069472D02*
X0208296Y0069472D01*
X0207913Y0068273D02*
X0203786Y0068273D01*
X0204948Y0067074D02*
X0207913Y0067074D01*
X0208172Y0065876D02*
X0206111Y0065876D01*
X0207273Y0064677D02*
X0208669Y0064677D01*
X0208435Y0063479D02*
X0209828Y0063479D01*
X0209597Y0062280D02*
X0219638Y0062280D01*
X0219638Y0061082D02*
X0210759Y0061082D01*
X0211922Y0059883D02*
X0219685Y0059883D01*
X0220181Y0058685D02*
X0213084Y0058685D01*
X0214246Y0057486D02*
X0220678Y0057486D01*
X0224885Y0053891D02*
X0245701Y0053891D01*
X0245701Y0055089D02*
X0229602Y0055089D01*
X0231352Y0056288D02*
X0245701Y0056288D01*
X0245701Y0057486D02*
X0232522Y0057486D01*
X0233019Y0058685D02*
X0245701Y0058685D01*
X0245701Y0059883D02*
X0233515Y0059883D01*
X0233562Y0061082D02*
X0245701Y0061082D01*
X0245701Y0062280D02*
X0233562Y0062280D01*
X0233267Y0063479D02*
X0245701Y0063479D01*
X0245701Y0064677D02*
X0232771Y0064677D01*
X0231952Y0065876D02*
X0245701Y0065876D01*
X0245701Y0067074D02*
X0241940Y0067074D01*
X0242118Y0067132D02*
X0242839Y0067500D01*
X0243494Y0067976D01*
X0244066Y0068548D01*
X0244542Y0069203D01*
X0244910Y0069924D01*
X0245160Y0070694D01*
X0245259Y0071317D01*
X0237181Y0071317D01*
X0237181Y0066755D01*
X0240548Y0066755D01*
X0241348Y0066882D01*
X0242118Y0067132D01*
X0243791Y0068273D02*
X0245701Y0068273D01*
X0245701Y0069472D02*
X0244679Y0069472D01*
X0245152Y0070670D02*
X0245701Y0070670D01*
X0245701Y0071869D02*
X0237181Y0071869D01*
X0237181Y0071317D02*
X0237181Y0072480D01*
X0236019Y0072480D01*
X0236019Y0071317D01*
X0237181Y0071317D01*
X0237181Y0070670D02*
X0236019Y0070670D01*
X0236019Y0071317D02*
X0236019Y0066755D01*
X0232652Y0066755D01*
X0231852Y0066882D01*
X0231082Y0067132D01*
X0230361Y0067500D01*
X0229706Y0067976D01*
X0229134Y0068548D01*
X0228658Y0069203D01*
X0228290Y0069924D01*
X0228040Y0070694D01*
X0227941Y0071317D01*
X0236019Y0071317D01*
X0236019Y0071869D02*
X0223072Y0071869D01*
X0224271Y0070670D02*
X0228048Y0070670D01*
X0228521Y0069472D02*
X0224904Y0069472D01*
X0228156Y0068273D02*
X0229409Y0068273D01*
X0230753Y0067074D02*
X0231260Y0067074D01*
X0236019Y0067074D02*
X0237181Y0067074D01*
X0237181Y0068273D02*
X0236019Y0068273D01*
X0236019Y0069472D02*
X0237181Y0069472D01*
X0237181Y0072480D02*
X0245259Y0072480D01*
X0245160Y0073103D01*
X0244910Y0073873D01*
X0244542Y0074594D01*
X0244066Y0075249D01*
X0243494Y0075822D01*
X0242839Y0076298D01*
X0242118Y0076665D01*
X0241348Y0076915D01*
X0240548Y0077042D01*
X0237181Y0077042D01*
X0237181Y0072480D01*
X0237181Y0073067D02*
X0236019Y0073067D01*
X0236019Y0074266D02*
X0237181Y0074266D01*
X0237181Y0075464D02*
X0236019Y0075464D01*
X0236019Y0076663D02*
X0237181Y0076663D01*
X0242123Y0076663D02*
X0245701Y0076663D01*
X0245701Y0075464D02*
X0243852Y0075464D01*
X0244710Y0074266D02*
X0245701Y0074266D01*
X0245701Y0073067D02*
X0245166Y0073067D01*
X0245701Y0052692D02*
X0225287Y0052692D01*
X0225287Y0051494D02*
X0245701Y0051494D01*
X0245701Y0050295D02*
X0225046Y0050295D01*
X0224550Y0049097D02*
X0245701Y0049097D01*
X0245701Y0047898D02*
X0223417Y0047898D01*
X0223138Y0044303D02*
X0245701Y0044303D01*
X0245701Y0045501D02*
X0214593Y0045501D01*
X0213504Y0046700D02*
X0245701Y0046700D01*
X0245701Y0043104D02*
X0224336Y0043104D01*
X0224931Y0041906D02*
X0245701Y0041906D01*
X0245701Y0040707D02*
X0228173Y0040707D01*
X0230760Y0039509D02*
X0245701Y0039509D01*
X0245701Y0038310D02*
X0231959Y0038310D01*
X0232774Y0037112D02*
X0245701Y0037112D01*
X0245701Y0035913D02*
X0233270Y0035913D01*
X0233562Y0034715D02*
X0245701Y0034715D01*
X0245701Y0033516D02*
X0233562Y0033516D01*
X0233512Y0032318D02*
X0245701Y0032318D01*
X0219768Y0032124D02*
X0178432Y0032124D01*
X0178562Y0032438D01*
X0178562Y0035208D01*
X0177502Y0037767D01*
X0175544Y0039725D01*
X0172985Y0040785D01*
X0170287Y0040785D01*
X0170287Y0041047D01*
X0169504Y0042937D01*
X0168057Y0044384D01*
X0166166Y0045167D01*
X0160089Y0045167D01*
X0158728Y0046755D01*
X0166166Y0046755D01*
X0168057Y0047538D01*
X0169504Y0048985D01*
X0170287Y0050876D01*
X0170287Y0052922D01*
X0169552Y0054694D01*
X0170215Y0054420D01*
X0172985Y0054420D01*
X0175544Y0055480D01*
X0177502Y0057438D01*
X0178562Y0059997D01*
X0178562Y0062767D01*
X0177502Y0065326D01*
X0175544Y0067284D01*
X0172985Y0068344D01*
X0170287Y0068344D01*
X0170287Y0068547D01*
X0169504Y0070437D01*
X0168057Y0071884D01*
X0166166Y0072667D01*
X0157034Y0072667D01*
X0155143Y0071884D01*
X0153800Y0070541D01*
X0153800Y0071612D01*
X0187511Y0105324D01*
X0188800Y0106612D01*
X0188800Y0226612D01*
X0201678Y0239490D01*
X0201300Y0238578D01*
X0201300Y0236469D01*
X0201632Y0235667D01*
X0189400Y0223435D01*
X0189400Y0074790D01*
X0189066Y0075249D01*
X0188494Y0075822D01*
X0187839Y0076298D01*
X0187118Y0076665D01*
X0186348Y0076915D01*
X0185548Y0077042D01*
X0182181Y0077042D01*
X0182181Y0072480D01*
X0181019Y0072480D01*
X0181019Y0077042D01*
X0177652Y0077042D01*
X0176852Y0076915D01*
X0176082Y0076665D01*
X0175361Y0076298D01*
X0174706Y0075822D01*
X0174134Y0075249D01*
X0173658Y0074594D01*
X0173290Y0073873D01*
X0173040Y0073103D01*
X0172941Y0072480D01*
X0181019Y0072480D01*
X0181019Y0071317D01*
X0182181Y0071317D01*
X0182181Y0066755D01*
X0185548Y0066755D01*
X0186348Y0066882D01*
X0187118Y0067132D01*
X0187839Y0067500D01*
X0188494Y0067976D01*
X0189066Y0068548D01*
X0189400Y0069007D01*
X0189400Y0067576D01*
X0189359Y0066718D01*
X0189400Y0066673D01*
X0189400Y0066612D01*
X0190007Y0066005D01*
X0209892Y0044132D01*
X0208696Y0042937D01*
X0207913Y0041047D01*
X0207913Y0039001D01*
X0208696Y0037110D01*
X0210143Y0035663D01*
X0212034Y0034880D01*
X0219638Y0034880D01*
X0219638Y0032438D01*
X0219768Y0032124D01*
X0219688Y0032318D02*
X0178512Y0032318D01*
X0178562Y0033516D02*
X0219638Y0033516D01*
X0219638Y0034715D02*
X0178562Y0034715D01*
X0178270Y0035913D02*
X0209893Y0035913D01*
X0208696Y0037112D02*
X0177774Y0037112D01*
X0176959Y0038310D02*
X0208199Y0038310D01*
X0207913Y0039509D02*
X0175760Y0039509D01*
X0173173Y0040707D02*
X0207913Y0040707D01*
X0208269Y0041906D02*
X0169931Y0041906D01*
X0169336Y0043104D02*
X0208864Y0043104D01*
X0209737Y0044303D02*
X0168138Y0044303D01*
X0168417Y0047898D02*
X0206468Y0047898D01*
X0207558Y0046700D02*
X0158775Y0046700D01*
X0159802Y0045501D02*
X0208647Y0045501D01*
X0205378Y0049097D02*
X0169550Y0049097D01*
X0170046Y0050295D02*
X0204289Y0050295D01*
X0203199Y0051494D02*
X0170287Y0051494D01*
X0170287Y0052692D02*
X0202110Y0052692D01*
X0201020Y0053891D02*
X0169885Y0053891D01*
X0174602Y0055089D02*
X0199931Y0055089D01*
X0198841Y0056288D02*
X0176352Y0056288D01*
X0177522Y0057486D02*
X0197752Y0057486D01*
X0196662Y0058685D02*
X0178019Y0058685D01*
X0178515Y0059883D02*
X0195572Y0059883D01*
X0194483Y0061082D02*
X0178562Y0061082D01*
X0178562Y0062280D02*
X0193393Y0062280D01*
X0192304Y0063479D02*
X0178267Y0063479D01*
X0177771Y0064677D02*
X0191214Y0064677D01*
X0190125Y0065876D02*
X0176952Y0065876D01*
X0176852Y0066882D02*
X0177652Y0066755D01*
X0181019Y0066755D01*
X0181019Y0071317D01*
X0172941Y0071317D01*
X0173040Y0070694D01*
X0173290Y0069924D01*
X0173658Y0069203D01*
X0174134Y0068548D01*
X0174706Y0067976D01*
X0175361Y0067500D01*
X0176082Y0067132D01*
X0176852Y0066882D01*
X0176260Y0067074D02*
X0175753Y0067074D01*
X0174409Y0068273D02*
X0173156Y0068273D01*
X0173521Y0069472D02*
X0169904Y0069472D01*
X0169271Y0070670D02*
X0173048Y0070670D01*
X0173034Y0073067D02*
X0155255Y0073067D01*
X0155128Y0071869D02*
X0154056Y0071869D01*
X0153929Y0070670D02*
X0153800Y0070670D01*
X0151600Y0072524D02*
X0186600Y0107524D01*
X0186600Y0227524D01*
X0206600Y0247524D01*
X0201206Y0255241D02*
X0197428Y0255241D01*
X0196230Y0254042D02*
X0200007Y0254042D01*
X0198809Y0252844D02*
X0195031Y0252844D01*
X0193833Y0251645D02*
X0197610Y0251645D01*
X0196412Y0250447D02*
X0192634Y0250447D01*
X0191436Y0249248D02*
X0195213Y0249248D01*
X0194015Y0248050D02*
X0190237Y0248050D01*
X0189039Y0246851D02*
X0192816Y0246851D01*
X0191618Y0245653D02*
X0187840Y0245653D01*
X0186642Y0244454D02*
X0190419Y0244454D01*
X0189221Y0243256D02*
X0185443Y0243256D01*
X0184245Y0242057D02*
X0188022Y0242057D01*
X0186824Y0240859D02*
X0183046Y0240859D01*
X0181848Y0239660D02*
X0185625Y0239660D01*
X0184427Y0238462D02*
X0180649Y0238462D01*
X0179451Y0237263D02*
X0183228Y0237263D01*
X0182030Y0236065D02*
X0178800Y0236065D01*
X0178800Y0236612D02*
X0201678Y0259490D01*
X0201300Y0258578D01*
X0201300Y0256469D01*
X0201632Y0255667D01*
X0179400Y0233435D01*
X0179400Y0113435D01*
X0144400Y0078435D01*
X0144400Y0057608D01*
X0144337Y0056784D01*
X0144400Y0056710D01*
X0144400Y0056612D01*
X0144985Y0056028D01*
X0150713Y0049344D01*
X0150713Y0048857D01*
X0152002Y0047568D01*
X0153637Y0045933D01*
X0155047Y0044288D01*
X0153696Y0042937D01*
X0152913Y0041047D01*
X0152913Y0039001D01*
X0153696Y0037110D01*
X0155143Y0035663D01*
X0157034Y0034880D01*
X0164638Y0034880D01*
X0164638Y0032438D01*
X0164768Y0032124D01*
X0123432Y0032124D01*
X0123562Y0032438D01*
X0123562Y0035208D01*
X0122502Y0037767D01*
X0120544Y0039725D01*
X0117985Y0040785D01*
X0115287Y0040785D01*
X0115287Y0041047D01*
X0114504Y0042937D01*
X0113057Y0044384D01*
X0111166Y0045167D01*
X0103409Y0045167D01*
X0100375Y0047442D01*
X0102034Y0046755D01*
X0111166Y0046755D01*
X0113057Y0047538D01*
X0114504Y0048985D01*
X0114906Y0049957D01*
X0126634Y0050324D01*
X0127511Y0050324D01*
X0127540Y0050352D01*
X0127580Y0050353D01*
X0128180Y0050992D01*
X0142511Y0065324D01*
X0143800Y0066612D01*
X0143800Y0081612D01*
X0177511Y0115324D01*
X0177511Y0115324D01*
X0178800Y0116612D01*
X0178800Y0236612D01*
X0178800Y0234866D02*
X0180831Y0234866D01*
X0179633Y0233668D02*
X0178800Y0233668D01*
X0178800Y0232469D02*
X0179400Y0232469D01*
X0179400Y0231271D02*
X0178800Y0231271D01*
X0178800Y0230072D02*
X0179400Y0230072D01*
X0179400Y0228874D02*
X0178800Y0228874D01*
X0178800Y0227675D02*
X0179400Y0227675D01*
X0179400Y0226477D02*
X0178800Y0226477D01*
X0178800Y0225278D02*
X0179400Y0225278D01*
X0179400Y0224079D02*
X0178800Y0224079D01*
X0178800Y0222881D02*
X0179400Y0222881D01*
X0179400Y0221682D02*
X0178800Y0221682D01*
X0178800Y0220484D02*
X0179400Y0220484D01*
X0179400Y0219285D02*
X0178800Y0219285D01*
X0178800Y0218087D02*
X0179400Y0218087D01*
X0179400Y0216888D02*
X0178800Y0216888D01*
X0178800Y0215690D02*
X0179400Y0215690D01*
X0179400Y0214491D02*
X0178800Y0214491D01*
X0178800Y0213293D02*
X0179400Y0213293D01*
X0179400Y0212094D02*
X0178800Y0212094D01*
X0178800Y0210896D02*
X0179400Y0210896D01*
X0179400Y0209697D02*
X0178800Y0209697D01*
X0178800Y0208499D02*
X0179400Y0208499D01*
X0179400Y0207300D02*
X0178800Y0207300D01*
X0178800Y0206102D02*
X0179400Y0206102D01*
X0179400Y0204903D02*
X0178800Y0204903D01*
X0178800Y0203705D02*
X0179400Y0203705D01*
X0179400Y0202506D02*
X0178800Y0202506D01*
X0178800Y0201308D02*
X0179400Y0201308D01*
X0179400Y0200109D02*
X0178800Y0200109D01*
X0178800Y0198911D02*
X0179400Y0198911D01*
X0179400Y0197712D02*
X0178800Y0197712D01*
X0178800Y0196514D02*
X0179400Y0196514D01*
X0179400Y0195315D02*
X0178800Y0195315D01*
X0178800Y0194117D02*
X0179400Y0194117D01*
X0179400Y0192918D02*
X0178800Y0192918D01*
X0178800Y0191720D02*
X0179400Y0191720D01*
X0179400Y0190521D02*
X0178800Y0190521D01*
X0178800Y0189323D02*
X0179400Y0189323D01*
X0179400Y0188124D02*
X0178800Y0188124D01*
X0178800Y0186926D02*
X0179400Y0186926D01*
X0179400Y0185727D02*
X0178800Y0185727D01*
X0178800Y0184529D02*
X0179400Y0184529D01*
X0179400Y0183330D02*
X0178800Y0183330D01*
X0178800Y0182132D02*
X0179400Y0182132D01*
X0179400Y0180933D02*
X0178800Y0180933D01*
X0178800Y0179735D02*
X0179400Y0179735D01*
X0179400Y0178536D02*
X0178800Y0178536D01*
X0178800Y0177338D02*
X0179400Y0177338D01*
X0179400Y0176139D02*
X0178800Y0176139D01*
X0178800Y0174941D02*
X0179400Y0174941D01*
X0179400Y0173742D02*
X0178800Y0173742D01*
X0178800Y0172543D02*
X0179400Y0172543D01*
X0179400Y0171345D02*
X0178800Y0171345D01*
X0178800Y0170146D02*
X0179400Y0170146D01*
X0179400Y0168948D02*
X0178800Y0168948D01*
X0178800Y0167749D02*
X0179400Y0167749D01*
X0179400Y0166551D02*
X0178800Y0166551D01*
X0178800Y0165352D02*
X0179400Y0165352D01*
X0179400Y0164154D02*
X0178800Y0164154D01*
X0178800Y0162955D02*
X0179400Y0162955D01*
X0179400Y0161757D02*
X0178800Y0161757D01*
X0178800Y0160558D02*
X0179400Y0160558D01*
X0179400Y0159360D02*
X0178800Y0159360D01*
X0178800Y0158161D02*
X0179400Y0158161D01*
X0179400Y0156963D02*
X0178800Y0156963D01*
X0178800Y0155764D02*
X0179400Y0155764D01*
X0179400Y0154566D02*
X0178800Y0154566D01*
X0178800Y0153367D02*
X0179400Y0153367D01*
X0179400Y0152169D02*
X0178800Y0152169D01*
X0178800Y0150970D02*
X0179400Y0150970D01*
X0179400Y0149772D02*
X0178800Y0149772D01*
X0178800Y0148573D02*
X0179400Y0148573D01*
X0179400Y0147375D02*
X0178800Y0147375D01*
X0178800Y0146176D02*
X0179400Y0146176D01*
X0179400Y0144978D02*
X0178800Y0144978D01*
X0178800Y0143779D02*
X0179400Y0143779D01*
X0179400Y0142581D02*
X0178800Y0142581D01*
X0178800Y0141382D02*
X0179400Y0141382D01*
X0179400Y0140184D02*
X0178800Y0140184D01*
X0178800Y0138985D02*
X0179400Y0138985D01*
X0179400Y0137787D02*
X0178800Y0137787D01*
X0178800Y0136588D02*
X0179400Y0136588D01*
X0179400Y0135390D02*
X0178800Y0135390D01*
X0178800Y0134191D02*
X0179400Y0134191D01*
X0179400Y0132993D02*
X0178800Y0132993D01*
X0178800Y0131794D02*
X0179400Y0131794D01*
X0179400Y0130596D02*
X0178800Y0130596D01*
X0178800Y0129397D02*
X0179400Y0129397D01*
X0179400Y0128199D02*
X0178800Y0128199D01*
X0178800Y0127000D02*
X0179400Y0127000D01*
X0179400Y0125802D02*
X0178800Y0125802D01*
X0178800Y0124603D02*
X0179400Y0124603D01*
X0179400Y0123405D02*
X0178800Y0123405D01*
X0178800Y0122206D02*
X0179400Y0122206D01*
X0179400Y0121008D02*
X0178800Y0121008D01*
X0178800Y0119809D02*
X0179400Y0119809D01*
X0179400Y0118610D02*
X0178800Y0118610D01*
X0178800Y0117412D02*
X0179400Y0117412D01*
X0179400Y0116213D02*
X0178401Y0116213D01*
X0179400Y0115015D02*
X0177203Y0115015D01*
X0176004Y0113816D02*
X0179400Y0113816D01*
X0178583Y0112618D02*
X0174806Y0112618D01*
X0173607Y0111419D02*
X0177385Y0111419D01*
X0176186Y0110221D02*
X0172409Y0110221D01*
X0171210Y0109022D02*
X0174987Y0109022D01*
X0173789Y0107824D02*
X0170012Y0107824D01*
X0168813Y0106625D02*
X0172590Y0106625D01*
X0171392Y0105427D02*
X0167614Y0105427D01*
X0166416Y0104228D02*
X0170193Y0104228D01*
X0168995Y0103030D02*
X0165217Y0103030D01*
X0164019Y0101831D02*
X0167796Y0101831D01*
X0166598Y0100633D02*
X0162820Y0100633D01*
X0161622Y0099434D02*
X0165399Y0099434D01*
X0164201Y0098236D02*
X0160423Y0098236D01*
X0159225Y0097037D02*
X0163002Y0097037D01*
X0161804Y0095839D02*
X0158026Y0095839D01*
X0156828Y0094640D02*
X0160605Y0094640D01*
X0159407Y0093442D02*
X0155629Y0093442D01*
X0154431Y0092243D02*
X0158208Y0092243D01*
X0157010Y0091045D02*
X0153232Y0091045D01*
X0152034Y0089846D02*
X0155811Y0089846D01*
X0154613Y0088648D02*
X0150835Y0088648D01*
X0149637Y0087449D02*
X0153414Y0087449D01*
X0152216Y0086251D02*
X0148438Y0086251D01*
X0147240Y0085052D02*
X0151017Y0085052D01*
X0149819Y0083854D02*
X0146041Y0083854D01*
X0144843Y0082655D02*
X0148620Y0082655D01*
X0147422Y0081457D02*
X0143800Y0081457D01*
X0143800Y0080258D02*
X0146223Y0080258D01*
X0145025Y0079060D02*
X0143800Y0079060D01*
X0143800Y0077861D02*
X0144400Y0077861D01*
X0144400Y0076663D02*
X0143800Y0076663D01*
X0143800Y0075464D02*
X0144400Y0075464D01*
X0144400Y0074266D02*
X0143800Y0074266D01*
X0143800Y0073067D02*
X0144400Y0073067D01*
X0144400Y0071869D02*
X0143800Y0071869D01*
X0143800Y0070670D02*
X0144400Y0070670D01*
X0144400Y0069472D02*
X0143800Y0069472D01*
X0143800Y0068273D02*
X0144400Y0068273D01*
X0144400Y0067074D02*
X0143800Y0067074D01*
X0144400Y0065876D02*
X0143064Y0065876D01*
X0141865Y0064677D02*
X0144400Y0064677D01*
X0144400Y0063479D02*
X0140667Y0063479D01*
X0139468Y0062280D02*
X0144400Y0062280D01*
X0144400Y0061082D02*
X0138270Y0061082D01*
X0137071Y0059883D02*
X0144400Y0059883D01*
X0144400Y0058685D02*
X0135873Y0058685D01*
X0134674Y0057486D02*
X0144391Y0057486D01*
X0144724Y0056288D02*
X0133476Y0056288D01*
X0132277Y0055089D02*
X0145789Y0055089D01*
X0146816Y0053891D02*
X0131079Y0053891D01*
X0129880Y0052692D02*
X0147844Y0052692D01*
X0148871Y0051494D02*
X0128681Y0051494D01*
X0126600Y0052524D02*
X0141600Y0067524D01*
X0141600Y0082524D01*
X0176600Y0117524D01*
X0176600Y0237524D01*
X0206600Y0267524D01*
X0210989Y0274417D02*
X0245701Y0274417D01*
X0245701Y0275615D02*
X0211546Y0275615D01*
X0211900Y0276814D02*
X0245701Y0276814D01*
X0245701Y0278012D02*
X0211900Y0278012D01*
X0211638Y0279211D02*
X0245701Y0279211D01*
X0245701Y0280410D02*
X0211141Y0280410D01*
X0210011Y0281608D02*
X0245701Y0281608D01*
X0245701Y0282807D02*
X0207695Y0282807D01*
X0205505Y0282807D02*
X0115083Y0282807D01*
X0115083Y0283216D02*
X0114552Y0284496D01*
X0113573Y0285476D01*
X0112293Y0286006D01*
X0110907Y0286006D01*
X0109627Y0285476D01*
X0108648Y0284496D01*
X0108117Y0283216D01*
X0108117Y0283067D01*
X0077854Y0265774D01*
X0077293Y0266006D01*
X0075907Y0266006D01*
X0074627Y0265476D01*
X0073648Y0264496D01*
X0073117Y0263216D01*
X0073117Y0261831D01*
X0073648Y0260551D01*
X0074627Y0259571D01*
X0075907Y0259041D01*
X0077293Y0259041D01*
X0078573Y0259571D01*
X0079552Y0260551D01*
X0080083Y0261831D01*
X0080083Y0261980D01*
X0110346Y0279273D01*
X0110907Y0279041D01*
X0112293Y0279041D01*
X0113573Y0279571D01*
X0114552Y0280551D01*
X0115083Y0281831D01*
X0115083Y0283216D01*
X0114756Y0284005D02*
X0245701Y0284005D01*
X0245701Y0285204D02*
X0113845Y0285204D01*
X0111600Y0282524D02*
X0076600Y0262524D01*
X0079835Y0261233D02*
X0187198Y0261233D01*
X0186000Y0260035D02*
X0079036Y0260035D01*
X0080874Y0262432D02*
X0188397Y0262432D01*
X0189595Y0263630D02*
X0082971Y0263630D01*
X0085068Y0264829D02*
X0190794Y0264829D01*
X0191992Y0266027D02*
X0087166Y0266027D01*
X0089263Y0267226D02*
X0193191Y0267226D01*
X0194390Y0268424D02*
X0091361Y0268424D01*
X0093458Y0269623D02*
X0195588Y0269623D01*
X0196787Y0270821D02*
X0095555Y0270821D01*
X0097653Y0272020D02*
X0197985Y0272020D01*
X0199184Y0273218D02*
X0099750Y0273218D01*
X0101848Y0274417D02*
X0200382Y0274417D01*
X0201581Y0275615D02*
X0103945Y0275615D01*
X0106042Y0276814D02*
X0201300Y0276814D01*
X0201300Y0278012D02*
X0108140Y0278012D01*
X0110237Y0279211D02*
X0110497Y0279211D01*
X0112703Y0279211D02*
X0201562Y0279211D01*
X0202059Y0280410D02*
X0114411Y0280410D01*
X0114990Y0281608D02*
X0203189Y0281608D01*
X0201166Y0293005D02*
X0203057Y0293788D01*
X0204504Y0295235D01*
X0205287Y0297126D01*
X0205287Y0299172D01*
X0204504Y0301062D01*
X0203057Y0302509D01*
X0201166Y0303292D01*
X0192034Y0303292D01*
X0190143Y0302509D01*
X0188696Y0301062D01*
X0187913Y0299172D01*
X0187913Y0297126D01*
X0188696Y0295235D01*
X0190143Y0293788D01*
X0192034Y0293005D01*
X0201166Y0293005D01*
X0202585Y0293593D02*
X0245701Y0293593D01*
X0245701Y0292395D02*
X0011200Y0292395D01*
X0011200Y0293593D02*
X0135614Y0293593D01*
X0135143Y0293788D02*
X0137034Y0293005D01*
X0146166Y0293005D01*
X0148057Y0293788D01*
X0149504Y0295235D01*
X0150287Y0297126D01*
X0150287Y0299172D01*
X0149504Y0301062D01*
X0148057Y0302509D01*
X0146166Y0303292D01*
X0137034Y0303292D01*
X0135143Y0302509D01*
X0133696Y0301062D01*
X0132913Y0299172D01*
X0132913Y0297126D01*
X0133696Y0295235D01*
X0135143Y0293788D01*
X0134140Y0294792D02*
X0011200Y0294792D01*
X0011200Y0295990D02*
X0133384Y0295990D01*
X0132913Y0297189D02*
X0011200Y0297189D01*
X0011200Y0298387D02*
X0132913Y0298387D01*
X0133085Y0299586D02*
X0011200Y0299586D01*
X0011200Y0300784D02*
X0133581Y0300784D01*
X0134617Y0301983D02*
X0011200Y0301983D01*
X0011200Y0303181D02*
X0136766Y0303181D01*
X0133573Y0309571D02*
X0134552Y0310551D01*
X0135083Y0311831D01*
X0135083Y0313216D01*
X0134552Y0314496D01*
X0133573Y0315476D01*
X0132293Y0316006D01*
X0130907Y0316006D01*
X0129627Y0315476D01*
X0128648Y0314496D01*
X0128117Y0313216D01*
X0128117Y0311831D01*
X0128648Y0310551D01*
X0129627Y0309571D01*
X0130907Y0309041D01*
X0132293Y0309041D01*
X0133573Y0309571D01*
X0132613Y0309174D02*
X0144638Y0309174D01*
X0144638Y0310050D02*
X0144638Y0307280D01*
X0145698Y0304722D01*
X0147656Y0302763D01*
X0150215Y0301703D01*
X0152913Y0301703D01*
X0152913Y0301501D01*
X0153696Y0299610D01*
X0155143Y0298163D01*
X0157034Y0297380D01*
X0166166Y0297380D01*
X0168057Y0298163D01*
X0169504Y0299610D01*
X0170287Y0301501D01*
X0170287Y0303547D01*
X0169504Y0305437D01*
X0168057Y0306884D01*
X0166166Y0307667D01*
X0158562Y0307667D01*
X0158562Y0310050D01*
X0157502Y0312609D01*
X0157106Y0313005D01*
X0166166Y0313005D01*
X0168057Y0313788D01*
X0169504Y0315235D01*
X0170287Y0317126D01*
X0170287Y0319172D01*
X0169504Y0321062D01*
X0168057Y0322509D01*
X0166166Y0323292D01*
X0157034Y0323292D01*
X0155143Y0322509D01*
X0153696Y0321062D01*
X0152913Y0319172D01*
X0152913Y0317126D01*
X0153648Y0315353D01*
X0152985Y0315628D01*
X0150215Y0315628D01*
X0147656Y0314568D01*
X0145698Y0312609D01*
X0144638Y0310050D01*
X0144771Y0310372D02*
X0134374Y0310372D01*
X0134975Y0311571D02*
X0145268Y0311571D01*
X0145858Y0312769D02*
X0135083Y0312769D01*
X0134771Y0313968D02*
X0147056Y0313968D01*
X0149102Y0315166D02*
X0133883Y0315166D01*
X0129317Y0315166D02*
X0011200Y0315166D01*
X0011200Y0313968D02*
X0128429Y0313968D01*
X0128117Y0312769D02*
X0011200Y0312769D01*
X0011200Y0311571D02*
X0128225Y0311571D01*
X0128826Y0310372D02*
X0011200Y0310372D01*
X0011200Y0309174D02*
X0130587Y0309174D01*
X0123965Y0323984D02*
X0122430Y0323349D01*
X0120770Y0323349D01*
X0119235Y0323984D01*
X0118061Y0325159D01*
X0117425Y0326693D01*
X0117425Y0328354D01*
X0118061Y0329888D01*
X0119235Y0331063D01*
X0120770Y0331698D01*
X0122430Y0331698D01*
X0123965Y0331063D01*
X0125139Y0329888D01*
X0125775Y0328354D01*
X0125775Y0326693D01*
X0125139Y0325159D01*
X0123965Y0323984D01*
X0124735Y0324754D02*
X0245701Y0324754D01*
X0245701Y0323556D02*
X0122930Y0323556D01*
X0120270Y0323556D02*
X0112930Y0323556D01*
X0112430Y0323349D02*
X0113965Y0323984D01*
X0115139Y0325159D01*
X0115775Y0326693D01*
X0115775Y0328354D01*
X0115139Y0329888D01*
X0113965Y0331063D01*
X0112430Y0331698D01*
X0110770Y0331698D01*
X0109235Y0331063D01*
X0108061Y0329888D01*
X0107425Y0328354D01*
X0107425Y0326693D01*
X0108061Y0325159D01*
X0109235Y0323984D01*
X0110770Y0323349D01*
X0112430Y0323349D01*
X0110270Y0323556D02*
X0099041Y0323556D01*
X0099206Y0323624D02*
X0100500Y0324918D01*
X0101200Y0326609D01*
X0101200Y0328439D01*
X0100500Y0330129D01*
X0099206Y0331423D01*
X0097515Y0332124D01*
X0095685Y0332124D01*
X0093994Y0331423D01*
X0092700Y0330129D01*
X0092000Y0328439D01*
X0092000Y0326609D01*
X0092700Y0324918D01*
X0093994Y0323624D01*
X0095685Y0322924D01*
X0097515Y0322924D01*
X0099206Y0323624D01*
X0100336Y0324754D02*
X0108465Y0324754D01*
X0107732Y0325953D02*
X0100928Y0325953D01*
X0101200Y0327151D02*
X0107425Y0327151D01*
X0107425Y0328350D02*
X0101200Y0328350D01*
X0100740Y0329548D02*
X0107920Y0329548D01*
X0108919Y0330747D02*
X0099882Y0330747D01*
X0097945Y0331945D02*
X0146033Y0331945D01*
X0145340Y0333144D02*
X0011200Y0333144D01*
X0011200Y0331945D02*
X0075255Y0331945D01*
X0075685Y0332124D02*
X0073994Y0331423D01*
X0072700Y0330129D01*
X0072000Y0328439D01*
X0072000Y0326609D01*
X0072700Y0324918D01*
X0073994Y0323624D01*
X0075685Y0322924D01*
X0077515Y0322924D01*
X0079206Y0323624D01*
X0080500Y0324918D01*
X0081200Y0326609D01*
X0081200Y0328439D01*
X0080500Y0330129D01*
X0079206Y0331423D01*
X0077515Y0332124D01*
X0075685Y0332124D01*
X0077945Y0331945D02*
X0085323Y0331945D01*
X0085523Y0332010D02*
X0084834Y0331787D01*
X0084189Y0331458D01*
X0083603Y0331032D01*
X0083091Y0330520D01*
X0082666Y0329935D01*
X0082337Y0329289D01*
X0082113Y0328601D01*
X0082006Y0327924D01*
X0086200Y0327924D01*
X0086200Y0332118D01*
X0085523Y0332010D01*
X0086200Y0331945D02*
X0087000Y0331945D01*
X0087000Y0332118D02*
X0087000Y0327924D01*
X0086200Y0327924D01*
X0086200Y0327124D01*
X0082006Y0327124D01*
X0082113Y0326446D01*
X0082337Y0325758D01*
X0082666Y0325113D01*
X0083091Y0324527D01*
X0083603Y0324015D01*
X0084189Y0323589D01*
X0084834Y0323261D01*
X0085523Y0323037D01*
X0086200Y0322930D01*
X0086200Y0327124D01*
X0087000Y0327124D01*
X0087000Y0327924D01*
X0091194Y0327924D01*
X0091087Y0328601D01*
X0090863Y0329289D01*
X0090534Y0329935D01*
X0090109Y0330520D01*
X0089597Y0331032D01*
X0089011Y0331458D01*
X0088366Y0331787D01*
X0087677Y0332010D01*
X0087000Y0332118D01*
X0087877Y0331945D02*
X0095255Y0331945D01*
X0093318Y0330747D02*
X0089882Y0330747D01*
X0090731Y0329548D02*
X0092460Y0329548D01*
X0092000Y0328350D02*
X0091126Y0328350D01*
X0091194Y0327124D02*
X0087000Y0327124D01*
X0087000Y0322930D01*
X0087677Y0323037D01*
X0088366Y0323261D01*
X0089011Y0323589D01*
X0089597Y0324015D01*
X0090109Y0324527D01*
X0090534Y0325113D01*
X0090863Y0325758D01*
X0091087Y0326446D01*
X0091194Y0327124D01*
X0092000Y0327151D02*
X0087000Y0327151D01*
X0086200Y0327151D02*
X0081200Y0327151D01*
X0081200Y0328350D02*
X0082074Y0328350D01*
X0082469Y0329548D02*
X0080740Y0329548D01*
X0079882Y0330747D02*
X0083318Y0330747D01*
X0086200Y0330747D02*
X0087000Y0330747D01*
X0087000Y0329548D02*
X0086200Y0329548D01*
X0086200Y0328350D02*
X0087000Y0328350D01*
X0087000Y0325953D02*
X0086200Y0325953D01*
X0086200Y0324754D02*
X0087000Y0324754D01*
X0087000Y0323556D02*
X0086200Y0323556D01*
X0084255Y0323556D02*
X0079041Y0323556D01*
X0080336Y0324754D02*
X0082926Y0324754D01*
X0082274Y0325953D02*
X0080928Y0325953D01*
X0074158Y0323556D02*
X0011200Y0323556D01*
X0011200Y0324754D02*
X0072864Y0324754D01*
X0072272Y0325953D02*
X0011200Y0325953D01*
X0011200Y0327151D02*
X0072000Y0327151D01*
X0072000Y0328350D02*
X0011200Y0328350D01*
X0011200Y0329548D02*
X0072460Y0329548D01*
X0073318Y0330747D02*
X0011200Y0330747D01*
X0011200Y0334343D02*
X0144844Y0334343D01*
X0144638Y0335541D02*
X0011200Y0335541D01*
X0011200Y0336740D02*
X0144638Y0336740D01*
X0147231Y0330747D02*
X0124281Y0330747D01*
X0125280Y0329548D02*
X0149524Y0329548D01*
X0153183Y0328350D02*
X0125775Y0328350D01*
X0125775Y0327151D02*
X0153679Y0327151D01*
X0154854Y0325953D02*
X0125468Y0325953D01*
X0118465Y0324754D02*
X0114735Y0324754D01*
X0115468Y0325953D02*
X0117732Y0325953D01*
X0117425Y0327151D02*
X0115775Y0327151D01*
X0115775Y0328350D02*
X0117425Y0328350D01*
X0117920Y0329548D02*
X0115280Y0329548D01*
X0114281Y0330747D02*
X0118919Y0330747D01*
X0094158Y0323556D02*
X0088945Y0323556D01*
X0090274Y0324754D02*
X0092864Y0324754D01*
X0092272Y0325953D02*
X0090926Y0325953D01*
X0109355Y0285204D02*
X0011200Y0285204D01*
X0011200Y0286402D02*
X0245701Y0286402D01*
X0245701Y0287601D02*
X0011200Y0287601D01*
X0011200Y0288799D02*
X0245701Y0288799D01*
X0245701Y0289998D02*
X0011200Y0289998D01*
X0011200Y0291196D02*
X0245701Y0291196D01*
X0245701Y0294792D02*
X0204060Y0294792D01*
X0204816Y0295990D02*
X0245701Y0295990D01*
X0245701Y0297189D02*
X0205287Y0297189D01*
X0205287Y0298387D02*
X0209919Y0298387D01*
X0210143Y0298163D02*
X0212034Y0297380D01*
X0221166Y0297380D01*
X0223057Y0298163D01*
X0224504Y0299610D01*
X0225287Y0301501D01*
X0225287Y0303547D01*
X0224504Y0305437D01*
X0223057Y0306884D01*
X0221166Y0307667D01*
X0213562Y0307667D01*
X0213562Y0310050D01*
X0212502Y0312609D01*
X0212106Y0313005D01*
X0221166Y0313005D01*
X0223057Y0313788D01*
X0224504Y0315235D01*
X0225287Y0317126D01*
X0225287Y0319172D01*
X0224504Y0321062D01*
X0223057Y0322509D01*
X0221166Y0323292D01*
X0212034Y0323292D01*
X0210143Y0322509D01*
X0208696Y0321062D01*
X0207913Y0319172D01*
X0207913Y0317126D01*
X0208648Y0315353D01*
X0207985Y0315628D01*
X0205215Y0315628D01*
X0202656Y0314568D01*
X0200698Y0312609D01*
X0199638Y0310050D01*
X0199638Y0307280D01*
X0200698Y0304722D01*
X0202656Y0302763D01*
X0205215Y0301703D01*
X0207913Y0301703D01*
X0207913Y0301501D01*
X0208696Y0299610D01*
X0210143Y0298163D01*
X0208721Y0299586D02*
X0205115Y0299586D01*
X0204619Y0300784D02*
X0208210Y0300784D01*
X0204540Y0301983D02*
X0203583Y0301983D01*
X0202238Y0303181D02*
X0201434Y0303181D01*
X0201040Y0304380D02*
X0169942Y0304380D01*
X0170287Y0303181D02*
X0191766Y0303181D01*
X0189617Y0301983D02*
X0170287Y0301983D01*
X0169990Y0300784D02*
X0188581Y0300784D01*
X0188085Y0299586D02*
X0169479Y0299586D01*
X0168281Y0298387D02*
X0187913Y0298387D01*
X0187913Y0297189D02*
X0150287Y0297189D01*
X0150287Y0298387D02*
X0154919Y0298387D01*
X0153721Y0299586D02*
X0150115Y0299586D01*
X0149619Y0300784D02*
X0153210Y0300784D01*
X0149540Y0301983D02*
X0148583Y0301983D01*
X0147238Y0303181D02*
X0146434Y0303181D01*
X0146040Y0304380D02*
X0011200Y0304380D01*
X0011200Y0305578D02*
X0145343Y0305578D01*
X0144846Y0306777D02*
X0011200Y0306777D01*
X0011200Y0307975D02*
X0144638Y0307975D01*
X0153228Y0316365D02*
X0011200Y0316365D01*
X0011200Y0317563D02*
X0152913Y0317563D01*
X0152913Y0318762D02*
X0011200Y0318762D01*
X0011200Y0319960D02*
X0153240Y0319960D01*
X0153793Y0321159D02*
X0011200Y0321159D01*
X0011200Y0322357D02*
X0154992Y0322357D01*
X0157342Y0312769D02*
X0200858Y0312769D01*
X0200268Y0311571D02*
X0157932Y0311571D01*
X0158429Y0310372D02*
X0199771Y0310372D01*
X0199638Y0309174D02*
X0158562Y0309174D01*
X0158562Y0307975D02*
X0199638Y0307975D01*
X0199846Y0306777D02*
X0168164Y0306777D01*
X0169362Y0305578D02*
X0200343Y0305578D01*
X0202056Y0313968D02*
X0168236Y0313968D01*
X0169435Y0315166D02*
X0204102Y0315166D01*
X0208228Y0316365D02*
X0169972Y0316365D01*
X0170287Y0317563D02*
X0207913Y0317563D01*
X0207913Y0318762D02*
X0170287Y0318762D01*
X0169960Y0319960D02*
X0208240Y0319960D01*
X0208793Y0321159D02*
X0169407Y0321159D01*
X0168208Y0322357D02*
X0209992Y0322357D01*
X0209854Y0325953D02*
X0168346Y0325953D01*
X0169521Y0327151D02*
X0208679Y0327151D01*
X0208183Y0328350D02*
X0170017Y0328350D01*
X0170287Y0329548D02*
X0204524Y0329548D01*
X0202231Y0330747D02*
X0170287Y0330747D01*
X0169914Y0331945D02*
X0201033Y0331945D01*
X0200340Y0333144D02*
X0169297Y0333144D01*
X0168098Y0334343D02*
X0199844Y0334343D01*
X0199638Y0335541D02*
X0158562Y0335541D01*
X0158562Y0336740D02*
X0199638Y0336740D01*
X0213562Y0336740D02*
X0245701Y0336740D01*
X0245701Y0335541D02*
X0213562Y0335541D01*
X0223098Y0334343D02*
X0245701Y0334343D01*
X0245701Y0333144D02*
X0224297Y0333144D01*
X0224914Y0331945D02*
X0245701Y0331945D01*
X0245701Y0330747D02*
X0225287Y0330747D01*
X0225287Y0329548D02*
X0245701Y0329548D01*
X0245701Y0328350D02*
X0225017Y0328350D01*
X0224521Y0327151D02*
X0245701Y0327151D01*
X0245701Y0325953D02*
X0223346Y0325953D01*
X0223208Y0322357D02*
X0245701Y0322357D01*
X0245701Y0321159D02*
X0224407Y0321159D01*
X0224960Y0319960D02*
X0245701Y0319960D01*
X0245701Y0318762D02*
X0225287Y0318762D01*
X0225287Y0317563D02*
X0245701Y0317563D01*
X0245701Y0316365D02*
X0224972Y0316365D01*
X0224435Y0315166D02*
X0245701Y0315166D01*
X0245701Y0313968D02*
X0223236Y0313968D01*
X0223164Y0306777D02*
X0245701Y0306777D01*
X0245701Y0307975D02*
X0213562Y0307975D01*
X0213562Y0309174D02*
X0245701Y0309174D01*
X0245701Y0310372D02*
X0213429Y0310372D01*
X0212932Y0311571D02*
X0245701Y0311571D01*
X0245701Y0312769D02*
X0212342Y0312769D01*
X0223281Y0298387D02*
X0245701Y0298387D01*
X0245701Y0299586D02*
X0224479Y0299586D01*
X0224990Y0300784D02*
X0245701Y0300784D01*
X0245701Y0301983D02*
X0225287Y0301983D01*
X0225287Y0303181D02*
X0245701Y0303181D01*
X0245701Y0304380D02*
X0224942Y0304380D01*
X0224362Y0305578D02*
X0245701Y0305578D01*
X0206600Y0257524D02*
X0181600Y0232524D01*
X0181600Y0112524D01*
X0146600Y0077524D01*
X0146600Y0057524D01*
X0152913Y0050158D01*
X0152913Y0049768D01*
X0155252Y0047429D01*
X0161600Y0040024D01*
X0164638Y0034715D02*
X0123562Y0034715D01*
X0123562Y0033516D02*
X0164638Y0033516D01*
X0164688Y0032318D02*
X0123512Y0032318D01*
X0123270Y0035913D02*
X0154893Y0035913D01*
X0153696Y0037112D02*
X0122774Y0037112D01*
X0121959Y0038310D02*
X0153199Y0038310D01*
X0152913Y0039509D02*
X0120760Y0039509D01*
X0118173Y0040707D02*
X0152913Y0040707D01*
X0153269Y0041906D02*
X0114931Y0041906D01*
X0114336Y0043104D02*
X0153864Y0043104D01*
X0155035Y0044303D02*
X0113138Y0044303D01*
X0113417Y0047898D02*
X0151672Y0047898D01*
X0150713Y0049097D02*
X0114550Y0049097D01*
X0118078Y0054458D02*
X0120544Y0055480D01*
X0122502Y0057438D01*
X0123562Y0059997D01*
X0123562Y0062767D01*
X0122502Y0065326D01*
X0120544Y0067284D01*
X0117985Y0068344D01*
X0115287Y0068344D01*
X0115287Y0068547D01*
X0114504Y0070437D01*
X0113057Y0071884D01*
X0111166Y0072667D01*
X0102034Y0072667D01*
X0100143Y0071884D01*
X0098800Y0070541D01*
X0098800Y0071424D01*
X0117333Y0085324D01*
X0137511Y0085324D01*
X0173800Y0121612D01*
X0173800Y0123435D01*
X0173800Y0241612D01*
X0201678Y0269490D01*
X0201300Y0268578D01*
X0201300Y0266469D01*
X0201632Y0265667D01*
X0175689Y0239724D01*
X0175689Y0239724D01*
X0174400Y0238435D01*
X0174400Y0118435D01*
X0140689Y0084724D01*
X0140689Y0084724D01*
X0139400Y0083435D01*
X0139400Y0068435D01*
X0125660Y0054695D01*
X0118078Y0054458D01*
X0119602Y0055089D02*
X0126055Y0055089D01*
X0127253Y0056288D02*
X0121352Y0056288D01*
X0122522Y0057486D02*
X0128452Y0057486D01*
X0129650Y0058685D02*
X0123019Y0058685D01*
X0123515Y0059883D02*
X0130849Y0059883D01*
X0132047Y0061082D02*
X0123562Y0061082D01*
X0123562Y0062280D02*
X0133246Y0062280D01*
X0134444Y0063479D02*
X0123267Y0063479D01*
X0122771Y0064677D02*
X0135643Y0064677D01*
X0136841Y0065876D02*
X0121952Y0065876D01*
X0121852Y0066882D02*
X0122652Y0066755D01*
X0126019Y0066755D01*
X0126019Y0071317D01*
X0127181Y0071317D01*
X0127181Y0066755D01*
X0130548Y0066755D01*
X0131348Y0066882D01*
X0132118Y0067132D01*
X0132839Y0067500D01*
X0133494Y0067976D01*
X0134066Y0068548D01*
X0134542Y0069203D01*
X0134910Y0069924D01*
X0135160Y0070694D01*
X0135259Y0071317D01*
X0127181Y0071317D01*
X0127181Y0072480D01*
X0126019Y0072480D01*
X0126019Y0077042D01*
X0122652Y0077042D01*
X0121852Y0076915D01*
X0121082Y0076665D01*
X0120361Y0076298D01*
X0119706Y0075822D01*
X0119134Y0075249D01*
X0118658Y0074594D01*
X0118290Y0073873D01*
X0118040Y0073103D01*
X0117941Y0072480D01*
X0126019Y0072480D01*
X0126019Y0071317D01*
X0117941Y0071317D01*
X0118040Y0070694D01*
X0118290Y0069924D01*
X0118658Y0069203D01*
X0119134Y0068548D01*
X0119706Y0067976D01*
X0120361Y0067500D01*
X0121082Y0067132D01*
X0121852Y0066882D01*
X0121260Y0067074D02*
X0120753Y0067074D01*
X0119409Y0068273D02*
X0118156Y0068273D01*
X0118521Y0069472D02*
X0114904Y0069472D01*
X0114271Y0070670D02*
X0118048Y0070670D01*
X0118034Y0073067D02*
X0100991Y0073067D01*
X0100128Y0071869D02*
X0099393Y0071869D01*
X0098929Y0070670D02*
X0098800Y0070670D01*
X0096854Y0075464D02*
X0078852Y0075464D01*
X0079066Y0075249D02*
X0078494Y0075822D01*
X0077839Y0076298D01*
X0077118Y0076665D01*
X0076348Y0076915D01*
X0075548Y0077042D01*
X0072181Y0077042D01*
X0072181Y0072480D01*
X0071019Y0072480D01*
X0071019Y0077042D01*
X0067652Y0077042D01*
X0066852Y0076915D01*
X0066082Y0076665D01*
X0065361Y0076298D01*
X0064706Y0075822D01*
X0064134Y0075249D01*
X0063658Y0074594D01*
X0063290Y0073873D01*
X0063040Y0073103D01*
X0062941Y0072480D01*
X0071019Y0072480D01*
X0071019Y0071317D01*
X0072181Y0071317D01*
X0072181Y0066755D01*
X0075548Y0066755D01*
X0076348Y0066882D01*
X0077118Y0067132D01*
X0077839Y0067500D01*
X0078494Y0067976D01*
X0079066Y0068548D01*
X0079542Y0069203D01*
X0079910Y0069924D01*
X0080160Y0070694D01*
X0080259Y0071317D01*
X0072181Y0071317D01*
X0072181Y0072480D01*
X0080259Y0072480D01*
X0080160Y0073103D01*
X0079910Y0073873D01*
X0079542Y0074594D01*
X0079066Y0075249D01*
X0079710Y0074266D02*
X0095231Y0074266D01*
X0094400Y0073067D02*
X0080166Y0073067D01*
X0080152Y0070670D02*
X0094400Y0070670D01*
X0094400Y0069472D02*
X0079679Y0069472D01*
X0078791Y0068273D02*
X0094400Y0068273D01*
X0094400Y0067074D02*
X0076940Y0067074D01*
X0072181Y0067074D02*
X0071019Y0067074D01*
X0071019Y0066755D02*
X0071019Y0071317D01*
X0062941Y0071317D01*
X0063040Y0070694D01*
X0063290Y0069924D01*
X0063658Y0069203D01*
X0064134Y0068548D01*
X0064706Y0067976D01*
X0065361Y0067500D01*
X0066082Y0067132D01*
X0066852Y0066882D01*
X0067652Y0066755D01*
X0071019Y0066755D01*
X0071019Y0068273D02*
X0072181Y0068273D01*
X0072181Y0069472D02*
X0071019Y0069472D01*
X0071019Y0070670D02*
X0072181Y0070670D01*
X0072181Y0071869D02*
X0094341Y0071869D01*
X0094400Y0065876D02*
X0066952Y0065876D01*
X0067502Y0065326D02*
X0065544Y0067284D01*
X0062985Y0068344D01*
X0060287Y0068344D01*
X0060287Y0068547D01*
X0059504Y0070437D01*
X0058057Y0071884D01*
X0056166Y0072667D01*
X0047034Y0072667D01*
X0045143Y0071884D01*
X0043696Y0070437D01*
X0042913Y0068547D01*
X0042913Y0066501D01*
X0043696Y0064610D01*
X0045143Y0063163D01*
X0047034Y0062380D01*
X0054638Y0062380D01*
X0054638Y0059997D01*
X0055698Y0057438D01*
X0056094Y0057042D01*
X0048145Y0057042D01*
X0038800Y0063661D01*
X0038800Y0083435D01*
X0037511Y0084724D01*
X0026911Y0095324D01*
X0033875Y0095324D01*
X0034627Y0094571D01*
X0035907Y0094041D01*
X0037293Y0094041D01*
X0038573Y0094571D01*
X0039552Y0095551D01*
X0040083Y0096831D01*
X0040083Y0098216D01*
X0039552Y0099496D01*
X0038573Y0100476D01*
X0037293Y0101006D01*
X0035907Y0101006D01*
X0034627Y0100476D01*
X0033875Y0099724D01*
X0022511Y0099724D01*
X0021568Y0100667D01*
X0021900Y0101469D01*
X0021900Y0103578D01*
X0021093Y0105526D01*
X0019602Y0107017D01*
X0018378Y0107524D01*
X0019602Y0108030D01*
X0021093Y0109521D01*
X0021900Y0111469D01*
X0021900Y0113578D01*
X0021093Y0115526D01*
X0019602Y0117017D01*
X0018378Y0117524D01*
X0019602Y0118030D01*
X0021093Y0119521D01*
X0021900Y0121469D01*
X0021900Y0123578D01*
X0021093Y0125526D01*
X0019602Y0127017D01*
X0018372Y0127526D01*
X0018634Y0127612D01*
X0019378Y0127991D01*
X0020053Y0128481D01*
X0020643Y0129071D01*
X0021133Y0129746D01*
X0021512Y0130489D01*
X0021769Y0131283D01*
X0021900Y0132106D01*
X0021900Y0132124D01*
X0017000Y0132124D01*
X0017000Y0132924D01*
X0021900Y0132924D01*
X0021900Y0132941D01*
X0021769Y0133765D01*
X0021512Y0134558D01*
X0021133Y0135301D01*
X0020643Y0135976D01*
X0020053Y0136566D01*
X0019378Y0137057D01*
X0018634Y0137435D01*
X0018372Y0137521D01*
X0019602Y0138030D01*
X0021093Y0139521D01*
X0021900Y0141469D01*
X0021900Y0143578D01*
X0021093Y0145526D01*
X0019602Y0147017D01*
X0018378Y0147524D01*
X0019602Y0148030D01*
X0021093Y0149521D01*
X0021900Y0151469D01*
X0021900Y0153578D01*
X0021093Y0155526D01*
X0019602Y0157017D01*
X0018378Y0157524D01*
X0019602Y0158030D01*
X0021093Y0159521D01*
X0021900Y0161469D01*
X0021900Y0163578D01*
X0021093Y0165526D01*
X0019602Y0167017D01*
X0018378Y0167524D01*
X0019602Y0168030D01*
X0021093Y0169521D01*
X0021900Y0171469D01*
X0021900Y0173578D01*
X0021093Y0175526D01*
X0019602Y0177017D01*
X0018378Y0177524D01*
X0019602Y0178030D01*
X0021093Y0179521D01*
X0021900Y0181469D01*
X0021900Y0183578D01*
X0021093Y0185526D01*
X0019602Y0187017D01*
X0018378Y0187524D01*
X0019602Y0188030D01*
X0021093Y0189521D01*
X0021900Y0191469D01*
X0021900Y0193578D01*
X0021093Y0195526D01*
X0019602Y0197017D01*
X0017654Y0197824D01*
X0015546Y0197824D01*
X0013598Y0197017D01*
X0012107Y0195526D01*
X0011300Y0193578D01*
X0011300Y0191469D01*
X0012107Y0189521D01*
X0013598Y0188030D01*
X0014822Y0187524D01*
X0013598Y0187017D01*
X0012107Y0185526D01*
X0011300Y0183578D01*
X0011300Y0181469D01*
X0012107Y0179521D01*
X0013598Y0178030D01*
X0014822Y0177524D01*
X0013598Y0177017D01*
X0012107Y0175526D01*
X0011300Y0173578D01*
X0011300Y0171469D01*
X0012107Y0169521D01*
X0013598Y0168030D01*
X0014822Y0167524D01*
X0013598Y0167017D01*
X0012107Y0165526D01*
X0011300Y0163578D01*
X0011300Y0161469D01*
X0012107Y0159521D01*
X0013598Y0158030D01*
X0014822Y0157524D01*
X0013598Y0157017D01*
X0012107Y0155526D01*
X0011300Y0153578D01*
X0011300Y0151469D01*
X0012107Y0149521D01*
X0013598Y0148030D01*
X0014822Y0147524D01*
X0013598Y0147017D01*
X0012107Y0145526D01*
X0011300Y0143578D01*
X0011300Y0141469D01*
X0012107Y0139521D01*
X0013598Y0138030D01*
X0014828Y0137521D01*
X0014566Y0137435D01*
X0013822Y0137057D01*
X0013147Y0136566D01*
X0012557Y0135976D01*
X0012067Y0135301D01*
X0011688Y0134558D01*
X0011430Y0133765D01*
X0011300Y0132941D01*
X0011300Y0132924D01*
X0016200Y0132924D01*
X0016200Y0132124D01*
X0011300Y0132124D01*
X0011300Y0132106D01*
X0011430Y0131283D01*
X0011688Y0130489D01*
X0012067Y0129746D01*
X0012557Y0129071D01*
X0013147Y0128481D01*
X0013822Y0127991D01*
X0014566Y0127612D01*
X0014828Y0127526D01*
X0013598Y0127017D01*
X0012107Y0125526D01*
X0011300Y0123578D01*
X0011300Y0121469D01*
X0012107Y0119521D01*
X0013598Y0118030D01*
X0014822Y0117524D01*
X0013598Y0117017D01*
X0012107Y0115526D01*
X0011300Y0113578D01*
X0011300Y0111469D01*
X0012107Y0109521D01*
X0013598Y0108030D01*
X0014822Y0107524D01*
X0013598Y0107017D01*
X0012107Y0105526D01*
X0011300Y0103578D01*
X0011300Y0101469D01*
X0012107Y0099521D01*
X0013598Y0098030D01*
X0015546Y0097224D01*
X0017654Y0097224D01*
X0018456Y0097556D01*
X0019400Y0096612D01*
X0020689Y0095324D01*
X0034400Y0081612D01*
X0034400Y0063224D01*
X0034278Y0063052D01*
X0034400Y0062337D01*
X0034400Y0061612D01*
X0034549Y0061463D01*
X0034585Y0061255D01*
X0035176Y0060836D01*
X0035689Y0060324D01*
X0035900Y0060324D01*
X0043693Y0054804D01*
X0042913Y0052922D01*
X0042913Y0050876D01*
X0043696Y0048985D01*
X0045143Y0047538D01*
X0047034Y0046755D01*
X0056166Y0046755D01*
X0058057Y0047538D01*
X0059504Y0048985D01*
X0060287Y0050876D01*
X0060287Y0052922D01*
X0059552Y0054694D01*
X0060215Y0054420D01*
X0062985Y0054420D01*
X0065544Y0055480D01*
X0067502Y0057438D01*
X0068562Y0059997D01*
X0068562Y0062767D01*
X0067502Y0065326D01*
X0067771Y0064677D02*
X0094400Y0064677D01*
X0094400Y0063479D02*
X0068267Y0063479D01*
X0068562Y0062280D02*
X0094400Y0062280D01*
X0094400Y0061082D02*
X0068562Y0061082D01*
X0068515Y0059883D02*
X0094400Y0059883D01*
X0094400Y0058685D02*
X0068019Y0058685D01*
X0067522Y0057486D02*
X0094400Y0057486D01*
X0094400Y0056288D02*
X0066352Y0056288D01*
X0064602Y0055089D02*
X0094400Y0055089D01*
X0094400Y0053891D02*
X0059885Y0053891D01*
X0060287Y0052692D02*
X0094400Y0052692D01*
X0094400Y0051494D02*
X0060287Y0051494D01*
X0060046Y0050295D02*
X0094400Y0050295D01*
X0094400Y0049097D02*
X0059550Y0049097D01*
X0058417Y0047898D02*
X0094324Y0047898D01*
X0094400Y0046700D02*
X0011200Y0046700D01*
X0011200Y0047898D02*
X0044783Y0047898D01*
X0043650Y0049097D02*
X0011200Y0049097D01*
X0011200Y0050295D02*
X0043154Y0050295D01*
X0042913Y0051494D02*
X0011200Y0051494D01*
X0011200Y0052692D02*
X0042913Y0052692D01*
X0043315Y0053891D02*
X0011200Y0053891D01*
X0011200Y0055089D02*
X0043289Y0055089D01*
X0041597Y0056288D02*
X0011200Y0056288D01*
X0011200Y0057486D02*
X0039905Y0057486D01*
X0038213Y0058685D02*
X0011200Y0058685D01*
X0011200Y0059883D02*
X0036521Y0059883D01*
X0034829Y0061082D02*
X0011200Y0061082D01*
X0011200Y0062280D02*
X0034400Y0062280D01*
X0034400Y0063479D02*
X0011200Y0063479D01*
X0011200Y0064677D02*
X0034400Y0064677D01*
X0034400Y0065876D02*
X0011200Y0065876D01*
X0011200Y0067074D02*
X0034400Y0067074D01*
X0034400Y0068273D02*
X0011200Y0068273D01*
X0011200Y0069472D02*
X0034400Y0069472D01*
X0034400Y0070670D02*
X0011200Y0070670D01*
X0011200Y0071869D02*
X0034400Y0071869D01*
X0034400Y0073067D02*
X0011200Y0073067D01*
X0011200Y0074266D02*
X0034400Y0074266D01*
X0034400Y0075464D02*
X0011200Y0075464D01*
X0011200Y0076663D02*
X0034400Y0076663D01*
X0034400Y0077861D02*
X0011200Y0077861D01*
X0011200Y0079060D02*
X0034400Y0079060D01*
X0034400Y0080258D02*
X0011200Y0080258D01*
X0011200Y0081457D02*
X0034400Y0081457D01*
X0033357Y0082655D02*
X0011200Y0082655D01*
X0011200Y0083854D02*
X0032159Y0083854D01*
X0030960Y0085052D02*
X0011200Y0085052D01*
X0011200Y0086251D02*
X0029762Y0086251D01*
X0028563Y0087449D02*
X0011200Y0087449D01*
X0011200Y0088648D02*
X0027365Y0088648D01*
X0026166Y0089846D02*
X0011200Y0089846D01*
X0011200Y0091045D02*
X0024968Y0091045D01*
X0023769Y0092243D02*
X0011200Y0092243D01*
X0011200Y0093442D02*
X0022571Y0093442D01*
X0021372Y0094640D02*
X0011200Y0094640D01*
X0011200Y0095839D02*
X0020174Y0095839D01*
X0018975Y0097037D02*
X0011200Y0097037D01*
X0011200Y0098236D02*
X0013392Y0098236D01*
X0012194Y0099434D02*
X0011200Y0099434D01*
X0011200Y0100633D02*
X0011647Y0100633D01*
X0011300Y0101831D02*
X0011200Y0101831D01*
X0011200Y0103030D02*
X0011300Y0103030D01*
X0011200Y0104228D02*
X0011569Y0104228D01*
X0011200Y0105427D02*
X0012066Y0105427D01*
X0011200Y0106625D02*
X0013206Y0106625D01*
X0014097Y0107824D02*
X0011200Y0107824D01*
X0011200Y0109022D02*
X0012606Y0109022D01*
X0011817Y0110221D02*
X0011200Y0110221D01*
X0011200Y0111419D02*
X0011321Y0111419D01*
X0011300Y0112618D02*
X0011200Y0112618D01*
X0011200Y0113816D02*
X0011399Y0113816D01*
X0011200Y0115015D02*
X0011895Y0115015D01*
X0011200Y0116213D02*
X0012795Y0116213D01*
X0011200Y0117412D02*
X0014552Y0117412D01*
X0013018Y0118610D02*
X0011200Y0118610D01*
X0011200Y0119809D02*
X0011988Y0119809D01*
X0011491Y0121008D02*
X0011200Y0121008D01*
X0011200Y0122206D02*
X0011300Y0122206D01*
X0011300Y0123405D02*
X0011200Y0123405D01*
X0011200Y0124603D02*
X0011725Y0124603D01*
X0011200Y0125802D02*
X0012383Y0125802D01*
X0011200Y0127000D02*
X0013581Y0127000D01*
X0013536Y0128199D02*
X0011200Y0128199D01*
X0011200Y0129397D02*
X0012320Y0129397D01*
X0011654Y0130596D02*
X0011200Y0130596D01*
X0011200Y0131794D02*
X0011349Y0131794D01*
X0011308Y0132993D02*
X0011200Y0132993D01*
X0011200Y0134191D02*
X0011569Y0134191D01*
X0011200Y0135390D02*
X0012131Y0135390D01*
X0011200Y0136588D02*
X0013177Y0136588D01*
X0014186Y0137787D02*
X0011200Y0137787D01*
X0011200Y0138985D02*
X0012643Y0138985D01*
X0011833Y0140184D02*
X0011200Y0140184D01*
X0011200Y0141382D02*
X0011336Y0141382D01*
X0011300Y0142581D02*
X0011200Y0142581D01*
X0011200Y0143779D02*
X0011383Y0143779D01*
X0011200Y0144978D02*
X0011880Y0144978D01*
X0011200Y0146176D02*
X0012757Y0146176D01*
X0011200Y0147375D02*
X0014462Y0147375D01*
X0013055Y0148573D02*
X0011200Y0148573D01*
X0011200Y0149772D02*
X0012003Y0149772D01*
X0011507Y0150970D02*
X0011200Y0150970D01*
X0011200Y0152169D02*
X0011300Y0152169D01*
X0011300Y0153367D02*
X0011200Y0153367D01*
X0011200Y0154566D02*
X0011709Y0154566D01*
X0011200Y0155764D02*
X0012345Y0155764D01*
X0011200Y0156963D02*
X0013544Y0156963D01*
X0013467Y0158161D02*
X0011200Y0158161D01*
X0011200Y0159360D02*
X0012268Y0159360D01*
X0011677Y0160558D02*
X0011200Y0160558D01*
X0011200Y0161757D02*
X0011300Y0161757D01*
X0011300Y0162955D02*
X0011200Y0162955D01*
X0011200Y0164154D02*
X0011539Y0164154D01*
X0011200Y0165352D02*
X0012035Y0165352D01*
X0011200Y0166551D02*
X0013132Y0166551D01*
X0014276Y0167749D02*
X0011200Y0167749D01*
X0011200Y0168948D02*
X0012680Y0168948D01*
X0011848Y0170146D02*
X0011200Y0170146D01*
X0011200Y0171345D02*
X0011352Y0171345D01*
X0011300Y0172543D02*
X0011200Y0172543D01*
X0011200Y0173742D02*
X0011368Y0173742D01*
X0011200Y0174941D02*
X0011864Y0174941D01*
X0011200Y0176139D02*
X0012720Y0176139D01*
X0011200Y0177338D02*
X0014372Y0177338D01*
X0013092Y0178536D02*
X0011200Y0178536D01*
X0011200Y0179735D02*
X0012019Y0179735D01*
X0011522Y0180933D02*
X0011200Y0180933D01*
X0011200Y0182132D02*
X0011300Y0182132D01*
X0011300Y0183330D02*
X0011200Y0183330D01*
X0011200Y0184529D02*
X0011694Y0184529D01*
X0011200Y0185727D02*
X0012308Y0185727D01*
X0011200Y0186926D02*
X0013507Y0186926D01*
X0013504Y0188124D02*
X0011200Y0188124D01*
X0011200Y0189323D02*
X0012306Y0189323D01*
X0011693Y0190521D02*
X0011200Y0190521D01*
X0011200Y0191720D02*
X0011300Y0191720D01*
X0011300Y0192918D02*
X0011200Y0192918D01*
X0011200Y0194117D02*
X0011523Y0194117D01*
X0011200Y0195315D02*
X0012020Y0195315D01*
X0011200Y0196514D02*
X0013095Y0196514D01*
X0011200Y0197712D02*
X0015277Y0197712D01*
X0017923Y0197712D02*
X0034400Y0197712D01*
X0034400Y0196514D02*
X0020105Y0196514D01*
X0021180Y0195315D02*
X0034400Y0195315D01*
X0034400Y0194117D02*
X0021677Y0194117D01*
X0021900Y0192918D02*
X0034400Y0192918D01*
X0034400Y0191720D02*
X0021900Y0191720D01*
X0021507Y0190521D02*
X0034400Y0190521D01*
X0034400Y0189323D02*
X0020894Y0189323D01*
X0019696Y0188124D02*
X0034400Y0188124D01*
X0034400Y0186926D02*
X0019693Y0186926D01*
X0020892Y0185727D02*
X0034400Y0185727D01*
X0034400Y0184529D02*
X0021506Y0184529D01*
X0021900Y0183330D02*
X0034400Y0183330D01*
X0034400Y0182132D02*
X0021900Y0182132D01*
X0021678Y0180933D02*
X0034400Y0180933D01*
X0034400Y0179735D02*
X0021181Y0179735D01*
X0020108Y0178536D02*
X0034400Y0178536D01*
X0034400Y0177338D02*
X0018828Y0177338D01*
X0020480Y0176139D02*
X0034400Y0176139D01*
X0034400Y0174941D02*
X0021336Y0174941D01*
X0021832Y0173742D02*
X0034400Y0173742D01*
X0034400Y0172543D02*
X0021900Y0172543D01*
X0021848Y0171345D02*
X0034400Y0171345D01*
X0034400Y0170146D02*
X0021352Y0170146D01*
X0020520Y0168948D02*
X0034400Y0168948D01*
X0034400Y0167749D02*
X0018924Y0167749D01*
X0020068Y0166551D02*
X0034400Y0166551D01*
X0034400Y0165352D02*
X0021165Y0165352D01*
X0021661Y0164154D02*
X0034400Y0164154D01*
X0034400Y0162955D02*
X0021900Y0162955D01*
X0021900Y0161757D02*
X0034400Y0161757D01*
X0034400Y0160558D02*
X0021523Y0160558D01*
X0020932Y0159360D02*
X0034400Y0159360D01*
X0034400Y0158161D02*
X0019733Y0158161D01*
X0019656Y0156963D02*
X0034400Y0156963D01*
X0034400Y0155764D02*
X0020855Y0155764D01*
X0021491Y0154566D02*
X0034400Y0154566D01*
X0034400Y0153367D02*
X0021900Y0153367D01*
X0021900Y0152169D02*
X0034400Y0152169D01*
X0034400Y0150970D02*
X0021693Y0150970D01*
X0021197Y0149772D02*
X0034400Y0149772D01*
X0034400Y0148573D02*
X0020145Y0148573D01*
X0018738Y0147375D02*
X0034400Y0147375D01*
X0034400Y0146612D02*
X0049400Y0131612D01*
X0050689Y0130324D01*
X0070689Y0130324D01*
X0089400Y0111612D01*
X0089400Y0101829D01*
X0087000Y0099429D01*
X0087000Y0095618D01*
X0089695Y0092924D01*
X0093505Y0092924D01*
X0096200Y0095618D01*
X0096200Y0099429D01*
X0093800Y0101829D01*
X0093800Y0113435D01*
X0092511Y0114724D01*
X0072511Y0134724D01*
X0052511Y0134724D01*
X0038800Y0148435D01*
X0038800Y0258435D01*
X0037511Y0259724D01*
X0027511Y0269724D01*
X0021425Y0269724D01*
X0021093Y0270526D01*
X0019602Y0272017D01*
X0018378Y0272524D01*
X0019602Y0273030D01*
X0021093Y0274521D01*
X0021425Y0275324D01*
X0025689Y0275324D01*
X0039400Y0261612D01*
X0039400Y0151612D01*
X0054400Y0136612D01*
X0055689Y0135324D01*
X0075689Y0135324D01*
X0078117Y0132895D01*
X0078117Y0131831D01*
X0078648Y0130551D01*
X0079627Y0129571D01*
X0080907Y0129041D01*
X0082293Y0129041D01*
X0083573Y0129571D01*
X0084552Y0130551D01*
X0085083Y0131831D01*
X0085083Y0133216D01*
X0084552Y0134496D01*
X0083573Y0135476D01*
X0082293Y0136006D01*
X0081229Y0136006D01*
X0077511Y0139724D01*
X0057511Y0139724D01*
X0043800Y0153435D01*
X0043800Y0263435D01*
X0042511Y0264724D01*
X0027511Y0279724D01*
X0021425Y0279724D01*
X0021093Y0280526D01*
X0019602Y0282017D01*
X0017654Y0282824D01*
X0015546Y0282824D01*
X0013598Y0282017D01*
X0012107Y0280526D01*
X0011300Y0278578D01*
X0011300Y0276469D01*
X0012107Y0274521D01*
X0013598Y0273030D01*
X0014822Y0272524D01*
X0013598Y0272017D01*
X0012107Y0270526D01*
X0011300Y0268578D01*
X0011300Y0266469D01*
X0012107Y0264521D01*
X0013598Y0263030D01*
X0014822Y0262524D01*
X0013598Y0262017D01*
X0012107Y0260526D01*
X0011300Y0258578D01*
X0011300Y0256469D01*
X0012107Y0254521D01*
X0013598Y0253030D01*
X0014822Y0252524D01*
X0013598Y0252017D01*
X0012107Y0250526D01*
X0011300Y0248578D01*
X0011300Y0246469D01*
X0012107Y0244521D01*
X0013598Y0243030D01*
X0014822Y0242524D01*
X0013598Y0242017D01*
X0012107Y0240526D01*
X0011300Y0238578D01*
X0011300Y0236469D01*
X0012107Y0234521D01*
X0013598Y0233030D01*
X0014822Y0232524D01*
X0013598Y0232017D01*
X0012107Y0230526D01*
X0011300Y0228578D01*
X0011300Y0226469D01*
X0012107Y0224521D01*
X0013598Y0223030D01*
X0014822Y0222524D01*
X0013598Y0222017D01*
X0012107Y0220526D01*
X0011300Y0218578D01*
X0011300Y0216469D01*
X0012107Y0214521D01*
X0013598Y0213030D01*
X0014822Y0212524D01*
X0013598Y0212017D01*
X0012107Y0210526D01*
X0011300Y0208578D01*
X0011300Y0206469D01*
X0012107Y0204521D01*
X0013598Y0203030D01*
X0015546Y0202224D01*
X0017654Y0202224D01*
X0019602Y0203030D01*
X0021093Y0204521D01*
X0021900Y0206469D01*
X0021900Y0208578D01*
X0021093Y0210526D01*
X0019602Y0212017D01*
X0018378Y0212524D01*
X0019602Y0213030D01*
X0021093Y0214521D01*
X0021900Y0216469D01*
X0021900Y0218578D01*
X0021093Y0220526D01*
X0019602Y0222017D01*
X0018378Y0222524D01*
X0019602Y0223030D01*
X0021093Y0224521D01*
X0021900Y0226469D01*
X0021900Y0228578D01*
X0021093Y0230526D01*
X0019602Y0232017D01*
X0018378Y0232524D01*
X0019602Y0233030D01*
X0021093Y0234521D01*
X0021900Y0236469D01*
X0021900Y0238578D01*
X0021093Y0240526D01*
X0019602Y0242017D01*
X0018378Y0242524D01*
X0019602Y0243030D01*
X0021093Y0244521D01*
X0021900Y0246469D01*
X0021900Y0248578D01*
X0021093Y0250526D01*
X0019602Y0252017D01*
X0018378Y0252524D01*
X0019602Y0253030D01*
X0021093Y0254521D01*
X0021900Y0256469D01*
X0021900Y0258578D01*
X0021093Y0260526D01*
X0019602Y0262017D01*
X0018378Y0262524D01*
X0019602Y0263030D01*
X0021093Y0264521D01*
X0021425Y0265324D01*
X0025689Y0265324D01*
X0034400Y0256612D01*
X0034400Y0146612D01*
X0034836Y0146176D02*
X0020443Y0146176D01*
X0021320Y0144978D02*
X0036035Y0144978D01*
X0037233Y0143779D02*
X0021817Y0143779D01*
X0021900Y0142581D02*
X0038432Y0142581D01*
X0039630Y0141382D02*
X0021864Y0141382D01*
X0021367Y0140184D02*
X0040829Y0140184D01*
X0042027Y0138985D02*
X0020557Y0138985D01*
X0019014Y0137787D02*
X0043226Y0137787D01*
X0044424Y0136588D02*
X0020023Y0136588D01*
X0021069Y0135390D02*
X0045623Y0135390D01*
X0046821Y0134191D02*
X0021631Y0134191D01*
X0021892Y0132993D02*
X0048020Y0132993D01*
X0049218Y0131794D02*
X0021851Y0131794D01*
X0021546Y0130596D02*
X0050417Y0130596D01*
X0051600Y0132524D02*
X0071600Y0132524D01*
X0091600Y0112524D01*
X0091600Y0097524D01*
X0094996Y0100633D02*
X0098204Y0100633D01*
X0099402Y0101831D02*
X0093800Y0101831D01*
X0093800Y0103030D02*
X0148995Y0103030D01*
X0150193Y0104228D02*
X0093800Y0104228D01*
X0093800Y0105427D02*
X0151392Y0105427D01*
X0152590Y0106625D02*
X0093800Y0106625D01*
X0093800Y0107824D02*
X0153789Y0107824D01*
X0154988Y0109022D02*
X0093800Y0109022D01*
X0093800Y0110221D02*
X0156186Y0110221D01*
X0157385Y0111419D02*
X0093800Y0111419D01*
X0093800Y0112618D02*
X0158583Y0112618D01*
X0159782Y0113816D02*
X0093418Y0113816D01*
X0092220Y0115015D02*
X0160980Y0115015D01*
X0162179Y0116213D02*
X0091021Y0116213D01*
X0089823Y0117412D02*
X0163377Y0117412D01*
X0164576Y0118610D02*
X0088624Y0118610D01*
X0087426Y0119809D02*
X0165774Y0119809D01*
X0166973Y0121008D02*
X0086227Y0121008D01*
X0085029Y0122206D02*
X0168171Y0122206D01*
X0169370Y0123405D02*
X0083830Y0123405D01*
X0082632Y0124603D02*
X0169400Y0124603D01*
X0169400Y0125802D02*
X0081433Y0125802D01*
X0080235Y0127000D02*
X0169400Y0127000D01*
X0169400Y0128199D02*
X0079036Y0128199D01*
X0080047Y0129397D02*
X0077838Y0129397D01*
X0078629Y0130596D02*
X0076639Y0130596D01*
X0075441Y0131794D02*
X0078133Y0131794D01*
X0078020Y0132993D02*
X0074242Y0132993D01*
X0073044Y0134191D02*
X0076821Y0134191D01*
X0076600Y0137524D02*
X0081600Y0132524D01*
X0083153Y0129397D02*
X0169400Y0129397D01*
X0169400Y0130596D02*
X0084571Y0130596D01*
X0085067Y0131794D02*
X0169400Y0131794D01*
X0169400Y0132993D02*
X0085083Y0132993D01*
X0084679Y0134191D02*
X0169400Y0134191D01*
X0169400Y0135390D02*
X0083659Y0135390D01*
X0080647Y0136588D02*
X0169400Y0136588D01*
X0169400Y0137787D02*
X0079448Y0137787D01*
X0078250Y0138985D02*
X0169400Y0138985D01*
X0169400Y0140184D02*
X0057051Y0140184D01*
X0055853Y0141382D02*
X0169400Y0141382D01*
X0169400Y0142581D02*
X0054654Y0142581D01*
X0053456Y0143779D02*
X0169400Y0143779D01*
X0169400Y0144978D02*
X0052257Y0144978D01*
X0051059Y0146176D02*
X0169400Y0146176D01*
X0169400Y0147375D02*
X0049860Y0147375D01*
X0048662Y0148573D02*
X0169400Y0148573D01*
X0169400Y0149772D02*
X0047463Y0149772D01*
X0046265Y0150970D02*
X0169400Y0150970D01*
X0169400Y0152169D02*
X0045066Y0152169D01*
X0043868Y0153367D02*
X0169400Y0153367D01*
X0169400Y0154566D02*
X0043800Y0154566D01*
X0043800Y0155764D02*
X0169400Y0155764D01*
X0169400Y0156963D02*
X0043800Y0156963D01*
X0043800Y0158161D02*
X0169400Y0158161D01*
X0169400Y0159360D02*
X0043800Y0159360D01*
X0043800Y0160558D02*
X0133663Y0160558D01*
X0133927Y0160366D02*
X0134642Y0160002D01*
X0135406Y0159754D01*
X0136199Y0159628D01*
X0136314Y0159628D01*
X0136314Y0164442D01*
X0136886Y0164442D01*
X0136886Y0159628D01*
X0137001Y0159628D01*
X0137794Y0159754D01*
X0138558Y0160002D01*
X0139273Y0160366D01*
X0139922Y0160838D01*
X0140490Y0161406D01*
X0140962Y0162055D01*
X0141326Y0162771D01*
X0141574Y0163534D01*
X0141700Y0164327D01*
X0141700Y0164442D01*
X0136886Y0164442D01*
X0136886Y0165014D01*
X0141700Y0165014D01*
X0141700Y0165130D01*
X0141574Y0165923D01*
X0141326Y0166686D01*
X0140962Y0167401D01*
X0140490Y0168051D01*
X0139922Y0168618D01*
X0139273Y0169090D01*
X0138558Y0169455D01*
X0137794Y0169703D01*
X0137001Y0169828D01*
X0136886Y0169828D01*
X0136886Y0165014D01*
X0136314Y0165014D01*
X0136314Y0164442D01*
X0131500Y0164442D01*
X0131500Y0164327D01*
X0131626Y0163534D01*
X0131874Y0162771D01*
X0132238Y0162055D01*
X0132710Y0161406D01*
X0133278Y0160838D01*
X0133927Y0160366D01*
X0132455Y0161757D02*
X0043800Y0161757D01*
X0043800Y0162955D02*
X0131814Y0162955D01*
X0131527Y0164154D02*
X0092565Y0164154D01*
X0092293Y0164041D02*
X0093573Y0164571D01*
X0094552Y0165551D01*
X0095083Y0166831D01*
X0095083Y0167895D01*
X0136229Y0209041D01*
X0137293Y0209041D01*
X0138573Y0209571D01*
X0139552Y0210551D01*
X0140083Y0211831D01*
X0140083Y0213216D01*
X0139552Y0214496D01*
X0138573Y0215476D01*
X0137293Y0216006D01*
X0135907Y0216006D01*
X0134627Y0215476D01*
X0133648Y0214496D01*
X0133117Y0213216D01*
X0133117Y0212152D01*
X0091971Y0171006D01*
X0090907Y0171006D01*
X0089627Y0170476D01*
X0088648Y0169496D01*
X0088117Y0168216D01*
X0088117Y0166831D01*
X0088648Y0165551D01*
X0089627Y0164571D01*
X0090907Y0164041D01*
X0092293Y0164041D01*
X0090635Y0164154D02*
X0043800Y0164154D01*
X0043800Y0165352D02*
X0088846Y0165352D01*
X0088233Y0166551D02*
X0043800Y0166551D01*
X0043800Y0167749D02*
X0088117Y0167749D01*
X0088420Y0168948D02*
X0043800Y0168948D01*
X0043800Y0170146D02*
X0089298Y0170146D01*
X0092310Y0171345D02*
X0043800Y0171345D01*
X0043800Y0172543D02*
X0093509Y0172543D01*
X0094707Y0173742D02*
X0043800Y0173742D01*
X0043800Y0174941D02*
X0095906Y0174941D01*
X0097104Y0176139D02*
X0043800Y0176139D01*
X0043800Y0177338D02*
X0098303Y0177338D01*
X0099501Y0178536D02*
X0043800Y0178536D01*
X0043800Y0179735D02*
X0100700Y0179735D01*
X0101898Y0180933D02*
X0043800Y0180933D01*
X0043800Y0182132D02*
X0103097Y0182132D01*
X0104295Y0183330D02*
X0043800Y0183330D01*
X0043800Y0184529D02*
X0089730Y0184529D01*
X0089627Y0184571D02*
X0090907Y0184041D01*
X0092293Y0184041D01*
X0093573Y0184571D01*
X0094552Y0185551D01*
X0094859Y0186291D01*
X0107108Y0190374D01*
X0107813Y0190475D01*
X0107948Y0190654D01*
X0108160Y0190725D01*
X0108479Y0191362D01*
X0121738Y0209041D01*
X0122293Y0209041D01*
X0123573Y0209571D01*
X0124552Y0210551D01*
X0125083Y0211831D01*
X0125083Y0213216D01*
X0124552Y0214496D01*
X0123573Y0215476D01*
X0122293Y0216006D01*
X0120907Y0216006D01*
X0119627Y0215476D01*
X0118648Y0214496D01*
X0118117Y0213216D01*
X0118117Y0211831D01*
X0118193Y0211648D01*
X0105252Y0194393D01*
X0093540Y0190489D01*
X0092293Y0191006D01*
X0090907Y0191006D01*
X0089627Y0190476D01*
X0088648Y0189496D01*
X0088117Y0188216D01*
X0088117Y0186831D01*
X0088648Y0185551D01*
X0089627Y0184571D01*
X0088575Y0185727D02*
X0043800Y0185727D01*
X0043800Y0186926D02*
X0088117Y0186926D01*
X0088117Y0188124D02*
X0043800Y0188124D01*
X0043800Y0189323D02*
X0088576Y0189323D01*
X0089736Y0190521D02*
X0043800Y0190521D01*
X0043800Y0191720D02*
X0097231Y0191720D01*
X0093636Y0190521D02*
X0093464Y0190521D01*
X0091600Y0187524D02*
X0106600Y0192524D01*
X0121600Y0212524D01*
X0120143Y0215690D02*
X0043800Y0215690D01*
X0043800Y0216888D02*
X0169400Y0216888D01*
X0169400Y0215690D02*
X0138057Y0215690D01*
X0139555Y0214491D02*
X0169400Y0214491D01*
X0169400Y0213293D02*
X0140051Y0213293D01*
X0140083Y0212094D02*
X0169400Y0212094D01*
X0169400Y0210896D02*
X0139695Y0210896D01*
X0138699Y0209697D02*
X0169400Y0209697D01*
X0169400Y0208499D02*
X0135686Y0208499D01*
X0134488Y0207300D02*
X0169400Y0207300D01*
X0169400Y0206102D02*
X0133289Y0206102D01*
X0132091Y0204903D02*
X0169400Y0204903D01*
X0169400Y0203705D02*
X0130892Y0203705D01*
X0129694Y0202506D02*
X0169400Y0202506D01*
X0169400Y0201308D02*
X0128495Y0201308D01*
X0127297Y0200109D02*
X0169400Y0200109D01*
X0169400Y0198911D02*
X0126098Y0198911D01*
X0124900Y0197712D02*
X0169400Y0197712D01*
X0169400Y0196514D02*
X0123701Y0196514D01*
X0122503Y0195315D02*
X0135335Y0195315D01*
X0135586Y0195419D02*
X0133711Y0194642D01*
X0132276Y0193208D01*
X0131500Y0191333D01*
X0131500Y0189304D01*
X0132276Y0187430D01*
X0133711Y0185995D01*
X0135586Y0185219D01*
X0137614Y0185219D01*
X0139489Y0185995D01*
X0140924Y0187430D01*
X0141700Y0189304D01*
X0141700Y0191333D01*
X0140924Y0193208D01*
X0139489Y0194642D01*
X0137614Y0195419D01*
X0135586Y0195419D01*
X0137865Y0195315D02*
X0169400Y0195315D01*
X0169400Y0194117D02*
X0140015Y0194117D01*
X0141044Y0192918D02*
X0169400Y0192918D01*
X0169400Y0191720D02*
X0141540Y0191720D01*
X0141700Y0190521D02*
X0169400Y0190521D01*
X0169400Y0189323D02*
X0141700Y0189323D01*
X0141211Y0188124D02*
X0169400Y0188124D01*
X0169400Y0186926D02*
X0140419Y0186926D01*
X0138841Y0185727D02*
X0169400Y0185727D01*
X0169400Y0184529D02*
X0111716Y0184529D01*
X0112915Y0185727D02*
X0134359Y0185727D01*
X0132781Y0186926D02*
X0114113Y0186926D01*
X0115312Y0188124D02*
X0131989Y0188124D01*
X0131500Y0189323D02*
X0116510Y0189323D01*
X0117709Y0190521D02*
X0131500Y0190521D01*
X0131660Y0191720D02*
X0118907Y0191720D01*
X0120106Y0192918D02*
X0132156Y0192918D01*
X0133185Y0194117D02*
X0121304Y0194117D01*
X0118677Y0197712D02*
X0113241Y0197712D01*
X0112343Y0196514D02*
X0117479Y0196514D01*
X0116280Y0195315D02*
X0111444Y0195315D01*
X0110545Y0194117D02*
X0115082Y0194117D01*
X0113883Y0192918D02*
X0109646Y0192918D01*
X0108747Y0191720D02*
X0112685Y0191720D01*
X0111486Y0190521D02*
X0107848Y0190521D01*
X0109089Y0188124D02*
X0100359Y0188124D01*
X0096763Y0186926D02*
X0107891Y0186926D01*
X0106692Y0185727D02*
X0094625Y0185727D01*
X0093470Y0184529D02*
X0105494Y0184529D01*
X0106922Y0179735D02*
X0169400Y0179735D01*
X0169400Y0180933D02*
X0108121Y0180933D01*
X0109319Y0182132D02*
X0169400Y0182132D01*
X0169400Y0183330D02*
X0110518Y0183330D01*
X0110288Y0189323D02*
X0103954Y0189323D01*
X0100827Y0192918D02*
X0043800Y0192918D01*
X0043800Y0194117D02*
X0104422Y0194117D01*
X0105944Y0195315D02*
X0043800Y0195315D01*
X0043800Y0196514D02*
X0106843Y0196514D01*
X0107741Y0197712D02*
X0043800Y0197712D01*
X0043800Y0198911D02*
X0108640Y0198911D01*
X0109539Y0200109D02*
X0043800Y0200109D01*
X0043800Y0201308D02*
X0110438Y0201308D01*
X0111337Y0202506D02*
X0043800Y0202506D01*
X0043800Y0203705D02*
X0112236Y0203705D01*
X0113135Y0204903D02*
X0108905Y0204903D01*
X0108573Y0204571D02*
X0109552Y0205551D01*
X0110083Y0206831D01*
X0110083Y0208216D01*
X0109552Y0209496D01*
X0108573Y0210476D01*
X0107293Y0211006D01*
X0105907Y0211006D01*
X0104627Y0210476D01*
X0103875Y0209724D01*
X0094325Y0209724D01*
X0093573Y0210476D01*
X0092293Y0211006D01*
X0090907Y0211006D01*
X0089627Y0210476D01*
X0088648Y0209496D01*
X0088117Y0208216D01*
X0088117Y0206831D01*
X0088648Y0205551D01*
X0089627Y0204571D01*
X0090907Y0204041D01*
X0092293Y0204041D01*
X0093573Y0204571D01*
X0094325Y0205324D01*
X0103875Y0205324D01*
X0104627Y0204571D01*
X0105907Y0204041D01*
X0107293Y0204041D01*
X0108573Y0204571D01*
X0109781Y0206102D02*
X0114034Y0206102D01*
X0114933Y0207300D02*
X0110083Y0207300D01*
X0109966Y0208499D02*
X0115831Y0208499D01*
X0116730Y0209697D02*
X0109352Y0209697D01*
X0107559Y0210896D02*
X0117629Y0210896D01*
X0118117Y0212094D02*
X0043800Y0212094D01*
X0043800Y0210896D02*
X0090641Y0210896D01*
X0092559Y0210896D02*
X0105641Y0210896D01*
X0106600Y0207524D02*
X0091600Y0207524D01*
X0088419Y0206102D02*
X0043800Y0206102D01*
X0043800Y0207300D02*
X0088117Y0207300D01*
X0088234Y0208499D02*
X0043800Y0208499D01*
X0043800Y0209697D02*
X0088848Y0209697D01*
X0089295Y0204903D02*
X0043800Y0204903D01*
X0039400Y0204903D02*
X0038800Y0204903D01*
X0038800Y0203705D02*
X0039400Y0203705D01*
X0039400Y0202506D02*
X0038800Y0202506D01*
X0038800Y0201308D02*
X0039400Y0201308D01*
X0039400Y0200109D02*
X0038800Y0200109D01*
X0038800Y0198911D02*
X0039400Y0198911D01*
X0039400Y0197712D02*
X0038800Y0197712D01*
X0038800Y0196514D02*
X0039400Y0196514D01*
X0039400Y0195315D02*
X0038800Y0195315D01*
X0038800Y0194117D02*
X0039400Y0194117D01*
X0039400Y0192918D02*
X0038800Y0192918D01*
X0038800Y0191720D02*
X0039400Y0191720D01*
X0039400Y0190521D02*
X0038800Y0190521D01*
X0038800Y0189323D02*
X0039400Y0189323D01*
X0039400Y0188124D02*
X0038800Y0188124D01*
X0038800Y0186926D02*
X0039400Y0186926D01*
X0039400Y0185727D02*
X0038800Y0185727D01*
X0038800Y0184529D02*
X0039400Y0184529D01*
X0039400Y0183330D02*
X0038800Y0183330D01*
X0038800Y0182132D02*
X0039400Y0182132D01*
X0039400Y0180933D02*
X0038800Y0180933D01*
X0038800Y0179735D02*
X0039400Y0179735D01*
X0039400Y0178536D02*
X0038800Y0178536D01*
X0038800Y0177338D02*
X0039400Y0177338D01*
X0039400Y0176139D02*
X0038800Y0176139D01*
X0038800Y0174941D02*
X0039400Y0174941D01*
X0039400Y0173742D02*
X0038800Y0173742D01*
X0038800Y0172543D02*
X0039400Y0172543D01*
X0039400Y0171345D02*
X0038800Y0171345D01*
X0038800Y0170146D02*
X0039400Y0170146D01*
X0039400Y0168948D02*
X0038800Y0168948D01*
X0038800Y0167749D02*
X0039400Y0167749D01*
X0039400Y0166551D02*
X0038800Y0166551D01*
X0038800Y0165352D02*
X0039400Y0165352D01*
X0039400Y0164154D02*
X0038800Y0164154D01*
X0038800Y0162955D02*
X0039400Y0162955D01*
X0039400Y0161757D02*
X0038800Y0161757D01*
X0038800Y0160558D02*
X0039400Y0160558D01*
X0039400Y0159360D02*
X0038800Y0159360D01*
X0038800Y0158161D02*
X0039400Y0158161D01*
X0039400Y0156963D02*
X0038800Y0156963D01*
X0038800Y0155764D02*
X0039400Y0155764D01*
X0039400Y0154566D02*
X0038800Y0154566D01*
X0038800Y0153367D02*
X0039400Y0153367D01*
X0039400Y0152169D02*
X0038800Y0152169D01*
X0038800Y0150970D02*
X0040042Y0150970D01*
X0041241Y0149772D02*
X0038800Y0149772D01*
X0038800Y0148573D02*
X0042439Y0148573D01*
X0043638Y0147375D02*
X0039860Y0147375D01*
X0041059Y0146176D02*
X0044836Y0146176D01*
X0046035Y0144978D02*
X0042257Y0144978D01*
X0043456Y0143779D02*
X0047233Y0143779D01*
X0048432Y0142581D02*
X0044654Y0142581D01*
X0045853Y0141382D02*
X0049630Y0141382D01*
X0050829Y0140184D02*
X0047051Y0140184D01*
X0048250Y0138985D02*
X0052027Y0138985D01*
X0053226Y0137787D02*
X0049448Y0137787D01*
X0050647Y0136588D02*
X0054424Y0136588D01*
X0055623Y0135390D02*
X0051845Y0135390D01*
X0051600Y0132524D02*
X0036600Y0147524D01*
X0036600Y0257524D01*
X0026600Y0267524D01*
X0016600Y0267524D01*
X0013606Y0272020D02*
X0011200Y0272020D01*
X0011200Y0273218D02*
X0013410Y0273218D01*
X0012211Y0274417D02*
X0011200Y0274417D01*
X0011200Y0275615D02*
X0011654Y0275615D01*
X0011300Y0276814D02*
X0011200Y0276814D01*
X0011200Y0278012D02*
X0011300Y0278012D01*
X0011200Y0279211D02*
X0011562Y0279211D01*
X0011200Y0280410D02*
X0012059Y0280410D01*
X0011200Y0281608D02*
X0013189Y0281608D01*
X0011200Y0282807D02*
X0015505Y0282807D01*
X0017695Y0282807D02*
X0107661Y0282807D01*
X0108444Y0284005D02*
X0011200Y0284005D01*
X0016600Y0277524D02*
X0026600Y0277524D01*
X0041600Y0262524D01*
X0041600Y0152524D01*
X0056600Y0137524D01*
X0076600Y0137524D01*
X0071615Y0129397D02*
X0020880Y0129397D01*
X0019664Y0128199D02*
X0072814Y0128199D01*
X0074012Y0127000D02*
X0019619Y0127000D01*
X0020817Y0125802D02*
X0075211Y0125802D01*
X0076409Y0124603D02*
X0021475Y0124603D01*
X0021900Y0123405D02*
X0077608Y0123405D01*
X0078806Y0122206D02*
X0021900Y0122206D01*
X0021709Y0121008D02*
X0080005Y0121008D01*
X0081203Y0119809D02*
X0021212Y0119809D01*
X0020182Y0118610D02*
X0082402Y0118610D01*
X0083600Y0117412D02*
X0018648Y0117412D01*
X0020405Y0116213D02*
X0084799Y0116213D01*
X0085997Y0115015D02*
X0021305Y0115015D01*
X0021801Y0113816D02*
X0087196Y0113816D01*
X0088394Y0112618D02*
X0021900Y0112618D01*
X0021879Y0111419D02*
X0089400Y0111419D01*
X0089400Y0110221D02*
X0021383Y0110221D01*
X0020594Y0109022D02*
X0089400Y0109022D01*
X0089400Y0107824D02*
X0019103Y0107824D01*
X0019994Y0106625D02*
X0089400Y0106625D01*
X0089400Y0105427D02*
X0021134Y0105427D01*
X0021631Y0104228D02*
X0089400Y0104228D01*
X0089400Y0103030D02*
X0021900Y0103030D01*
X0021900Y0101831D02*
X0049402Y0101831D01*
X0049695Y0102124D02*
X0047000Y0099429D01*
X0047000Y0095618D01*
X0049695Y0092924D01*
X0053505Y0092924D01*
X0056200Y0095618D01*
X0056200Y0099429D01*
X0053505Y0102124D01*
X0049695Y0102124D01*
X0048204Y0100633D02*
X0038194Y0100633D01*
X0039578Y0099434D02*
X0047005Y0099434D01*
X0047000Y0098236D02*
X0040075Y0098236D01*
X0040083Y0097037D02*
X0047000Y0097037D01*
X0047000Y0095839D02*
X0039672Y0095839D01*
X0038642Y0094640D02*
X0047978Y0094640D01*
X0049176Y0093442D02*
X0028793Y0093442D01*
X0027595Y0094640D02*
X0034558Y0094640D01*
X0036600Y0097524D02*
X0021600Y0097524D01*
X0036600Y0082524D01*
X0036600Y0062524D01*
X0051600Y0051899D01*
X0055678Y0057486D02*
X0047517Y0057486D01*
X0045825Y0058685D02*
X0055181Y0058685D01*
X0054685Y0059883D02*
X0044133Y0059883D01*
X0042441Y0061082D02*
X0054638Y0061082D01*
X0054638Y0062280D02*
X0040749Y0062280D01*
X0039057Y0063479D02*
X0044828Y0063479D01*
X0043669Y0064677D02*
X0038800Y0064677D01*
X0038800Y0065876D02*
X0043172Y0065876D01*
X0042913Y0067074D02*
X0038800Y0067074D01*
X0038800Y0068273D02*
X0042913Y0068273D01*
X0043296Y0069472D02*
X0038800Y0069472D01*
X0038800Y0070670D02*
X0043929Y0070670D01*
X0045128Y0071869D02*
X0038800Y0071869D01*
X0038800Y0073067D02*
X0063034Y0073067D01*
X0063490Y0074266D02*
X0038800Y0074266D01*
X0038800Y0075464D02*
X0064348Y0075464D01*
X0066077Y0076663D02*
X0038800Y0076663D01*
X0038800Y0077861D02*
X0100050Y0077861D01*
X0098452Y0076663D02*
X0077123Y0076663D01*
X0072181Y0076663D02*
X0071019Y0076663D01*
X0071019Y0075464D02*
X0072181Y0075464D01*
X0072181Y0074266D02*
X0071019Y0074266D01*
X0071019Y0073067D02*
X0072181Y0073067D01*
X0071019Y0071869D02*
X0058072Y0071869D01*
X0059271Y0070670D02*
X0063048Y0070670D01*
X0063521Y0069472D02*
X0059904Y0069472D01*
X0063156Y0068273D02*
X0064409Y0068273D01*
X0065753Y0067074D02*
X0066260Y0067074D01*
X0058138Y0044303D02*
X0097228Y0044303D01*
X0098826Y0043104D02*
X0059336Y0043104D01*
X0045062Y0044303D02*
X0011200Y0044303D01*
X0011200Y0045501D02*
X0095511Y0045501D01*
X0101365Y0046700D02*
X0152870Y0046700D01*
X0154007Y0045501D02*
X0102963Y0045501D01*
X0106600Y0051899D02*
X0126600Y0052524D01*
X0125729Y0050295D02*
X0149898Y0050295D01*
X0161600Y0051899D02*
X0151600Y0062524D01*
X0151600Y0072524D01*
X0156453Y0074266D02*
X0173490Y0074266D01*
X0174348Y0075464D02*
X0157652Y0075464D01*
X0158850Y0076663D02*
X0176077Y0076663D01*
X0181019Y0076663D02*
X0182181Y0076663D01*
X0182181Y0075464D02*
X0181019Y0075464D01*
X0181019Y0074266D02*
X0182181Y0074266D01*
X0182181Y0073067D02*
X0181019Y0073067D01*
X0181019Y0071869D02*
X0168072Y0071869D01*
X0161247Y0079060D02*
X0189400Y0079060D01*
X0189400Y0080258D02*
X0162446Y0080258D01*
X0163644Y0081457D02*
X0189400Y0081457D01*
X0189400Y0082655D02*
X0164843Y0082655D01*
X0166041Y0083854D02*
X0189400Y0083854D01*
X0189400Y0085052D02*
X0167240Y0085052D01*
X0168438Y0086251D02*
X0189400Y0086251D01*
X0189400Y0087449D02*
X0169637Y0087449D01*
X0170835Y0088648D02*
X0189400Y0088648D01*
X0189400Y0089846D02*
X0172034Y0089846D01*
X0173232Y0091045D02*
X0189400Y0091045D01*
X0189400Y0092243D02*
X0174431Y0092243D01*
X0175629Y0093442D02*
X0189400Y0093442D01*
X0189400Y0094640D02*
X0176828Y0094640D01*
X0178026Y0095839D02*
X0189400Y0095839D01*
X0189400Y0097037D02*
X0179225Y0097037D01*
X0180423Y0098236D02*
X0189400Y0098236D01*
X0189400Y0099434D02*
X0181622Y0099434D01*
X0182820Y0100633D02*
X0189400Y0100633D01*
X0189400Y0101831D02*
X0184019Y0101831D01*
X0185217Y0103030D02*
X0189400Y0103030D01*
X0189400Y0104228D02*
X0186416Y0104228D01*
X0187615Y0105427D02*
X0189400Y0105427D01*
X0189400Y0106625D02*
X0188800Y0106625D01*
X0188800Y0107824D02*
X0189400Y0107824D01*
X0189400Y0109022D02*
X0188800Y0109022D01*
X0188800Y0110221D02*
X0189400Y0110221D01*
X0189400Y0111419D02*
X0188800Y0111419D01*
X0188800Y0112618D02*
X0189400Y0112618D01*
X0189400Y0113816D02*
X0188800Y0113816D01*
X0188800Y0115015D02*
X0189400Y0115015D01*
X0189400Y0116213D02*
X0188800Y0116213D01*
X0188800Y0117412D02*
X0189400Y0117412D01*
X0189400Y0118610D02*
X0188800Y0118610D01*
X0188800Y0119809D02*
X0189400Y0119809D01*
X0189400Y0121008D02*
X0188800Y0121008D01*
X0188800Y0122206D02*
X0189400Y0122206D01*
X0189400Y0123405D02*
X0188800Y0123405D01*
X0188800Y0124603D02*
X0189400Y0124603D01*
X0189400Y0125802D02*
X0188800Y0125802D01*
X0188800Y0127000D02*
X0189400Y0127000D01*
X0189400Y0128199D02*
X0188800Y0128199D01*
X0188800Y0129397D02*
X0189400Y0129397D01*
X0189400Y0130596D02*
X0188800Y0130596D01*
X0188800Y0131794D02*
X0189400Y0131794D01*
X0189400Y0132993D02*
X0188800Y0132993D01*
X0188800Y0134191D02*
X0189400Y0134191D01*
X0189400Y0135390D02*
X0188800Y0135390D01*
X0188800Y0136588D02*
X0189400Y0136588D01*
X0189400Y0137787D02*
X0188800Y0137787D01*
X0188800Y0138985D02*
X0189400Y0138985D01*
X0189400Y0140184D02*
X0188800Y0140184D01*
X0188800Y0141382D02*
X0189400Y0141382D01*
X0189400Y0142581D02*
X0188800Y0142581D01*
X0188800Y0143779D02*
X0189400Y0143779D01*
X0189400Y0144978D02*
X0188800Y0144978D01*
X0188800Y0146176D02*
X0189400Y0146176D01*
X0189400Y0147375D02*
X0188800Y0147375D01*
X0188800Y0148573D02*
X0189400Y0148573D01*
X0189400Y0149772D02*
X0188800Y0149772D01*
X0188800Y0150970D02*
X0189400Y0150970D01*
X0189400Y0152169D02*
X0188800Y0152169D01*
X0188800Y0153367D02*
X0189400Y0153367D01*
X0189400Y0154566D02*
X0188800Y0154566D01*
X0188800Y0155764D02*
X0189400Y0155764D01*
X0189400Y0156963D02*
X0188800Y0156963D01*
X0188800Y0158161D02*
X0189400Y0158161D01*
X0189400Y0159360D02*
X0188800Y0159360D01*
X0188800Y0160558D02*
X0189400Y0160558D01*
X0189400Y0161757D02*
X0188800Y0161757D01*
X0188800Y0162955D02*
X0189400Y0162955D01*
X0189400Y0164154D02*
X0188800Y0164154D01*
X0188800Y0165352D02*
X0189400Y0165352D01*
X0189400Y0166551D02*
X0188800Y0166551D01*
X0188800Y0167749D02*
X0189400Y0167749D01*
X0189400Y0168948D02*
X0188800Y0168948D01*
X0188800Y0170146D02*
X0189400Y0170146D01*
X0189400Y0171345D02*
X0188800Y0171345D01*
X0188800Y0172543D02*
X0189400Y0172543D01*
X0189400Y0173742D02*
X0188800Y0173742D01*
X0188800Y0174941D02*
X0189400Y0174941D01*
X0189400Y0176139D02*
X0188800Y0176139D01*
X0188800Y0177338D02*
X0189400Y0177338D01*
X0189400Y0178536D02*
X0188800Y0178536D01*
X0188800Y0179735D02*
X0189400Y0179735D01*
X0189400Y0180933D02*
X0188800Y0180933D01*
X0188800Y0182132D02*
X0189400Y0182132D01*
X0189400Y0183330D02*
X0188800Y0183330D01*
X0188800Y0184529D02*
X0189400Y0184529D01*
X0189400Y0185727D02*
X0188800Y0185727D01*
X0188800Y0186926D02*
X0189400Y0186926D01*
X0189400Y0188124D02*
X0188800Y0188124D01*
X0188800Y0189323D02*
X0189400Y0189323D01*
X0189400Y0190521D02*
X0188800Y0190521D01*
X0188800Y0191720D02*
X0189400Y0191720D01*
X0189400Y0192918D02*
X0188800Y0192918D01*
X0188800Y0194117D02*
X0189400Y0194117D01*
X0189400Y0195315D02*
X0188800Y0195315D01*
X0188800Y0196514D02*
X0189400Y0196514D01*
X0189400Y0197712D02*
X0188800Y0197712D01*
X0188800Y0198911D02*
X0189400Y0198911D01*
X0189400Y0200109D02*
X0188800Y0200109D01*
X0188800Y0201308D02*
X0189400Y0201308D01*
X0189400Y0202506D02*
X0188800Y0202506D01*
X0188800Y0203705D02*
X0189400Y0203705D01*
X0189400Y0204903D02*
X0188800Y0204903D01*
X0188800Y0206102D02*
X0189400Y0206102D01*
X0189400Y0207300D02*
X0188800Y0207300D01*
X0188800Y0208499D02*
X0189400Y0208499D01*
X0189400Y0209697D02*
X0188800Y0209697D01*
X0188800Y0210896D02*
X0189400Y0210896D01*
X0189400Y0212094D02*
X0188800Y0212094D01*
X0188800Y0213293D02*
X0189400Y0213293D01*
X0189400Y0214491D02*
X0188800Y0214491D01*
X0188800Y0215690D02*
X0189400Y0215690D01*
X0189400Y0216888D02*
X0188800Y0216888D01*
X0188800Y0218087D02*
X0189400Y0218087D01*
X0189400Y0219285D02*
X0188800Y0219285D01*
X0188800Y0220484D02*
X0189400Y0220484D01*
X0189400Y0221682D02*
X0188800Y0221682D01*
X0188800Y0222881D02*
X0189400Y0222881D01*
X0188800Y0224079D02*
X0190045Y0224079D01*
X0191243Y0225278D02*
X0188800Y0225278D01*
X0188800Y0226477D02*
X0192442Y0226477D01*
X0193640Y0227675D02*
X0189863Y0227675D01*
X0191061Y0228874D02*
X0194839Y0228874D01*
X0196037Y0230072D02*
X0192260Y0230072D01*
X0193458Y0231271D02*
X0197236Y0231271D01*
X0198434Y0232469D02*
X0194657Y0232469D01*
X0195855Y0233668D02*
X0199633Y0233668D01*
X0200831Y0234866D02*
X0197054Y0234866D01*
X0198252Y0236065D02*
X0201468Y0236065D01*
X0201300Y0237263D02*
X0199451Y0237263D01*
X0200649Y0238462D02*
X0201300Y0238462D01*
X0206600Y0237524D02*
X0191600Y0222524D01*
X0191600Y0067524D01*
X0216600Y0040024D01*
X0216600Y0051899D02*
X0196600Y0072524D01*
X0196600Y0217524D01*
X0206600Y0227524D01*
X0203785Y0212094D02*
X0198800Y0212094D01*
X0198800Y0210896D02*
X0202477Y0210896D01*
X0201764Y0209697D02*
X0198800Y0209697D01*
X0198800Y0208499D02*
X0201300Y0208499D01*
X0201300Y0207300D02*
X0198800Y0207300D01*
X0198800Y0206102D02*
X0201452Y0206102D01*
X0201949Y0204903D02*
X0198800Y0204903D01*
X0198800Y0203705D02*
X0202923Y0203705D01*
X0204784Y0202506D02*
X0198800Y0202506D01*
X0198800Y0201308D02*
X0202889Y0201308D01*
X0201969Y0200109D02*
X0198800Y0200109D01*
X0198800Y0198911D02*
X0201478Y0198911D01*
X0206200Y0195315D02*
X0207000Y0195315D01*
X0207000Y0194117D02*
X0206200Y0194117D01*
X0206200Y0192918D02*
X0207000Y0192918D01*
X0207000Y0191720D02*
X0206200Y0191720D01*
X0206200Y0190521D02*
X0207000Y0190521D01*
X0207000Y0189323D02*
X0206200Y0189323D01*
X0206200Y0188124D02*
X0207000Y0188124D01*
X0209842Y0191720D02*
X0245701Y0191720D01*
X0245701Y0192918D02*
X0209236Y0192918D01*
X0210676Y0194117D02*
X0245701Y0194117D01*
X0245701Y0195315D02*
X0211423Y0195315D01*
X0211806Y0196514D02*
X0245701Y0196514D01*
X0245701Y0190521D02*
X0210973Y0190521D01*
X0211588Y0189323D02*
X0245701Y0189323D01*
X0245701Y0188124D02*
X0211871Y0188124D01*
X0211871Y0186926D02*
X0245701Y0186926D01*
X0245701Y0185727D02*
X0211589Y0185727D01*
X0210975Y0184529D02*
X0245701Y0184529D01*
X0245701Y0183330D02*
X0209845Y0183330D01*
X0209325Y0182132D02*
X0245701Y0182132D01*
X0245701Y0180933D02*
X0210686Y0180933D01*
X0211421Y0179735D02*
X0245701Y0179735D01*
X0245701Y0178536D02*
X0211900Y0178536D01*
X0211900Y0177338D02*
X0245701Y0177338D01*
X0245701Y0176139D02*
X0211763Y0176139D01*
X0211267Y0174941D02*
X0245701Y0174941D01*
X0245701Y0173742D02*
X0210314Y0173742D01*
X0208426Y0172543D02*
X0245701Y0172543D01*
X0245701Y0171345D02*
X0210274Y0171345D01*
X0211250Y0170146D02*
X0245701Y0170146D01*
X0245701Y0168948D02*
X0211747Y0168948D01*
X0211900Y0167749D02*
X0245701Y0167749D01*
X0245701Y0166551D02*
X0211900Y0166551D01*
X0211437Y0165352D02*
X0245701Y0165352D01*
X0245701Y0164154D02*
X0210726Y0164154D01*
X0209421Y0162955D02*
X0245701Y0162955D01*
X0245701Y0161757D02*
X0209862Y0161757D01*
X0211061Y0160558D02*
X0245701Y0160558D01*
X0245701Y0159360D02*
X0211576Y0159360D01*
X0211900Y0158161D02*
X0245701Y0158161D01*
X0245701Y0156963D02*
X0211900Y0156963D01*
X0211608Y0155764D02*
X0245701Y0155764D01*
X0245701Y0154566D02*
X0211112Y0154566D01*
X0209939Y0153367D02*
X0245701Y0153367D01*
X0245701Y0152169D02*
X0209235Y0152169D01*
X0210649Y0150970D02*
X0245701Y0150970D01*
X0245701Y0149772D02*
X0211405Y0149772D01*
X0211900Y0148573D02*
X0245701Y0148573D01*
X0245701Y0147375D02*
X0211900Y0147375D01*
X0211779Y0146176D02*
X0245701Y0146176D01*
X0245701Y0144978D02*
X0211282Y0144978D01*
X0210351Y0143779D02*
X0245701Y0143779D01*
X0245701Y0142581D02*
X0208516Y0142581D01*
X0210237Y0141382D02*
X0245701Y0141382D01*
X0245701Y0140184D02*
X0211235Y0140184D01*
X0211731Y0138985D02*
X0245701Y0138985D01*
X0245701Y0137787D02*
X0211900Y0137787D01*
X0211900Y0136588D02*
X0245701Y0136588D01*
X0245701Y0135390D02*
X0211453Y0135390D01*
X0210763Y0134191D02*
X0245701Y0134191D01*
X0245701Y0132993D02*
X0209511Y0132993D01*
X0174400Y0132993D02*
X0173800Y0132993D01*
X0173800Y0134191D02*
X0174400Y0134191D01*
X0174400Y0135390D02*
X0173800Y0135390D01*
X0173800Y0136588D02*
X0174400Y0136588D01*
X0174400Y0137787D02*
X0173800Y0137787D01*
X0173800Y0138985D02*
X0174400Y0138985D01*
X0174400Y0140184D02*
X0173800Y0140184D01*
X0173800Y0141382D02*
X0174400Y0141382D01*
X0174400Y0142581D02*
X0173800Y0142581D01*
X0173800Y0143779D02*
X0174400Y0143779D01*
X0174400Y0144978D02*
X0173800Y0144978D01*
X0173800Y0146176D02*
X0174400Y0146176D01*
X0174400Y0147375D02*
X0173800Y0147375D01*
X0173800Y0148573D02*
X0174400Y0148573D01*
X0174400Y0149772D02*
X0173800Y0149772D01*
X0173800Y0150970D02*
X0174400Y0150970D01*
X0174400Y0152169D02*
X0173800Y0152169D01*
X0173800Y0153367D02*
X0174400Y0153367D01*
X0174400Y0154566D02*
X0173800Y0154566D01*
X0173800Y0155764D02*
X0174400Y0155764D01*
X0174400Y0156963D02*
X0173800Y0156963D01*
X0173800Y0158161D02*
X0174400Y0158161D01*
X0174400Y0159360D02*
X0173800Y0159360D01*
X0173800Y0160558D02*
X0174400Y0160558D01*
X0174400Y0161757D02*
X0173800Y0161757D01*
X0173800Y0162955D02*
X0174400Y0162955D01*
X0174400Y0164154D02*
X0173800Y0164154D01*
X0173800Y0165352D02*
X0174400Y0165352D01*
X0174400Y0166551D02*
X0173800Y0166551D01*
X0173800Y0167749D02*
X0174400Y0167749D01*
X0174400Y0168948D02*
X0173800Y0168948D01*
X0173800Y0170146D02*
X0174400Y0170146D01*
X0174400Y0171345D02*
X0173800Y0171345D01*
X0173800Y0172543D02*
X0174400Y0172543D01*
X0174400Y0173742D02*
X0173800Y0173742D01*
X0173800Y0174941D02*
X0174400Y0174941D01*
X0174400Y0176139D02*
X0173800Y0176139D01*
X0173800Y0177338D02*
X0174400Y0177338D01*
X0174400Y0178536D02*
X0173800Y0178536D01*
X0173800Y0179735D02*
X0174400Y0179735D01*
X0174400Y0180933D02*
X0173800Y0180933D01*
X0173800Y0182132D02*
X0174400Y0182132D01*
X0174400Y0183330D02*
X0173800Y0183330D01*
X0173800Y0184529D02*
X0174400Y0184529D01*
X0174400Y0185727D02*
X0173800Y0185727D01*
X0173800Y0186926D02*
X0174400Y0186926D01*
X0174400Y0188124D02*
X0173800Y0188124D01*
X0173800Y0189323D02*
X0174400Y0189323D01*
X0174400Y0190521D02*
X0173800Y0190521D01*
X0173800Y0191720D02*
X0174400Y0191720D01*
X0174400Y0192918D02*
X0173800Y0192918D01*
X0173800Y0194117D02*
X0174400Y0194117D01*
X0174400Y0195315D02*
X0173800Y0195315D01*
X0173800Y0196514D02*
X0174400Y0196514D01*
X0174400Y0197712D02*
X0173800Y0197712D01*
X0173800Y0198911D02*
X0174400Y0198911D01*
X0174400Y0200109D02*
X0173800Y0200109D01*
X0173800Y0201308D02*
X0174400Y0201308D01*
X0174400Y0202506D02*
X0173800Y0202506D01*
X0173800Y0203705D02*
X0174400Y0203705D01*
X0174400Y0204903D02*
X0173800Y0204903D01*
X0173800Y0206102D02*
X0174400Y0206102D01*
X0174400Y0207300D02*
X0173800Y0207300D01*
X0173800Y0208499D02*
X0174400Y0208499D01*
X0174400Y0209697D02*
X0173800Y0209697D01*
X0173800Y0210896D02*
X0174400Y0210896D01*
X0174400Y0212094D02*
X0173800Y0212094D01*
X0173800Y0213293D02*
X0174400Y0213293D01*
X0174400Y0214491D02*
X0173800Y0214491D01*
X0173800Y0215690D02*
X0174400Y0215690D01*
X0174400Y0216888D02*
X0173800Y0216888D01*
X0173800Y0218087D02*
X0174400Y0218087D01*
X0174400Y0219285D02*
X0173800Y0219285D01*
X0173800Y0220484D02*
X0174400Y0220484D01*
X0174400Y0221682D02*
X0173800Y0221682D01*
X0173800Y0222881D02*
X0174400Y0222881D01*
X0174400Y0224079D02*
X0173800Y0224079D01*
X0173800Y0225278D02*
X0174400Y0225278D01*
X0174400Y0226477D02*
X0173800Y0226477D01*
X0173800Y0227675D02*
X0174400Y0227675D01*
X0174400Y0228874D02*
X0173800Y0228874D01*
X0173800Y0230072D02*
X0174400Y0230072D01*
X0174400Y0231271D02*
X0173800Y0231271D01*
X0173800Y0232469D02*
X0174400Y0232469D01*
X0174400Y0233668D02*
X0173800Y0233668D01*
X0173800Y0234866D02*
X0174400Y0234866D01*
X0174400Y0236065D02*
X0173800Y0236065D01*
X0173800Y0237263D02*
X0174400Y0237263D01*
X0174427Y0238462D02*
X0173800Y0238462D01*
X0173800Y0239660D02*
X0175625Y0239660D01*
X0176824Y0240859D02*
X0173800Y0240859D01*
X0174245Y0242057D02*
X0178022Y0242057D01*
X0179221Y0243256D02*
X0175443Y0243256D01*
X0176642Y0244454D02*
X0180419Y0244454D01*
X0181618Y0245653D02*
X0177840Y0245653D01*
X0179039Y0246851D02*
X0182816Y0246851D01*
X0184015Y0248050D02*
X0180237Y0248050D01*
X0181436Y0249248D02*
X0185213Y0249248D01*
X0186412Y0250447D02*
X0182634Y0250447D01*
X0183833Y0251645D02*
X0187610Y0251645D01*
X0188809Y0252844D02*
X0185031Y0252844D01*
X0186230Y0254042D02*
X0190007Y0254042D01*
X0191206Y0255241D02*
X0187428Y0255241D01*
X0188627Y0256439D02*
X0192404Y0256439D01*
X0193603Y0257638D02*
X0189825Y0257638D01*
X0191024Y0258836D02*
X0194801Y0258836D01*
X0196000Y0260035D02*
X0192222Y0260035D01*
X0193421Y0261233D02*
X0197198Y0261233D01*
X0198397Y0262432D02*
X0194619Y0262432D01*
X0195818Y0263630D02*
X0199595Y0263630D01*
X0200794Y0264829D02*
X0197016Y0264829D01*
X0198215Y0266027D02*
X0201483Y0266027D01*
X0201300Y0267226D02*
X0199414Y0267226D01*
X0200612Y0268424D02*
X0201300Y0268424D01*
X0201407Y0258836D02*
X0201024Y0258836D01*
X0201300Y0257638D02*
X0199825Y0257638D01*
X0198627Y0256439D02*
X0201312Y0256439D01*
X0184801Y0258836D02*
X0043800Y0258836D01*
X0043800Y0257638D02*
X0183603Y0257638D01*
X0182404Y0256439D02*
X0043800Y0256439D01*
X0043800Y0255241D02*
X0181206Y0255241D01*
X0180007Y0254042D02*
X0043800Y0254042D01*
X0043800Y0252844D02*
X0178809Y0252844D01*
X0177610Y0251645D02*
X0043800Y0251645D01*
X0043800Y0250447D02*
X0176412Y0250447D01*
X0175213Y0249248D02*
X0043800Y0249248D01*
X0043800Y0248050D02*
X0174015Y0248050D01*
X0172816Y0246851D02*
X0043800Y0246851D01*
X0043800Y0245653D02*
X0171618Y0245653D01*
X0170419Y0244454D02*
X0043800Y0244454D01*
X0043800Y0243256D02*
X0169400Y0243256D01*
X0169400Y0242057D02*
X0043800Y0242057D01*
X0043800Y0240859D02*
X0169400Y0240859D01*
X0169400Y0239660D02*
X0043800Y0239660D01*
X0043800Y0238462D02*
X0169400Y0238462D01*
X0169400Y0237263D02*
X0043800Y0237263D01*
X0043800Y0236065D02*
X0169400Y0236065D01*
X0169400Y0234866D02*
X0043800Y0234866D01*
X0043800Y0233668D02*
X0169400Y0233668D01*
X0169400Y0232469D02*
X0043800Y0232469D01*
X0043800Y0231271D02*
X0169400Y0231271D01*
X0169400Y0230072D02*
X0043800Y0230072D01*
X0043800Y0228874D02*
X0169400Y0228874D01*
X0169400Y0227675D02*
X0043800Y0227675D01*
X0043800Y0226477D02*
X0169400Y0226477D01*
X0169400Y0225278D02*
X0043800Y0225278D01*
X0043800Y0224079D02*
X0169400Y0224079D01*
X0169400Y0222881D02*
X0043800Y0222881D01*
X0043800Y0221682D02*
X0169400Y0221682D01*
X0169400Y0220484D02*
X0043800Y0220484D01*
X0043800Y0219285D02*
X0169400Y0219285D01*
X0169400Y0218087D02*
X0043800Y0218087D01*
X0043800Y0214491D02*
X0118645Y0214491D01*
X0118149Y0213293D02*
X0043800Y0213293D01*
X0039400Y0213293D02*
X0038800Y0213293D01*
X0038800Y0214491D02*
X0039400Y0214491D01*
X0039400Y0215690D02*
X0038800Y0215690D01*
X0038800Y0216888D02*
X0039400Y0216888D01*
X0039400Y0218087D02*
X0038800Y0218087D01*
X0038800Y0219285D02*
X0039400Y0219285D01*
X0039400Y0220484D02*
X0038800Y0220484D01*
X0038800Y0221682D02*
X0039400Y0221682D01*
X0039400Y0222881D02*
X0038800Y0222881D01*
X0038800Y0224079D02*
X0039400Y0224079D01*
X0039400Y0225278D02*
X0038800Y0225278D01*
X0038800Y0226477D02*
X0039400Y0226477D01*
X0039400Y0227675D02*
X0038800Y0227675D01*
X0038800Y0228874D02*
X0039400Y0228874D01*
X0039400Y0230072D02*
X0038800Y0230072D01*
X0038800Y0231271D02*
X0039400Y0231271D01*
X0039400Y0232469D02*
X0038800Y0232469D01*
X0038800Y0233668D02*
X0039400Y0233668D01*
X0039400Y0234866D02*
X0038800Y0234866D01*
X0038800Y0236065D02*
X0039400Y0236065D01*
X0039400Y0237263D02*
X0038800Y0237263D01*
X0038800Y0238462D02*
X0039400Y0238462D01*
X0039400Y0239660D02*
X0038800Y0239660D01*
X0038800Y0240859D02*
X0039400Y0240859D01*
X0039400Y0242057D02*
X0038800Y0242057D01*
X0038800Y0243256D02*
X0039400Y0243256D01*
X0039400Y0244454D02*
X0038800Y0244454D01*
X0038800Y0245653D02*
X0039400Y0245653D01*
X0039400Y0246851D02*
X0038800Y0246851D01*
X0038800Y0248050D02*
X0039400Y0248050D01*
X0039400Y0249248D02*
X0038800Y0249248D01*
X0038800Y0250447D02*
X0039400Y0250447D01*
X0039400Y0251645D02*
X0038800Y0251645D01*
X0038800Y0252844D02*
X0039400Y0252844D01*
X0039400Y0254042D02*
X0038800Y0254042D01*
X0038800Y0255241D02*
X0039400Y0255241D01*
X0039400Y0256439D02*
X0038800Y0256439D01*
X0038800Y0257638D02*
X0039400Y0257638D01*
X0039400Y0258836D02*
X0038399Y0258836D01*
X0039400Y0260035D02*
X0037200Y0260035D01*
X0036002Y0261233D02*
X0039400Y0261233D01*
X0038580Y0262432D02*
X0034803Y0262432D01*
X0033605Y0263630D02*
X0037382Y0263630D01*
X0036183Y0264829D02*
X0032406Y0264829D01*
X0031208Y0266027D02*
X0034985Y0266027D01*
X0033786Y0267226D02*
X0030009Y0267226D01*
X0028810Y0268424D02*
X0032588Y0268424D01*
X0031389Y0269623D02*
X0027612Y0269623D01*
X0028992Y0272020D02*
X0019594Y0272020D01*
X0019790Y0273218D02*
X0027794Y0273218D01*
X0026595Y0274417D02*
X0020989Y0274417D01*
X0020798Y0270821D02*
X0030191Y0270821D01*
X0032818Y0274417D02*
X0074999Y0274417D01*
X0074627Y0274571D02*
X0075907Y0274041D01*
X0077293Y0274041D01*
X0078573Y0274571D01*
X0079552Y0275551D01*
X0080083Y0276831D01*
X0080083Y0278216D01*
X0079552Y0279496D01*
X0078573Y0280476D01*
X0077293Y0281006D01*
X0075907Y0281006D01*
X0074627Y0280476D01*
X0073648Y0279496D01*
X0073117Y0278216D01*
X0073117Y0276831D01*
X0073648Y0275551D01*
X0074627Y0274571D01*
X0073621Y0275615D02*
X0031619Y0275615D01*
X0030421Y0276814D02*
X0073124Y0276814D01*
X0073117Y0278012D02*
X0029222Y0278012D01*
X0028024Y0279211D02*
X0073529Y0279211D01*
X0074561Y0280410D02*
X0021141Y0280410D01*
X0020011Y0281608D02*
X0105563Y0281608D01*
X0103466Y0280410D02*
X0078639Y0280410D01*
X0079671Y0279211D02*
X0101369Y0279211D01*
X0099271Y0278012D02*
X0080083Y0278012D01*
X0080076Y0276814D02*
X0097174Y0276814D01*
X0095077Y0275615D02*
X0079579Y0275615D01*
X0078201Y0274417D02*
X0092979Y0274417D01*
X0090882Y0273218D02*
X0034016Y0273218D01*
X0035215Y0272020D02*
X0088784Y0272020D01*
X0086687Y0270821D02*
X0036413Y0270821D01*
X0037612Y0269623D02*
X0084590Y0269623D01*
X0082492Y0268424D02*
X0038810Y0268424D01*
X0040009Y0267226D02*
X0080395Y0267226D01*
X0078297Y0266027D02*
X0041208Y0266027D01*
X0042406Y0264829D02*
X0073980Y0264829D01*
X0073289Y0263630D02*
X0043605Y0263630D01*
X0043800Y0262432D02*
X0073117Y0262432D01*
X0073365Y0261233D02*
X0043800Y0261233D01*
X0043800Y0260035D02*
X0074164Y0260035D01*
X0039400Y0212094D02*
X0038800Y0212094D01*
X0038800Y0210896D02*
X0039400Y0210896D01*
X0039400Y0209697D02*
X0038800Y0209697D01*
X0038800Y0208499D02*
X0039400Y0208499D01*
X0039400Y0207300D02*
X0038800Y0207300D01*
X0038800Y0206102D02*
X0039400Y0206102D01*
X0034400Y0206102D02*
X0021748Y0206102D01*
X0021900Y0207300D02*
X0034400Y0207300D01*
X0034400Y0208499D02*
X0021900Y0208499D01*
X0021436Y0209697D02*
X0034400Y0209697D01*
X0034400Y0210896D02*
X0020723Y0210896D01*
X0019415Y0212094D02*
X0034400Y0212094D01*
X0034400Y0213293D02*
X0019865Y0213293D01*
X0021063Y0214491D02*
X0034400Y0214491D01*
X0034400Y0215690D02*
X0021577Y0215690D01*
X0021900Y0216888D02*
X0034400Y0216888D01*
X0034400Y0218087D02*
X0021900Y0218087D01*
X0021607Y0219285D02*
X0034400Y0219285D01*
X0034400Y0220484D02*
X0021110Y0220484D01*
X0019936Y0221682D02*
X0034400Y0221682D01*
X0034400Y0222881D02*
X0019241Y0222881D01*
X0020651Y0224079D02*
X0034400Y0224079D01*
X0034400Y0225278D02*
X0021406Y0225278D01*
X0021900Y0226477D02*
X0034400Y0226477D01*
X0034400Y0227675D02*
X0021900Y0227675D01*
X0021778Y0228874D02*
X0034400Y0228874D01*
X0034400Y0230072D02*
X0021281Y0230072D01*
X0020348Y0231271D02*
X0034400Y0231271D01*
X0034400Y0232469D02*
X0018510Y0232469D01*
X0020239Y0233668D02*
X0034400Y0233668D01*
X0034400Y0234866D02*
X0021236Y0234866D01*
X0021732Y0236065D02*
X0034400Y0236065D01*
X0034400Y0237263D02*
X0021900Y0237263D01*
X0021900Y0238462D02*
X0034400Y0238462D01*
X0034400Y0239660D02*
X0021452Y0239660D01*
X0020760Y0240859D02*
X0034400Y0240859D01*
X0034400Y0242057D02*
X0019505Y0242057D01*
X0019827Y0243256D02*
X0034400Y0243256D01*
X0034400Y0244454D02*
X0021026Y0244454D01*
X0021562Y0245653D02*
X0034400Y0245653D01*
X0034400Y0246851D02*
X0021900Y0246851D01*
X0021900Y0248050D02*
X0034400Y0248050D01*
X0034400Y0249248D02*
X0021622Y0249248D01*
X0021126Y0250447D02*
X0034400Y0250447D01*
X0034400Y0251645D02*
X0019974Y0251645D01*
X0019151Y0252844D02*
X0034400Y0252844D01*
X0034400Y0254042D02*
X0020614Y0254042D01*
X0021391Y0255241D02*
X0034400Y0255241D01*
X0034400Y0256439D02*
X0021888Y0256439D01*
X0021900Y0257638D02*
X0033375Y0257638D01*
X0032176Y0258836D02*
X0021793Y0258836D01*
X0021296Y0260035D02*
X0030978Y0260035D01*
X0029779Y0261233D02*
X0020386Y0261233D01*
X0018600Y0262432D02*
X0028580Y0262432D01*
X0027382Y0263630D02*
X0020202Y0263630D01*
X0021220Y0264829D02*
X0026183Y0264829D01*
X0014600Y0262432D02*
X0011200Y0262432D01*
X0011200Y0263630D02*
X0012998Y0263630D01*
X0011980Y0264829D02*
X0011200Y0264829D01*
X0011200Y0266027D02*
X0011483Y0266027D01*
X0011300Y0267226D02*
X0011200Y0267226D01*
X0011200Y0268424D02*
X0011300Y0268424D01*
X0011200Y0269623D02*
X0011733Y0269623D01*
X0011200Y0270821D02*
X0012402Y0270821D01*
X0012814Y0261233D02*
X0011200Y0261233D01*
X0011200Y0260035D02*
X0011904Y0260035D01*
X0011407Y0258836D02*
X0011200Y0258836D01*
X0011200Y0257638D02*
X0011300Y0257638D01*
X0011312Y0256439D02*
X0011200Y0256439D01*
X0011200Y0255241D02*
X0011809Y0255241D01*
X0011200Y0254042D02*
X0012586Y0254042D01*
X0011200Y0252844D02*
X0014049Y0252844D01*
X0013226Y0251645D02*
X0011200Y0251645D01*
X0011200Y0250447D02*
X0012074Y0250447D01*
X0011578Y0249248D02*
X0011200Y0249248D01*
X0011200Y0248050D02*
X0011300Y0248050D01*
X0011300Y0246851D02*
X0011200Y0246851D01*
X0011200Y0245653D02*
X0011638Y0245653D01*
X0011200Y0244454D02*
X0012174Y0244454D01*
X0011200Y0243256D02*
X0013373Y0243256D01*
X0013695Y0242057D02*
X0011200Y0242057D01*
X0011200Y0240859D02*
X0012440Y0240859D01*
X0011748Y0239660D02*
X0011200Y0239660D01*
X0011200Y0238462D02*
X0011300Y0238462D01*
X0011300Y0237263D02*
X0011200Y0237263D01*
X0011200Y0236065D02*
X0011468Y0236065D01*
X0011200Y0234866D02*
X0011964Y0234866D01*
X0011200Y0233668D02*
X0012961Y0233668D01*
X0014690Y0232469D02*
X0011200Y0232469D01*
X0011200Y0231271D02*
X0012852Y0231271D01*
X0011919Y0230072D02*
X0011200Y0230072D01*
X0011200Y0228874D02*
X0011422Y0228874D01*
X0011300Y0227675D02*
X0011200Y0227675D01*
X0011200Y0226477D02*
X0011300Y0226477D01*
X0011200Y0225278D02*
X0011793Y0225278D01*
X0011200Y0224079D02*
X0012549Y0224079D01*
X0011200Y0222881D02*
X0013959Y0222881D01*
X0013264Y0221682D02*
X0011200Y0221682D01*
X0011200Y0220484D02*
X0012090Y0220484D01*
X0011593Y0219285D02*
X0011200Y0219285D01*
X0011200Y0218087D02*
X0011300Y0218087D01*
X0011300Y0216888D02*
X0011200Y0216888D01*
X0011200Y0215690D02*
X0011623Y0215690D01*
X0011200Y0214491D02*
X0012137Y0214491D01*
X0011200Y0213293D02*
X0013335Y0213293D01*
X0013785Y0212094D02*
X0011200Y0212094D01*
X0011200Y0210896D02*
X0012477Y0210896D01*
X0011764Y0209697D02*
X0011200Y0209697D01*
X0011200Y0208499D02*
X0011300Y0208499D01*
X0011300Y0207300D02*
X0011200Y0207300D01*
X0011200Y0206102D02*
X0011452Y0206102D01*
X0011200Y0204903D02*
X0011949Y0204903D01*
X0011200Y0203705D02*
X0012923Y0203705D01*
X0011200Y0202506D02*
X0014863Y0202506D01*
X0011200Y0201308D02*
X0034400Y0201308D01*
X0034400Y0202506D02*
X0018337Y0202506D01*
X0020276Y0203705D02*
X0034400Y0203705D01*
X0034400Y0204903D02*
X0021251Y0204903D01*
X0011200Y0200109D02*
X0034400Y0200109D01*
X0034400Y0198911D02*
X0011200Y0198911D01*
X0016600Y0102524D02*
X0021600Y0097524D01*
X0021602Y0100633D02*
X0035006Y0100633D01*
X0029992Y0092243D02*
X0138208Y0092243D01*
X0137010Y0091045D02*
X0031190Y0091045D01*
X0032389Y0089846D02*
X0135811Y0089846D01*
X0138438Y0086251D02*
X0142216Y0086251D01*
X0143414Y0087449D02*
X0139637Y0087449D01*
X0140835Y0088648D02*
X0144613Y0088648D01*
X0145811Y0089846D02*
X0142034Y0089846D01*
X0143232Y0091045D02*
X0147010Y0091045D01*
X0148208Y0092243D02*
X0144431Y0092243D01*
X0145629Y0093442D02*
X0149407Y0093442D01*
X0150605Y0094640D02*
X0146828Y0094640D01*
X0148026Y0095839D02*
X0151804Y0095839D01*
X0153002Y0097037D02*
X0149225Y0097037D01*
X0150423Y0098236D02*
X0154201Y0098236D01*
X0155399Y0099434D02*
X0151622Y0099434D01*
X0152820Y0100633D02*
X0156598Y0100633D01*
X0157796Y0101831D02*
X0154019Y0101831D01*
X0155217Y0103030D02*
X0158995Y0103030D01*
X0160193Y0104228D02*
X0156416Y0104228D01*
X0157615Y0105427D02*
X0161392Y0105427D01*
X0162590Y0106625D02*
X0158813Y0106625D01*
X0160012Y0107824D02*
X0163789Y0107824D01*
X0164988Y0109022D02*
X0161210Y0109022D01*
X0162409Y0110221D02*
X0166186Y0110221D01*
X0167385Y0111419D02*
X0163607Y0111419D01*
X0164806Y0112618D02*
X0168583Y0112618D01*
X0169782Y0113816D02*
X0166004Y0113816D01*
X0167203Y0115015D02*
X0170980Y0115015D01*
X0172179Y0116213D02*
X0168401Y0116213D01*
X0169600Y0117412D02*
X0173377Y0117412D01*
X0174400Y0118610D02*
X0170798Y0118610D01*
X0171997Y0119809D02*
X0174400Y0119809D01*
X0174400Y0121008D02*
X0173195Y0121008D01*
X0173800Y0122206D02*
X0174400Y0122206D01*
X0174400Y0123405D02*
X0173800Y0123405D01*
X0173800Y0124603D02*
X0174400Y0124603D01*
X0174400Y0125802D02*
X0173800Y0125802D01*
X0173800Y0127000D02*
X0174400Y0127000D01*
X0174400Y0128199D02*
X0173800Y0128199D01*
X0173800Y0129397D02*
X0174400Y0129397D01*
X0174400Y0130596D02*
X0173800Y0130596D01*
X0173800Y0131794D02*
X0174400Y0131794D01*
X0169400Y0160558D02*
X0139537Y0160558D01*
X0140745Y0161757D02*
X0169400Y0161757D01*
X0169400Y0162955D02*
X0141386Y0162955D01*
X0141673Y0164154D02*
X0169400Y0164154D01*
X0169400Y0165352D02*
X0141665Y0165352D01*
X0141370Y0166551D02*
X0169400Y0166551D01*
X0169400Y0167749D02*
X0140709Y0167749D01*
X0139469Y0168948D02*
X0169400Y0168948D01*
X0169400Y0170146D02*
X0097334Y0170146D01*
X0096136Y0168948D02*
X0133731Y0168948D01*
X0133927Y0169090D02*
X0133278Y0168618D01*
X0132710Y0168051D01*
X0132238Y0167401D01*
X0131874Y0166686D01*
X0131626Y0165923D01*
X0131500Y0165130D01*
X0131500Y0165014D01*
X0136314Y0165014D01*
X0136314Y0169828D01*
X0136199Y0169828D01*
X0135406Y0169703D01*
X0134642Y0169455D01*
X0133927Y0169090D01*
X0132491Y0167749D02*
X0095083Y0167749D01*
X0094967Y0166551D02*
X0131830Y0166551D01*
X0131535Y0165352D02*
X0094354Y0165352D01*
X0091600Y0167524D02*
X0136600Y0212524D01*
X0135143Y0215690D02*
X0123057Y0215690D01*
X0124555Y0214491D02*
X0133645Y0214491D01*
X0133149Y0213293D02*
X0125051Y0213293D01*
X0125083Y0212094D02*
X0133059Y0212094D01*
X0131861Y0210896D02*
X0124695Y0210896D01*
X0123699Y0209697D02*
X0130662Y0209697D01*
X0129464Y0208499D02*
X0121331Y0208499D01*
X0120433Y0207300D02*
X0128265Y0207300D01*
X0127067Y0206102D02*
X0119534Y0206102D01*
X0118635Y0204903D02*
X0125868Y0204903D01*
X0124670Y0203705D02*
X0117736Y0203705D01*
X0116837Y0202506D02*
X0123471Y0202506D01*
X0122273Y0201308D02*
X0115938Y0201308D01*
X0115039Y0200109D02*
X0121074Y0200109D01*
X0119876Y0198911D02*
X0114140Y0198911D01*
X0104295Y0204903D02*
X0093905Y0204903D01*
X0105724Y0178536D02*
X0169400Y0178536D01*
X0169400Y0177338D02*
X0104525Y0177338D01*
X0103327Y0176139D02*
X0169400Y0176139D01*
X0169400Y0174941D02*
X0102128Y0174941D01*
X0100930Y0173742D02*
X0169400Y0173742D01*
X0169400Y0172543D02*
X0099731Y0172543D01*
X0098533Y0171345D02*
X0169400Y0171345D01*
X0136886Y0168948D02*
X0136314Y0168948D01*
X0136314Y0167749D02*
X0136886Y0167749D01*
X0136886Y0166551D02*
X0136314Y0166551D01*
X0136314Y0165352D02*
X0136886Y0165352D01*
X0136886Y0164154D02*
X0136314Y0164154D01*
X0136314Y0162955D02*
X0136886Y0162955D01*
X0136886Y0161757D02*
X0136314Y0161757D01*
X0136314Y0160558D02*
X0136886Y0160558D01*
X0103505Y0102124D02*
X0099695Y0102124D01*
X0097000Y0099429D01*
X0097000Y0095618D01*
X0099695Y0092924D01*
X0103505Y0092924D01*
X0106200Y0095618D01*
X0106200Y0099429D01*
X0103505Y0102124D01*
X0103798Y0101831D02*
X0147796Y0101831D01*
X0146598Y0100633D02*
X0104996Y0100633D01*
X0106195Y0099434D02*
X0145399Y0099434D01*
X0144201Y0098236D02*
X0106200Y0098236D01*
X0106200Y0097037D02*
X0143002Y0097037D01*
X0141804Y0095839D02*
X0106200Y0095839D01*
X0105222Y0094640D02*
X0140605Y0094640D01*
X0139407Y0093442D02*
X0104023Y0093442D01*
X0099176Y0093442D02*
X0094023Y0093442D01*
X0095222Y0094640D02*
X0097978Y0094640D01*
X0097000Y0095839D02*
X0096200Y0095839D01*
X0096200Y0097037D02*
X0097000Y0097037D01*
X0097000Y0098236D02*
X0096200Y0098236D01*
X0096195Y0099434D02*
X0097005Y0099434D01*
X0089400Y0101831D02*
X0083798Y0101831D01*
X0083505Y0102124D02*
X0079695Y0102124D01*
X0077000Y0099429D01*
X0077000Y0095618D01*
X0079695Y0092924D01*
X0083505Y0092924D01*
X0086200Y0095618D01*
X0086200Y0099429D01*
X0083505Y0102124D01*
X0084996Y0100633D02*
X0088204Y0100633D01*
X0087005Y0099434D02*
X0086195Y0099434D01*
X0086200Y0098236D02*
X0087000Y0098236D01*
X0087000Y0097037D02*
X0086200Y0097037D01*
X0086200Y0095839D02*
X0087000Y0095839D01*
X0087978Y0094640D02*
X0085222Y0094640D01*
X0084023Y0093442D02*
X0089176Y0093442D01*
X0079176Y0093442D02*
X0074023Y0093442D01*
X0073505Y0092924D02*
X0076200Y0095618D01*
X0076200Y0097124D01*
X0072000Y0097124D01*
X0072000Y0097924D01*
X0071200Y0097924D01*
X0071200Y0102124D01*
X0069695Y0102124D01*
X0067000Y0099429D01*
X0067000Y0097924D01*
X0071200Y0097924D01*
X0071200Y0097124D01*
X0067000Y0097124D01*
X0067000Y0095618D01*
X0069695Y0092924D01*
X0071200Y0092924D01*
X0071200Y0097124D01*
X0072000Y0097124D01*
X0072000Y0092924D01*
X0073505Y0092924D01*
X0072000Y0093442D02*
X0071200Y0093442D01*
X0071200Y0094640D02*
X0072000Y0094640D01*
X0072000Y0095839D02*
X0071200Y0095839D01*
X0071200Y0097037D02*
X0072000Y0097037D01*
X0072000Y0097924D02*
X0076200Y0097924D01*
X0076200Y0099429D01*
X0073505Y0102124D01*
X0072000Y0102124D01*
X0072000Y0097924D01*
X0072000Y0098236D02*
X0071200Y0098236D01*
X0071200Y0099434D02*
X0072000Y0099434D01*
X0072000Y0100633D02*
X0071200Y0100633D01*
X0071200Y0101831D02*
X0072000Y0101831D01*
X0073798Y0101831D02*
X0079402Y0101831D01*
X0078204Y0100633D02*
X0074996Y0100633D01*
X0076195Y0099434D02*
X0077005Y0099434D01*
X0077000Y0098236D02*
X0076200Y0098236D01*
X0076200Y0097037D02*
X0077000Y0097037D01*
X0077000Y0095839D02*
X0076200Y0095839D01*
X0075222Y0094640D02*
X0077978Y0094640D01*
X0069176Y0093442D02*
X0064023Y0093442D01*
X0063505Y0092924D02*
X0066200Y0095618D01*
X0066200Y0099429D01*
X0063505Y0102124D01*
X0059695Y0102124D01*
X0057000Y0099429D01*
X0057000Y0095618D01*
X0059695Y0092924D01*
X0063505Y0092924D01*
X0065222Y0094640D02*
X0067978Y0094640D01*
X0067000Y0095839D02*
X0066200Y0095839D01*
X0066200Y0097037D02*
X0067000Y0097037D01*
X0067000Y0098236D02*
X0066200Y0098236D01*
X0066195Y0099434D02*
X0067005Y0099434D01*
X0068204Y0100633D02*
X0064996Y0100633D01*
X0063798Y0101831D02*
X0069402Y0101831D01*
X0059402Y0101831D02*
X0053798Y0101831D01*
X0054996Y0100633D02*
X0058204Y0100633D01*
X0057005Y0099434D02*
X0056195Y0099434D01*
X0056200Y0098236D02*
X0057000Y0098236D01*
X0057000Y0097037D02*
X0056200Y0097037D01*
X0056200Y0095839D02*
X0057000Y0095839D01*
X0057978Y0094640D02*
X0055222Y0094640D01*
X0054023Y0093442D02*
X0059176Y0093442D01*
X0038381Y0083854D02*
X0108040Y0083854D01*
X0109638Y0085052D02*
X0037183Y0085052D01*
X0035984Y0086251D02*
X0111236Y0086251D01*
X0112834Y0087449D02*
X0034786Y0087449D01*
X0033587Y0088648D02*
X0114432Y0088648D01*
X0116971Y0085052D02*
X0141017Y0085052D01*
X0139819Y0083854D02*
X0115373Y0083854D01*
X0113775Y0082655D02*
X0139400Y0082655D01*
X0139400Y0081457D02*
X0112177Y0081457D01*
X0110579Y0080258D02*
X0139400Y0080258D01*
X0139400Y0079060D02*
X0108981Y0079060D01*
X0107383Y0077861D02*
X0139400Y0077861D01*
X0139400Y0076663D02*
X0132123Y0076663D01*
X0132118Y0076665D02*
X0131348Y0076915D01*
X0130548Y0077042D01*
X0127181Y0077042D01*
X0127181Y0072480D01*
X0135259Y0072480D01*
X0135160Y0073103D01*
X0134910Y0073873D01*
X0134542Y0074594D01*
X0134066Y0075249D01*
X0133494Y0075822D01*
X0132839Y0076298D01*
X0132118Y0076665D01*
X0133852Y0075464D02*
X0139400Y0075464D01*
X0139400Y0074266D02*
X0134710Y0074266D01*
X0135166Y0073067D02*
X0139400Y0073067D01*
X0139400Y0071869D02*
X0127181Y0071869D01*
X0126019Y0071869D02*
X0113072Y0071869D01*
X0105785Y0076663D02*
X0121077Y0076663D01*
X0119348Y0075464D02*
X0104187Y0075464D01*
X0102589Y0074266D02*
X0118490Y0074266D01*
X0126019Y0074266D02*
X0127181Y0074266D01*
X0127181Y0075464D02*
X0126019Y0075464D01*
X0126019Y0076663D02*
X0127181Y0076663D01*
X0127181Y0073067D02*
X0126019Y0073067D01*
X0126019Y0070670D02*
X0127181Y0070670D01*
X0127181Y0069472D02*
X0126019Y0069472D01*
X0126019Y0068273D02*
X0127181Y0068273D01*
X0127181Y0067074D02*
X0126019Y0067074D01*
X0131940Y0067074D02*
X0138040Y0067074D01*
X0139238Y0068273D02*
X0133791Y0068273D01*
X0134679Y0069472D02*
X0139400Y0069472D01*
X0139400Y0070670D02*
X0135152Y0070670D01*
X0160049Y0077861D02*
X0189400Y0077861D01*
X0189400Y0076663D02*
X0187123Y0076663D01*
X0188852Y0075464D02*
X0189400Y0075464D01*
X0189400Y0068273D02*
X0188791Y0068273D01*
X0189376Y0067074D02*
X0186940Y0067074D01*
X0182181Y0067074D02*
X0181019Y0067074D01*
X0181019Y0068273D02*
X0182181Y0068273D01*
X0182181Y0069472D02*
X0181019Y0069472D01*
X0181019Y0070670D02*
X0182181Y0070670D01*
X0106442Y0082655D02*
X0038800Y0082655D01*
X0038800Y0081457D02*
X0104844Y0081457D01*
X0103246Y0080258D02*
X0038800Y0080258D01*
X0038800Y0079060D02*
X0101648Y0079060D01*
X0043864Y0043104D02*
X0011200Y0043104D01*
X0011200Y0041906D02*
X0043269Y0041906D01*
X0042913Y0040707D02*
X0011200Y0040707D01*
X0011200Y0039509D02*
X0042913Y0039509D01*
X0043199Y0038310D02*
X0011200Y0038310D01*
X0011200Y0037112D02*
X0043696Y0037112D01*
X0044893Y0035913D02*
X0011200Y0035913D01*
X0147585Y0293593D02*
X0190614Y0293593D01*
X0189140Y0294792D02*
X0149060Y0294792D01*
X0149816Y0295990D02*
X0188384Y0295990D01*
D17*
X0131600Y0312524D03*
X0111600Y0282524D03*
X0101600Y0257524D03*
X0076600Y0262524D03*
X0076600Y0277524D03*
X0121600Y0212524D03*
X0136600Y0212524D03*
X0156600Y0202524D03*
X0116600Y0147524D03*
X0096600Y0152524D03*
X0091600Y0167524D03*
X0091600Y0187524D03*
X0091600Y0207524D03*
X0106600Y0207524D03*
X0081600Y0132524D03*
X0036600Y0097524D03*
X0081600Y0052524D03*
X0136600Y0052524D03*
X0191600Y0052524D03*
M02*
